<svg width="129" height="24" viewBox="0 0 129 24" fill="none" xmlns="http://www.w3.org/2000/svg">
<g clip-path="url(#clip0_6_8326)">
<mask id="mask0_6_8326" style="mask-type:luminance" maskUnits="userSpaceOnUse" x="0" y="0" width="129" height="24">
<path d="M128.975 0H0.396484V23.9454H128.975V0Z" fill="white"/>
</mask>
<g mask="url(#mask0_6_8326)">
<path d="M62.4796 14.8605L57.6759 3.4972H55.4851V3.49868C54.9079 3.51088 54.4156 3.86504 54.2049 4.36688H54.2025L49.7666 14.8605H53.0789L53.8906 12.8311H58.2744L59.1024 14.8605H62.4796ZM54.5179 11.1594L54.5257 11.1393C54.5235 11.1463 54.5213 11.1532 54.5192 11.1602L54.5179 11.1594ZM57.3651 10.3798H55.618V10.3864C55.6008 10.3857 55.5845 10.3814 55.5668 10.3814C55.1292 10.3814 54.7544 10.638 54.5773 11.0069L54.8213 10.3798H54.8161L56.0987 7.14875L57.3651 10.3798ZM40.6527 14.8605H48.726V12.1818H42.6211V10.3798H48.0766V7.89569H42.6211V6.17482H48.6448V3.49609H40.9222V3.4972C40.1381 3.4972 39.5026 4.13065 39.5026 4.91216C39.5026 4.91993 39.5037 4.92751 39.5037 4.93527V13.7027C39.5037 13.7067 39.5026 13.7102 39.5026 13.7143C39.5026 14.3474 40.0176 14.8605 40.6527 14.8605ZM38.3591 14.8605L33.9104 8.38275L38.213 3.49609H34.4788L30.5659 8.10678V3.49609H28.8354V3.4972C28.0515 3.4972 27.416 4.13065 27.416 4.91216V13.7206H27.4166C27.4201 14.3507 27.933 14.8605 28.566 14.8605H30.5659V11.9221L31.7186 10.6395L34.5762 14.8605H38.3591Z" fill="#1B1921"/>
<path d="M68.6137 9.78292V14.8607H67.3359V3.57668H68.6137V8.58995H75.1476V3.57668H76.4251V14.8607H75.1476V9.78292H68.6137ZM87.4663 4.7373H80.5604V8.58995H86.7384V9.75076H80.5604V13.7001H87.5472V14.8607H79.2829V3.57668H87.4663V4.7373ZM100.451 14.8607H99.0767L97.7505 11.8785H91.5886L90.2464 14.8607H88.9364L94.0955 3.49609H95.2922L100.451 14.8607ZM94.6776 4.99534L92.0901 10.7502H97.2493L94.6776 4.99534ZM102.135 3.57668H103.413V13.684H109.785V14.8607H102.135V3.57668ZM114.146 14.8607H112.869V4.75357H109.068V3.57668H117.947V4.75357H114.146V14.8607ZM120.989 9.78292V14.8607H119.711V3.57668H120.989V8.58995H127.523V3.57668H128.8V14.8607H127.523V9.78292H120.989Z" fill="#1B1921"/>
<path d="M27.1992 17.8875L28.5645 20.2818V22.009H29.1683V20.2818L30.5662 17.8875H29.9296L28.8925 19.7324L27.8622 17.8875H27.1992ZM33.317 19.7683C33.2404 19.5744 33.1352 19.4117 33.0019 19.2811C32.8684 19.1502 32.7109 19.052 32.5294 18.9866C32.3476 18.9212 32.1498 18.8885 31.9354 18.8885C31.7208 18.8885 31.5218 18.9245 31.338 18.9964C31.1543 19.0683 30.9935 19.1731 30.8557 19.3105C30.7179 19.4478 30.6096 19.6169 30.5308 19.8175C30.452 20.018 30.4127 20.247 30.4127 20.5043C30.4127 20.7574 30.4509 20.9809 30.5275 21.1749C30.604 21.369 30.709 21.5324 30.8425 21.6655C30.9759 21.7986 31.1335 21.8988 31.3151 21.9664C31.4966 22.0339 31.6947 22.0679 31.909 22.0679C32.1234 22.0679 32.3226 22.0319 32.5064 21.96C32.6901 21.8879 32.8509 21.7822 32.9887 21.6426C33.1265 21.503 33.2348 21.3319 33.3136 21.1291C33.3924 20.9263 33.4318 20.6962 33.4318 20.4389C33.4318 20.186 33.3934 19.9624 33.317 19.7683ZM32.7525 21.0243C32.7022 21.1705 32.6354 21.2883 32.5524 21.3777C32.4691 21.4672 32.3728 21.5304 32.2634 21.5674C32.154 21.6045 32.0426 21.623 31.9287 21.623C31.815 21.623 31.7034 21.6012 31.594 21.5576C31.4846 21.5139 31.3874 21.4463 31.3019 21.3548C31.2166 21.2631 31.1478 21.1445 31.0953 20.9982C31.0426 20.8522 31.0165 20.6766 31.0165 20.4716C31.0165 20.2493 31.0415 20.065 31.092 19.9188C31.1422 19.7727 31.209 19.6561 31.2921 19.5689C31.3751 19.4816 31.4716 19.4206 31.581 19.3857C31.6902 19.3507 31.8019 19.3334 31.9157 19.3334C32.0294 19.3334 32.141 19.3541 32.2505 19.3955C32.3597 19.4369 32.457 19.5034 32.5425 19.5949C32.6278 19.6866 32.6966 19.8043 32.7491 19.9482C32.8018 20.0921 32.8279 20.2666 32.8279 20.4716C32.8279 20.694 32.8027 20.8783 32.7525 21.0243ZM36.1373 21.1912C36.0102 21.3221 35.8769 21.4245 35.7369 21.4986C35.5967 21.5729 35.4392 21.6099 35.2642 21.6099C35.1766 21.6099 35.0958 21.5979 35.0214 21.5738C34.9469 21.55 34.8825 21.5108 34.8278 21.4561C34.7731 21.4018 34.7293 21.3286 34.6965 21.2371C34.6637 21.1454 34.6474 21.0343 34.6474 20.9034V18.9343H34.0697V20.9753C34.0697 21.3417 34.1691 21.6154 34.3683 21.7964C34.5674 21.9773 34.8267 22.0679 35.146 22.0679C35.3693 22.0679 35.565 22.0252 35.7335 21.9402C35.9019 21.8552 36.043 21.7494 36.1569 21.623H36.1831L36.2619 22.009H36.7147V18.9343H36.1373V21.1912ZM38.0995 22.009V20.4193C38.0995 20.2535 38.1225 20.1064 38.1685 19.9777C38.2145 19.8491 38.2777 19.7411 38.3587 19.6539C38.4398 19.5666 38.5338 19.5012 38.641 19.4576C38.7482 19.4141 38.8652 19.3922 38.9922 19.3922C39.0796 19.3922 39.1551 19.401 39.2187 19.4184C39.2819 19.4358 39.3399 19.4576 39.3926 19.4838L39.5041 18.98C39.4429 18.9539 39.375 18.9321 39.3006 18.9147C39.2263 18.8973 39.1321 18.8885 39.0184 18.8885C38.7953 18.8885 38.5983 18.9496 38.4277 19.0716C38.2571 19.1938 38.1345 19.353 38.0602 19.5493L37.9617 18.9343H37.5285V22.009H38.0995ZM43.3043 19.0716C43.1553 19.0062 42.999 18.9594 42.8349 18.931C42.6708 18.9027 42.5122 18.8885 42.359 18.8885C42.1971 18.8885 42.0482 18.9092 41.9127 18.9506C41.7771 18.9922 41.6601 19.0498 41.5616 19.1239C41.4631 19.1983 41.3854 19.2898 41.3285 19.3988C41.2718 19.5079 41.2432 19.6276 41.2432 19.7585C41.2432 19.9766 41.3122 20.1543 41.45 20.2918C41.5878 20.4291 41.799 20.5435 42.0835 20.6352L42.2869 20.7006C42.4749 20.7574 42.6194 20.8151 42.7201 20.8738C42.8206 20.9328 42.8711 21.0321 42.8711 21.1716C42.8711 21.333 42.813 21.4485 42.6971 21.5184C42.581 21.5881 42.4247 21.623 42.2277 21.623C42.0746 21.623 41.9236 21.6045 41.7749 21.5674C41.6261 21.5304 41.4884 21.4812 41.3613 21.4202L41.2235 21.8716C41.3548 21.9326 41.5112 21.9807 41.6929 22.0154C41.8745 22.0504 42.0636 22.0679 42.2606 22.0679C42.6324 22.0679 42.9224 21.9827 43.1303 21.8127C43.338 21.6426 43.4421 21.418 43.4421 21.1389C43.4421 20.9034 43.3666 20.7169 43.2156 20.5796C43.0647 20.4422 42.8425 20.3299 42.5493 20.2426L42.3525 20.1838C42.1293 20.1184 41.9828 20.0519 41.9127 19.9842C41.8427 19.9167 41.8077 19.8371 41.8077 19.7454C41.8077 19.619 41.858 19.5177 41.9587 19.4413C42.0594 19.365 42.2146 19.3267 42.4247 19.3267C42.5428 19.3267 42.6609 19.3398 42.7791 19.3661C42.8972 19.3922 43.0285 19.4402 43.173 19.5099L43.3043 19.0716ZM45.7169 18.9343H44.811V17.953H44.24V18.9343H43.7807V19.3661H44.24V21.2304C44.24 21.4834 44.3099 21.6764 44.4501 21.8095C44.5902 21.9426 44.8133 22.009 45.1196 22.009C45.2683 22.009 45.4106 21.9958 45.5461 21.9698C45.6817 21.9435 45.7933 21.913 45.8809 21.8781L45.7891 21.4398C45.7103 21.4659 45.6185 21.4888 45.5133 21.5086C45.4084 21.5282 45.3121 21.538 45.2246 21.538C45.102 21.538 45.0024 21.5117 44.926 21.4594C44.8494 21.4071 44.811 21.3047 44.811 21.152V19.3661H45.7169V18.9343ZM49.0793 19.7683C49.0027 19.5744 48.8976 19.4117 48.7642 19.2811C48.6307 19.1502 48.4733 19.052 48.2917 18.9866C48.11 18.9212 47.9121 18.8885 47.6977 18.8885C47.4833 18.8885 47.2842 18.9245 47.1004 18.9964C46.9166 19.0683 46.7558 19.1731 46.618 19.3105C46.4802 19.4478 46.3719 19.6169 46.2931 19.8175C46.2143 20.018 46.175 20.247 46.175 20.5043C46.175 20.7574 46.2132 20.9809 46.2898 21.1749C46.3664 21.369 46.4713 21.5324 46.6049 21.6655C46.7384 21.7986 46.8958 21.8988 47.0774 21.9664C47.2589 22.0339 47.457 22.0679 47.6714 22.0679C47.8858 22.0679 48.0849 22.0319 48.2687 21.96C48.4525 21.8879 48.6133 21.7822 48.7511 21.6426C48.8888 21.503 48.9971 21.3319 49.076 21.1291C49.1548 20.9263 49.1941 20.6962 49.1941 20.4389C49.1941 20.186 49.1557 19.9624 49.0793 19.7683ZM48.5148 21.0243C48.4645 21.1705 48.3978 21.2883 48.3147 21.3777C48.2314 21.4672 48.1352 21.5304 48.0258 21.5674C47.9164 21.6045 47.8049 21.623 47.691 21.623C47.5774 21.623 47.4657 21.6012 47.3563 21.5576C47.2469 21.5139 47.1497 21.4463 47.0644 21.3548C46.9789 21.2631 46.9101 21.1445 46.8576 20.9982C46.805 20.8522 46.7788 20.6766 46.7788 20.4716C46.7788 20.2493 46.8039 20.065 46.8543 19.9188C46.9046 19.7727 46.9713 19.6561 47.0544 19.5689C47.1375 19.4816 47.2339 19.4206 47.3433 19.3857C47.4526 19.3507 47.5642 19.3334 47.6781 19.3334C47.7917 19.3334 47.9034 19.3541 48.0128 19.3955C48.122 19.4369 48.2196 19.5034 48.3049 19.5949C48.3902 19.6866 48.459 19.8043 48.5115 19.9482C48.5641 20.0921 48.5903 20.2666 48.5903 20.4716C48.5903 20.694 48.5651 20.8783 48.5148 21.0243ZM51.6908 21.9698C51.8723 21.9043 52.0342 21.804 52.1765 21.6688C52.3187 21.5337 52.4326 21.3613 52.5179 21.152C52.6032 20.9426 52.6458 20.694 52.6458 20.4062C52.6458 19.9178 52.5277 19.5426 52.2914 19.2811C52.055 19.0193 51.7312 18.8885 51.3201 18.8885C51.1187 18.8885 50.9436 18.9276 50.7949 19.0062C50.6462 19.0848 50.5126 19.1785 50.3945 19.2875L50.3092 18.8885H49.8302V23.5136H50.4012V21.852C50.493 21.9175 50.6035 21.9698 50.7326 22.009C50.8616 22.0481 50.9961 22.0679 51.1363 22.0679C51.3243 22.0679 51.5092 22.0352 51.6908 21.9698ZM51.8352 19.6441C51.973 19.8337 52.042 20.0921 52.042 20.4193C52.042 20.6417 52.0135 20.8293 51.9567 20.9818C51.8998 21.1347 51.8254 21.2589 51.7334 21.3548C51.6416 21.4507 51.5365 21.5195 51.4184 21.5609C51.3002 21.6023 51.1821 21.623 51.064 21.623C50.9501 21.623 50.8364 21.6056 50.7227 21.5707C50.6089 21.5358 50.5017 21.4812 50.4012 21.4071V19.7652C50.4755 19.6735 50.5805 19.5831 50.7161 19.4936C50.8518 19.4042 51.0115 19.3594 51.1953 19.3594C51.484 19.3594 51.6975 19.4543 51.8352 19.6441ZM56.6625 19.0716C56.5135 19.0062 56.3572 18.9594 56.1931 18.931C56.029 18.9027 55.8704 18.8885 55.7172 18.8885C55.5553 18.8885 55.4066 18.9092 55.271 18.9506C55.1353 18.9922 55.0183 19.0498 54.9198 19.1239C54.8213 19.1983 54.7436 19.2898 54.6869 19.3988C54.6299 19.5079 54.6016 19.6276 54.6016 19.7585C54.6016 19.9766 54.6704 20.1543 54.8083 20.2918C54.9461 20.4291 55.1572 20.5435 55.4417 20.6352L55.6451 20.7006C55.8331 20.7574 55.9776 20.8151 56.0783 20.8738C56.1788 20.9328 56.2292 21.0321 56.2292 21.1716C56.2292 21.333 56.1712 21.4485 56.0553 21.5184C55.9394 21.5881 55.7829 21.623 55.5861 21.623C55.4327 21.623 55.2818 21.6045 55.1331 21.5674C54.9843 21.5304 54.8465 21.4812 54.7197 21.4202L54.5817 21.8716C54.713 21.9326 54.8695 21.9807 55.0511 22.0154C55.2326 22.0504 55.422 22.0679 55.6188 22.0679C55.9908 22.0679 56.2806 21.9827 56.4885 21.8127C56.6962 21.6426 56.8002 21.418 56.8002 21.1389C56.8002 20.9034 56.7248 20.7169 56.5738 20.5796C56.4229 20.4422 56.2007 20.3299 55.9077 20.2426L55.7107 20.1838C55.4876 20.1184 55.341 20.0519 55.271 19.9842C55.2009 19.9167 55.1659 19.8371 55.1659 19.7454C55.1659 19.619 55.2161 19.5177 55.3168 19.4413C55.4175 19.365 55.5729 19.3267 55.7829 19.3267C55.901 19.3267 56.0191 19.3398 56.1373 19.3661C56.2556 19.3922 56.3867 19.4402 56.5312 19.5099L56.6625 19.0716ZM57.9802 19.7781C58.2341 19.4992 58.5097 19.3594 58.8073 19.3594C59.0086 19.3594 59.1528 19.4141 59.2406 19.523C59.3279 19.6321 59.3718 19.789 59.3718 19.994V22.009H59.9493V19.8239C59.9493 19.8021 59.9471 19.7803 59.9428 19.7585C60.201 19.4925 60.4788 19.3594 60.7764 19.3594C60.9776 19.3594 61.1219 19.4141 61.2095 19.523C61.297 19.6321 61.3407 19.789 61.3407 19.994V22.009H61.9184V19.8894C61.9184 19.5753 61.8385 19.33 61.6788 19.1533C61.519 18.9768 61.2818 18.8885 60.9667 18.8885C60.7436 18.8885 60.54 18.9321 60.3562 19.0193C60.1724 19.1066 60.004 19.231 59.8509 19.3922C59.7809 19.2352 59.6758 19.1119 59.5358 19.0227C59.3958 18.9332 59.2164 18.8885 58.9976 18.8885C58.7656 18.8885 58.5666 18.931 58.4005 19.016C58.2341 19.101 58.0787 19.2156 57.9344 19.3594L57.8491 18.9343H57.4028V22.009H57.9802V19.7781ZM65.4638 19.7683C65.3872 19.5744 65.2823 19.4117 65.1487 19.2811C65.0152 19.1502 64.8578 19.052 64.6762 18.9866C64.4947 18.9212 64.2966 18.8885 64.0822 18.8885C63.8679 18.8885 63.6687 18.9245 63.4849 18.9964C63.3011 19.0683 63.1403 19.1731 63.0025 19.3105C62.8648 19.4478 62.7565 19.6169 62.6776 19.8175C62.599 20.018 62.5595 20.247 62.5595 20.5043C62.5595 20.7574 62.5977 20.9809 62.6745 21.1749C62.7509 21.369 62.8559 21.5324 62.9894 21.6655C63.1229 21.7986 63.2804 21.8988 63.4621 21.9664C63.6435 22.0339 63.8415 22.0679 64.0561 22.0679C64.2703 22.0679 64.4694 22.0319 64.6532 21.96C64.837 21.8879 64.9978 21.7822 65.1358 21.6426C65.2735 21.503 65.3818 21.3319 65.4605 21.1291C65.5393 20.9263 65.5788 20.6962 65.5788 20.4389C65.5788 20.186 65.5404 19.9624 65.4638 19.7683ZM64.8993 21.0243C64.8491 21.1705 64.7823 21.2883 64.6992 21.3777C64.6161 21.4672 64.5197 21.5304 64.4105 21.5674C64.3011 21.6045 64.1894 21.623 64.0757 21.623C63.9619 21.623 63.8502 21.6012 63.741 21.5576C63.6316 21.5139 63.5342 21.4463 63.4489 21.3548C63.3636 21.2631 63.2946 21.1445 63.2421 20.9982C63.1897 20.8522 63.1633 20.6766 63.1633 20.4716C63.1633 20.2493 63.1886 20.065 63.2388 19.9188C63.2891 19.7727 63.3558 19.6561 63.4391 19.5689C63.5222 19.4816 63.6184 19.4206 63.7278 19.3857C63.8371 19.3507 63.9487 19.3334 64.0626 19.3334C64.1763 19.3334 64.2879 19.3541 64.3973 19.3955C64.5065 19.4369 64.6041 19.5034 64.6894 19.5949C64.7747 19.6866 64.8437 19.8043 64.8962 19.9482C64.9486 20.0921 64.9748 20.2666 64.9748 20.4716C64.9748 20.694 64.9496 20.8783 64.8993 21.0243ZM67.1099 20.5762L68.1337 22.009H68.8163L67.4906 20.2295L68.7574 18.9343H68.0419L66.8015 20.2557V17.3643H66.2305V22.009H66.8015V20.8838L67.1099 20.5762ZM69.9066 18.9343H69.3289V22.009H69.9066V18.9343ZM69.8738 18.0413C69.9481 17.9737 69.9852 17.8898 69.9852 17.7894C69.9852 17.6892 69.9481 17.6042 69.8738 17.5343C69.7992 17.4646 69.7139 17.4297 69.6177 17.4297C69.517 17.4297 69.4307 17.4646 69.3584 17.5343C69.2863 17.6042 69.2503 17.6892 69.2503 17.7894C69.2503 17.8898 69.2863 17.9737 69.3584 18.0413C69.4307 18.109 69.517 18.1426 69.6177 18.1426C69.7139 18.1426 69.7992 18.109 69.8738 18.0413ZM71.3293 19.7716C71.5962 19.4968 71.8829 19.3594 72.1893 19.3594C72.3905 19.3594 72.5403 19.4151 72.6388 19.5263C72.7373 19.6374 72.7864 19.787 72.7864 19.9744V22.009H73.3641V19.8894C73.3641 19.5753 73.2743 19.33 73.095 19.1533C72.9155 18.9768 72.6683 18.8885 72.3532 18.8885C72.1344 18.8885 71.9408 18.9288 71.7724 19.0095C71.604 19.0903 71.4432 19.2069 71.29 19.3594L71.2047 18.9343H70.7519V22.009H71.3293V19.7716ZM74.2285 20.5337C74.3269 20.6842 74.4636 20.7986 74.6387 20.8772C74.4985 20.9339 74.3881 21.0103 74.3073 21.1062C74.2262 21.2021 74.1858 21.3178 74.1858 21.453C74.1858 21.5664 74.2077 21.6568 74.2515 21.7243C74.295 21.7921 74.3607 21.8563 74.4482 21.9175C74.2819 21.974 74.1474 22.0568 74.0447 22.1659C73.9418 22.2749 73.8904 22.4102 73.8904 22.5716C73.8904 22.8812 74.0228 23.1156 74.2874 23.2747C74.5522 23.4339 74.9078 23.5136 75.3541 23.5136C75.5991 23.5136 75.82 23.4884 76.0169 23.4383C76.2139 23.3882 76.3811 23.315 76.5191 23.2193C76.6569 23.1232 76.763 23.0077 76.8373 22.8725C76.9117 22.7372 76.949 22.5847 76.949 22.4145C76.949 22.1485 76.8581 21.9382 76.6766 21.7833C76.495 21.6286 76.2335 21.5511 75.8923 21.5511H75.0784C74.9645 21.5511 74.8738 21.5337 74.8059 21.4986C74.7381 21.4639 74.7043 21.3962 74.7043 21.2958C74.7043 21.2348 74.724 21.1772 74.7633 21.1225C74.8028 21.0681 74.8727 21.0234 74.9734 20.9884C75.0739 21.0058 75.192 21.0145 75.3278 21.0145C75.5071 21.0145 75.6735 20.9918 75.8266 20.9459C75.9796 20.9001 76.1109 20.8313 76.2204 20.7398C76.3298 20.6482 76.4151 20.536 76.4765 20.4029C76.5377 20.27 76.5683 20.1184 76.5683 19.9482C76.5683 19.8217 76.5453 19.7019 76.4995 19.5885C76.4535 19.4751 76.3887 19.3748 76.3057 19.2875L76.8309 19.3594H77.0343V18.9343H75.7018C75.6406 18.9212 75.5794 18.9103 75.5181 18.9016C75.4569 18.8929 75.3934 18.8885 75.3278 18.8885C75.1483 18.8885 74.9821 18.9114 74.8289 18.9572C74.6758 19.0029 74.5435 19.0716 74.4319 19.1631C74.3203 19.2548 74.2338 19.3672 74.1726 19.5001C74.1113 19.6332 74.0808 19.7848 74.0808 19.9548C74.0808 20.1903 74.13 20.3833 74.2285 20.5337ZM75.7282 22.009C75.9162 22.009 76.0727 22.0383 76.1974 22.0973C76.3222 22.1561 76.3845 22.2772 76.3845 22.4603C76.3845 22.5345 76.3657 22.6064 76.3287 22.6762C76.2916 22.7459 76.2335 22.8091 76.1547 22.8659C76.0761 22.9226 75.9732 22.9683 75.8463 23.0034C75.7193 23.0382 75.5641 23.0557 75.3803 23.0557C74.7588 23.0557 74.4482 22.8637 74.4482 22.4799C74.4482 22.2663 74.5599 22.1093 74.783 22.009H75.7282ZM75.8037 20.4454C75.6833 20.5502 75.5247 20.6025 75.3278 20.6025C75.1308 20.6025 74.9723 20.5491 74.8519 20.4422C74.7316 20.3354 74.6715 20.1685 74.6715 19.9417C74.6715 19.728 74.7316 19.5666 74.8519 19.4576C74.9723 19.3487 75.1308 19.294 75.3278 19.294C75.5247 19.294 75.6833 19.3487 75.8037 19.4576C75.924 19.5666 75.9841 19.7367 75.9841 19.9679C75.9841 20.1816 75.924 20.3408 75.8037 20.4454ZM79.3904 19.6276C79.5784 19.523 79.7457 19.4522 79.8924 19.4151C80.0389 19.3781 80.1691 19.3594 80.283 19.3594C80.4755 19.3594 80.6286 19.3999 80.7423 19.4805C80.8562 19.5613 80.9131 19.7127 80.9131 19.9352V20.1968H80.3223C79.9022 20.1968 79.5644 20.2809 79.3082 20.4487C79.0523 20.6167 78.9244 20.862 78.9244 21.1847C78.9244 21.3199 78.9494 21.442 78.9998 21.5511C79.0501 21.6602 79.1213 21.7528 79.2131 21.8291C79.3051 21.9054 79.4134 21.9642 79.538 22.0056C79.6626 22.047 79.7995 22.0679 79.9482 22.0679C80.1452 22.0679 80.3245 22.0372 80.4864 21.9762C80.6483 21.9152 80.797 21.8127 80.9328 21.6688H80.9459L81.0181 22.009H81.4971V20.0071C81.4971 19.7934 81.4687 19.6158 81.4118 19.474C81.3549 19.3323 81.2751 19.2178 81.1724 19.1304C81.0694 19.0434 80.9469 18.9813 80.8048 18.9441C80.6626 18.9071 80.5061 18.8885 80.3354 18.8885C80.2216 18.8885 80.1166 18.8949 80.0204 18.9081C79.9241 18.9212 79.8301 18.9408 79.7381 18.967C79.6463 18.9931 79.5543 19.0269 79.4625 19.0683C79.3706 19.1099 79.2723 19.1567 79.1671 19.209L79.3904 19.6276ZM80.9196 21.2175C80.8057 21.3657 80.6744 21.4737 80.5257 21.5411C80.377 21.609 80.2305 21.6426 80.086 21.6426C80.0117 21.6426 79.9404 21.635 79.8728 21.6197C79.8049 21.6045 79.7457 21.5794 79.6955 21.5444C79.6452 21.5097 79.6046 21.4605 79.5742 21.3973C79.5434 21.3341 79.5282 21.2566 79.5282 21.165C79.5282 21.0125 79.597 20.8827 79.735 20.7759C79.8727 20.669 80.1057 20.6112 80.4339 20.6025L80.9196 20.5894V21.2175ZM84.3647 19.1894C84.2508 19.0892 84.1208 19.014 83.9741 18.9637C83.8276 18.9136 83.6733 18.8885 83.5114 18.8885C83.2926 18.8885 83.0981 18.9256 82.9273 18.9997C82.7567 19.0739 82.6124 19.1807 82.4941 19.3203C82.3759 19.4598 82.2851 19.6276 82.2218 19.8239C82.1582 20.0202 82.1265 20.2384 82.1265 20.4781C82.1265 20.7487 82.1638 20.9831 82.2381 21.1814C82.3125 21.3799 82.411 21.5444 82.5336 21.6753C82.656 21.8062 82.7949 21.9043 82.9503 21.9698C83.1055 22.0352 83.2664 22.0679 83.4328 22.0679C83.6427 22.0679 83.8167 22.0361 83.9545 21.9729C84.0923 21.9099 84.2291 21.8084 84.3647 21.6688H84.3843L84.4567 22.009H84.9423V17.3643H84.3647V19.1894ZM84.3647 21.1977C84.159 21.4812 83.8922 21.623 83.5639 21.623C83.4589 21.623 83.3549 21.6012 83.2522 21.5576C83.1494 21.5139 83.0574 21.4454 82.9766 21.3515C82.8956 21.2578 82.831 21.1378 82.783 20.9918C82.7348 20.8456 82.7107 20.6679 82.7107 20.4585C82.7107 20.258 82.737 20.0857 82.7895 19.9417C82.842 19.7979 82.9109 19.68 82.9963 19.5885C83.0816 19.4968 83.18 19.4304 83.2917 19.3888C83.4031 19.3476 83.5181 19.3267 83.6362 19.3267C83.9161 19.3267 84.159 19.4424 84.3647 19.6735V21.1977ZM87.0136 21.0539L86.9022 21.5313H86.8758L86.7577 21.0472L86.0619 18.9343H85.4384L86.6003 22.009H87.1646L88.3132 18.9343H87.6963L87.0136 21.0539ZM89.0083 19.6276C89.1963 19.523 89.3638 19.4522 89.5103 19.4151C89.657 19.3781 89.787 19.3594 89.9009 19.3594C90.0933 19.3594 90.2465 19.3999 90.3604 19.4805C90.4741 19.5613 90.531 19.7127 90.531 19.9352V20.1968H89.9404C89.5203 20.1968 89.1822 20.2809 88.9263 20.4487C88.6702 20.6167 88.5423 20.862 88.5423 21.1847C88.5423 21.3199 88.5675 21.442 88.6177 21.5511C88.668 21.6602 88.7392 21.7528 88.831 21.8291C88.923 21.9054 89.0313 21.9642 89.1559 22.0056C89.2807 22.047 89.4174 22.0679 89.5661 22.0679C89.7631 22.0679 89.9424 22.0372 90.1043 21.9762C90.2662 21.9152 90.4149 21.8127 90.5507 21.6688H90.5638L90.636 22.009H91.1152V20.0071C91.1152 19.7934 91.0866 19.6158 91.0299 19.474C90.9729 19.3323 90.893 19.2178 90.7903 19.1304C90.6873 19.0434 90.5648 18.9813 90.4227 18.9441C90.2805 18.9071 90.1241 18.8885 89.9533 18.8885C89.8397 18.8885 89.7345 18.8949 89.6384 18.9081C89.542 18.9212 89.448 18.9408 89.3562 18.967C89.2642 18.9931 89.1724 19.0269 89.0804 19.0683C88.9886 19.1099 88.8902 19.1567 88.7852 19.209L89.0083 19.6276ZM90.5375 21.2175C90.4236 21.3657 90.2925 21.4737 90.1438 21.5411C89.9949 21.609 89.8484 21.6426 89.7039 21.6426C89.6295 21.6426 89.5585 21.635 89.4906 21.6197C89.4228 21.6045 89.3638 21.5794 89.3135 21.5444C89.2631 21.5097 89.2227 21.4605 89.1921 21.3973C89.1615 21.3341 89.1461 21.2566 89.1461 21.165C89.1461 21.0125 89.2151 20.8827 89.3529 20.7759C89.4906 20.669 89.7238 20.6112 90.0518 20.6025L90.5375 20.5894V21.2175ZM92.4856 19.7716C92.7523 19.4968 93.039 19.3594 93.3454 19.3594C93.5466 19.3594 93.6964 19.4151 93.7949 19.5263C93.8934 19.6374 93.9427 19.787 93.9427 19.9744V22.009H94.5202V19.8894C94.5202 19.5753 94.4304 19.33 94.2511 19.1533C94.0716 18.9768 93.8246 18.8885 93.5095 18.8885C93.2907 18.8885 93.0971 18.9288 92.9287 19.0095C92.7601 19.0903 92.5993 19.2069 92.4461 19.3594L92.3608 18.9343H91.908V22.009H92.4856V19.7716ZM96.9382 18.9343H96.0323V17.953H95.4613V18.9343H95.002V19.3661H95.4613V21.2304C95.4613 21.4834 95.5312 21.6764 95.6714 21.8095C95.8115 21.9426 96.0345 22.009 96.3409 22.009C96.4896 22.009 96.6319 21.9958 96.7674 21.9698C96.903 21.9435 97.0146 21.913 97.1022 21.8781L97.0104 21.4398C96.9316 21.4659 96.8398 21.4888 96.7346 21.5086C96.6297 21.5282 96.5334 21.538 96.4459 21.538C96.3233 21.538 96.2237 21.5117 96.1473 21.4594C96.0707 21.4071 96.0323 21.3047 96.0323 21.152V19.3661H96.9382V18.9343ZM97.9463 19.6276C98.1344 19.523 98.3017 19.4522 98.4483 19.4151C98.5948 19.3781 98.725 19.3594 98.8389 19.3594C99.0314 19.3594 99.1846 19.3999 99.2982 19.4805C99.4121 19.5613 99.4689 19.7127 99.4689 19.9352V20.1968H98.8782C98.4582 20.1968 98.1201 20.2809 97.8642 20.4487C97.6083 20.6167 97.4803 20.862 97.4803 21.1847C97.4803 21.3199 97.5053 21.442 97.5558 21.5511C97.606 21.6602 97.6772 21.7528 97.769 21.8291C97.8608 21.9054 97.9691 21.9642 98.0939 22.0056C98.2186 22.047 98.3552 22.0679 98.5042 22.0679C98.7011 22.0679 98.8804 22.0372 99.0423 21.9762C99.2042 21.9152 99.353 21.8127 99.4887 21.6688H99.5017L99.574 22.009H100.053V20.0071C100.053 19.7934 100.025 19.6158 99.9677 19.474C99.9108 19.3323 99.831 19.2178 99.7283 19.1304C99.6254 19.0434 99.5028 18.9813 99.3607 18.9441C99.2185 18.9071 99.062 18.8885 98.8914 18.8885C98.7775 18.8885 98.6725 18.8949 98.5763 18.9081C98.48 18.9212 98.386 18.9408 98.294 18.967C98.2022 18.9931 98.1103 19.0269 98.0185 19.0683C97.9265 19.1099 97.8282 19.1567 97.7231 19.209L97.9463 19.6276ZM99.4755 21.2175C99.3617 21.3657 99.2304 21.4737 99.0816 21.5411C98.9329 21.609 98.7864 21.6426 98.6419 21.6426C98.5676 21.6426 98.4964 21.635 98.4287 21.6197C98.3608 21.6045 98.3017 21.5794 98.2514 21.5444C98.2011 21.5097 98.1605 21.4605 98.1301 21.3973C98.0993 21.3341 98.0841 21.2566 98.0841 21.165C98.0841 21.0125 98.1529 20.8827 98.2909 20.7759C98.4287 20.669 98.6616 20.6112 98.9898 20.6025L99.4755 20.5894V21.2175ZM100.895 20.5337C100.994 20.6842 101.13 20.7986 101.305 20.8772C101.165 20.9339 101.055 21.0103 100.974 21.1062C100.893 21.2021 100.852 21.3178 100.852 21.453C100.852 21.5664 100.874 21.6568 100.918 21.7243C100.962 21.7921 101.028 21.8563 101.115 21.9175C100.949 21.974 100.814 22.0568 100.711 22.1659C100.609 22.2749 100.557 22.4102 100.557 22.5716C100.557 22.8812 100.689 23.1156 100.954 23.2747C101.219 23.4339 101.574 23.5136 102.021 23.5136C102.266 23.5136 102.487 23.4884 102.684 23.4383C102.881 23.3882 103.048 23.315 103.186 23.2193C103.324 23.1232 103.43 23.0077 103.504 22.8725C103.578 22.7372 103.616 22.5847 103.616 22.4145C103.616 22.1485 103.525 21.9382 103.343 21.7833C103.162 21.6286 102.9 21.5511 102.559 21.5511H101.745C101.631 21.5511 101.54 21.5337 101.473 21.4986C101.405 21.4639 101.371 21.3962 101.371 21.2958C101.371 21.2348 101.391 21.1772 101.43 21.1225C101.469 21.0681 101.539 21.0234 101.64 20.9884C101.741 21.0058 101.859 21.0145 101.994 21.0145C102.174 21.0145 102.34 20.9918 102.493 20.9459C102.647 20.9001 102.778 20.8313 102.887 20.7398C102.996 20.6482 103.082 20.536 103.143 20.4029C103.204 20.27 103.235 20.1184 103.235 19.9482C103.235 19.8217 103.212 19.7019 103.166 19.5885C103.12 19.4751 103.056 19.3748 102.973 19.2875L103.498 19.3594H103.701V18.9343H102.369C102.307 18.9212 102.246 18.9103 102.185 18.9016C102.124 18.8929 102.06 18.8885 101.994 18.8885C101.815 18.8885 101.649 18.9114 101.496 18.9572C101.342 19.0029 101.21 19.0716 101.099 19.1631C100.987 19.2548 100.901 19.3672 100.839 19.5001C100.778 19.6332 100.748 19.7848 100.748 19.9548C100.748 20.1903 100.797 20.3833 100.895 20.5337ZM102.395 22.009C102.583 22.009 102.739 22.0383 102.864 22.0973C102.989 22.1561 103.051 22.2772 103.051 22.4603C103.051 22.5345 103.033 22.6064 102.996 22.6762C102.958 22.7459 102.9 22.8091 102.822 22.8659C102.743 22.9226 102.64 22.9683 102.513 23.0034C102.386 23.0382 102.231 23.0557 102.047 23.0557C101.426 23.0557 101.115 22.8637 101.115 22.4799C101.115 22.2663 101.227 22.1093 101.45 22.009H102.395ZM102.47 20.4454C102.35 20.5502 102.191 20.6025 101.994 20.6025C101.798 20.6025 101.639 20.5491 101.519 20.4422C101.398 20.3354 101.338 20.1685 101.338 19.9417C101.338 19.728 101.398 19.5666 101.519 19.4576C101.639 19.3487 101.798 19.294 101.994 19.294C102.191 19.294 102.35 19.3487 102.47 19.4576C102.591 19.5666 102.651 19.7367 102.651 19.9679C102.651 20.1816 102.591 20.3408 102.47 20.4454ZM106.822 20.2361C106.822 20.0356 106.792 19.8524 106.731 19.6866C106.669 19.5208 106.582 19.379 106.468 19.2613C106.354 19.1435 106.217 19.052 106.058 18.9866C105.898 18.9212 105.72 18.8885 105.523 18.8885C105.291 18.8885 105.082 18.9267 104.896 19.0029C104.71 19.0792 104.552 19.1861 104.42 19.3236C104.289 19.4609 104.187 19.6276 104.115 19.8239C104.043 20.0202 104.007 20.2384 104.007 20.4781C104.007 20.7574 104.049 20.9971 104.135 21.1977C104.22 21.3984 104.337 21.5631 104.486 21.6918C104.635 21.8204 104.806 21.9152 105.001 21.9762C105.196 22.0372 105.405 22.0679 105.628 22.0679C105.825 22.0679 106.01 22.0504 106.183 22.0154C106.355 21.9807 106.505 21.9348 106.632 21.8781L106.514 21.453C106.361 21.5139 106.22 21.5576 106.091 21.5838C105.962 21.6099 105.814 21.623 105.648 21.623C105.328 21.623 105.076 21.5313 104.89 21.3481C104.703 21.165 104.611 20.9034 104.611 20.5631V20.5371H106.822V20.2361ZM104.624 20.138C104.659 19.8894 104.752 19.6888 104.903 19.5361C105.054 19.3835 105.249 19.3071 105.49 19.3071C105.621 19.3071 105.733 19.3289 105.825 19.3726C105.917 19.4162 105.992 19.4751 106.051 19.5493C106.11 19.6234 106.154 19.7095 106.183 19.8077C106.211 19.9056 106.225 20.0116 106.225 20.1249L104.624 20.138Z" fill="#1B1921"/>
<path d="M5.025 2.36705L1.05188 3.95424C0.799613 4.04853 0.641949 4.28425 0.641949 4.53569V15.7246C0.641949 15.9761 0.799613 16.2118 1.03611 16.3061L5.025 17.8933C5.10383 17.9247 5.18267 17.9404 5.27727 17.9404C5.63989 17.9404 5.93945 17.6418 5.93945 17.2804V2.97992C5.93945 2.90135 5.92369 2.80706 5.89215 2.72849C5.78179 2.47705 5.52953 2.3199 5.27727 2.3199C5.18267 2.3199 5.10383 2.33562 5.025 2.36705Z" fill="#1B1921"/>
<path d="M5.86701 2.02552L1.02666 3.95533C1.14767 3.91512 1.45019 3.83471 1.73255 4.09604L14.7612 17.082H21.1544L7.33929 2.34715C7.0771 2.06572 6.73424 1.92501 6.37122 1.92501C6.1897 1.92501 6.02836 1.96521 5.86701 2.02552ZM0.986328 3.97543L1.02666 3.95533C1.0065 3.95533 0.986328 3.97543 0.986328 3.97543Z" fill="#1B1921"/>
<path d="M17.8006 0.110864C17.8006 0.110864 2.05663 15.8182 1.73071 16.1431C1.54039 16.3399 1.28368 16.3946 1.04852 16.3094L1.45705 16.487L5.87749 18.2364C6.36441 18.4424 6.94915 18.2999 7.3298 17.9062L24.1621 0.112364L17.8006 0.110864ZM1.04852 16.3094L1.02239 16.2999C1.02239 16.2999 1.02239 16.2999 1.04852 16.3094Z" fill="#1B1921"/>
</g>
</g>
<defs>
<clipPath id="clip0_6_8326">
<rect width="128.604" height="24" fill="white" transform="translate(0.396484)"/>
</clipPath>
</defs>
</svg>
