<svg width="64" height="64" viewBox="0 0 64 64" fill="none" xmlns="http://www.w3.org/2000/svg">
<path d="M18.035 26.7629C18.035 27.5523 18.1203 28.1896 18.2697 28.6563C18.4403 29.1256 18.6537 29.6376 18.9523 30.1923C19.059 30.3603 19.1017 30.5309 19.1017 30.6803C19.1017 30.8936 18.9737 31.1069 18.6963 31.3203L17.355 32.2136C17.1929 32.3305 17 32.3972 16.8003 32.4056C16.587 32.4056 16.3737 32.2989 16.163 32.1069C15.8765 31.7988 15.6202 31.4639 15.3977 31.1069C15.1593 30.698 14.9386 30.2789 14.7363 29.8509C13.0777 31.8083 10.9897 32.7869 8.47765 32.7869C6.69099 32.7869 5.26432 32.2776 4.22165 31.2563C3.17899 30.2323 2.64832 28.8723 2.64832 27.1683C2.64832 25.3603 3.28565 23.8883 4.58432 22.7843C5.88299 21.6776 7.60565 21.1229 9.79765 21.1229C10.523 21.1229 11.267 21.1869 12.0537 21.2936C12.843 21.4003 13.6537 21.5709 14.5017 21.7629V20.2083C14.5017 18.5896 14.163 17.4616 13.5017 16.8029C12.8217 16.1416 11.6723 15.8243 10.035 15.8243C9.28832 15.8243 8.52032 15.9069 7.73365 16.0989C6.94699 16.2909 6.17899 16.5256 5.43499 16.8243C5.19241 16.9329 4.94299 17.0255 4.68832 17.1016C4.57864 17.1369 4.46476 17.1576 4.34965 17.1629C4.05099 17.1629 3.90165 16.9496 3.90165 16.5043V15.4616C3.90165 15.1203 3.94432 14.8643 4.05099 14.7149C4.21207 14.5213 4.41679 14.3687 4.64832 14.2696C5.39232 13.8856 6.28565 13.5656 7.32832 13.3096C8.4137 13.0317 9.53065 12.8964 10.651 12.9069C13.1843 12.9069 15.035 13.4829 16.227 14.6323C17.3977 15.7789 17.9923 17.5256 17.9923 19.8669V26.7629H18.035ZM9.39499 30.0003C10.0963 30.0003 10.819 29.8723 11.587 29.6163C12.3523 29.3603 13.035 28.8936 13.6083 28.2563C13.9497 27.8509 14.2057 27.4029 14.3337 26.8909C14.459 26.3816 14.547 25.7629 14.547 25.0403V24.1469C13.901 23.9894 13.2466 23.8684 12.587 23.7843C11.9236 23.7 11.2557 23.6572 10.587 23.6563C9.16032 23.6563 8.11765 23.9336 7.41365 24.5096C6.71232 25.0829 6.37365 25.8909 6.37365 26.9549C6.37365 27.9549 6.62699 28.7016 7.16032 29.2109C7.66965 29.7443 8.41365 30.0003 9.39499 30.0003ZM26.4883 32.2989C26.1043 32.2989 25.8483 32.2349 25.6777 32.0856C25.507 31.9576 25.3577 31.6589 25.2297 31.2563L20.2297 14.8003C20.1324 14.5243 20.0679 14.2379 20.0377 13.9469C20.0377 13.6056 20.2083 13.4136 20.547 13.4136H22.635C23.0377 13.4136 23.315 13.4803 23.4617 13.6269C23.635 13.7549 23.763 14.0536 23.8883 14.4589L27.467 28.5496L30.787 14.4589C30.8937 14.0323 31.0217 13.7549 31.1897 13.6269C31.4455 13.47 31.7434 13.3956 32.043 13.4136H33.7443C34.1497 13.4136 34.427 13.4803 34.5977 13.6269C34.7657 13.7549 34.9177 14.0536 35.0003 14.4589L38.363 28.7203L42.0457 14.4589C42.1737 14.0323 42.323 13.7549 42.4723 13.6269C42.7193 13.4701 43.0096 13.3954 43.3017 13.4136H45.283C45.6217 13.4136 45.8163 13.5869 45.8163 13.9469C45.8163 14.0536 45.7923 14.1603 45.771 14.2883C45.7376 14.4702 45.6876 14.6487 45.6217 14.8216L40.4937 31.2749C40.3657 31.7016 40.2163 31.9763 40.0457 32.1043C39.8054 32.2584 39.5227 32.333 39.2377 32.3176H37.4057C37.003 32.3176 36.7257 32.2536 36.5523 32.1043C36.3843 31.9549 36.235 31.6776 36.1523 31.2509L32.851 17.5229L29.571 31.2296C29.4643 31.6563 29.339 31.9336 29.171 32.0829C28.9977 32.2323 28.699 32.2963 28.3177 32.2963L26.4883 32.2989ZM53.8376 32.8723C52.731 32.8723 51.6243 32.7443 50.5603 32.4909C49.4963 32.2349 48.667 31.9576 48.1123 31.6376C47.771 31.4483 47.539 31.2349 47.4537 31.0429C47.3705 30.8547 47.3269 30.6514 47.3256 30.4456V29.3603C47.3256 28.9149 47.4963 28.7016 47.8137 28.7016C47.9417 28.7016 48.0696 28.7229 48.1977 28.7656C48.3256 28.8083 48.5177 28.8936 48.731 28.9789C49.4537 29.2989 50.2403 29.5523 51.0723 29.7229C51.923 29.8936 52.7523 29.9789 53.6056 29.9789C54.9443 29.9789 55.9897 29.7443 56.7123 29.2749C57.0587 29.0656 57.3436 28.7684 57.538 28.4134C57.7323 28.0583 57.8293 27.6582 57.819 27.2536C57.8268 26.9795 57.7801 26.7067 57.6817 26.4508C57.5833 26.1949 57.4351 25.9611 57.2456 25.7629C56.8616 25.3603 56.1363 24.9976 55.0937 24.6563L52.0083 23.6963C50.4537 23.2083 49.3043 22.4856 48.603 21.5283C47.9166 20.6447 47.5416 19.5591 47.5363 18.4403C47.5363 17.5469 47.731 16.7603 48.1123 16.0776C48.4963 15.3976 49.0057 14.8003 49.6457 14.3336C50.2857 13.8429 51.0057 13.4803 51.859 13.2269C52.7123 12.9709 53.6056 12.8643 54.5416 12.8643C55.0083 12.8643 55.499 12.8856 55.9683 12.9496C56.4563 13.0136 56.9017 13.0989 57.3497 13.1843C57.7763 13.2909 58.1817 13.3976 58.563 13.5229C58.947 13.6509 59.2457 13.7789 59.459 13.9069C59.7103 14.0334 59.9292 14.2159 60.099 14.4403C60.2364 14.6473 60.3029 14.8935 60.2883 15.1416V16.1416C60.2883 16.5896 60.1176 16.8243 59.7976 16.8243C59.5143 16.7918 59.24 16.7048 58.9897 16.5683C57.7037 16.0002 56.31 15.7173 54.9043 15.7389C53.691 15.7389 52.731 15.9283 52.0723 16.3336C51.411 16.7389 51.0723 17.3549 51.0723 18.2269C51.0723 18.8243 51.2857 19.3363 51.7123 19.7389C52.1363 20.1443 52.923 20.5496 54.051 20.9123L57.075 21.8669C58.6057 22.3576 59.715 23.0403 60.3736 23.9123C61.0323 24.7843 61.3523 25.7843 61.3523 26.8909C61.3523 27.8056 61.1603 28.6376 60.8003 29.3603C60.4163 30.0856 59.9043 30.7229 59.2456 31.2349C58.5843 31.7683 57.7976 32.1496 56.883 32.4269C55.923 32.7229 54.9256 32.8723 53.8376 32.8723ZM57.8616 43.2189C50.859 48.3923 40.683 51.1363 31.9363 51.1363C19.675 51.1363 8.62965 46.6029 0.282987 39.0669C-0.37568 38.4723 0.218987 37.6616 1.00832 38.1309C10.0323 43.3656 21.1657 46.5389 32.6803 46.5389C40.451 46.5389 48.9843 44.9203 56.8403 41.6003C58.011 41.0669 59.011 42.3656 57.8616 43.2189ZM60.779 39.8963C59.883 38.7496 54.859 39.3443 52.5817 39.6216C51.9017 39.7069 51.795 39.1096 52.4137 38.6616C56.4137 35.8536 62.9923 36.6616 63.7577 37.5976C64.523 38.5576 63.5443 45.1336 59.7976 48.2829C59.2243 48.7736 58.6697 48.5176 58.9257 47.8803C59.779 45.7736 61.6723 41.0269 60.779 39.8963Z" fill="#0D0C10"/>
</svg>
