<svg width="192" height="192" viewBox="0 0 192 192" fill="none" xmlns="http://www.w3.org/2000/svg">
<path d="M93.2812 73.4873L109.015 55.085L96.2861 44.9195L119.746 20.439L110.688 42.4994L122.95 53.4799L106.613 73.4873H93.2812Z" fill="white"/>
<path d="M107.347 75.0425H89.9277L106.806 55.2963L93.9902 45.0686L124.3 13.4399L112.548 42.0575L125.096 53.318L107.347 75.0425ZM96.6591 71.9319H105.873L120.804 53.6477L108.834 42.9286L115.192 27.4439L98.5877 44.7638L111.242 54.8733L96.6591 71.9319Z" fill="#0D0C10"/>
<path d="M79.8183 37.9766L72.3156 42.4746L91.7445 74.8747L81.1622 81.2203L61.7332 48.8202L54.2305 53.3181L58.212 30.9528L79.8183 37.9766Z" fill="#FF8686"/>
<path d="M80.6263 83.354L61.1974 50.9539L52.0957 56.4286L56.9918 28.9246L83.5564 37.5534L74.4547 43.0094L93.8836 75.4095L80.6263 83.354ZM62.2674 46.6861L81.6901 79.0862L89.6034 74.3457L70.1808 41.9393L76.091 38.387L59.4305 32.9746L56.3572 50.2074L62.2674 46.6861Z" fill="#0D0C10"/>
<path d="M34.0794 74.7936L29.1956 62.8489H22.2715V59.7383H31.2799L35.6223 70.3455L49.6262 62.432L63.0081 72.2367L61.1729 74.7439L49.4085 66.1275L34.0794 74.7936Z" fill="#0D0C10"/>
<path d="M145.614 73.9664L142.652 73.0144L148.961 53.4052L160.787 56.7397L166.897 44.8323L169.665 46.2508L162.392 60.4227L151.002 57.2126L145.614 73.9664Z" fill="#0D0C10"/>
<path d="M89.8912 59.9125C88.7344 59.9136 87.6031 59.5718 86.6407 58.93C85.6781 58.2882 84.9276 57.3753 84.484 56.3067C84.0405 55.2383 83.9237 54.0623 84.1488 52.9274C84.3737 51.7927 84.9301 50.7501 85.7477 49.9316C86.5653 49.1131 87.6073 48.5556 88.7419 48.3294C89.8765 48.1032 91.0526 48.2187 92.1215 48.6612C93.1904 49.1035 94.1042 49.8531 94.747 50.8149C95.3899 51.7768 95.733 52.9077 95.733 54.0646C95.7314 55.6139 95.1156 57.0994 94.0205 58.1956C92.9256 59.2918 91.4407 59.9092 89.8912 59.9125ZM89.8912 51.3334C89.3494 51.3321 88.8192 51.4919 88.3682 51.7922C87.9171 52.0925 87.5652 52.5199 87.3573 53.0203C87.1493 53.5208 87.0946 54.0717 87.2 54.6032C87.3055 55.1348 87.5662 55.6231 87.9495 56.0063C88.3327 56.3896 88.821 56.6504 89.3526 56.7558C89.8842 56.8612 90.4351 56.8064 90.9355 56.5986C91.4359 56.3906 91.8633 56.0387 92.1637 55.5876C92.464 55.1366 92.6236 54.6065 92.6224 54.0646C92.6208 53.3407 92.3324 52.647 91.8207 52.1351C91.3088 51.6233 90.6151 51.3351 89.8912 51.3334Z" fill="#0D0C10"/>
<path d="M44.9726 59.7447C46.9928 59.7447 48.6306 58.1069 48.6306 56.0866C48.6306 54.0662 46.9928 52.4285 44.9726 52.4285C42.9522 52.4285 41.3145 54.0662 41.3145 56.0866C41.3145 58.1069 42.9522 59.7447 44.9726 59.7447Z" fill="#0D0C10"/>
<path d="M143.299 53.2123L122.483 90.2473L112.031 84.3683L132.853 47.3395L145.209 37.5784L143.299 53.2123Z" fill="#FF8686"/>
<path d="M145.209 37.5784L132.854 47.3395L143.3 53.2123L145.209 37.5784Z" fill="#0D0C10"/>
<path d="M123.074 92.3625L109.916 84.9655L131.646 46.3068L147.199 34.0137L144.798 53.7038L123.074 92.3625ZM114.153 83.8021L121.886 88.157L141.794 52.7458L143.212 41.1681L134.054 48.3411L114.153 83.8021Z" fill="#0D0C10"/>
<path d="M124.573 144.073L124.797 170.127C124.797 170.127 119.677 176.815 101.853 177.026C84.0293 177.239 79.3571 171.234 79.3571 171.234L78.6915 146.518L45.719 145.18L55.0508 101.078H32.5859L57.8442 73.4934H147.268L155.76 92.1571L124.573 144.073Z" fill="white"/>
<path d="M123.012 143.644L124.985 122.193L134.242 111.58L132.301 99.2184L117.818 110.609H113.407L121.88 88.269L112.02 73.4873H147.269L155.761 92.1634L123.012 143.644Z" fill="#0D0C10"/>
<path d="M126.128 144.098L123.018 144.042L123.441 121.596L132.592 111.101L131.174 102.08L118.358 112.165H111.148L120.143 88.4679L110.725 74.3519L113.313 72.6287L123.621 88.0697L115.658 109.054H117.282L133.426 96.3501L135.889 112.053L126.526 122.784L126.128 144.098Z" fill="#0D0C10"/>
<path d="M100.902 178.588C83.3142 178.588 78.3373 172.461 78.132 172.193L77.8209 171.789L77.1988 148.011L43.8219 146.637L53.1537 102.615H29.0527L57.1602 71.907H148.258L157.502 92.2441L126.123 144.471L126.346 170.601L126.023 171.03C125.793 171.322 120.231 178.315 101.86 178.545L100.902 178.588ZM80.9004 170.588C82.1447 171.726 87.5757 175.658 101.835 175.478C116.094 175.297 121.873 170.812 123.236 169.518L123.018 143.644L154.005 92.0638L146.267 75.0425H58.5475L36.1511 99.5293H57.0047L47.6294 143.7L80.2099 145.012L80.9004 170.588Z" fill="#0D0C10"/>
<path d="M49.5773 128.881L49.459 125.777L63.9234 125.235L71.9737 118.367L73.9956 120.731L65.1179 128.308L49.5773 128.881Z" fill="#0D0C10"/>
<path d="M79.071 81.0088H64.5195V84.1193H79.071V81.0088Z" fill="#0D0C10"/>
<path d="M74.7607 82.564H68.9688V89.9735H74.7607V82.564Z" fill="#0D0C10"/>
<path d="M123.864 121.111L118.842 126.508L121.119 128.627L126.141 123.23L123.864 121.111Z" fill="#0D0C10"/>
<path d="M124.798 170.127C124.798 170.127 119.678 176.815 101.854 177.027C84.0305 177.239 79.3583 171.235 79.3583 171.235L79.0723 160.603C79.0723 160.603 86.9608 165.655 101.382 165.468C115.802 165.281 124.699 158.662 124.699 158.662L124.798 170.127Z" fill="#0D0C10"/>
<path d="M128.1 42.0575C129.777 42.0575 131.137 40.6983 131.137 39.0216C131.137 37.345 129.777 35.9856 128.1 35.9856C126.424 35.9856 125.064 37.345 125.064 39.0216C125.064 40.6983 126.424 42.0575 128.1 42.0575Z" fill="#FF8686"/>
<path d="M60.5462 35.2583L58.9668 44.5566L62.0334 45.0774L63.6128 35.7793L60.5462 35.2583Z" fill="white"/>
<path d="M133.995 51.7173L127.971 63.1976L130.725 64.643L136.75 53.1628L133.995 51.7173Z" fill="white"/>
</svg>
