<svg width="49" height="49" viewBox="0 0 49 49" fill="none" xmlns="http://www.w3.org/2000/svg">
<path d="M24.965 34.3669L23.8687 34.4628L21.6607 33.5374L17.7035 41.1781L14.4728 42.3894L13.544 44.1567L20.7465 43.5266L21.702 43.443L21.475 40.8481L24.965 34.3669Z" fill="white"/>
<path d="M17.3699 41.2695L16.7325 41.5738L17.11 42.364L17.7473 42.0598L17.3699 41.2695Z" fill="#0D0C10"/>
<path d="M16.2312 41.7037L15.589 41.9978L15.9879 42.8687L16.63 42.5746L16.2312 41.7037Z" fill="#0D0C10"/>
<path d="M23.8679 34.4628L24.9642 34.3669L21.4742 40.8481L21.7012 43.443L20.7457 43.5266L20.5186 40.9317L23.8679 34.4628Z" fill="#0D0C10"/>
<path d="M21.0986 43.4953L20.395 43.5569L20.1591 40.8606L23.5556 34.2998L24.1839 34.625L20.8805 41.003L21.0986 43.4953Z" fill="#0D0C10"/>
<path d="M20.4879 40.5798L17.6719 40.8262L17.7334 41.5295L20.5494 41.2832L20.4879 40.5798Z" fill="#0D0C10"/>
<path d="M22.0848 43.7642L12.9374 44.5645L14.2296 42.1047L17.459 40.8946L21.5036 33.086L23.9324 34.1029L25.3115 33.9822L21.8427 40.9165L22.0848 43.7642ZM14.1564 43.7488L21.3195 43.1221L21.1145 40.7791L24.1079 34.7966L23.8138 34.8223L21.8252 33.9896L17.9499 41.4644L14.7231 42.6725L14.1564 43.7488Z" fill="#0D0C10"/>
<path d="M29.8012 33.9437L28.5585 34.0524L25.9082 34.1497L30.5555 40.0535L27.3248 41.2649L26.396 43.0322L33.5985 42.4021L34.2726 42.3431L34.0456 39.7482L29.8012 33.9437Z" fill="white"/>
<path d="M30.1458 40.3689L29.5059 40.6728L29.8831 41.4663L30.5229 41.1621L30.1458 40.3689Z" fill="#0D0C10"/>
<path d="M28.9948 40.6246L28.3527 40.919L28.7517 41.7896L29.3938 41.4955L28.9948 40.6246Z" fill="#0D0C10"/>
<path d="M28.8789 34.0244L29.5052 33.9696L34.0451 39.7483L34.2721 42.3432L33.5979 42.4022L33.3709 39.8073L28.8789 34.0244Z" fill="#0D0C10"/>
<path d="M33.9496 42.3709L33.246 42.4325L33.028 39.9416L28.5998 34.2397L29.1575 33.8067L33.7135 39.6732L33.9496 42.3709Z" fill="#0D0C10"/>
<path d="M33.3394 39.4548L30.5234 39.7012L30.585 40.4045L33.4009 40.1582L33.3394 39.4548Z" fill="#0D0C10"/>
<path d="M34.6552 42.6642L25.7809 43.4407L27.073 40.9808L29.9785 39.8927L25.1933 33.8237L28.5051 33.7015L29.6946 33.4384L34.3801 39.6169L34.6552 42.6642ZM27.0084 42.6242L33.89 42.0221L33.7026 39.8802L29.4143 34.2217L28.6033 34.4016L26.6159 34.4751L31.1323 40.2114L27.5748 41.5452L27.0084 42.6242Z" fill="#0D0C10"/>
<path d="M25.5043 35.6012C31.5006 35.0766 35.9479 29.922 35.4375 24.0881C34.9272 18.2543 29.6523 13.9503 23.656 14.4749C17.6598 14.9995 13.2126 20.1541 13.723 25.9879C14.2334 31.8217 19.5081 36.1258 25.5043 35.6012Z" fill="#0D0C10"/>
<path d="M24.7836 35.2803C30.4068 34.7884 34.5666 29.831 34.0747 24.2078C33.5827 18.5845 28.6253 14.4249 23.002 14.9168C17.3788 15.4088 13.2191 20.3661 13.7111 25.9893C14.2031 31.6125 19.1604 35.7723 24.7836 35.2803Z" fill="white"/>
<path d="M24.5347 32.4406C23.0826 32.5677 21.6255 32.2614 20.3475 31.5603C19.0696 30.8592 18.0283 29.7949 17.3552 28.5019C16.6822 27.209 16.4076 25.7455 16.5663 24.2966C16.725 22.8476 17.3098 21.4783 18.2467 20.3616C19.1836 19.2451 20.4307 18.4314 21.8301 18.0235C23.2294 17.6156 24.7183 17.6318 26.1085 18.0701C27.4987 18.5085 28.7276 19.3492 29.64 20.4859C30.5523 21.6227 31.1071 23.0045 31.2342 24.4566C31.4018 26.4032 30.7907 28.3368 29.5349 29.8335C28.279 31.3303 26.4808 32.2677 24.5347 32.4406ZM23.3116 18.4607C21.9987 18.5756 20.7493 19.0772 19.7215 19.9021C18.6937 20.727 17.9335 21.8382 17.5372 23.0952C17.1409 24.3521 17.1262 25.6983 17.495 26.9636C17.8638 28.2288 18.5995 29.3563 19.6091 30.2035C20.6187 31.0506 21.8568 31.5794 23.1669 31.7228C24.477 31.8662 25.8002 31.6182 26.9692 31.0095C28.1382 30.401 29.1005 29.4594 29.7345 28.304C30.3684 27.1485 30.6454 25.8311 30.5305 24.5181C30.3747 22.7583 29.5271 21.1322 28.1737 19.9966C26.8203 18.861 25.0717 18.3086 23.3116 18.4607Z" fill="#FF3938"/>
<path d="M24.114 27.6275C25.5106 27.5054 26.5438 26.2741 26.4216 24.8774C26.2994 23.4807 25.0681 22.4476 23.6715 22.5698C22.2748 22.692 21.2416 23.9232 21.3638 25.3199C21.486 26.7166 22.7173 27.7497 24.114 27.6275Z" fill="#FF3938"/>
<path d="M24.8128 35.632C22.7295 35.814 20.639 35.3741 18.8057 34.3679C16.9723 33.362 15.4785 31.8348 14.5131 29.9798C13.5476 28.1247 13.1539 26.0251 13.3818 23.9463C13.6096 21.8675 14.4488 19.903 15.7931 18.3011C17.1374 16.6992 18.9265 15.5319 20.9343 14.9468C22.942 14.3617 25.0781 14.3851 27.0726 15.014C29.067 15.6429 30.8301 16.8491 32.1391 18.4801C33.4481 20.111 34.244 22.0934 34.4263 24.1767C34.6671 26.9699 33.7903 29.7446 31.9881 31.8922C30.1859 34.0398 27.6054 35.3848 24.8128 35.632ZM23.0312 15.2685C21.0871 15.4389 19.2372 16.1819 17.7154 17.4036C16.1936 18.6253 15.0682 20.2708 14.4815 22.1321C13.8949 23.9934 13.8734 25.9868 14.4196 27.8604C14.9659 29.7339 16.0554 31.4033 17.5505 32.6577C19.0455 33.912 20.8789 34.6948 22.8189 34.9072C24.7588 35.1194 26.7182 34.7519 28.4492 33.8508C30.1802 32.9496 31.6051 31.5553 32.5438 29.8443C33.4824 28.1333 33.8927 26.1824 33.7226 24.2383C33.4916 21.6322 32.236 19.2241 30.2317 17.5425C28.2274 15.8609 25.6378 15.0431 23.0312 15.2685Z" fill="#0D0C10"/>
<path d="M17.8077 9.08272L17.1527 9.34709L23.5642 25.2319L24.2192 24.9676L17.8077 9.08272Z" fill="#0D0C10"/>
<path d="M20.0161 10.2102L18.9729 12.9221L17.5185 9.34674L18.5618 6.63491L20.0161 10.2102Z" fill="#FF3938"/>
<path d="M18.9846 13.881L17.1398 9.34438L18.5545 5.67547L20.3975 10.208L18.9846 13.881ZM17.9012 9.34302L18.9655 11.9612L19.6379 10.2135L18.5721 7.59398L17.9012 9.34302Z" fill="#0D0C10"/>
<path d="M16.3169 11.7152L18.9199 13.0062L17.5697 9.3892L14.9668 8.09961L16.3169 11.7152Z" fill="#0D0C10"/>
<path d="M19.5634 13.719L16.0354 11.9701L14.3242 7.3877L17.8526 9.14086L19.5634 13.719ZM16.6006 11.4611L18.2786 12.2928L17.2925 9.64364L15.6146 8.81341L16.6006 11.4611Z" fill="#0D0C10"/>
<path d="M26.8328 25.9761L26.6274 26.6519L40.5792 30.8908L40.7845 30.2149L26.8328 25.9761Z" fill="#0D0C10"/>
<path d="M38.3156 31.8998L36.8594 29.3867L40.5557 30.4983L42.0121 33.0127L38.3156 31.8998Z" fill="#0D0C10"/>
<path d="M42.7654 33.6076L38.0816 32.198L36.1074 28.79L40.7883 30.1999L42.7654 33.6076ZM38.5527 31.6023L41.2657 32.4155L40.3272 30.796L37.6197 29.9808L38.5527 31.6023Z" fill="#0D0C10"/>
<path d="M39.4654 28.0752L36.8278 29.2915L40.4893 30.5099L43.1283 29.2933L39.4654 28.0752Z" fill="#FF3938"/>
<path d="M40.5112 30.8892L35.8679 29.3442L39.4447 27.6955L44.0865 29.2406L40.5112 30.8892ZM37.7855 29.2346L40.4693 30.1343L42.1689 29.3502L39.4872 28.4575L37.7855 29.2346Z" fill="#0D0C10"/>
<path d="M9.53361 15.7482L9.16057 16.348L23.7066 25.395L24.0796 24.7953L9.53361 15.7482Z" fill="#0D0C10"/>
<path d="M11.9824 15.36L12.7396 18.1639L9.45647 16.134L8.69922 13.3301L11.9824 15.36Z" fill="#FF3938"/>
<path d="M13.3147 18.9351L9.15307 16.3624L8.12695 12.5596L12.2887 15.1337L13.3147 18.9351ZM9.75856 15.9081L12.158 17.3998L11.67 15.5991L9.2706 14.1073L9.75856 15.9081Z" fill="#0D0C10"/>
<path d="M9.88306 18.7577L12.7455 18.2647L9.52361 16.1402L6.65973 16.6332L9.88306 18.7577Z" fill="#0D0C10"/>
<path d="M9.806 19.1283L5.72229 16.4411L9.60419 15.7682L13.687 18.4612L9.806 19.1283ZM7.60117 16.8297L9.96085 18.3859L11.8076 18.0669L9.44665 16.5123L7.60117 16.8297Z" fill="#0D0C10"/>
<path d="M22.9365 25.7667L10.0177 34.5464L10.4147 35.1306L23.3335 26.3509L22.9365 25.7667Z" fill="#0D0C10"/>
<path d="M10.6535 32.1492L13.5243 32.5943L10.3384 34.7719L7.46771 34.3281L10.6535 32.1492Z" fill="#FF3938"/>
<path d="M10.4231 35.1429L6.53156 34.5388L10.5709 31.7748L14.4612 32.3817L10.4231 35.1429ZM8.40465 34.1155L10.2548 34.4018L12.5897 32.8062L10.738 32.5188L8.40465 34.1155Z" fill="#0D0C10"/>
<path d="M12.9091 35.4453L13.6184 32.628L10.3705 34.713L9.66121 37.5303L12.9091 35.4453Z" fill="#0D0C10"/>
<path d="M9.10017 38.3098L10.0626 34.4961L14.1791 31.8527L13.2181 35.6664L9.10017 38.3098ZM10.6795 34.9341L10.2216 36.7509L12.6008 35.2239L13.0573 33.4072L10.6795 34.9341Z" fill="#0D0C10"/>
</svg>
