<svg width="92" height="92" viewBox="0 0 92 92" fill="none" xmlns="http://www.w3.org/2000/svg">
<path d="M67.4103 34.8481L80.9993 56.9918C83.6673 61.3387 78.0706 69.6249 68.5051 75.4963C58.94 81.3678 49.0147 82.6024 46.3496 78.2582L32.7578 56.1146L67.4103 34.8481Z" fill="#0D0C10"/>
<path d="M52.6029 81.6101C49.3026 81.6101 46.8946 80.5908 45.7057 78.6514L31.7207 55.8666L67.6591 33.8076L81.6437 56.5896C84.5754 61.3665 78.9757 69.9482 68.8993 76.1349C64.1827 79.0299 59.2188 80.9177 54.9323 81.4531C54.1599 81.5537 53.3819 81.6065 52.6029 81.6101ZM33.799 56.3627L46.9944 77.8621C48.1046 79.6769 50.9271 80.4332 54.7447 79.9584C58.8256 79.45 63.5718 77.6351 68.1093 74.8518C77.1516 69.3012 82.76 61.3027 80.3551 57.3882L67.1598 35.8889L33.799 56.3627Z" fill="#0D0C10"/>
<path d="M61.4038 63.9205C76.7065 54.5282 85.6532 41.279 81.3862 34.3274C77.1199 27.3759 61.2558 29.3545 45.9531 38.7468C30.6503 48.139 21.7038 61.3881 25.9704 68.3396C30.2369 75.2911 46.101 73.3125 61.4038 63.9205Z" fill="#FF8686"/>
<path d="M35.9641 73.2515C30.8578 73.2515 27.14 71.6967 25.3249 68.735C23.0954 65.1052 24.0453 59.8838 27.9961 54.0363C31.8288 48.3582 38.0636 42.7012 45.5567 38.1031C53.0499 33.505 60.9151 30.5071 67.7123 29.6661C74.7153 28.7919 79.8127 30.3105 82.0305 33.9405C84.2569 37.5707 83.31 42.792 79.3589 48.6425C75.5261 54.3176 69.2885 59.9775 61.8139 64.5729C54.3385 69.168 46.4521 72.1684 39.6547 73.0185C38.4305 73.1724 37.198 73.2503 35.9641 73.2515ZM71.4334 30.9276C70.257 30.9331 69.0819 31.0108 67.9153 31.1605C61.3265 31.9803 53.673 34.9056 46.3614 39.3918C39.0497 43.878 32.9784 49.3746 29.2636 54.8803C25.6637 60.2105 24.7259 64.863 26.6287 67.9456C28.5315 71.0282 33.0873 72.3046 39.4672 71.5091C46.0559 70.6896 53.7093 67.7671 61.021 63.2781C68.3324 58.7887 74.4037 53.2951 78.1187 47.7894C81.719 42.4593 82.6568 37.8218 80.7536 34.7271C79.2111 32.2344 75.9708 30.9276 71.4334 30.9276Z" fill="#0D0C10"/>
<path d="M58.3055 58.8749C68.3183 52.7294 74.3633 44.3711 71.8069 40.2061C69.2506 36.0412 59.0613 37.6468 49.0484 43.7924C39.0354 49.9379 32.9907 58.2962 35.5469 62.4609C38.1032 66.626 48.2925 65.0203 58.3055 58.8749Z" fill="#0D0C10"/>
<path d="M41.2561 65.5347C38.1947 65.5347 35.9834 64.6269 34.9034 62.8575C32.0871 58.2654 38.1251 49.6107 48.6525 43.1491C53.5773 40.124 58.7109 38.0791 63.1066 37.4014C67.7256 36.6754 71.0443 37.5375 72.4507 39.8215C73.8577 42.1145 73.1223 45.4633 70.3819 49.2537C67.7771 52.8597 63.6267 56.514 58.7018 59.539C53.777 62.5643 48.6434 64.6061 44.2479 65.2869C43.2587 65.4476 42.2583 65.5304 41.2561 65.5347ZM66.0892 38.6507C65.1692 38.6566 64.2504 38.7335 63.3421 38.8807C59.1405 39.5431 54.2035 41.5156 49.445 44.4378C39.9735 50.255 33.8991 58.326 36.1921 62.0651C37.2448 63.7775 40.0914 64.4061 44.015 63.7891C48.2169 63.1267 53.1508 61.1544 57.9123 58.2322C62.6736 55.31 66.6639 51.8039 69.1565 48.3583C71.4829 45.1426 72.2121 42.3081 71.1621 40.605C70.3758 39.3223 68.5818 38.6507 66.0892 38.6507Z" fill="#0D0C10"/>
<path d="M58.3054 58.8795C57.2103 59.5511 56.1122 60.1682 55.0231 60.7309C52.0247 60.4658 49.1597 59.369 46.7506 57.5641C44.3416 55.7591 42.4841 53.3177 41.3872 50.5144C40.2904 47.7111 39.9976 44.6574 40.5421 41.6969C41.0865 38.7363 42.4464 35.9864 44.4687 33.7568C46.491 31.5271 49.0955 29.9061 51.989 29.0762C54.8826 28.2463 57.9503 28.2404 60.847 29.0594C63.7438 29.8782 66.3541 31.4893 68.3849 33.7114C70.4156 35.9334 71.7864 38.678 72.3421 41.6365C73.0707 46.0955 67.2747 53.3769 58.3054 58.8795Z" fill="white"/>
<path d="M55.1781 61.5024L54.9603 61.484C51.3378 61.1774 47.9134 59.7004 45.2044 57.2761C43.1838 55.488 41.6195 53.2433 40.6418 50.7286C39.664 48.2139 39.301 45.502 39.5831 42.8188C39.8651 40.1354 40.7839 37.5583 42.2631 35.3018C43.7424 33.0454 45.7391 31.1749 48.0873 29.846C50.4354 28.5172 53.0671 27.7684 55.763 27.6621C58.4591 27.5558 61.1414 28.0949 63.5868 29.2347C66.0327 30.3744 68.1702 32.0818 69.8225 34.2148C71.4749 36.3477 72.5942 38.8444 73.0867 41.4972V41.5819C73.8159 46.422 67.7777 53.9484 58.6902 59.5237C57.6042 60.1892 56.4849 60.8185 55.3627 61.4024L55.1781 61.5024ZM56.4426 29.2062C53.3193 29.2134 50.2717 30.1684 47.7028 31.9449C45.1339 33.7215 43.1647 36.2359 42.0556 39.1556C40.9465 42.0755 40.7497 45.2631 41.4913 48.2971C42.2328 51.3312 43.8778 54.0687 46.2087 56.1477C48.6192 58.3046 51.6536 59.6385 54.8726 59.9563C55.9011 59.4208 56.9206 58.84 57.8977 58.232C66.386 53.0258 72.2697 45.9471 71.5865 41.7633V41.724C70.9137 38.201 69.0332 35.0231 66.2689 32.738C63.504 30.4529 60.0292 29.2039 56.4426 29.2062Z" fill="#0D0C10"/>
<path fill-rule="evenodd" clip-rule="evenodd" d="M55.814 48.7845L59.0684 36.6363L60.7928 37.077L57.0719 50.966L55.3477 50.5253L55.3535 50.5035L51.7604 49.54L52.2012 47.8156L55.814 48.7845Z" fill="#0D0C10"/>
<path d="M34.6253 23.0139L31.1776 20.5908L3.94141 59.344L7.38907 61.7669L34.6253 23.0139Z" fill="white"/>
<path d="M7.56868 62.8213L2.88281 59.527L30.992 19.5383L35.6748 22.8296L35.2392 23.4346L7.56868 62.8213ZM4.98828 59.1579L7.19964 60.7128L33.5694 23.2017L31.358 21.6468L4.98828 59.1579Z" fill="#0D0C10"/>
<path d="M14.4303 51.7497L10.9827 49.3267L3.94141 59.3454L7.38908 61.7687L14.4303 51.7497Z" fill="#0D0C10"/>
<path d="M7.56868 62.8213L2.88281 59.527L10.7934 48.2706L15.4703 51.5619L7.56868 62.8213ZM4.98828 59.1579L7.19964 60.7128L13.3738 51.94L11.1625 50.3852L4.98828 59.1579Z" fill="#0D0C10"/>
<path d="M32.913 35.6772H31.4004V40.1241H32.913V35.6772Z" fill="#0D0C10"/>
<path d="M34.3804 37.1475H29.9336V38.66H34.3804V37.1475Z" fill="#0D0C10"/>
<path d="M47.0614 10.4267H45.5488V14.8736H47.0614V10.4267Z" fill="#0D0C10"/>
<path d="M48.5289 11.894H44.082V13.4066H48.5289V11.894Z" fill="#0D0C10"/>
<path d="M22.2586 15.0884H20.7461V19.5352H22.2586V15.0884Z" fill="#0D0C10"/>
<path d="M23.7262 16.5557H19.2793V18.0682H23.7262V16.5557Z" fill="#0D0C10"/>
<path d="M78.8879 42.998L77.4993 42.393C78.0856 41.111 78.4009 39.7217 78.4248 38.3121C78.4248 37.0386 77.9955 36.0464 77.1484 35.3627L78.0893 34.2041C79.2994 35.1751 79.9317 36.603 79.9317 38.3303C79.9072 39.9413 79.5521 41.5301 78.8879 42.998Z" fill="white"/>
</svg>
