<svg width="36" height="36" viewBox="0 0 36 36" fill="none" xmlns="http://www.w3.org/2000/svg">
<path d="M4.97956 29.034L29.108 31.5701L24.1837 14.67L19.4517 14.1727L18.3779 16.3521L17.5092 13.9685L12.8696 13.4808L4.97956 29.034Z" fill="white"/>
<path d="M12.8693 13.4811L9.01703 21.0758L15.4235 21.7491L12.8693 13.4811Z" fill="#FF8686"/>
<path d="M11.6646 29.7368L8.91293 21.2797L5.00735 29.0371L11.6646 29.7368Z" fill="#FF8686"/>
<path d="M18.1968 30.4233L15.5123 22.1496L11.6644 29.7367L18.1968 30.4233Z" fill="#FF8686"/>
<path d="M24.6152 31.0976L22.0862 22.9116L18.1972 30.423L24.6152 31.0976Z" fill="#FF8686"/>
<path d="M22.1305 22.4987L19.4527 14.1732L15.6556 21.8871L22.1305 22.4987Z" fill="#FF8686"/>
<path d="M14.622 13.6651L12.8701 13.481L13.3943 15.1963L14.622 13.6651Z" fill="#0D0C10"/>
<path d="M21.2232 14.3593L19.5557 14.1841L20.0901 15.9694L21.2232 14.3593Z" fill="#0D0C10"/>
<path d="M17.5106 13.9685L16.0869 13.8188L18.0057 15.3267L17.5106 13.9685Z" fill="#0D0C10"/>
<path d="M22.8311 14.5278L24.1842 14.6701L24.63 16.1984L22.8311 14.5278Z" fill="#0D0C10"/>
<path d="M21.6357 20.9604L22.1307 22.4986L23.6664 22.66L21.6357 20.9604Z" fill="#0D0C10"/>
<path d="M26.1558 21.4356L26.6392 23.0952L25.2156 22.8229L26.1558 21.4356Z" fill="#0D0C10"/>
<path d="M23.4859 22.7638L22.0771 22.6157L22.5864 24.3179L23.4859 22.7638Z" fill="#0D0C10"/>
<path d="M25.3285 22.9818L26.638 23.0949L27.0493 24.5062L25.3285 22.9818Z" fill="#0D0C10"/>
<path d="M24.0264 29.1245L24.6156 31.0979L26.1767 31.262L24.0264 29.1245Z" fill="#0D0C10"/>
<path d="M28.5596 29.6872L29.1082 31.5699L27.8659 31.4394L28.5596 29.6872Z" fill="#0D0C10"/>
<path d="M10.7154 21.4446L8.91249 21.2796L9.56168 23.2733L10.7154 21.4446Z" fill="#0D0C10"/>
<path d="M17.176 22.0463L15.5364 21.9277L16.1896 24.0386L17.176 22.0463Z" fill="#0D0C10"/>
<path d="M13.8842 21.7879L14.7446 23.6833L15.5355 21.9276L13.8842 21.7879Z" fill="#0D0C10"/>
<path d="M21.2767 24.3701L22.078 22.6154L20.585 22.4585L21.2767 24.3701Z" fill="#0D0C10"/>
<path d="M19.2948 14.0509L11.4072 29.6048L11.9254 29.8676L19.8129 14.3137L19.2948 14.0509Z" fill="#0D0C10"/>
<path d="M19.833 14.1005L19.2764 14.267L24.3381 31.1815L24.8947 31.0149L19.833 14.1005Z" fill="#0D0C10"/>
<path d="M9.18887 21.1888L8.63641 21.3685L11.3876 29.8258L11.9401 29.646L9.18887 21.1888Z" fill="#0D0C10"/>
<path d="M13.1482 13.3921L12.594 13.5665L17.9228 30.5083L18.477 30.3341L13.1482 13.3921Z" fill="#0D0C10"/>
<path d="M21.8494 22.5814L17.9401 30.2905L18.4582 30.5533L22.3676 22.8442L21.8494 22.5814Z" fill="#0D0C10"/>
<path d="M26.669 22.8044L8.94304 20.9914L8.88393 21.5693L26.6097 23.3824L26.669 22.8044Z" fill="#0D0C10"/>
<path d="M29.5077 31.9036L4.53224 29.2786L12.7024 13.1719L17.7222 13.6995L18.4206 15.6142L19.2822 13.8635L24.4106 14.4025L24.4646 14.5892L29.5077 31.9036ZM5.42959 28.7888L28.7075 31.2354L23.9593 14.9392L19.6225 14.4834L18.3389 17.0917L17.2986 14.2391L13.038 13.7913L5.42959 28.7888Z" fill="#0D0C10"/>
<path d="M21.7969 14.3665L14.1632 13.5642L13.6026 6.91467L16.7668 10.4134L18.7706 6.44372L20.0278 10.7562L23.7277 7.97887L21.7969 14.3665Z" fill="#FF8686"/>
<path d="M22.6199 12.7115L14.2939 11.8364L14.2332 12.4142L22.5591 13.2893L22.6199 12.7115Z" fill="#0D0C10"/>
<path d="M13.6162 7.0083L14.6675 7.14332L17.2026 9.54665L16.7657 10.4132L13.6162 7.0083Z" fill="#0D0C10"/>
<path d="M18.7705 6.44385L19.668 6.97516L20.8127 10.1682L20.0277 10.7563L18.7705 6.44385Z" fill="#0D0C10"/>
<path d="M23.7271 7.97907L24.2949 8.53529L22.7153 14.5159L21.7963 14.3667L23.7271 7.97907Z" fill="#0D0C10"/>
<path d="M22.9323 14.8317L13.8934 13.8268L13.2981 6.67358L14.7966 6.86731L17.117 9.067L18.6472 6.03592L19.9022 6.77887L20.95 9.69301L23.7528 7.5925L24.6193 8.44067L22.9323 14.8317ZM14.4323 13.3016L22.4988 14.1985L23.971 8.62839L23.7018 8.36641L20.6704 10.6415L19.4298 7.172L18.8902 6.84776L17.2872 10.0266L14.5411 7.41995L13.9393 7.34267L14.4323 13.3016Z" fill="#0D0C10"/>
<path d="M16.8358 10.9185L13.4033 7.20461L13.8303 6.81019L16.6953 9.90947L18.5115 6.31377L19.0296 6.57504L16.8358 10.9185Z" fill="#0D0C10"/>
<path d="M19.8655 11.2405L18.4917 6.52553L19.0485 6.36324L20.1881 10.2719L23.5531 7.74683L23.9015 8.21105L19.8655 11.2405Z" fill="#0D0C10"/>
</svg>
