<svg width="4" height="14" viewBox="0 0 4 14" fill="none" xmlns="http://www.w3.org/2000/svg">
<path d="M0.750001 1.2832C0.750001 1.03598 0.823312 0.794303 0.960664 0.588741C1.09802 0.38318 1.29324 0.222964 1.52165 0.128354C1.75005 0.0337447 2.00139 0.00899056 2.24386 0.0572221C2.48634 0.105454 2.70907 0.224505 2.88388 0.39932C3.0587 0.574136 3.17775 0.796865 3.22598 1.03934C3.27421 1.28182 3.24946 1.53315 3.15485 1.76156C3.06024 1.98997 2.90003 2.18519 2.69446 2.32254C2.4889 2.45989 2.24723 2.5332 2 2.5332C1.66848 2.5332 1.35054 2.40151 1.11612 2.16709C0.881697 1.93267 0.750001 1.61472 0.750001 1.2832ZM2 5.3457C1.75277 5.3457 1.5111 5.41901 1.30554 5.55637C1.09998 5.69372 0.939761 5.88894 0.845151 6.11735C0.750542 6.34576 0.725787 6.59709 0.774019 6.83957C0.82225 7.08204 0.941302 7.30477 1.11612 7.47959C1.29093 7.6544 1.51366 7.77345 1.75614 7.82169C1.99861 7.86992 2.24995 7.84516 2.47836 7.75055C2.70676 7.65594 2.90199 7.49573 3.03934 7.29017C3.17669 7.08461 3.25 6.84293 3.25 6.5957C3.25 6.26418 3.1183 5.94624 2.88388 5.71182C2.64946 5.4774 2.33152 5.3457 2 5.3457ZM2 10.6582C1.75277 10.6582 1.5111 10.7315 1.30554 10.8689C1.09998 11.0062 0.939761 11.2014 0.845151 11.4298C0.750542 11.6583 0.725787 11.9096 0.774019 12.1521C0.82225 12.3945 0.941302 12.6173 1.11612 12.7921C1.29093 12.9669 1.51366 13.086 1.75614 13.1342C1.99861 13.1824 2.24995 13.1577 2.47836 13.0631C2.70676 12.9684 2.90199 12.8082 3.03934 12.6027C3.17669 12.3971 3.25 12.1554 3.25 11.9082C3.25 11.5767 3.1183 11.2587 2.88388 11.0243C2.64946 10.7899 2.33152 10.6582 2 10.6582Z" fill="#0D0C10"/>
</svg>
