<svg width="56" height="50" viewBox="0 0 56 50" fill="none" xmlns="http://www.w3.org/2000/svg">
<path d="M49.7025 2.86725L3.6076 1.41602L0.660156 1.98976L2.1699 44.7164L5.05657 44.5072L47.6303 44.7164L49.7025 2.86725Z" fill="white"/>
<path d="M33.6387 2.36084V13.8964L49.1992 14.6726L49.7032 2.8671L33.6387 2.36084Z" fill="#FF8686"/>
<path d="M3.6076 1.41602L0.660156 1.98976L2.1699 44.7164L5.05657 44.5072L3.6076 1.41602Z" fill="#0D0C10"/>
<path d="M1.62808 45.317L1.60782 44.7343L0.0800781 1.53484L3.5608 0.859863H3.62377L50.2924 2.3291L48.1664 45.2877L5.08403 45.0717L1.62808 45.317ZM5.03901 43.9442H5.05926L47.0975 44.1467L49.1226 3.40905L3.67326 1.97807L1.23885 2.45058L2.71254 44.1131L5.03901 43.9442Z" fill="#0D0C10"/>
<path d="M3.95825 12.1733L3.91016 13.2973L49.1738 15.234L49.2223 14.11L3.95825 12.1733Z" fill="#0D0C10"/>
<path d="M34.2012 2.36084H33.0762V13.7052H34.2012V2.36084Z" fill="#0D0C10"/>
<path d="M55.3277 6.69195L9.2326 5.24072L6.28516 5.81447L7.79485 48.5413L10.6816 48.3321L53.2574 48.5413L55.3277 6.69195Z" fill="white"/>
<path d="M39.2637 6.18555V17.7211L54.8245 18.4974L55.3285 6.6918L39.2637 6.18555Z" fill="#FF8686"/>
<path d="M9.2326 5.24072L6.28516 5.81447L7.79485 48.5413L10.6816 48.3321L9.2326 5.24072Z" fill="#0D0C10"/>
<path d="M7.25303 49.1419L7.23277 48.5592L5.70508 5.36003L9.18575 4.68506H9.24877L55.9175 6.15429L53.7911 49.1126L10.709 48.8966L7.25303 49.1419ZM10.664 47.7696H10.6842L52.7227 47.9721L54.7473 7.23429L9.29826 5.80331L6.8638 6.27578L8.33754 47.9385L10.664 47.7696Z" fill="#0D0C10"/>
<path d="M9.5813 15.998L9.5332 17.122L54.7971 19.0587L54.8451 17.9348L9.5813 15.998Z" fill="#0D0C10"/>
<path d="M39.8261 6.18555H38.7012V17.5299H39.8261V6.18555Z" fill="#0D0C10"/>
<path d="M27.955 23.7334H13.4473V24.8584H27.955V23.7334Z" fill="#0D0C10"/>
<path d="M13.4534 30.9775L13.4395 32.1025L27.9484 32.2822L27.9623 31.1573L13.4534 30.9775Z" fill="#0D0C10"/>
<path d="M27.9387 38.4878L13.4316 38.7816L13.4544 39.9063L27.9614 39.6126L27.9387 38.4878Z" fill="#0D0C10"/>
<path d="M46.255 9.64111L44.7344 12.7722L45.7462 13.2636L47.2669 10.1325L46.255 9.64111Z" fill="#0D0C10"/>
<path d="M49.1264 11.5601L47.7617 14.5827L48.787 15.0456L50.1516 12.023L49.1264 11.5601Z" fill="#0D0C10"/>
</svg>
