<svg width="72" height="72" viewBox="0 0 72 72" fill="none" xmlns="http://www.w3.org/2000/svg">
<path d="M6.53516 13.7479L45.4348 4.63513V29.9136L65.5205 40.5157V42.1363L36.0292 62.1513L9.61484 46.1752L6.53516 13.7479Z" fill="white"/>
<path d="M36.0488 62.8986L9.01843 46.5487L5.85547 13.2581L46.0652 3.83984V29.5373L66.1511 40.1394V42.477L65.8761 42.6637L36.0488 62.8986ZM10.215 45.799L36.0083 61.4019L64.8892 41.8029V40.8967L44.8031 30.2946V5.43018L7.21608 14.235L10.215 45.799Z" fill="#0D0C10"/>
<path d="M9.41992 44.1128L9.61427 46.1751L36.0287 62.1513L65.52 42.1362V40.5156L36.0287 59.7964L9.41992 44.1128Z" fill="#0D0C10"/>
<path d="M22.2812 30.4136L35.2916 25.8042V29.838L22.2812 34.8665V30.4136Z" fill="#FF8686"/>
<path d="M21.6504 35.7876V29.9817L35.9228 24.9331V30.2695L21.6504 35.7876ZM22.9126 30.8602V33.9449L34.6606 29.4011V26.6976L22.9126 30.8602Z" fill="#0D0C10"/>
<path d="M25.7834 22.7801L22.2695 18.2061L30.9683 15.6539L31.4126 13.526L34.1186 12.9731L34.3711 14.2101L32.4778 14.5963L31.0743 21.3286L25.7834 22.7801ZM24.3925 18.8977L26.2655 21.3387L29.9964 20.3038L30.6755 17.0448L24.3925 18.8977Z" fill="#0D0C10"/>
<path d="M27.2667 24.6607C27.6696 24.6607 27.9962 24.3341 27.9962 23.9312C27.9962 23.5283 27.6696 23.2017 27.2667 23.2017C26.8637 23.2017 26.5371 23.5283 26.5371 23.9312C26.5371 24.3341 26.8637 24.6607 27.2667 24.6607Z" fill="#0D0C10"/>
<path d="M30.2999 23.8023C30.7028 23.8023 31.0294 23.4757 31.0294 23.0728C31.0294 22.6699 30.7028 22.3433 30.2999 22.3433C29.897 22.3433 29.5703 22.6699 29.5703 23.0728C29.5703 23.4757 29.897 23.8023 30.2999 23.8023Z" fill="#0D0C10"/>
<path d="M45.2022 29.3296L9.18555 43.5242L9.64832 44.6984L45.665 30.5039L45.2022 29.3296Z" fill="#0D0C10"/>
<path d="M62.0286 13.2001C62.0286 15.6411 57.6063 21.4672 57.6063 21.4672C57.6063 21.4672 53.1836 15.6537 53.1836 13.2001C53.2378 12.065 53.727 10.9944 54.5492 10.2103C55.3719 9.42619 56.4649 8.98877 57.601 8.98877C58.7372 8.98877 59.8302 9.42619 60.6529 10.2103C61.4751 10.9944 61.9642 12.065 62.0185 13.2001H62.0286Z" fill="#FF8686"/>
<path d="M57.6072 22.5097L57.1023 21.8483C56.6357 21.2349 52.5586 15.7899 52.5586 13.2C52.5586 11.861 53.0904 10.5769 54.0375 9.63006C54.984 8.68326 56.2685 8.15137 57.6072 8.15137C58.9464 8.15137 60.2304 8.68326 61.1775 9.63006C62.124 10.5769 62.6559 11.861 62.6559 13.2C62.6559 15.7798 58.5716 21.2349 58.1122 21.8483L57.6072 22.5097ZM57.6072 9.40844C56.6031 9.40844 55.6402 9.80737 54.9298 10.5175C54.2199 11.2276 53.821 12.1907 53.821 13.1949C53.821 14.8054 56.2215 18.4707 57.6072 20.3993C58.9983 18.4707 61.394 14.8029 61.394 13.1949C61.394 12.1907 60.9951 11.2276 60.2847 10.5175C59.5748 9.80737 58.6114 9.40844 57.6072 9.40844Z" fill="#0D0C10"/>
<path d="M57.6075 14.826C58.5747 14.826 59.359 14.0417 59.359 13.0741C59.359 12.1066 58.5747 11.3223 57.6075 11.3223C56.6398 11.3223 55.8555 12.1066 55.8555 13.0741C55.8555 14.0417 56.6398 14.826 57.6075 14.826Z" fill="white"/>
<path d="M57.6066 15.4593C57.1348 15.4598 56.6735 15.3204 56.2809 15.0585C55.8882 14.7967 55.582 14.4243 55.401 13.9884C55.2201 13.5526 55.1726 13.0729 55.2642 12.61C55.3559 12.1471 55.583 11.7218 55.9166 11.388C56.2502 11.0541 56.675 10.8266 57.1382 10.7344C57.6009 10.6421 58.0804 10.6892 58.5167 10.8697C58.9526 11.0502 59.325 11.3559 59.5876 11.7483C59.8497 12.1406 59.9898 12.6019 59.9898 13.0739C59.9898 13.7061 59.7388 14.3124 59.2919 14.7597C58.845 15.207 58.2388 15.4586 57.6066 15.4593ZM57.6066 11.9531C57.3844 11.9525 57.167 12.018 56.9817 12.1413C56.7964 12.2645 56.6524 12.44 56.567 12.6453C56.4815 12.8507 56.459 13.0767 56.5022 13.2949C56.5458 13.513 56.6529 13.7134 56.8098 13.8707C56.9673 14.0279 57.1674 14.1349 57.3858 14.1782C57.6038 14.2215 57.8298 14.199 58.0353 14.1137C58.2407 14.0283 58.4159 13.884 58.5393 13.6989C58.6626 13.5138 58.7279 13.2962 58.7274 13.0739C58.7274 12.7766 58.6094 12.4915 58.3991 12.2813C58.1889 12.0711 57.9042 11.9531 57.6066 11.9531Z" fill="#0D0C10"/>
<path d="M58.2429 23.022L56.9805 22.9362C57.0179 22.4691 57.0179 21.9997 56.9805 21.5326L58.2429 21.4014C58.2846 21.9407 58.2846 22.4826 58.2429 23.022Z" fill="#0D0C10"/>
<path d="M51.3056 28.6287L51.0756 28.5757C50.2299 28.3813 49.3592 27.8638 48.3291 26.9551L49.1672 26.0085C50.0206 26.7658 50.7372 27.2025 51.3608 27.3464C51.4289 27.3641 51.4971 27.3767 51.5652 27.3918L51.3056 28.6287ZM54.7208 28.5782L54.342 27.3767C54.7635 27.2442 55.1532 27.0266 55.4873 26.7374C55.8209 26.4482 56.0921 26.0936 56.2832 25.6955L57.3992 26.2862C57.1308 26.8294 56.755 27.3127 56.2947 27.7066C55.8344 28.1006 55.2992 28.3971 54.7208 28.5782ZM46.0801 24.6883L45.9791 24.5797C45.3051 23.8578 44.611 23.1106 43.9269 22.477L44.7877 21.5531C45.502 22.217 46.2139 22.9819 46.9005 23.7189L47.004 23.83L46.0801 24.6883ZM34.4405 22.4164L33.3223 21.8308C33.8269 20.788 34.5953 19.8952 35.5512 19.2408L36.2328 20.301C35.4625 20.8414 34.8451 21.5719 34.4405 22.4215V22.4164ZM41.5237 20.7352C40.686 20.25 39.7661 19.9232 38.8101 19.7709L38.9717 18.5088C40.0837 18.6783 41.1546 19.0532 42.1295 19.6144L41.5237 20.7352Z" fill="#0D0C10"/>
<path d="M33.1027 26.6671L31.8633 26.4399C31.9592 25.9073 32.0703 25.3948 32.1915 24.9253L33.4157 25.2358C33.3021 25.6775 33.1961 26.1622 33.1027 26.6671Z" fill="#0D0C10"/>
<path d="M49.6472 31.4619L14.8242 47.5375L15.3532 48.6837L50.1761 32.6078L49.6472 31.4619Z" fill="#0D0C10"/>
<path d="M54.6647 34.3311L21.7031 51.9013L22.2968 53.0154L55.2585 35.4448L54.6647 34.3311Z" fill="#0D0C10"/>
<path d="M61.1845 37.6492L29.9746 55.6464L30.6051 56.7399L61.8147 38.7426L61.1845 37.6492Z" fill="#0D0C10"/>
<path d="M38.7955 32.1138L38.1582 33.2032L59.5084 45.6942L60.1458 44.6048L38.7955 32.1138Z" fill="#0D0C10"/>
<path d="M20.042 39.5518L19.3145 40.5831L42.1715 56.7072L42.8991 55.6756L20.042 39.5518Z" fill="#0D0C10"/>
<path d="M29.9394 35.9697L29.2578 37.03L51.117 51.0825L51.7986 50.0222L29.9394 35.9697Z" fill="#0D0C10"/>
<path d="M41.7308 34.8359L13.7109 44.8776L14.029 58.1582L35.521 67.4222L59.2773 54.1166L60.8551 41.49L41.7308 34.8359Z" fill="#FF8686"/>
<path d="M35.5575 68.1264L13.4092 58.5672L13.0684 44.4309L41.742 34.1646L61.5579 41.0635L59.8765 54.5103L35.5575 68.1264ZM14.6536 57.7392L35.4842 66.7205L58.6928 53.7202L60.1693 41.9192L41.742 35.505L14.3532 45.3195L14.6536 57.7392Z" fill="#0D0C10"/>
<path d="M60.8553 41.49L36.6852 53.662L35.5215 67.4222L59.278 54.1166L60.8553 41.49Z" fill="#0D0C10"/>
<path d="M60.8097 40.8623L13.666 44.2499L13.7565 45.5088L60.9 42.1212L60.8097 40.8623Z" fill="#0D0C10"/>
<path d="M36.7206 54.3513L13.4844 45.4684L13.9362 44.2895L36.6499 52.9733L60.5702 40.9271L61.1385 42.0555L36.7206 54.3513Z" fill="#0D0C10"/>
<path d="M41.1246 34.6758L36.0762 53.5036L37.2953 53.8305L42.3436 35.0027L41.1246 34.6758Z" fill="#0D0C10"/>
<path d="M25.0309 55.0405L33.8307 58.0823L33.4571 63.237L24.9375 59.8592L25.0309 55.0405Z" fill="white"/>
<path d="M34.0225 64.1403L24.2988 60.2859L24.4174 54.1592L34.4945 57.643L34.0225 64.1403ZM25.5862 59.4353L32.9067 62.3331L33.1591 58.519L25.6392 55.9213L25.5862 59.4353Z" fill="#0D0C10"/>
<path d="M16.8694 47.7656L15.6074 47.7859L15.7481 56.5414L17.01 56.5213L16.8694 47.7656Z" fill="white"/>
</svg>
