<svg width="154" height="32" viewBox="0 0 154 32" fill="none" xmlns="http://www.w3.org/2000/svg">
<path d="M22.8069 11.1584C22.0859 10.1614 20.4283 8.11142 17.882 5.06608C16.7766 3.74517 15.8285 2.62397 15.3617 2.07353C15.1043 1.76988 14.8835 1.51008 14.7093 1.30468L14.4315 0.978307L14.2808 0.801319L14.2515 0.758289L14.2384 0.752607L13.5958 0L12.7812 0.651123C10.7016 2.3114 8.99836 4.4515 7.85713 6.83678C7.15748 8.25593 6.70047 9.64343 6.46092 11.0723C6.39825 11.3938 6.34452 11.7243 6.29972 12.0556C6.02035 12.0328 5.73601 12.0182 5.45417 12.0117C5.43055 12.01 5.40693 12.0093 5.37516 12.0084C4.3431 11.9727 3.31675 12.0953 2.32543 12.3737L1.90103 12.4923L1.68273 12.8739C0.659636 14.6625 0.0804854 16.6986 0.00798259 18.7616C-0.085694 21.4407 0.646606 24.0339 2.12586 26.2609C3.57334 28.4391 5.6179 30.1043 8.03875 31.076L8.35398 31.2027L8.44932 31.236L8.4534 31.2344C9.71434 31.6906 11.0381 31.9456 12.3877 31.9919C12.5409 31.9976 12.6932 32 12.8455 32C14.5488 32 16.2073 31.6679 17.781 31.0111L17.7924 31.016L18.2111 30.8227C20.3339 29.8444 22.1504 28.3068 23.4643 26.3753C24.8156 24.3887 25.5748 22.0643 25.6594 19.6538C25.7605 16.7725 24.8001 13.9146 22.806 11.1592L22.8069 11.1584ZM13.331 20.0858C13.7701 21.7444 13.6837 23.3381 13.0761 24.8296C11.5577 23.3357 10.4442 21.6932 9.76487 19.9428C9.03742 18.0706 8.60004 16.2894 8.46156 14.6421C9.10428 14.8524 9.69481 15.1301 10.221 15.4719C11.7345 16.455 12.7812 18.0074 13.331 20.0865V20.0858ZM13.6079 28.1152C14.2531 28.6047 14.9317 29.0634 15.6314 29.4856C14.601 29.7649 13.538 29.8875 12.4627 29.8494C12.2966 29.8437 12.1304 29.8339 11.9633 29.8201C12.5759 29.294 13.1265 28.7233 13.6072 28.1152H13.6079ZM15.4099 19.5393C14.719 16.93 13.3677 14.9572 11.394 13.676C10.5281 13.1141 9.54166 12.688 8.45825 12.4094C8.47381 12.2301 8.49334 12.0515 8.51618 11.8761C8.53571 11.7259 8.55601 11.5878 8.57808 11.4587C8.75639 10.5405 9.02197 9.63206 9.36567 8.7593C9.49763 8.42481 9.64185 8.09275 9.79499 7.77207L9.80073 7.76069C10.037 7.28413 10.3033 6.80269 10.6169 6.28796L10.7399 6.0858L10.7358 6.08337C11.4641 4.94917 12.3364 3.91486 13.3343 3.00312L13.7196 3.45695C14.6181 4.51807 15.4627 5.52155 16.2309 6.43978C17.9585 8.50518 20.1986 11.2177 21.0629 12.4135C22.7718 14.7745 23.5954 17.1849 23.5115 19.5799C23.4463 21.44 22.8941 23.2536 21.9133 24.8238C20.9847 26.312 19.6912 27.5574 18.1671 28.4342C17.3167 28.0113 16.0818 27.3155 14.7703 26.3031C15.8277 24.2027 16.0435 21.9287 15.4106 19.5393H15.4099ZM11.965 26.7358C10.9957 27.9876 9.84222 28.802 9.16938 29.2112C9.06026 29.1714 8.95113 29.13 8.84355 29.0862L8.75727 29.0521C6.76402 28.2312 5.08273 26.8438 3.8951 25.0382C2.6814 23.1928 2.08024 21.0478 2.15762 18.8346C2.21301 17.2482 2.60971 15.7325 3.33793 14.3288C3.76069 14.2354 4.1916 14.1769 4.6225 14.155L4.7341 14.1526C4.95158 14.1477 5.16826 14.1477 5.37435 14.1526C5.67736 14.1664 5.98117 14.198 6.28019 14.246C6.37784 16.2627 6.8748 18.4385 7.7586 20.7149C8.60975 22.9062 10.0239 24.9302 11.9642 26.7349L11.965 26.7358Z" fill="#0D0C10"/>
<path d="M145.83 32.0008C144.216 32.0008 142.757 31.6249 141.452 30.8733C140.17 30.1215 139.164 29.0824 138.434 27.7558C137.705 26.4076 137.34 24.9042 137.34 23.246C137.34 21.6542 137.683 20.1952 138.368 18.8686C139.075 17.52 140.059 16.4589 141.32 15.6851C142.58 14.8892 144.017 14.4912 145.631 14.4912C147.289 14.4912 148.726 14.856 149.942 15.5855C151.181 16.3153 152.12 17.332 152.761 18.6366C153.403 19.9189 153.723 21.3999 153.723 23.08C153.723 23.2792 153.712 23.478 153.69 23.6771C153.668 23.8759 153.657 23.9867 153.657 24.0087H140.988C141.098 25.5121 141.64 26.6727 142.613 27.4906C143.586 28.3085 144.691 28.7177 145.929 28.7177C147.831 28.7177 149.29 27.8334 150.307 26.0648L153.425 27.557C152.695 28.9056 151.678 29.9887 150.374 30.807C149.091 31.6029 147.577 32.0008 145.83 32.0008ZM150.009 21.2231C149.964 20.6924 149.788 20.1508 149.478 19.5981C149.168 19.0454 148.682 18.5811 148.019 18.2055C147.378 17.8075 146.571 17.6084 145.598 17.6084C144.515 17.6084 143.575 17.94 142.779 18.6034C142.005 19.2666 141.474 20.1397 141.187 21.2231H150.009Z" fill="#0D0C10"/>
<path d="M129.333 32.0008C127.454 32.0008 125.895 31.5697 124.657 30.7074C123.441 29.8231 122.579 28.7177 122.07 27.3911L125.321 25.9984C125.696 26.9047 126.238 27.5902 126.945 28.0545C127.675 28.5189 128.471 28.7509 129.333 28.7509C130.24 28.7509 130.981 28.5849 131.555 28.2533C132.13 27.8998 132.418 27.4466 132.418 26.8939C132.418 26.3632 132.185 25.932 131.721 25.6005C131.257 25.2469 130.494 24.9374 129.433 24.6718L127.178 24.1415C125.939 23.8539 124.867 23.3232 123.961 22.5497C123.076 21.7538 122.634 20.7256 122.634 19.4657C122.634 17.94 123.264 16.7353 124.525 15.851C125.785 14.9444 127.332 14.4912 129.168 14.4912C130.693 14.4912 132.042 14.812 133.214 15.4531C134.408 16.0942 135.27 17.0225 135.8 18.2387L132.583 19.5981C132.274 18.913 131.799 18.4043 131.157 18.0727C130.516 17.7412 129.82 17.5752 129.068 17.5752C128.338 17.5752 127.697 17.7412 127.144 18.0727C126.592 18.3823 126.315 18.8022 126.315 19.3329C126.315 19.7973 126.503 20.1728 126.879 20.4604C127.277 20.7479 127.896 20.9911 128.736 21.1899L131.191 21.787C132.849 22.2069 134.087 22.8481 134.905 23.7103C135.723 24.5502 136.132 25.5673 136.132 26.7611C136.132 27.7338 135.834 28.6181 135.236 29.414C134.662 30.2099 133.855 30.8402 132.816 31.3041C131.799 31.7685 130.638 32.0008 129.333 32.0008Z" fill="#0D0C10"/>
<path d="M111.879 32.0008C110.708 32.0008 109.646 31.7685 108.696 31.3041C107.767 30.8178 107.026 30.1547 106.474 29.3148C105.943 28.4525 105.678 27.4798 105.678 26.3964C105.678 24.6718 106.319 23.3124 107.601 22.3173C108.906 21.3227 110.553 20.8251 112.543 20.8251C114.29 20.8251 115.782 21.1235 117.02 21.7206V21.0243C117.02 20.0293 116.622 19.2114 115.826 18.5702C115.052 17.9068 114.113 17.5752 113.007 17.5752C111.327 17.5752 109.978 18.2607 108.961 19.6313L106.175 17.708C106.949 16.6689 107.911 15.873 109.061 15.3203C110.232 14.7676 111.548 14.4912 113.007 14.4912C115.417 14.4912 117.274 15.0991 118.579 16.3153C119.905 17.5088 120.569 19.2002 120.569 21.3891V31.4701H117.02V29.4472H116.821C116.29 30.199 115.616 30.8178 114.798 31.3041C113.98 31.7685 113.007 32.0008 111.879 32.0008ZM112.477 28.9828C113.295 28.9828 114.046 28.784 114.732 28.3861C115.439 27.9661 115.992 27.4242 116.39 26.7611C116.81 26.0756 117.02 25.3461 117.02 24.5726C115.848 23.9315 114.599 23.6108 113.273 23.6108C112.057 23.6108 111.106 23.8759 110.42 24.4066C109.735 24.9374 109.392 25.6117 109.392 26.4296C109.392 27.1811 109.691 27.8002 110.288 28.2865C110.907 28.7508 111.636 28.9828 112.477 28.9828Z" fill="#0D0C10"/>
<path d="M96.5719 31.9999C95.378 31.9999 94.3056 31.7455 93.3549 31.2372C92.4261 30.7288 91.7298 30.0877 91.2654 29.3138H91.0666V31.4692H87.6172V7.72559H91.2654V14.8554L91.0666 17.1435H91.2654C91.7298 16.3916 92.4261 15.7617 93.3549 15.2534C94.3056 14.7447 95.378 14.4903 96.5719 14.4903C97.9867 14.4903 99.2914 14.8662 100.485 15.6181C101.701 16.3696 102.663 17.4199 103.37 18.7685C104.1 20.0947 104.465 21.5869 104.465 23.2451C104.465 24.9033 104.1 26.3955 103.37 27.7221C102.663 29.0487 101.701 30.0985 100.485 30.8724C99.2914 31.6239 97.9867 31.9999 96.5719 31.9999ZM95.9416 28.6507C96.8039 28.6507 97.5999 28.4296 98.3294 27.9872C99.0814 27.5453 99.6782 26.915 100.121 26.0971C100.585 25.2568 100.817 24.3065 100.817 23.2451C100.817 22.184 100.585 21.2445 100.121 20.4263C99.6782 19.5864 99.0814 18.9453 98.3294 18.5029C97.5999 18.061 96.8039 17.8398 95.9416 17.8398C95.0792 17.8398 94.2724 18.061 93.5205 18.5029C92.7909 18.9453 92.1941 19.5752 91.7298 20.3931C91.2874 21.2114 91.0666 22.162 91.0666 23.2451C91.0666 24.3285 91.2874 25.2792 91.7298 26.0971C92.1941 26.915 92.7909 27.5453 93.5205 27.9872C94.2724 28.4296 95.0792 28.6507 95.9416 28.6507Z" fill="#0D0C10"/>
<path d="M77.5526 32.0008C75.9387 32.0008 74.4796 31.6249 73.1749 30.8733C71.8925 30.1215 70.8866 29.0824 70.1569 27.7558C69.4273 26.4076 69.0625 24.9042 69.0625 23.246C69.0625 21.6542 69.4052 20.1952 70.0906 18.8686C70.7981 17.52 71.7821 16.4589 73.0424 15.6851C74.3024 14.8892 75.7395 14.4912 77.3538 14.4912C79.0118 14.4912 80.4489 14.856 81.6652 15.5855C82.9032 16.3153 83.8427 17.332 84.4839 18.6366C85.1254 19.9189 85.4458 21.3999 85.4458 23.08C85.4458 23.2792 85.4347 23.478 85.4126 23.6771C85.3906 23.8759 85.3794 23.9867 85.3794 24.0087H72.7105C72.8213 25.5121 73.3628 26.6727 74.3356 27.4906C75.3084 28.3085 76.4139 28.7177 77.6522 28.7177C79.5537 28.7177 81.0129 27.8334 82.03 26.0648L85.1474 27.557C84.4179 28.9056 83.4007 29.9887 82.0964 30.807C80.8137 31.6029 79.2993 32.0008 77.5526 32.0008ZM81.7312 21.2231C81.6872 20.6924 81.5104 20.1508 81.2008 19.5981C80.8913 19.0454 80.4049 18.5811 79.7417 18.2055C79.1002 17.8075 78.2934 17.6084 77.3206 17.6084C76.2371 17.6084 75.2975 17.94 74.5016 18.6034C73.7276 19.2666 73.1969 20.1397 72.9097 21.2231H81.7312Z" fill="#0D0C10"/>
<path d="M58.9395 15.021H62.3886V17.475H62.5876C62.9413 16.6347 63.5825 15.9384 64.5111 15.3857C65.4397 14.811 66.3904 14.5234 67.3633 14.5234C68.1592 14.5234 68.8114 14.6342 69.32 14.855V18.6688C68.5682 18.2929 67.7281 18.1049 66.7995 18.1049C65.6055 18.1049 64.5995 18.5693 63.7815 19.4979C62.9855 20.4042 62.5876 21.5209 62.5876 22.8471V31.4691H58.9395V15.021Z" fill="#0D0C10"/>
<path d="M53.7296 12.2359C53.0442 12.2359 52.4583 12.0039 51.9719 11.5396C51.5076 11.0532 51.2754 10.4673 51.2754 9.78182C51.2754 9.09669 51.5076 8.5216 51.9719 8.05763C52.4583 7.57129 53.0442 7.32812 53.7296 7.32812C54.415 7.32812 54.9898 7.57129 55.4541 8.05763C55.9406 8.5216 56.1838 9.09669 56.1838 9.78182C56.1838 10.4673 55.9406 11.0532 55.4541 11.5396C54.9898 12.0039 54.415 12.2359 53.7296 12.2359ZM51.9055 15.0215H55.5537V31.4696H51.9055V15.0215Z" fill="#0D0C10"/>
<path d="M35.291 7.72534H49.7177V11.2737H39.0055V18.1048H48.6564V21.6199H39.0055V31.4689H35.291V7.72534Z" fill="#0D0C10"/>
</svg>
