<svg width="59" height="57" viewBox="0 0 59 57" fill="none" xmlns="http://www.w3.org/2000/svg">
<g clip-path="url(#clip0_6_9645)">
<rect width="46.153" height="34.6147" transform="translate(0.798828 29.0959) rotate(-38)" fill="white"/>
<path fill-rule="evenodd" clip-rule="evenodd" d="M0.798828 29.0959L22.1098 56.3727L58.4788 27.9581L37.1679 0.681331L0.798828 29.0959Z" fill="#2E42A5"/>
<g clip-path="url(#clip1_6_9645)">
<rect width="25.9611" height="20.1919" transform="translate(0.798828 29.0959) rotate(-38)" fill="#2E42A5"/>
<path d="M10.0649 45.6504L16.1092 44.1076L23.0364 15.1795L23.1186 10.3903L17.7891 13.4915L15.2267 25.6272L12.5195 34.57L10.0649 45.6504Z" fill="white"/>
<path d="M11.7621 46.5522L14.9507 45.9062L22.0531 10.784L18.8329 13.2999L11.7621 46.5522Z" fill="#F50100"/>
<path d="M35.0776 26.1076L32.1184 31.5992L2.37374 31.3223L-2.29312 30.2435L2.00529 25.8225L14.4004 26.2721L23.7325 25.8088L35.0776 26.1076Z" fill="white"/>
<path d="M35.6996 27.2204L34.3013 30.158L19.0249 29.4315L15.6307 30.6687L-2.5138 30.4321L0.70645 27.9161L18.6787 27.9452L22.4623 26.6855L35.6996 27.2204Z" fill="#F50100"/>
<path fill-rule="evenodd" clip-rule="evenodd" d="M12.1466 20.2301L9.87349 22.006L15.2012 28.8252L6.12657 35.9151L7.90248 38.1882L16.9771 31.0983L22.3049 37.9175L24.5779 36.1416L19.2502 29.3224L28.3601 22.205L26.5842 19.9319L17.4743 27.0493L12.1466 20.2301Z" fill="#F50100"/>
<path fill-rule="evenodd" clip-rule="evenodd" d="M8.16869 23.338L13.8514 18.8982L17.8472 24.0126L25.2522 18.2271L29.692 23.9098L22.2869 29.6953L26.3003 34.7959L20.6177 39.2357L16.6043 34.135L9.23442 39.893L4.79463 34.2103L12.1645 28.4524L8.16869 23.338ZM15.2012 28.8252L6.12657 35.9151L7.90248 38.1882L16.9771 31.0983L22.3049 37.9175L24.5779 36.1416L19.2502 29.3224L28.3601 22.205L26.5842 19.9319L17.4743 27.0493L12.1466 20.2301L9.87349 22.006L15.2012 28.8252Z" fill="white"/>
</g>
<g clip-path="url(#clip2_6_9645)">
<path d="M29.2306 44.4032L28.8194 46.9261L27.3962 44.8026L25.1673 46.0542L25.9402 43.6176L23.572 42.6552L25.9589 41.7403L25.2348 39.2888L27.4383 40.5845L28.9035 38.4898L29.2643 41.0205L31.8155 40.86L30.062 42.7199L31.7781 44.6145L29.2306 44.4032Z" fill="white"/>
<path d="M37.3451 24.3358L37.071 26.0178L36.1222 24.6021L34.6363 25.4365L35.1516 23.8121L33.5728 23.1705L35.164 22.5606L34.6813 20.9262L36.1503 21.7901L37.1271 20.3936L37.3676 22.0807L39.0684 21.9737L37.8994 23.2137L39.0435 24.4767L37.3451 24.3358Z" fill="white"/>
<path d="M32.5151 13.4677L32.2409 15.1496L31.2922 13.734L29.8062 14.5683L30.3215 12.9439L28.7427 12.3024L30.334 11.6924L29.8512 10.0581L31.3202 10.9219L32.297 9.52544L32.5376 11.2125L34.2384 11.1056L33.0693 12.3455L34.2134 13.6086L32.5151 13.4677Z" fill="white"/>
<path d="M41.7494 13.5739L41.4753 15.2558L40.5265 13.8402L39.0406 14.6745L39.5559 13.0501L37.9771 12.4086L39.5683 11.7986L39.0856 10.1643L40.5546 11.0281L41.5314 9.63164L41.7719 11.3187L43.4727 11.2118L42.3037 12.4517L43.4478 13.7148L41.7494 13.5739Z" fill="white"/>
<path d="M48.7465 31.9008L48.4723 33.5827L47.5236 32.1671L46.0377 33.0014L46.5529 31.377L44.9741 30.7355L46.5654 30.1255L46.0826 28.4912L47.5517 29.355L48.5284 27.9585L48.769 29.6456L50.4698 29.5387L49.3008 30.7786L50.4448 32.0417L48.7465 31.9008Z" fill="white"/>
<path d="M45.8433 19.9848L45.2529 21.2945L44.5725 20.0292L43.1444 19.8723L44.1376 18.8342L43.8454 17.4276L45.1396 18.0513L46.3871 17.3388L46.1938 18.7624L47.257 19.7287L45.8433 19.9848Z" fill="white"/>
</g>
</g>
<defs>
<clipPath id="clip0_6_9645">
<rect width="46.153" height="34.6147" fill="white" transform="translate(0.798828 29.0959) rotate(-38)"/>
</clipPath>
<clipPath id="clip1_6_9645">
<rect width="25.9611" height="20.1919" fill="white" transform="translate(0.798828 29.0959) rotate(-38)"/>
</clipPath>
<clipPath id="clip2_6_9645">
<rect width="36.057" height="30.2879" fill="white" transform="translate(9.39355 26.0413) rotate(-38)"/>
</clipPath>
</defs>
</svg>
