<svg width="118" height="24" viewBox="0 0 118 24" fill="none" xmlns="http://www.w3.org/2000/svg">
<path d="M19.8447 11.0773L13.5124 17.5377L19.8447 24H12.6065L9.89238 21.231L6.27294 17.5377L12.6065 11.0773H19.8447ZM12.6065 0L0.844727 11.9997L4.46478 15.693L19.8447 0H12.6065Z" fill="#0D0C10"/>
<path d="M31.8447 0.522949H44.8019V3.06355H34.4721V10.7484H43.8026V13.2575H34.4743V22.9811H31.8447V0.522949Z" fill="#0D0C10"/>
<path d="M47.5391 0.522949H50.2001V22.9788H47.5391V0.522949Z" fill="#0D0C10"/>
<path d="M54.727 21.7786C53.715 20.649 53.209 19.07 53.209 17.0417V6.97607H55.8678V16.6367C55.8678 18.1624 56.2121 19.2808 56.9008 19.9919C57.5894 20.703 58.5176 21.0585 59.6853 21.0585C60.5377 21.0728 61.3735 20.8211 62.0769 20.3384C62.7736 19.8626 63.3359 19.2146 63.7095 18.4572C64.0915 17.698 64.2892 16.8591 64.2866 16.0088V6.97607H66.9499V22.9713H64.4124V20.649H64.2866C63.7897 21.5016 63.0637 22.1971 62.1914 22.6562C61.2571 23.1951 60.1975 23.4776 59.1194 23.4754C57.2062 23.4754 55.742 22.9098 54.727 21.7786Z" fill="#0D0C10"/>
<path d="M74.7474 23.1543C74.23 22.9641 73.7564 22.6709 73.3551 22.2924C72.9435 21.8988 72.6231 21.4194 72.4164 20.8882C72.1919 20.2638 72.0853 19.603 72.102 18.9395V9.39141H69.3242V6.97682H72.1088V2.46045H74.7698V6.97682H78.6435V9.39141H74.7631V18.3004C74.7631 19.2005 74.9293 19.8629 75.2616 20.2874C75.6591 20.76 76.234 20.994 76.984 20.994C77.6076 20.9888 78.2165 20.8036 78.7378 20.4607V23.0643C78.4332 23.2061 78.1128 23.3111 77.7834 23.3771C77.3747 23.446 76.9606 23.4776 76.5461 23.4716C75.9323 23.4765 75.3227 23.369 74.7474 23.1543Z" fill="#0D0C10"/>
<path d="M85.7458 23.1543C85.2282 22.9646 84.7545 22.6714 84.3535 22.2924C83.942 21.8988 83.6216 21.4194 83.4149 20.8882C83.1892 20.2641 83.0826 19.6031 83.1005 18.9395V9.39141H80.3271V6.97682H83.1117V2.46045H85.7705V6.97682H89.6532V9.39141H85.7593V18.3004C85.7593 19.2005 85.9277 19.8599 86.2601 20.2874C86.6575 20.76 87.2302 20.994 87.9824 20.994C88.6054 20.989 89.2136 20.8038 89.734 20.4607V23.0643C89.4302 23.2061 89.1105 23.3111 88.7819 23.3771C88.3731 23.446 87.959 23.4776 87.5446 23.4716C86.9307 23.4761 86.3212 23.3686 85.7458 23.1543Z" fill="#0D0C10"/>
<path d="M94.7419 22.3737C93.5368 21.6477 92.5565 20.6007 91.9102 19.3493C91.2182 18.008 90.868 16.516 90.8907 15.0062C90.8739 13.5261 91.2006 12.0624 91.8451 10.7306C92.45 9.46902 93.3862 8.39628 94.5533 7.62741C95.7631 6.84096 97.1806 6.43646 98.6223 6.46625C100.05 6.43067 101.459 6.79459 102.691 7.51714C103.833 8.21119 104.751 9.22072 105.334 10.4245C105.971 11.7437 106.288 13.1947 106.26 14.6596C106.264 14.9342 106.233 15.2081 106.165 15.4742H93.554C93.578 16.5572 93.8796 17.6158 94.4298 18.5482C94.9093 19.3451 95.5964 19.9963 96.4171 20.4317C97.1929 20.8424 98.0571 21.0572 98.9345 21.0573C100.981 21.0573 102.557 20.0964 103.661 18.1746L105.907 19.2728C105.261 20.5271 104.297 21.5888 103.111 22.3512C101.935 23.1013 100.512 23.4763 98.8447 23.4763C97.4016 23.4964 95.9813 23.1147 94.7419 22.3737ZM103.439 13.2779C103.389 12.5775 103.197 11.8945 102.876 11.2707C102.515 10.5733 101.971 9.98757 101.304 9.57618C100.486 9.09101 99.5454 8.85197 98.5954 8.88758C97.4191 8.85773 96.2782 9.29164 95.4178 10.096C94.527 10.9484 93.93 12.0628 93.7134 13.2779H103.439Z" fill="#0D0C10"/>
<path d="M107.983 6.97791H110.519V9.54777H110.642C110.984 8.63301 111.623 7.86017 112.457 7.35372C113.289 6.78819 114.269 6.48205 115.275 6.47384C115.919 6.45928 116.559 6.57882 117.154 6.82489V9.67828C116.455 9.33784 115.686 9.16599 114.909 9.17647C114.149 9.17304 113.406 9.40315 112.78 9.83581C112.123 10.2885 111.59 10.8999 111.231 11.6136C110.841 12.3527 110.639 13.1765 110.642 14.0124V22.9731H107.986V6.97791H107.983Z" fill="#0D0C10"/>
</svg>
