<svg width="36" height="36" viewBox="0 0 36 36" fill="none" xmlns="http://www.w3.org/2000/svg">
<path d="M12.375 17.4375C11.7102 17.4375 11.0519 17.3066 10.4377 17.0521C9.82345 16.7977 9.26537 16.4248 8.79527 15.9547C8.32518 15.4846 7.95227 14.9265 7.69786 14.3123C7.44345 13.6981 7.3125 13.0398 7.3125 12.375C7.3125 11.7102 7.44345 11.0519 7.69786 10.4377C7.95227 9.82345 8.32518 9.26537 8.79527 8.79527C9.26537 8.32518 9.82345 7.95227 10.4377 7.69786C11.0519 7.44345 11.7102 7.3125 12.375 7.3125C13.7177 7.3125 15.0053 7.84587 15.9547 8.79527C16.9041 9.74467 17.4375 11.0323 17.4375 12.375C17.4375 13.7177 16.9041 15.0053 15.9547 15.9547C15.0053 16.9041 13.7177 17.4375 12.375 17.4375ZM12.375 28.6875C11.0323 28.6875 9.74467 28.1541 8.79527 27.2047C7.84587 26.2553 7.3125 24.9677 7.3125 23.625C7.3125 22.2823 7.84587 20.9947 8.79527 20.0453C9.74467 19.0959 11.0323 18.5625 12.375 18.5625C13.7177 18.5625 15.0053 19.0959 15.9547 20.0453C16.9041 20.9947 17.4375 22.2823 17.4375 23.625C17.4375 24.9677 16.9041 26.2553 15.9547 27.2047C15.0053 28.1541 13.7177 28.6875 12.375 28.6875ZM23.625 17.4375C22.9602 17.4375 22.3019 17.3066 21.6877 17.0521C21.0735 16.7977 20.5154 16.4248 20.0453 15.9547C19.5752 15.4846 19.2023 14.9265 18.9479 14.3123C18.6934 13.6981 18.5625 13.0398 18.5625 12.375C18.5625 11.7102 18.6934 11.0519 18.9479 10.4377C19.2023 9.82345 19.5752 9.26537 20.0453 8.79527C20.5154 8.32518 21.0735 7.95227 21.6877 7.69786C22.3019 7.44345 22.9602 7.3125 23.625 7.3125C24.9677 7.3125 26.2553 7.84587 27.2047 8.79527C28.1541 9.74467 28.6875 11.0323 28.6875 12.375C28.6875 13.7177 28.1541 15.0053 27.2047 15.9547C26.2553 16.9041 24.9677 17.4375 23.625 17.4375ZM23.625 28.6875C22.2823 28.6875 20.9947 28.1541 20.0453 27.2047C19.0959 26.2553 18.5625 24.9677 18.5625 23.625C18.5625 22.2823 19.0959 20.9947 20.0453 20.0453C20.9947 19.0959 22.2823 18.5625 23.625 18.5625C24.9677 18.5625 26.2553 19.0959 27.2047 20.0453C28.1541 20.9947 28.6875 22.2823 28.6875 23.625C28.6875 24.9677 28.1541 26.2553 27.2047 27.2047C26.2553 28.1541 24.9677 28.6875 23.625 28.6875Z" fill="#FA6318"/>
<path d="M12.375 17.4375C11.7102 17.4375 11.0519 17.3066 10.4377 17.0521C9.82345 16.7977 9.26537 16.4248 8.79527 15.9547C8.32518 15.4846 7.95227 14.9265 7.69786 14.3123C7.44345 13.6981 7.3125 13.0398 7.3125 12.375C7.3125 11.7102 7.44345 11.0519 7.69786 10.4377C7.95227 9.82345 8.32518 9.26537 8.79527 8.79527C9.26537 8.32518 9.82345 7.95227 10.4377 7.69786C11.0519 7.44345 11.7102 7.3125 12.375 7.3125C13.7177 7.3125 15.0053 7.84587 15.9547 8.79527C16.9041 9.74467 17.4375 11.0323 17.4375 12.375C17.4375 13.7177 16.9041 15.0053 15.9547 15.9547C15.0053 16.9041 13.7177 17.4375 12.375 17.4375ZM12.375 28.6875C11.0323 28.6875 9.74467 28.1541 8.79527 27.2047C7.84587 26.2553 7.3125 24.9677 7.3125 23.625C7.3125 22.2823 7.84587 20.9947 8.79527 20.0453C9.74467 19.0959 11.0323 18.5625 12.375 18.5625C13.7177 18.5625 15.0053 19.0959 15.9547 20.0453C16.9041 20.9947 17.4375 22.2823 17.4375 23.625C17.4375 24.9677 16.9041 26.2553 15.9547 27.2047C15.0053 28.1541 13.7177 28.6875 12.375 28.6875ZM23.625 17.4375C22.9602 17.4375 22.3019 17.3066 21.6877 17.0521C21.0735 16.7977 20.5154 16.4248 20.0453 15.9547C19.5752 15.4846 19.2023 14.9265 18.9479 14.3123C18.6934 13.6981 18.5625 13.0398 18.5625 12.375C18.5625 11.7102 18.6934 11.0519 18.9479 10.4377C19.2023 9.82345 19.5752 9.26537 20.0453 8.79527C20.5154 8.32518 21.0735 7.95227 21.6877 7.69786C22.3019 7.44345 22.9602 7.3125 23.625 7.3125C24.9677 7.3125 26.2553 7.84587 27.2047 8.79527C28.1541 9.74467 28.6875 11.0323 28.6875 12.375C28.6875 13.7177 28.1541 15.0053 27.2047 15.9547C26.2553 16.9041 24.9677 17.4375 23.625 17.4375ZM23.625 28.6875C22.2823 28.6875 20.9947 28.1541 20.0453 27.2047C19.0959 26.2553 18.5625 24.9677 18.5625 23.625C18.5625 22.2823 19.0959 20.9947 20.0453 20.0453C20.9947 19.0959 22.2823 18.5625 23.625 18.5625C24.9677 18.5625 26.2553 19.0959 27.2047 20.0453C28.1541 20.9947 28.6875 22.2823 28.6875 23.625C28.6875 24.9677 28.1541 26.2553 27.2047 27.2047C26.2553 28.1541 24.9677 28.6875 23.625 28.6875Z" fill="url(#paint0_linear_6_10224)"/>
<path d="M12.375 17.4375C11.7102 17.4375 11.0519 17.3066 10.4377 17.0521C9.82345 16.7977 9.26537 16.4248 8.79527 15.9547C8.32518 15.4846 7.95227 14.9265 7.69786 14.3123C7.44345 13.6981 7.3125 13.0398 7.3125 12.375C7.3125 11.7102 7.44345 11.0519 7.69786 10.4377C7.95227 9.82345 8.32518 9.26537 8.79527 8.79527C9.26537 8.32518 9.82345 7.95227 10.4377 7.69786C11.0519 7.44345 11.7102 7.3125 12.375 7.3125C13.7177 7.3125 15.0053 7.84587 15.9547 8.79527C16.9041 9.74467 17.4375 11.0323 17.4375 12.375C17.4375 13.7177 16.9041 15.0053 15.9547 15.9547C15.0053 16.9041 13.7177 17.4375 12.375 17.4375ZM12.375 28.6875C11.0323 28.6875 9.74467 28.1541 8.79527 27.2047C7.84587 26.2553 7.3125 24.9677 7.3125 23.625C7.3125 22.2823 7.84587 20.9947 8.79527 20.0453C9.74467 19.0959 11.0323 18.5625 12.375 18.5625C13.7177 18.5625 15.0053 19.0959 15.9547 20.0453C16.9041 20.9947 17.4375 22.2823 17.4375 23.625C17.4375 24.9677 16.9041 26.2553 15.9547 27.2047C15.0053 28.1541 13.7177 28.6875 12.375 28.6875ZM23.625 17.4375C22.9602 17.4375 22.3019 17.3066 21.6877 17.0521C21.0735 16.7977 20.5154 16.4248 20.0453 15.9547C19.5752 15.4846 19.2023 14.9265 18.9479 14.3123C18.6934 13.6981 18.5625 13.0398 18.5625 12.375C18.5625 11.7102 18.6934 11.0519 18.9479 10.4377C19.2023 9.82345 19.5752 9.26537 20.0453 8.79527C20.5154 8.32518 21.0735 7.95227 21.6877 7.69786C22.3019 7.44345 22.9602 7.3125 23.625 7.3125C24.9677 7.3125 26.2553 7.84587 27.2047 8.79527C28.1541 9.74467 28.6875 11.0323 28.6875 12.375C28.6875 13.7177 28.1541 15.0053 27.2047 15.9547C26.2553 16.9041 24.9677 17.4375 23.625 17.4375ZM23.625 28.6875C22.2823 28.6875 20.9947 28.1541 20.0453 27.2047C19.0959 26.2553 18.5625 24.9677 18.5625 23.625C18.5625 22.2823 19.0959 20.9947 20.0453 20.0453C20.9947 19.0959 22.2823 18.5625 23.625 18.5625C24.9677 18.5625 26.2553 19.0959 27.2047 20.0453C28.1541 20.9947 28.6875 22.2823 28.6875 23.625C28.6875 24.9677 28.1541 26.2553 27.2047 27.2047C26.2553 28.1541 24.9677 28.6875 23.625 28.6875Z" fill="url(#paint1_linear_6_10224)"/>
<path d="M12.375 17.4375C11.7102 17.4375 11.0519 17.3066 10.4377 17.0521C9.82345 16.7977 9.26537 16.4248 8.79527 15.9547C8.32518 15.4846 7.95227 14.9265 7.69786 14.3123C7.44345 13.6981 7.3125 13.0398 7.3125 12.375C7.3125 11.7102 7.44345 11.0519 7.69786 10.4377C7.95227 9.82345 8.32518 9.26537 8.79527 8.79527C9.26537 8.32518 9.82345 7.95227 10.4377 7.69786C11.0519 7.44345 11.7102 7.3125 12.375 7.3125C13.7177 7.3125 15.0053 7.84587 15.9547 8.79527C16.9041 9.74467 17.4375 11.0323 17.4375 12.375C17.4375 13.7177 16.9041 15.0053 15.9547 15.9547C15.0053 16.9041 13.7177 17.4375 12.375 17.4375ZM12.375 28.6875C11.0323 28.6875 9.74467 28.1541 8.79527 27.2047C7.84587 26.2553 7.3125 24.9677 7.3125 23.625C7.3125 22.2823 7.84587 20.9947 8.79527 20.0453C9.74467 19.0959 11.0323 18.5625 12.375 18.5625C13.7177 18.5625 15.0053 19.0959 15.9547 20.0453C16.9041 20.9947 17.4375 22.2823 17.4375 23.625C17.4375 24.9677 16.9041 26.2553 15.9547 27.2047C15.0053 28.1541 13.7177 28.6875 12.375 28.6875ZM23.625 17.4375C22.9602 17.4375 22.3019 17.3066 21.6877 17.0521C21.0735 16.7977 20.5154 16.4248 20.0453 15.9547C19.5752 15.4846 19.2023 14.9265 18.9479 14.3123C18.6934 13.6981 18.5625 13.0398 18.5625 12.375C18.5625 11.7102 18.6934 11.0519 18.9479 10.4377C19.2023 9.82345 19.5752 9.26537 20.0453 8.79527C20.5154 8.32518 21.0735 7.95227 21.6877 7.69786C22.3019 7.44345 22.9602 7.3125 23.625 7.3125C24.9677 7.3125 26.2553 7.84587 27.2047 8.79527C28.1541 9.74467 28.6875 11.0323 28.6875 12.375C28.6875 13.7177 28.1541 15.0053 27.2047 15.9547C26.2553 16.9041 24.9677 17.4375 23.625 17.4375ZM23.625 28.6875C22.2823 28.6875 20.9947 28.1541 20.0453 27.2047C19.0959 26.2553 18.5625 24.9677 18.5625 23.625C18.5625 22.2823 19.0959 20.9947 20.0453 20.0453C20.9947 19.0959 22.2823 18.5625 23.625 18.5625C24.9677 18.5625 26.2553 19.0959 27.2047 20.0453C28.1541 20.9947 28.6875 22.2823 28.6875 23.625C28.6875 24.9677 28.1541 26.2553 27.2047 27.2047C26.2553 28.1541 24.9677 28.6875 23.625 28.6875Z" fill="url(#paint2_radial_6_10224)"/>
<defs>
<linearGradient id="paint0_linear_6_10224" x1="29.2587" y1="29.2557" x2="8.28517" y2="8.76878" gradientUnits="userSpaceOnUse">
<stop stop-color="#7EFFF5"/>
<stop offset="0.361958" stop-color="#A981FF" stop-opacity="0.92"/>
<stop offset="0.738981" stop-color="#FF8BC1"/>
<stop offset="1" stop-color="#FFF385"/>
</linearGradient>
<linearGradient id="paint1_linear_6_10224" x1="18.0002" y1="7.3092" x2="18.0002" y2="28.0364" gradientUnits="userSpaceOnUse">
<stop stop-color="white"/>
<stop offset="1" stop-color="white" stop-opacity="0.5"/>
</linearGradient>
<radialGradient id="paint2_radial_6_10224" cx="0" cy="0" r="1" gradientUnits="userSpaceOnUse" gradientTransform="translate(0.162091 34.6642) rotate(-46.3881) scale(30.2385 34.9933)">
<stop stop-color="#D0B3FF" stop-opacity="0.73"/>
<stop offset="1" stop-color="#D0B3FF" stop-opacity="0"/>
</radialGradient>
</defs>
</svg>
