<svg width="264" height="147" viewBox="0 0 264 147" fill="none" xmlns="http://www.w3.org/2000/svg">
<rect y="60.5957" width="16" height="56" rx="3" fill="#C8C6D3"/>
<rect x="35.4287" y="36.5957" width="16" height="80" rx="3" fill="#C8C6D3"/>
<rect x="70.8574" y="68.5957" width="16" height="48" rx="3" fill="#C8C6D3"/>
<rect x="106.286" y="36.5957" width="16" height="80" rx="3" fill="#C8C6D3"/>
<g filter="url(#filter0_d_2195_641)">
<rect x="141.714" y="12.5957" width="16" height="104" rx="3" fill="#201E28"/>
</g>
<rect x="143.714" y="14.5957" width="12" height="12" rx="1.5" fill="white"/>
<rect x="147.714" y="18.5957" width="4" height="4" rx="2" fill="#201E28"/>
<rect x="177.143" y="52.5957" width="16" height="64" rx="3" fill="#C8C6D3"/>
<rect x="212.571" y="80.5957" width="16" height="36" rx="3" fill="#C8C6D3"/>
<rect x="248" y="44.5957" width="16" height="72" rx="3" fill="#C8C6D3"/>
<rect y="124.596" width="16" height="2" rx="1" fill="#C8C6D3"/>
<rect x="35.4287" y="124.596" width="16" height="2" rx="1" fill="#C8C6D3"/>
<rect x="70.8574" y="124.596" width="16" height="2" rx="1" fill="#C8C6D3"/>
<rect x="106.286" y="124.596" width="16" height="2" rx="1" fill="#C8C6D3"/>
<g filter="url(#filter1_d_2195_641)">
<rect x="141.714" y="124.596" width="16" height="2" rx="1" fill="#201E28"/>
</g>
<rect x="177.143" y="124.596" width="16" height="2" rx="1" fill="#C8C6D3"/>
<rect x="212.571" y="124.596" width="16" height="2" rx="1" fill="#C8C6D3"/>
<rect x="248" y="124.596" width="16" height="2" rx="1" fill="#C8C6D3"/>
<defs>
<filter id="filter0_d_2195_641" x="125.714" y="0.595703" width="48" height="136" filterUnits="userSpaceOnUse" color-interpolation-filters="sRGB">
<feFlood flood-opacity="0" result="BackgroundImageFix"/>
<feColorMatrix in="SourceAlpha" type="matrix" values="0 0 0 0 0 0 0 0 0 0 0 0 0 0 0 0 0 0 127 0" result="hardAlpha"/>
<feOffset dy="4"/>
<feGaussianBlur stdDeviation="8"/>
<feComposite in2="hardAlpha" operator="out"/>
<feColorMatrix type="matrix" values="0 0 0 0 0.0588235 0 0 0 0 0.054902 0 0 0 0 0.0784314 0 0 0 0.08 0"/>
<feBlend mode="normal" in2="BackgroundImageFix" result="effect1_dropShadow_2195_641"/>
<feBlend mode="normal" in="SourceGraphic" in2="effect1_dropShadow_2195_641" result="shape"/>
</filter>
<filter id="filter1_d_2195_641" x="125.714" y="112.596" width="48" height="34" filterUnits="userSpaceOnUse" color-interpolation-filters="sRGB">
<feFlood flood-opacity="0" result="BackgroundImageFix"/>
<feColorMatrix in="SourceAlpha" type="matrix" values="0 0 0 0 0 0 0 0 0 0 0 0 0 0 0 0 0 0 127 0" result="hardAlpha"/>
<feOffset dy="4"/>
<feGaussianBlur stdDeviation="8"/>
<feComposite in2="hardAlpha" operator="out"/>
<feColorMatrix type="matrix" values="0 0 0 0 0.0588235 0 0 0 0 0.054902 0 0 0 0 0.0784314 0 0 0 0.08 0"/>
<feBlend mode="normal" in2="BackgroundImageFix" result="effect1_dropShadow_2195_641"/>
<feBlend mode="normal" in="SourceGraphic" in2="effect1_dropShadow_2195_641" result="shape"/>
</filter>
</defs>
</svg>
