<svg width="124" height="125" viewBox="0 0 124 125" fill="none" xmlns="http://www.w3.org/2000/svg">
<path d="M74.616 20.9064L105.837 17.9678L100.569 46.8072L100.074 50.0844L92.7239 43.2028L80.2403 53.8115L76.0444 72.1687L54.5255 74.7613L26.8206 95.3689L18.0605 85.4778L18.2985 81.2821L49.2248 58.2939L64.3829 56.6163L67.5261 43.0428L81.2223 31.2473L74.5677 25.2176L74.616 20.9064Z" fill="white"/>
<path d="M74.6167 20.9062L83.332 29.5436L81.223 31.2473L74.5684 25.2175L74.6167 20.9062Z" fill="#0D0C10"/>
<path d="M100.654 46.3382L92.9575 38.999L80.3887 49.4776L80.1172 53.4168L92.7235 43.2024L100.073 50.084L100.654 46.3382Z" fill="#0D0C10"/>
<path d="M76.0444 72.1683L76.9558 68.1807L54.8342 70.9742L26.8652 90.9905L18.2985 81.2817L18.0605 85.4774L26.8206 95.3685L54.5255 74.7609L76.0444 72.1683Z" fill="#0D0C10"/>
<path d="M26.6898 96.6262L17.1113 85.8093L17.394 80.7948L48.8708 57.3974L63.6234 55.7644L66.6885 42.5368L79.8194 31.2287L73.6296 25.6268L73.6966 20.0471L106.97 16.915L101.502 46.9745L100.758 51.9703L92.705 44.4339L80.9836 53.9342L76.8398 73.0093L54.8931 75.6577L26.6898 96.6262ZM19.0122 85.1471L26.9501 94.1156L54.1677 73.8686L75.2775 71.3242L79.28 52.9002L92.7646 41.9678L99.4192 48.1909L99.6499 46.6658L104.697 19.0055L75.5379 21.7544L75.5007 24.8084L82.6278 31.2659L68.3624 43.5412L65.1411 57.4606L49.5739 59.1903L19.2018 81.7694L19.0122 85.1471Z" fill="#0D0C10"/>
<path d="M26.7242 92.2364L17.5996 81.8956L18.9945 80.6643L27.0069 89.7439L54.4849 70.0815L76.1713 67.34L78.8644 53.2496L79.5227 48.9867L93.0259 37.7344L101.235 46.1597L99.9038 47.4579L92.8953 40.2638L81.2562 49.965L80.6982 53.5657L77.7447 69.0177L55.1843 71.867L26.7242 92.2364Z" fill="#0D0C10"/>
<path d="M81.8059 31.9691L80.6379 30.5221L81.9398 29.4732L73.9609 21.5686L75.2703 20.248L84.7263 29.6145L81.8059 31.9691Z" fill="#0D0C10"/>
<path d="M86.6594 76.0518L102.919 99.6499L101.074 102.581L93.028 107.038L75.4297 82.1969L86.6594 76.0518Z" fill="#0D0C10"/>
<path d="M86.6603 76.0518L102.919 99.6499L94.3565 104.233L77.8105 80.895L86.6603 76.0518Z" fill="#FF8686"/>
<path d="M92.7513 108.254L74.0703 81.8849L86.9523 74.8359L104.037 99.6248L101.734 103.277L92.7513 108.254ZM76.7932 82.5135L93.3201 105.821L100.429 101.887L101.823 99.6769L86.3868 77.2724L76.7932 82.5135Z" fill="#0D0C10"/>
<path d="M94.0743 105.438L77.0566 81.4305L78.5706 80.3555L94.6439 103.023L102.485 98.8314L103.359 100.472L94.0743 105.438Z" fill="#0D0C10"/>
<path d="M87.6567 42.6155C87.5004 42.4518 87.3367 42.2919 87.1772 42.1394C85.418 40.4075 83.4572 38.8927 81.3371 37.6273L80.8684 37.3446L80.6452 37.2218C67.254 29.6484 50.7419 33.1673 43.0755 45.1338C42.8932 45.4128 42.7221 45.6955 42.551 45.9894C35.0779 58.7668 40.1927 75.662 53.9782 83.7266C67.7637 91.7907 84.9973 87.9674 92.467 75.1896C93.8459 72.8472 94.8338 70.2953 95.3901 67.6347C97.2022 58.8673 94.2931 49.4487 87.6567 42.6155ZM75.5231 47.3954C84.9419 52.9081 89.4166 62.9516 85.9388 70.3204C80.7494 77.8232 69.7016 79.7426 60.3948 74.6614L59.7736 74.308C59.5467 74.1741 59.3235 74.0402 59.1003 73.8989C50.1728 68.2708 46.453 57.7289 50.4257 49.5454C55.1499 42.9094 66.0972 41.8827 75.5231 47.3954Z" fill="#0D0C10"/>
<path d="M69.3408 88.885C63.7729 88.8643 58.3109 87.3606 53.5169 84.5293C39.3148 76.2192 34.0402 58.7065 41.7587 45.5198C41.9372 45.2148 42.1307 44.921 42.3018 44.6308C50.2472 32.2142 67.2801 28.606 81.1028 36.4101L81.2702 36.5031L81.326 36.5366C81.4897 36.6296 81.6458 36.7226 81.8021 36.8192C83.9905 38.1245 86.0134 39.6881 87.8279 41.4764C87.9883 41.6252 88.1594 41.7963 88.3264 41.9675C95.2009 49.0351 98.1844 58.7065 96.302 67.805C95.73 70.5696 94.7091 73.2221 93.2814 75.6574C89.5358 82.0629 83.3275 86.5117 75.7984 88.1782C73.678 88.6478 71.5126 88.885 69.3408 88.885ZM65.6508 34.1559C56.9019 34.1559 48.6254 38.1955 43.8678 45.6277C43.6967 45.898 43.5293 46.1733 43.3656 46.4535C36.1641 58.766 41.1338 75.1256 54.458 82.9073C60.753 86.6596 68.2356 87.8897 75.4004 86.348C82.4159 84.793 88.1966 80.6569 91.6785 74.7052C93.002 72.4417 93.9494 69.9781 94.4826 67.4107C96.2351 58.9184 93.4335 49.8869 86.9872 43.2322C86.8458 43.0834 86.697 42.9346 86.5449 42.7932C84.8354 41.1065 82.9299 39.6316 80.8684 38.4002L80.4146 38.1286L80.3476 38.0915L80.2211 38.0208C75.779 35.4975 70.7596 34.1661 65.6508 34.1559ZM71.3086 78.4473C67.3348 78.422 63.4311 77.3987 59.9558 75.4714C59.7364 75.3525 59.5169 75.2297 59.3049 75.0995C59.0929 74.9693 58.8399 74.8242 58.6093 74.6792C49.2466 68.787 45.3706 57.8025 49.5963 49.1317L49.6744 48.9979C54.6886 41.9303 66.2497 40.885 75.9918 46.5837C85.7339 52.2861 90.4765 62.8801 86.7789 70.7064L86.7045 70.8404C83.2754 75.8174 77.5206 78.451 71.3086 78.451V78.4473ZM51.2218 50.0171C47.4723 57.8286 51.0582 67.7381 59.5913 73.1094C59.8021 73.2433 60.0178 73.3735 60.2386 73.5C60.4357 73.619 60.6366 73.7306 60.8374 73.8385C69.7165 78.6742 80.1431 76.9705 85.1239 69.8471C88.3454 62.8912 83.9302 53.3946 75.0432 48.1943C66.1642 42.9978 55.719 43.8013 51.2329 50.0208L51.2218 50.0171Z" fill="#0D0C10"/>
<path d="M87.6572 42.6153C87.501 42.4516 87.3373 42.2917 87.1778 42.1392C85.4095 40.4177 83.4495 38.9038 81.3377 37.6271L80.869 37.3444L80.6458 37.2216C67.0054 29.3803 50.419 32.5571 43.5039 44.3822C43.3588 44.6314 43.2212 44.8807 43.0872 45.1261C36.7636 56.9327 42.2874 72.5558 55.6824 80.3896C69.36 88.3946 86.0915 85.2442 93.0479 73.3593C94.097 71.563 94.8864 69.6267 95.3907 67.6085C97.5227 59.1162 94.5467 49.6047 87.6572 42.6153ZM60.399 74.6612L59.7779 74.3078C59.551 74.1739 59.3278 74.04 59.1046 73.8987C50.1771 68.2706 46.4573 57.7287 50.4301 49.5452C55.1505 42.9092 66.0978 41.8825 75.5237 47.3952C84.9499 52.9079 89.4172 62.9514 85.9394 70.3202C80.7537 77.823 69.706 79.7424 60.399 74.6612Z" fill="#FF8686"/>
<path d="M71.6135 85.7424C65.8406 85.7093 60.1804 84.142 55.213 81.2003C48.5546 77.3057 43.5515 71.3987 41.1187 64.5654C38.686 57.7322 39.084 50.646 42.2644 44.6944C42.4021 44.434 42.5471 44.1736 42.6997 43.917C49.8379 31.7049 67.0679 28.3423 81.1101 36.4142L81.27 36.5035L81.3258 36.537C81.4895 36.63 81.6458 36.723 81.802 36.8196C83.9803 38.1362 86.0007 39.6975 87.8243 41.4731C87.988 41.6256 88.1591 41.793 88.3228 41.9678C95.4313 49.1804 98.485 59.0788 96.2944 67.8426C95.7678 69.9459 94.9453 71.9635 93.8499 73.8352C89.3272 81.5611 80.8125 85.7424 71.6135 85.7424ZM64.9402 33.8773C56.3847 33.8773 48.4691 37.731 44.3066 44.8507C44.169 45.0887 44.0351 45.3268 43.9086 45.5686C37.7746 57.0478 43.1646 71.979 56.1541 79.5971C60.8395 82.3732 66.1787 83.8535 71.6246 83.8857C80.1801 83.8857 88.0657 80.036 92.2437 72.894C93.244 71.1738 93.9954 69.3202 94.4749 67.3888C96.5101 59.2648 93.6383 50.0211 86.9795 43.266C86.8381 43.1172 86.6902 42.9684 86.5372 42.8271C84.8161 41.1497 82.909 39.6745 80.8534 38.4303L80.4071 38.1625L80.3401 38.1253L80.2136 38.0547C75.5743 35.3532 70.3087 33.913 64.9402 33.8773ZM71.3085 78.4514C67.3347 78.4261 63.431 77.4028 59.9557 75.4755C59.74 75.3566 59.5205 75.2338 59.3085 75.1036C59.0964 74.9734 58.8435 74.8283 58.6128 74.6833C49.2502 68.7911 45.3742 57.8066 49.5999 49.1359L49.678 49.002C54.6922 41.9344 66.2496 40.889 75.9954 46.5878C85.7411 52.2865 90.4804 62.8842 86.7827 70.7106L86.7083 70.8445C83.2752 75.8178 77.5205 78.4514 71.3085 78.4514ZM60.8447 73.8426C69.7275 78.6783 80.1541 76.9783 85.1352 69.8513C88.3559 62.8953 83.9407 53.3987 75.0505 48.1984C66.1603 42.9982 55.7077 43.8054 51.244 50.0212C47.4944 57.8327 51.0803 67.7422 59.6135 73.1135C59.8242 73.2474 60.04 73.3776 60.2607 73.5041C60.4579 73.6231 60.655 73.7347 60.8559 73.8426H60.8447Z" fill="#0D0C10"/>
<path d="M86.5865 69.3115C86.3857 69.6612 86.1699 69.9922 85.9426 70.3196C89.417 62.9507 84.9423 52.9073 75.5272 47.3946C66.1125 41.8819 55.154 42.9085 50.4336 49.5446C50.6047 49.1726 50.8056 48.8342 50.9953 48.4845C55.9761 39.9773 67.9798 37.7418 77.8075 43.4926C87.6348 49.2433 91.5672 60.8007 86.5865 69.3115Z" fill="#0D0C10"/>
<path d="M86.704 70.8522L85.1011 69.9222C88.3855 62.9588 83.9851 53.4175 75.0577 48.1987C66.1303 42.9799 55.6591 43.8094 51.1954 50.0847L49.5996 49.1435C49.7856 48.7716 49.9716 48.3773 50.1984 48.0276C55.4285 39.1002 68.0274 36.7008 78.2791 42.7009C83.2263 45.5949 86.9049 49.9917 88.6351 55.0803C90.3645 60.169 89.9446 65.4399 87.4001 69.7921C87.1951 70.1193 86.9686 70.469 86.704 70.8522ZM63.0168 42.9278C67.5889 42.9856 72.0645 44.2495 75.9914 46.5917C82.4787 50.3897 86.7487 56.3562 87.787 62.2148C87.9151 59.9872 87.6035 57.7561 86.8677 55.6494C85.2797 50.9848 81.8947 46.9451 77.3343 44.2781C70.3671 40.1863 62.2431 40.3091 56.6002 43.947C58.667 43.2506 60.836 42.9061 63.0168 42.9278Z" fill="#0D0C10"/>
<path d="M44.7129 63.357C42.9758 57.7066 43.4482 51.9187 46.0483 47.0495C46.1674 46.8226 46.2976 46.5994 46.4202 46.3725C46.7869 45.7433 47.188 45.1348 47.6218 44.5498L49.1097 45.6657C48.7152 46.195 48.3513 46.7465 48.0198 47.3173C47.9007 47.5182 47.7855 47.7228 47.6776 47.931C45.3118 52.3613 44.884 57.6471 46.476 62.8102L44.7129 63.357Z" fill="white"/>
</svg>
