<svg width="30" height="30" viewBox="0 0 30 30" fill="none" xmlns="http://www.w3.org/2000/svg">
<path fill-rule="evenodd" clip-rule="evenodd" d="M14.9965 26.2486C12.0131 26.2486 9.15192 25.0636 7.04217 22.9542C4.93242 20.8449 3.7469 17.9839 3.74637 15.0005H26.2466C26.2465 16.4778 25.9554 17.9405 25.39 19.3053C24.8245 20.67 23.9958 21.9101 22.9511 22.9545C21.9065 23.999 20.6663 24.8275 19.3014 25.3927C17.9366 25.9579 16.4738 26.2488 14.9965 26.2486ZM14.9965 7.96238e-08C11.1958 -0.000391375 7.53683 1.44261 4.75953 4.03717C1.98223 6.63173 0.293906 10.1842 0.0360135 13.9761C0.0100039 14.3132 0 14.6554 0 14.9995C0 15.3436 0.0100037 15.6627 0.0330121 15.9929C0.284105 19.7906 1.96978 23.3507 4.74835 25.9517C7.52692 28.5527 11.1905 29.9999 14.9965 30C18.9741 29.9984 22.7884 28.4176 25.601 25.605C28.4136 22.7924 29.9944 18.9781 29.996 15.0005C29.9947 11.0227 28.414 7.20819 25.6013 4.39536C22.7887 1.58254 18.9743 0.00159098 14.9965 7.96238e-08Z" fill="#FACD04"/>
</svg>
