<svg width="330" height="263" viewBox="0 0 330 263" fill="none" xmlns="http://www.w3.org/2000/svg">
<g filter="url(#filter0_dd_6_8223)">
<g clip-path="url(#clip0_6_8223)">
<rect x="51.2227" y="39.6836" width="216" height="142" rx="20" transform="rotate(-5 51.2227 39.6836)" fill="white"/>
<path d="M72.3208 67.8799L72.18 66.2701L74.6505 66.0539C75.49 65.9805 76.1078 65.7604 76.504 65.3939C76.8993 65.0166 77.0631 64.4402 76.9952 63.6645C76.9348 62.9738 76.6926 62.4703 76.2688 62.154C75.8449 61.8378 75.2239 61.7154 74.4057 61.787L71.8076 62.0143L71.6682 60.4204L74.3141 60.1889C74.9941 60.1294 75.6121 60.1557 76.168 60.2676C76.7239 60.3796 77.2066 60.5729 77.6161 60.8476C78.0256 61.1223 78.3517 61.4846 78.5945 61.9345C78.8373 62.3844 78.9861 62.9228 79.041 63.5497C79.1116 64.3573 78.9852 65.0536 78.6616 65.6387C78.3487 66.2229 77.8435 66.69 77.146 67.0402C76.4582 67.3787 75.583 67.5945 74.5204 67.6875L72.3208 67.8799ZM71.2656 71.056L70.3452 60.5361L72.3536 60.3604L73.2739 70.8803L71.2656 71.056ZM84.8924 70.0726C84.2123 70.1321 83.5982 70.0894 83.0502 69.9446C82.5128 69.7989 82.0476 69.5612 81.6548 69.2315C81.2609 68.8912 80.9456 68.4691 80.7088 67.9652C80.4826 67.4603 80.3407 66.8785 80.283 66.2196C80.2254 65.5608 80.2627 64.9472 80.395 64.3789C80.5273 63.8105 80.7511 63.3091 81.0665 62.8746C81.3818 62.4402 81.7847 62.089 82.2753 61.8213C82.7658 61.5535 83.3298 61.3917 83.9674 61.3359C84.5731 61.2829 85.1239 61.3365 85.6197 61.4965C86.1262 61.6557 86.5564 61.9232 86.9105 62.2991C87.2744 62.6634 87.562 63.1362 87.7734 63.7173C87.984 64.2878 88.1019 64.9627 88.1273 65.7421L81.5964 66.3617L81.4946 65.1982L86.83 64.6832L86.2018 65.3966C86.2126 64.7854 86.1215 64.2955 85.9287 63.9269C85.7464 63.5573 85.4929 63.2904 85.168 63.1261C84.8537 62.9609 84.5053 62.895 84.1228 62.9285C83.6871 62.9666 83.3148 63.1169 83.0059 63.3795C82.7066 63.6306 82.4857 63.9818 82.3432 64.4333C82.1997 64.8741 82.1549 65.4027 82.2089 66.019C82.2897 66.9435 82.5521 67.6165 82.9958 68.0381C83.4502 68.4588 84.0387 68.6375 84.7613 68.5743C85.0694 68.5473 85.3314 68.4816 85.5471 68.3771C85.7628 68.2725 85.9395 68.15 86.0771 68.0095C86.2137 67.8583 86.3172 67.694 86.3873 67.5166C86.468 67.3382 86.5218 67.1568 86.5485 66.9724L88.3512 67.2002C88.29 67.6017 88.1776 67.9702 88.0143 68.3058C87.85 68.6306 87.6235 68.9181 87.3348 69.1683C87.0568 69.4174 86.7157 69.6186 86.3116 69.7717C85.9074 69.9249 85.4343 70.0252 84.8924 70.0726ZM93.884 69.2859C93.0552 69.3584 92.3129 69.2574 91.6571 68.9828C91.0111 68.6967 90.479 68.2454 90.061 67.6288C89.6527 67.0007 89.4068 66.2084 89.3231 65.2521C89.2376 64.2745 89.3476 63.4511 89.6531 62.7819C89.9576 62.1021 90.4095 61.5754 91.0085 61.2018C91.6076 60.8281 92.3056 60.6064 93.1025 60.5367C93.9101 60.4661 94.6418 60.568 95.2975 60.8426C95.9639 61.1162 96.5066 61.5666 96.9255 62.1938C97.3435 62.8104 97.5948 63.6022 97.6794 64.5692C97.7649 65.5468 97.6501 66.3759 97.3349 67.0567C97.0303 67.7365 96.5732 68.2636 95.9635 68.6382C95.3635 69.0012 94.6704 69.2171 93.884 69.2859ZM93.8139 67.7502C94.2602 67.7111 94.6286 67.5772 94.9191 67.3483C95.2087 67.1088 95.415 66.7749 95.5381 66.3465C95.6719 65.9173 95.7137 65.4157 95.6635 64.8419C95.6105 64.2362 95.4804 63.7283 95.2732 63.3181C95.065 62.8973 94.7861 62.5844 94.4362 62.3795C94.0863 62.1745 93.6723 62.093 93.1941 62.1348C92.7585 62.1729 92.3905 62.3122 92.0904 62.5526C91.7999 62.7815 91.5873 63.1052 91.4526 63.5239C91.3285 63.9416 91.2925 64.448 91.3446 65.0431C91.4264 65.9782 91.6857 66.6782 92.1226 67.1433C92.5594 67.6083 93.1232 67.8106 93.8139 67.7502ZM99.8734 71.2032L99.2822 64.445L98.914 60.2371L100.619 60.0879L100.787 62.3699L101.059 62.3622C101.119 61.8216 101.25 61.3551 101.451 60.9627C101.662 60.5588 101.945 60.2449 102.3 60.0211C102.655 59.7973 103.088 59.6631 103.598 59.6185C104.342 59.5534 104.985 59.6845 105.528 60.0118C106.08 60.3275 106.523 60.808 106.858 61.4533C107.192 62.088 107.398 62.8463 107.475 63.7282C107.547 64.5571 107.485 65.312 107.288 65.9932C107.09 66.6743 106.758 67.2227 106.291 67.6383C105.824 68.0539 105.219 68.2942 104.475 68.3593C103.933 68.4067 103.467 68.3404 103.076 68.1604C102.686 67.9805 102.357 67.7147 102.091 67.3633C101.824 67.0012 101.595 66.5823 101.403 66.1065L101.116 66.1316C101.206 66.4235 101.286 66.7217 101.355 67.0262C101.434 67.319 101.502 67.6075 101.559 67.8917C101.616 68.1758 101.656 68.4507 101.68 68.7163L101.882 71.0275L99.8734 71.2032ZM103.678 66.7747C104.092 66.7385 104.428 66.5967 104.685 66.3494C104.951 66.0905 105.141 65.7527 105.255 65.3359C105.378 64.9075 105.416 64.4277 105.37 63.8964C105.321 63.3438 105.2 62.8726 105.005 62.4828C104.81 62.0929 104.554 61.7994 104.237 61.6023C103.931 61.4043 103.576 61.3229 103.172 61.3582C102.821 61.3889 102.52 61.4956 102.268 61.6782C102.017 61.8608 101.812 62.0929 101.655 62.3743C101.507 62.6442 101.398 62.9321 101.329 63.238C101.27 63.543 101.253 63.8389 101.278 64.1258L101.302 64.3968C101.32 64.6093 101.366 64.8302 101.44 65.0593C101.523 65.2768 101.633 65.4974 101.771 65.721C101.907 65.9339 102.069 66.1285 102.256 66.3049C102.441 66.4707 102.656 66.5965 102.899 66.6823C103.142 66.7681 103.402 66.7989 103.678 66.7747ZM109.461 67.7143L108.473 56.4134L110.449 56.2405L111.438 67.5413L109.461 67.7143ZM117.3 67.2372C116.62 67.2967 116.006 67.2541 115.458 67.1093C114.921 66.9636 114.456 66.7259 114.063 66.3962C113.669 66.0559 113.354 65.6338 113.117 65.1298C112.891 64.625 112.749 64.0431 112.691 63.3843C112.633 62.7255 112.671 62.1119 112.803 61.5435C112.935 60.9752 113.159 60.4738 113.475 60.0393C113.79 59.6048 114.193 59.2537 114.683 58.9859C115.174 58.7182 115.738 58.5564 116.375 58.5006C116.981 58.4476 117.532 58.5011 118.028 58.6612C118.534 58.8203 118.965 59.0879 119.319 59.4638C119.682 59.8281 119.97 60.3008 120.182 60.8819C120.392 61.4524 120.51 62.1274 120.535 62.9068L114.004 63.5264L113.903 62.3628L119.238 61.8478L118.61 62.5613C118.621 61.95 118.53 61.4601 118.337 61.0915C118.155 60.722 117.901 60.4551 117.576 60.2908C117.262 60.1255 116.913 60.0596 116.531 60.0931C116.095 60.1312 115.723 60.2816 115.414 60.5442C115.115 60.7952 114.894 61.1465 114.751 61.5979C114.608 62.0388 114.563 62.5674 114.617 63.1837C114.698 64.1082 114.96 64.7812 115.404 65.2028C115.858 65.6234 116.447 65.8022 117.169 65.739C117.478 65.712 117.739 65.6462 117.955 65.5417C118.171 65.4372 118.348 65.3147 118.485 65.1741C118.622 65.023 118.725 64.8587 118.795 64.6812C118.876 64.5028 118.93 64.3215 118.957 64.1371L120.759 64.3648C120.698 64.7664 120.586 65.1349 120.422 65.4704C120.258 65.7953 120.032 66.0828 119.743 66.3329C119.465 66.5821 119.124 66.7832 118.72 66.9364C118.315 67.0895 117.842 67.1898 117.3 67.2372ZM126.233 66.247L125.312 55.7272L127.352 55.5487L128.273 66.0685L126.233 66.247ZM130.46 65.8771L130.001 60.6332L129.731 57.541L131.388 57.3959L131.55 59.9837L131.853 59.9572C131.937 59.3181 132.077 58.7865 132.276 58.3623C132.484 57.9265 132.755 57.5923 133.088 57.3597C133.42 57.1165 133.814 56.9749 134.271 56.9349C134.781 56.8903 135.211 56.9705 135.561 57.1754C135.911 57.3804 136.194 57.6822 136.411 58.0808C136.628 58.4794 136.777 58.9536 136.857 59.5033L137.112 59.481C137.195 58.842 137.347 58.3094 137.566 57.8833C137.796 57.4457 138.088 57.1096 138.442 56.8752C138.796 56.6408 139.202 56.5036 139.659 56.4636C140.115 56.4236 140.517 56.4795 140.862 56.6314C141.217 56.7716 141.521 57.0073 141.775 57.3385C142.039 57.6687 142.253 58.089 142.415 58.5995C142.578 59.1099 142.689 59.7052 142.748 60.3852L143.132 64.7685L141.107 64.9456L140.745 60.8014C140.694 60.217 140.598 59.7328 140.457 59.349C140.327 58.9642 140.147 58.6854 139.918 58.5128C139.688 58.3295 139.413 58.2518 139.095 58.2796C138.723 58.3122 138.41 58.4681 138.156 58.7473C137.901 59.0158 137.713 59.3802 137.593 59.8405C137.472 60.2901 137.42 60.7979 137.437 61.3638L137.776 65.2371L135.8 65.41L135.445 61.3614C135.391 60.7451 135.294 60.2397 135.152 59.8452C135.011 59.4507 134.825 59.1618 134.594 58.9785C134.364 58.7952 134.09 58.7175 133.771 58.7454C133.388 58.7789 133.07 58.9352 132.816 59.2144C132.573 59.4927 132.391 59.8619 132.271 60.3222C132.15 60.7824 132.104 61.295 132.132 61.8601L132.468 65.7014L130.46 65.8771ZM145.302 67.2287L144.711 60.4705L144.343 56.2626L146.048 56.1133L146.216 58.3954L146.488 58.3877C146.548 57.8471 146.679 57.3806 146.88 56.9882C147.091 56.5843 147.374 56.2704 147.729 56.0466C148.084 55.8228 148.517 55.6886 149.027 55.644C149.771 55.5789 150.414 55.71 150.957 56.0373C151.509 56.353 151.952 56.8335 152.287 57.4788C152.621 58.1134 152.827 58.8717 152.904 59.7537C152.976 60.5825 152.914 61.3375 152.717 62.0187C152.519 62.6998 152.187 63.2482 151.72 63.6638C151.253 64.0794 150.648 64.3197 149.904 64.3848C149.362 64.4322 148.896 64.3659 148.505 64.1859C148.115 64.0059 147.786 63.7402 147.52 63.3888C147.253 63.0267 147.024 62.6077 146.832 62.132L146.545 62.1571C146.635 62.449 146.715 62.7472 146.784 63.0516C146.863 63.3445 146.931 63.633 146.988 63.9171C147.045 64.2013 147.085 64.4761 147.109 64.7418L147.311 67.053L145.302 67.2287ZM149.107 62.8002C149.521 62.764 149.857 62.6222 150.114 62.3749C150.38 62.116 150.57 61.7782 150.683 61.3613C150.807 60.933 150.845 60.4532 150.798 59.9218C150.75 59.3693 150.629 58.8981 150.434 58.5082C150.239 58.1184 149.983 57.8249 149.666 57.6278C149.36 57.4298 149.005 57.3484 148.601 57.3837C148.25 57.4144 147.949 57.5211 147.697 57.7037C147.446 57.8863 147.241 58.1184 147.084 58.3998C146.936 58.6697 146.827 58.9576 146.758 59.2635C146.699 59.5685 146.682 59.8644 146.707 60.1513L146.731 60.4223C146.749 60.6348 146.795 60.8556 146.869 61.0848C146.952 61.3023 147.062 61.5229 147.2 61.7464C147.336 61.9594 147.498 62.154 147.685 62.3304C147.87 62.4962 148.085 62.622 148.328 62.7078C148.571 62.7936 148.831 62.8244 149.107 62.8002ZM156.869 63.7755C156.401 63.8164 155.979 63.7676 155.603 63.6292C155.226 63.4802 154.916 63.2396 154.673 62.9075C154.44 62.5746 154.301 62.1477 154.255 61.627C154.217 61.1914 154.265 60.8125 154.397 60.4904C154.54 60.1673 154.768 59.8958 155.081 59.6757C155.392 59.445 155.787 59.2445 156.265 59.0742C156.752 58.8924 157.316 58.7253 157.955 58.5729C158.312 58.4882 158.6 58.4095 158.818 58.3369C159.047 58.2633 159.21 58.1687 159.307 58.0531C159.414 57.926 159.457 57.7509 159.438 57.5278C159.409 57.1983 159.268 56.927 159.013 56.7137C158.759 56.5003 158.377 56.416 157.867 56.4606C157.569 56.4866 157.282 56.5653 157.004 56.6967C156.737 56.8271 156.513 57.0128 156.33 57.2536C156.148 57.4944 156.03 57.8045 155.978 58.1838L154.144 57.7821C154.214 57.3584 154.347 56.9774 154.542 56.6391C154.737 56.3008 154.99 56.0057 155.3 55.7537C155.609 55.5017 155.972 55.304 156.388 55.1606C156.814 55.0162 157.277 54.9222 157.777 54.8785C158.552 54.8106 159.201 54.8823 159.723 55.0937C160.245 55.305 160.651 55.6656 160.942 56.1755C161.232 56.6748 161.413 57.3336 161.484 58.1518L161.621 59.7138C161.652 60.0751 161.691 60.4519 161.736 60.8441C161.79 61.2248 161.846 61.6108 161.901 62.0021C161.967 62.3818 162.036 62.7505 162.11 63.1081L160.309 63.2656C160.241 62.9718 160.176 62.6563 160.114 62.3191C160.052 61.9818 160.001 61.633 159.958 61.2727L159.703 61.295C159.59 61.7118 159.41 62.1023 159.163 62.4665C158.917 62.8307 158.6 63.1314 158.214 63.3686C157.838 63.5943 157.389 63.7299 156.869 63.7755ZM157.52 62.2248C157.733 62.2062 157.947 62.1499 158.164 62.056C158.38 61.9621 158.583 61.832 158.772 61.6655C158.972 61.4982 159.152 61.295 159.313 61.0561C159.474 60.8171 159.605 60.538 159.705 60.2187L159.568 58.8334L159.956 58.8637C159.789 59.0282 159.576 59.1646 159.318 59.2729C159.059 59.3811 158.783 59.4695 158.49 59.5381C158.206 59.6057 157.919 59.6844 157.627 59.7742C157.345 59.8524 157.091 59.9495 156.865 60.0656C156.639 60.1711 156.464 60.3149 156.341 60.497C156.217 60.6685 156.167 60.8976 156.192 61.1845C156.224 61.5458 156.36 61.8177 156.601 62C156.852 62.1815 157.159 62.2564 157.52 62.2248ZM167.694 62.8283C166.972 62.8915 166.336 62.8401 165.786 62.6741C165.236 62.5081 164.774 62.2486 164.401 61.8958C164.026 61.5324 163.726 61.0983 163.5 60.5934C163.284 60.0876 163.15 59.5319 163.097 58.9262C163.04 58.278 163.078 57.675 163.212 57.1173C163.345 56.5596 163.569 56.0635 163.884 55.629C164.2 55.1945 164.603 54.8434 165.093 54.5756C165.584 54.3079 166.164 54.1447 166.833 54.0861C167.503 54.0275 168.097 54.088 168.616 54.2674C169.135 54.4469 169.566 54.725 169.909 55.1019C170.252 55.4681 170.495 55.918 170.638 56.4515L168.825 57.2044C168.764 56.8778 168.648 56.5988 168.478 56.3674C168.307 56.1254 168.088 55.9465 167.821 55.8307C167.554 55.7148 167.245 55.6723 166.894 55.7029C166.565 55.7318 166.278 55.8211 166.034 55.9709C165.801 56.1198 165.611 56.3292 165.463 56.5991C165.314 56.8584 165.212 57.1617 165.157 57.5092C165.102 57.8567 165.093 58.2429 165.13 58.668C165.182 59.2631 165.306 59.7608 165.502 60.1613C165.697 60.5618 165.965 60.8649 166.304 61.0708C166.653 61.2652 167.077 61.3405 167.577 61.2968C168.002 61.2596 168.34 61.1497 168.592 60.967C168.853 60.7729 169.041 60.5369 169.156 60.2592C169.281 59.9699 169.345 59.6697 169.35 59.3588L171.169 59.5852C171.154 60.0255 171.067 60.4346 170.907 60.8127C170.757 61.1791 170.54 61.5087 170.255 61.8013C169.969 62.0833 169.614 62.3124 169.191 62.4886C168.767 62.6649 168.268 62.7781 167.694 62.8283ZM175.608 62.1199C174.726 62.1971 174.052 62.0205 173.586 61.5901C173.13 61.1482 172.858 60.4278 172.771 59.4289L172.421 55.4282L171.21 55.5342L171.102 53.9375L171.899 53.8678C172.207 53.8408 172.431 53.773 172.572 53.6644C172.711 53.5451 172.792 53.3614 172.813 53.1133L172.883 51.9025L174.047 51.8007L174.209 53.6496L176.408 53.4572L176.555 55.1308L174.355 55.3232L174.693 59.1805C174.727 59.5737 174.842 59.8527 175.039 60.0175C175.246 60.1814 175.535 60.2471 175.907 60.2146C176.109 60.1969 176.304 60.1585 176.492 60.0992C176.689 60.0284 176.867 59.9271 177.027 59.7954L177.194 61.7081C176.885 61.8422 176.593 61.9373 176.32 61.9934C176.058 62.0591 175.821 62.1013 175.608 62.1199Z" fill="#0D0C10"/>
<path d="M72.9424 93.9969L72.8756 93.2328L75.4704 89.8403C75.775 89.4429 76.0244 89.0988 76.2186 88.8081C76.4125 88.5145 76.5512 88.2429 76.6349 87.9931C76.7212 87.7403 76.7526 87.4809 76.7294 87.2149C76.7026 86.9092 76.6059 86.6511 76.4392 86.4404C76.2753 86.2294 76.0621 86.0741 75.7995 85.9745C75.537 85.8748 75.2487 85.8387 74.9345 85.8662C74.6006 85.8954 74.3152 85.9903 74.0782 86.1507C73.8439 86.3081 73.6696 86.5158 73.5553 86.7739C73.4438 87.0318 73.4026 87.3263 73.4315 87.6574L72.4297 87.7451C72.3851 87.2356 72.4634 86.7782 72.6647 86.3728C72.8659 85.9673 73.1594 85.6394 73.5453 85.3889C73.934 85.1381 74.3817 84.9906 74.8883 84.9463C75.3977 84.9017 75.8585 84.9698 76.2707 85.1504C76.6829 85.3311 77.0168 85.5942 77.2723 85.9397C77.5278 86.2852 77.6751 86.6816 77.7142 87.1287C77.7422 87.4485 77.7116 87.7663 77.6223 88.0821C77.5356 88.3949 77.367 88.7504 77.1167 89.1487C76.869 89.544 76.5195 90.0308 76.0682 90.6093L74.2981 92.8688L74.3041 92.9367L78.3454 92.5831L78.4271 93.517L72.9424 93.9969ZM82.4763 84.4022L83.2369 93.0962L82.1841 93.1884L81.52 85.598L81.4691 85.6025L79.4698 87.1976L79.3762 86.1278L81.4235 84.4943L82.4763 84.4022ZM89.9756 94.9706C89.8058 94.9855 89.6532 94.9846 89.5177 94.9679C89.3824 94.9541 89.2882 94.9366 89.2351 94.9156L89.4125 94.0103C89.6613 94.0513 89.8784 94.0551 90.0637 94.0218C90.249 93.9885 90.4073 93.8905 90.5385 93.7279C90.6728 93.5679 90.7863 93.317 90.879 92.9752L91.0212 92.4494L88.0365 86.1059L89.1233 86.0108L91.3778 91.0494L91.4458 91.0434L92.7911 85.6899L93.8779 85.5948L91.7637 93.3084C91.6686 93.6561 91.5388 93.9484 91.3741 94.1852C91.2097 94.4249 91.0106 94.6091 90.7766 94.738C90.5454 94.8666 90.2784 94.9441 89.9756 94.9706ZM98.283 91.9168C97.6547 91.9717 97.1006 91.8805 96.6207 91.643C96.1434 91.4024 95.7597 91.0425 95.4696 90.5631C95.1822 90.0806 95.0092 89.5054 94.9508 88.8375C94.8924 88.1696 94.9625 87.5703 95.1614 87.0396C95.3628 86.5058 95.6703 86.0768 96.084 85.7526C96.5002 85.4253 97.0026 85.2359 97.5913 85.1844C97.9309 85.1547 98.2712 85.1819 98.6123 85.2662C98.9533 85.3504 99.2708 85.508 99.5648 85.7389C99.8585 85.967 100.104 86.282 100.302 86.684C100.5 87.0859 100.625 87.5911 100.678 88.1995L100.715 88.624L95.6892 89.0638L95.6135 88.1978L99.6209 87.8472C99.5887 87.4793 99.4864 87.1574 99.314 86.8816C99.1444 86.6056 98.9178 86.3958 98.6344 86.2524C98.3537 86.1087 98.0323 86.0527 97.67 86.0844C97.271 86.1193 96.9344 86.2485 96.6602 86.4721C96.3886 86.6927 96.1888 86.9668 96.0606 87.2946C95.9324 87.6223 95.8841 87.9659 95.9155 88.3253L95.966 88.9027C96.0091 89.3951 96.1305 89.8051 96.3303 90.1327C96.5326 90.4572 96.7944 90.6953 97.1157 90.8468C97.4367 90.9955 97.7995 91.0522 98.2042 91.0168C98.4674 90.9938 98.7019 90.9362 98.9078 90.844C99.1162 90.7488 99.2916 90.6194 99.4342 90.4558C99.5765 90.2893 99.6801 90.0892 99.7452 89.8553L100.737 90.0424C100.664 90.3796 100.518 90.6832 100.299 90.9533C100.08 91.2206 99.7997 91.439 99.458 91.6086C99.1162 91.7754 98.7245 91.8781 98.283 91.9168ZM104.427 91.3963C104.014 91.4325 103.632 91.3875 103.282 91.2613C102.931 91.1322 102.644 90.9278 102.42 90.648C102.195 90.3653 102.065 90.0117 102.027 89.5872C101.995 89.2137 102.042 88.9044 102.169 88.6595C102.295 88.4117 102.476 88.2105 102.71 88.056C102.945 87.9014 103.208 87.7786 103.5 87.6875C103.794 87.5933 104.09 87.5132 104.39 87.4471C104.781 87.3615 105.099 87.2952 105.343 87.2481C105.59 87.1981 105.767 87.1355 105.874 87.0605C105.985 86.9853 106.033 86.867 106.019 86.7057L106.016 86.6717C105.979 86.2529 105.836 85.9374 105.586 85.7254C105.34 85.5132 104.986 85.4272 104.524 85.4676C104.046 85.5094 103.68 85.6469 103.427 85.8801C103.174 86.1133 103.002 86.3536 102.913 86.601L101.932 86.3446C102.067 85.9335 102.267 85.6052 102.53 85.3597C102.796 85.1111 103.094 84.9282 103.423 84.811C103.755 84.6908 104.085 84.6163 104.413 84.5875C104.623 84.5692 104.865 84.5736 105.142 84.6008C105.42 84.6249 105.694 84.7022 105.962 84.8328C106.233 84.9631 106.467 85.175 106.663 85.4686C106.86 85.7623 106.981 86.168 107.027 86.6859L107.402 90.982L106.401 91.0697L106.323 90.1867L106.272 90.1912C106.217 90.3386 106.117 90.4999 105.972 90.6751C105.828 90.8503 105.629 91.006 105.376 91.1422C105.123 91.2784 104.806 91.3632 104.427 91.3963ZM104.501 90.483C104.897 90.4483 105.225 90.3413 105.483 90.1619C105.744 89.9822 105.933 89.7632 106.05 89.5048C106.17 89.2462 106.218 88.9811 106.194 88.7094L106.114 87.7924C106.076 87.8471 105.987 87.902 105.846 87.957C105.708 88.009 105.547 88.0588 105.363 88.1062C105.181 88.1506 105.004 88.1918 104.83 88.2298C104.659 88.2647 104.521 88.294 104.414 88.3175C104.157 88.3743 103.919 88.4508 103.699 88.547C103.482 88.6401 103.31 88.7678 103.185 88.9299C103.062 89.0889 103.011 89.2958 103.034 89.5505C103.064 89.8986 103.216 90.1506 103.489 90.3063C103.765 90.459 104.102 90.5179 104.501 90.483ZM109.231 90.8221L108.661 84.3015L109.628 84.2168L109.715 85.2017L109.783 85.1958C109.873 84.8627 110.065 84.5821 110.359 84.354C110.653 84.1258 110.995 83.9946 111.385 83.9604C111.459 83.954 111.551 83.9474 111.662 83.9405C111.772 83.9337 111.856 83.9307 111.913 83.9314L112.003 84.9502C111.968 84.9447 111.889 84.9388 111.766 84.9324C111.645 84.923 111.518 84.9241 111.385 84.9358C111.068 84.9635 110.791 85.0548 110.554 85.2096C110.319 85.3613 110.139 85.5595 110.015 85.8042C109.894 86.0458 109.846 86.3138 109.872 86.6081L110.233 90.7344L109.231 90.8221ZM117.855 84.9686L116.977 85.3021C116.907 85.157 116.811 85.0186 116.688 84.8867C116.568 84.7518 116.411 84.6458 116.216 84.5688C116.021 84.4917 115.778 84.4659 115.486 84.4914C115.087 84.5263 114.763 84.6474 114.513 84.8546C114.265 85.0588 114.154 85.301 114.178 85.5811C114.2 85.8302 114.308 86.019 114.502 86.1475C114.695 86.2759 114.989 86.3715 115.382 86.434L116.371 86.5871C116.966 86.6776 117.42 86.8561 117.731 87.1225C118.042 87.3862 118.218 87.7459 118.257 88.2015C118.29 88.5751 118.212 88.9184 118.022 89.2316C117.836 89.5445 117.559 89.8026 117.192 90.0058C116.825 90.209 116.388 90.3328 115.881 90.3771C115.216 90.4353 114.653 90.3391 114.192 90.0886C113.731 89.8381 113.418 89.4405 113.254 88.896L114.184 88.575C114.305 88.918 114.499 89.1663 114.766 89.3197C115.036 89.4729 115.377 89.5315 115.787 89.4956C116.254 89.4548 116.616 89.3233 116.873 89.1011C117.133 88.8759 117.251 88.6233 117.226 88.3431C117.206 88.1167 117.11 87.934 116.939 87.795C116.767 87.6532 116.513 87.5585 116.178 87.5108L115.069 87.3512C114.459 87.2619 114.002 87.081 113.695 86.8083C113.392 86.5326 113.22 86.1697 113.181 85.7197C113.149 85.3518 113.224 85.0173 113.405 84.7162C113.59 84.4149 113.855 84.1679 114.2 83.9751C114.549 83.7821 114.952 83.6655 115.41 83.6254C116.056 83.569 116.575 83.6662 116.967 83.917C117.363 84.1676 117.659 84.5181 117.855 84.9686Z" fill="#52505F"/>
<path d="M230.188 72.2248L229.091 72.3207L226.883 71.3953L222.926 79.036L219.695 80.2473L218.767 82.0146L225.969 81.3845L226.925 81.3009L226.698 78.706L230.188 72.2248Z" fill="white"/>
<path d="M222.593 79.1274L221.955 79.4317L222.333 80.222L222.97 79.9177L222.593 79.1274Z" fill="#0D0C10"/>
<path d="M221.454 79.5616L220.812 79.8557L221.211 80.7266L221.853 80.4325L221.454 79.5616Z" fill="#0D0C10"/>
<path d="M229.091 72.3207L230.187 72.2248L226.697 78.706L226.924 81.3009L225.968 81.3845L225.741 78.7896L229.091 72.3207Z" fill="#0D0C10"/>
<path d="M226.321 81.3532L225.618 81.4148L225.382 78.7185L228.778 72.1577L229.407 72.4829L226.103 78.8609L226.321 81.3532Z" fill="#0D0C10"/>
<path d="M225.711 78.4377L222.895 78.6841L222.956 79.3874L225.772 79.1411L225.711 78.4377Z" fill="#0D0C10"/>
<path d="M227.307 81.6221L218.16 82.4224L219.452 79.9626L222.682 78.7525L226.726 70.944L229.155 71.9608L230.534 71.8402L227.065 78.7744L227.307 81.6221ZM219.379 81.6067L226.542 80.98L226.337 78.637L229.331 72.6545L229.036 72.6802L227.048 71.8475L223.173 79.3223L219.946 80.5304L219.379 81.6067Z" fill="#0D0C10"/>
<path d="M235.024 71.8016L233.781 71.9103L231.131 72.0076L235.778 77.9114L232.547 79.1228L231.619 80.8901L238.821 80.26L239.495 80.201L239.268 77.6061L235.024 71.8016Z" fill="white"/>
<path d="M235.368 78.2268L234.729 78.5307L235.106 79.3242L235.746 79.02L235.368 78.2268Z" fill="#0D0C10"/>
<path d="M234.217 78.4825L233.575 78.7769L233.974 79.6475L234.616 79.3534L234.217 78.4825Z" fill="#0D0C10"/>
<path d="M234.102 71.8823L234.728 71.8275L239.268 77.6062L239.495 80.2011L238.821 80.2601L238.594 77.6652L234.102 71.8823Z" fill="#0D0C10"/>
<path d="M239.172 80.2288L238.469 80.2904L238.251 77.7995L233.822 72.0977L234.38 71.6646L238.936 77.5311L239.172 80.2288Z" fill="#0D0C10"/>
<path d="M238.562 77.3127L235.746 77.5591L235.808 78.2624L238.624 78.0161L238.562 77.3127Z" fill="#0D0C10"/>
<path d="M239.878 80.5222L231.004 81.2986L232.296 78.8387L235.201 77.7506L230.416 71.6816L233.728 71.5594L234.917 71.2963L239.603 77.4748L239.878 80.5222ZM232.231 80.4821L239.113 79.8801L238.925 77.7381L234.637 72.0796L233.826 72.2595L231.839 72.333L236.355 78.0693L232.797 79.4032L232.231 80.4821Z" fill="#0D0C10"/>
<path d="M230.727 73.4591C236.723 72.9345 241.171 67.7799 240.66 61.9461C240.15 56.1122 234.875 51.8082 228.879 52.3328C222.882 52.8574 218.435 58.012 218.946 63.8458C219.456 69.6797 224.731 73.9837 230.727 73.4591Z" fill="#0D0C10"/>
<path d="M230.006 73.1382C235.629 72.6463 239.789 67.6889 239.297 62.0657C238.805 56.4424 233.848 52.2828 228.225 52.7747C222.601 53.2667 218.442 58.224 218.934 63.8472C219.426 69.4704 224.383 73.6302 230.006 73.1382Z" fill="white"/>
<path d="M229.757 70.2986C228.305 70.4256 226.848 70.1193 225.57 69.4182C224.292 68.7171 223.251 67.6528 222.578 66.3598C221.905 65.0669 221.63 63.6035 221.789 62.1545C221.948 60.7055 222.532 59.3362 223.469 58.2196C224.406 57.103 225.653 56.2893 227.053 55.8814C228.452 55.4735 229.941 55.4897 231.331 55.9281C232.721 56.3664 233.95 57.2071 234.863 58.3439C235.775 59.4806 236.33 60.8624 236.457 62.3145C236.624 64.2611 236.013 66.1948 234.758 67.6914C233.502 69.1882 231.703 70.1256 229.757 70.2986ZM228.534 56.3187C227.221 56.4335 225.972 56.9351 224.944 57.76C223.916 58.5849 223.156 59.6961 222.76 60.9531C222.364 62.21 222.349 63.5562 222.718 64.8215C223.086 66.0867 223.822 67.2142 224.832 68.0614C225.841 68.9085 227.079 69.4373 228.39 69.5807C229.7 69.7241 231.023 69.4761 232.192 68.8674C233.361 68.2589 234.323 67.3174 234.957 66.1619C235.591 65.0065 235.868 63.689 235.753 62.376C235.597 60.6162 234.75 58.9901 233.396 57.8545C232.043 56.7189 230.294 56.1665 228.534 56.3187Z" fill="#FF3938"/>
<path d="M229.337 65.4855C230.733 65.3633 231.766 64.132 231.644 62.7353C231.522 61.3387 230.291 60.3055 228.894 60.4277C227.497 60.5499 226.464 61.7812 226.586 63.1778C226.709 64.5745 227.94 65.6077 229.337 65.4855Z" fill="#FF3938"/>
<path d="M230.035 73.49C227.952 73.6719 225.862 73.2321 224.028 72.2258C222.195 71.2199 220.701 69.6927 219.736 67.8377C218.77 65.9827 218.377 63.883 218.604 61.8042C218.832 59.7254 219.671 57.7609 221.016 56.159C222.36 54.5571 224.149 53.3898 226.157 52.8047C228.165 52.2196 230.301 52.243 232.295 52.8719C234.29 53.5008 236.053 54.707 237.362 56.338C238.671 57.9689 239.467 59.9513 239.649 62.0347C239.89 64.8278 239.013 67.6026 237.211 69.7501C235.409 71.8977 232.828 73.2427 230.035 73.49ZM228.254 53.1264C226.31 53.2968 224.46 54.0398 222.938 55.2615C221.416 56.4832 220.291 58.1288 219.704 59.99C219.118 61.8513 219.096 63.8447 219.642 65.7183C220.189 67.5918 221.278 69.2612 222.773 70.5156C224.268 71.7699 226.102 72.5527 228.042 72.7651C229.981 72.9773 231.941 72.6098 233.672 71.7087C235.403 70.8075 236.828 69.4132 237.766 67.7022C238.705 65.9912 239.115 64.0403 238.945 62.0962C238.714 59.4901 237.459 57.0821 235.454 55.4004C233.45 53.7188 230.86 52.901 228.254 53.1264Z" fill="#0D0C10"/>
<path d="M223.03 46.9406L222.375 47.205L228.787 63.0898L229.442 62.8255L223.03 46.9406Z" fill="#0D0C10"/>
<path d="M225.239 48.0681L224.196 50.78L222.741 47.2046L223.784 44.4928L225.239 48.0681Z" fill="#FF3938"/>
<path d="M224.207 51.7389L222.362 47.2023L223.777 43.5334L225.62 48.0659L224.207 51.7389ZM223.124 47.2009L224.188 49.8191L224.861 48.0714L223.795 45.4519L223.124 47.2009Z" fill="#0D0C10"/>
<path d="M221.54 49.5731L224.143 50.8641L222.792 47.2471L220.189 45.9575L221.54 49.5731Z" fill="#0D0C10"/>
<path d="M224.786 51.5769L221.258 49.828L219.547 45.2456L223.075 46.9988L224.786 51.5769ZM221.823 49.3191L223.501 50.1507L222.515 47.5016L220.837 46.6713L221.823 49.3191Z" fill="#0D0C10"/>
<path d="M232.055 63.834L231.85 64.5098L245.802 68.7487L246.007 68.0729L232.055 63.834Z" fill="#0D0C10"/>
<path d="M243.538 69.7577L242.082 67.2446L245.778 68.3562L247.235 70.8706L243.538 69.7577Z" fill="#0D0C10"/>
<path d="M247.988 71.4655L243.304 70.0559L241.33 66.6479L246.011 68.0578L247.988 71.4655ZM243.775 69.4602L246.488 70.2735L245.55 68.6539L242.842 67.8387L243.775 69.4602Z" fill="#0D0C10"/>
<path d="M244.688 65.9331L242.05 67.1494L245.712 68.3678L248.351 67.1513L244.688 65.9331Z" fill="#FF3938"/>
<path d="M245.734 68.7471L241.091 67.2021L244.667 65.5534L249.309 67.0985L245.734 68.7471ZM243.008 67.0925L245.692 67.9922L247.392 67.2082L244.71 66.3154L243.008 67.0925Z" fill="#0D0C10"/>
<path d="M214.756 53.6061L214.383 54.2059L228.929 63.253L229.302 62.6532L214.756 53.6061Z" fill="#0D0C10"/>
<path d="M217.205 53.2179L217.962 56.0218L214.679 53.9919L213.922 51.188L217.205 53.2179Z" fill="#FF3938"/>
<path d="M218.537 56.793L214.376 54.2203L213.35 50.4175L217.511 52.9916L218.537 56.793ZM214.981 53.766L217.381 55.2577L216.893 53.457L214.493 51.9652L214.981 53.766Z" fill="#0D0C10"/>
<path d="M215.106 56.6156L217.968 56.1227L214.746 53.9981L211.882 54.4912L215.106 56.6156Z" fill="#0D0C10"/>
<path d="M215.029 56.9862L210.945 54.299L214.827 53.6261L218.91 56.3191L215.029 56.9862ZM212.824 54.6876L215.184 56.2438L217.03 55.9249L214.669 54.3702L212.824 54.6876Z" fill="#0D0C10"/>
<path d="M228.159 63.6246L215.24 72.4043L215.637 72.9885L228.556 64.2088L228.159 63.6246Z" fill="#0D0C10"/>
<path d="M215.876 70.0071L218.747 70.4522L215.561 72.6298L212.69 72.186L215.876 70.0071Z" fill="#FF3938"/>
<path d="M215.646 73.0008L211.754 72.3967L215.794 69.6327L219.684 70.2396L215.646 73.0008ZM213.627 71.9734L215.477 72.2597L217.812 70.6641L215.961 70.3767L213.627 71.9734Z" fill="#0D0C10"/>
<path d="M218.132 73.3032L218.841 70.4859L215.593 72.5709L214.884 75.3882L218.132 73.3032Z" fill="#0D0C10"/>
<path d="M214.323 76.1677L215.285 72.354L219.402 69.7107L218.441 73.5243L214.323 76.1677ZM215.902 72.792L215.444 74.6088L217.823 73.0818L218.28 71.2651L215.902 72.792Z" fill="#0D0C10"/>
<line x1="73.9164" y1="115.494" x2="257.216" y2="99.4574" stroke="#E8E6F0" stroke-dasharray="2.5 2.5"/>
<path d="M79.9488 136.823L80.7094 145.517L79.3935 145.632L78.748 138.254L78.697 138.258L76.7357 139.799L76.6258 138.542L78.671 136.934L79.9488 136.823ZM83.4196 145.361C83.1875 145.381 82.9808 145.316 82.7995 145.167C82.6179 145.015 82.5168 144.821 82.4963 144.586C82.476 144.354 82.5421 144.149 82.6948 143.97C82.8471 143.788 83.0393 143.687 83.2714 143.667C83.5035 143.647 83.7103 143.713 83.8919 143.865C84.0732 144.015 84.174 144.205 84.1944 144.437C84.208 144.593 84.1809 144.74 84.113 144.877C84.0477 145.011 83.9548 145.121 83.8341 145.209C83.7134 145.297 83.5753 145.347 83.4196 145.361ZM87.9596 136.002C88.3476 135.971 88.7358 136.008 89.1244 136.114C89.5129 136.22 89.8723 136.416 90.2026 136.704C90.5358 136.991 90.8163 137.395 91.0442 137.914C91.2747 138.43 91.4261 139.084 91.4982 139.876C91.5648 140.637 91.5477 141.322 91.4469 141.929C91.3458 142.534 91.1702 143.053 90.92 143.485C90.6726 143.918 90.3559 144.258 89.9698 144.505C89.5836 144.753 89.1373 144.899 88.6307 144.943C88.1128 144.989 87.644 144.927 87.2243 144.758C86.8046 144.59 86.4531 144.337 86.1697 143.999C85.8862 143.659 85.6927 143.257 85.5893 142.793L86.8841 142.679C87.0017 143.045 87.2008 143.333 87.4815 143.542C87.7647 143.749 88.1144 143.834 88.5304 143.797C89.1672 143.741 89.6396 143.421 89.9477 142.835C90.2555 142.246 90.3671 141.452 90.2825 140.453L90.2146 140.459C90.0887 140.715 89.9231 140.941 89.7177 141.135C89.5151 141.33 89.2822 141.487 89.0189 141.607C88.7557 141.727 88.4698 141.801 88.1613 141.828C87.6604 141.871 87.194 141.788 86.7621 141.578C86.3302 141.367 85.9737 141.058 85.6927 140.649C85.4116 140.24 85.247 139.76 85.1987 139.208C85.1507 138.659 85.2316 138.15 85.4415 137.681C85.6543 137.212 85.9743 136.827 86.4015 136.528C86.8313 136.225 87.3507 136.05 87.9596 136.002ZM88.0604 137.105C87.7293 137.134 87.4379 137.242 87.1862 137.43C86.9372 137.614 86.7483 137.852 86.6198 138.142C86.491 138.43 86.4413 138.743 86.4708 139.079C86.5002 139.416 86.6006 139.715 86.7717 139.977C86.9455 140.236 87.1682 140.434 87.4399 140.573C87.7141 140.709 88.0182 140.762 88.3521 140.733C88.6012 140.711 88.829 140.643 89.0357 140.528C89.2424 140.413 89.4189 140.263 89.5654 140.079C89.7116 139.892 89.8205 139.686 89.892 139.46C89.9635 139.234 89.9887 139.001 89.9676 138.761C89.9397 138.441 89.8373 138.15 89.6604 137.889C89.4864 137.628 89.2605 137.425 88.9827 137.281C88.7046 137.134 88.3972 137.076 88.0604 137.105ZM93.4396 144.403L93.3564 143.452L96.0316 140.147C96.3168 139.788 96.5504 139.475 96.7323 139.208C96.9169 138.938 97.0502 138.686 97.1323 138.45C97.2144 138.215 97.2443 137.97 97.222 137.715C97.1967 137.427 97.107 137.184 96.9528 136.986C96.7984 136.786 96.5988 136.639 96.354 136.547C96.109 136.451 95.8393 136.416 95.5449 136.442C95.2336 136.469 94.9675 136.557 94.7466 136.704C94.5257 136.852 94.3631 137.047 94.2589 137.29C94.1546 137.533 94.1162 137.81 94.1434 138.122L92.8911 138.231C92.8448 137.702 92.926 137.229 93.1347 136.811C93.3434 136.394 93.6505 136.057 94.056 135.802C94.4612 135.544 94.934 135.392 95.4746 135.344C96.0208 135.297 96.5115 135.364 96.9465 135.545C97.3842 135.723 97.7368 135.989 98.0044 136.342C98.2718 136.692 98.4259 137.101 98.4667 137.568C98.4949 137.891 98.4617 138.211 98.367 138.531C98.2751 138.85 98.0972 139.212 97.8332 139.617C97.569 140.019 97.1958 140.512 96.7136 141.096L95.144 143.056L95.1496 143.12L99.0636 142.777L99.162 143.902L93.4396 144.403ZM100.129 135.057L101.721 134.918L105.08 141.434L105.182 141.425L107.359 134.425L108.951 134.285L109.711 142.979L108.463 143.088L107.913 136.797L107.832 136.804L105.817 143.307L104.782 143.398L101.668 137.339L101.587 137.346L102.138 143.642L100.89 143.751L100.129 135.057Z" fill="#0D0C10"/>
<path d="M242.651 131.348L242.568 130.398L245.243 127.092C245.528 126.734 245.762 126.421 245.944 126.154C246.128 125.884 246.261 125.631 246.344 125.396C246.426 125.161 246.455 124.916 246.433 124.661C246.408 124.372 246.318 124.129 246.164 123.932C246.01 123.731 245.81 123.585 245.565 123.492C245.32 123.397 245.051 123.362 244.756 123.387C244.445 123.415 244.179 123.502 243.958 123.65C243.737 123.797 243.574 123.993 243.47 124.236C243.366 124.479 243.327 124.756 243.355 125.067L242.102 125.177C242.056 124.647 242.137 124.174 242.346 123.757C242.555 123.339 242.862 123.003 243.267 122.748C243.672 122.49 244.145 122.337 244.686 122.29C245.232 122.242 245.723 122.309 246.158 122.491C246.595 122.669 246.948 122.935 247.216 123.288C247.483 123.638 247.637 124.047 247.678 124.514C247.706 124.836 247.673 125.157 247.578 125.476C247.486 125.795 247.308 126.157 247.044 126.562C246.78 126.965 246.407 127.458 245.925 128.042L244.355 130.002L244.361 130.065L248.275 129.723L248.373 130.848L242.651 131.348ZM249.34 122.003L250.932 121.863L254.291 128.379L254.393 128.37L256.57 121.37L258.162 121.231L258.922 129.925L257.674 130.034L257.124 123.743L257.043 123.75L255.029 130.253L253.993 130.343L250.879 124.285L250.798 124.292L251.349 130.587L250.101 130.697L249.34 122.003Z" fill="#0D0C10"/>
<rect x="77.6201" y="157.833" width="184" height="6" rx="3" transform="rotate(-5 77.6201 157.833)" fill="url(#paint0_linear_6_8223)" fill-opacity="0.24"/>
<rect x="77.6201" y="157.833" width="168.388" height="6" rx="3" transform="rotate(-5 77.6201 157.833)" fill="#FFC2C2"/>
</g>
</g>
<defs>
<filter id="filter0_dd_6_8223" x="-1.60274" y="-1.4278" width="333.205" height="265.936" filterUnits="userSpaceOnUse" color-interpolation-filters="sRGB">
<feFlood flood-opacity="0" result="BackgroundImageFix"/>
<feColorMatrix in="SourceAlpha" type="matrix" values="0 0 0 0 0 0 0 0 0 0 0 0 0 0 0 0 0 0 127 0" result="hardAlpha"/>
<feMorphology radius="4" operator="dilate" in="SourceAlpha" result="effect1_dropShadow_6_8223"/>
<feOffset/>
<feComposite in2="hardAlpha" operator="out"/>
<feColorMatrix type="matrix" values="0 0 0 0 1 0 0 0 0 1 0 0 0 0 1 0 0 0 0.24 0"/>
<feBlend mode="normal" in2="BackgroundImageFix" result="effect1_dropShadow_6_8223"/>
<feColorMatrix in="SourceAlpha" type="matrix" values="0 0 0 0 0 0 0 0 0 0 0 0 0 0 0 0 0 0 127 0" result="hardAlpha"/>
<feOffset dy="30.5397"/>
<feGaussianBlur stdDeviation="26.4127"/>
<feComposite in2="hardAlpha" operator="out"/>
<feColorMatrix type="matrix" values="0 0 0 0 0.2716 0 0 0 0 0.256667 0 0 0 0 0.443333 0 0 0 0.24 0"/>
<feBlend mode="normal" in2="effect1_dropShadow_6_8223" result="effect2_dropShadow_6_8223"/>
<feBlend mode="normal" in="SourceGraphic" in2="effect2_dropShadow_6_8223" result="shape"/>
</filter>
<linearGradient id="paint0_linear_6_8223" x1="266.537" y1="163.992" x2="266.072" y2="150.709" gradientUnits="userSpaceOnUse">
<stop stop-color="#A981FF" stop-opacity="0.92"/>
<stop offset="0.5" stop-color="#FF8BC1"/>
<stop offset="1" stop-color="#FFF385"/>
</linearGradient>
<clipPath id="clip0_6_8223">
<rect x="51.2227" y="39.6836" width="216" height="142" rx="20" transform="rotate(-5 51.2227 39.6836)" fill="white"/>
</clipPath>
</defs>
</svg>
