<svg width="38" height="35" viewBox="0 0 38 35" fill="none" xmlns="http://www.w3.org/2000/svg">
<path d="M12.053 25.4254C12.3868 25.6156 12.7812 25.6661 13.1515 25.5659C13.5217 25.4658 13.8383 25.223 14.0332 24.8897L18.5091 17.063C18.875 17.2706 19.4047 17.5645 20.0384 17.867L19.6691 28.0192C19.6571 28.4057 19.7975 28.7813 20.0589 29.0639C20.3202 29.3464 20.682 29.513 21.0649 29.5272C21.4477 29.5414 21.8205 29.402 22.1018 29.1396C22.3832 28.8772 22.5501 28.513 22.5661 28.1266L22.9009 18.9185C25.1168 19.454 27.5436 19.2943 28.9564 16.8247C31.8219 11.814 24.667 7.75056 23.3377 6.97797C22.9674 6.76273 22.7645 6.65769 22.7015 6.6252C22.0958 6.32858 21.2013 6.50103 20.7995 7.20344L16.7116 14.3517L12.3218 22.1146C12.3218 22.1146 11.6512 22.9246 10.7451 21.966M1 14.5589C1 14.5589 3.06006 10.7129 3.59869 12.5913C3.98879 14.1698 3.73771 38.9084 26.2872 33.1258C48.8368 27.3432 31.3347 -7.75941 14.5432 3.05558C-2.24836 13.8706 11.8945 25.356 11.8945 25.356M22.3897 15.6505C22.1743 15.4856 21.9169 15.3855 21.6476 15.3618C21.0818 15.1226 19.9584 14.5282 19.9584 14.5282L22.5841 9.93691C25.0603 11.5171 27.3092 13.8509 26.4456 15.3611C25.8564 16.3909 24.2108 16.2958 22.3897 15.6505Z" stroke="#D34B44" stroke-width="1.25" stroke-linecap="round"/>
</svg>
