<svg width="34" height="21" viewBox="0 0 34 21" fill="none" xmlns="http://www.w3.org/2000/svg">
<path d="M30.5536 1.58047V6.8939C29.2693 5.70889 27.5316 5.17372 25.9451 5.17372C21.8275 5.17372 18.6544 8.2318 18.6544 12.4366C18.6544 16.6416 21.7898 19.7379 26.1717 19.7379C30.5536 19.7379 33.689 16.6798 33.689 12.2074V1.58047H30.5536ZM26.1717 16.8709C23.6408 16.8709 21.8653 15.1125 21.8653 12.4366C21.8653 9.76085 23.6785 8.04068 26.2095 8.04068C28.7405 8.04068 30.5536 9.76085 30.5536 12.3985C30.5536 15.1125 28.7405 16.8709 26.1717 16.8709Z" fill="#66BF7A"/>
<path d="M9.21251 21C4.52837 21 4.15062 17.7508 4.11284 16.7186C4.11284 16.2217 4.1884 15.6866 4.30173 15.1132C1.84633 14.8838 0.259766 13.2019 0.259766 10.7936C0.259766 6.32115 7.58817 0.893034 14.7655 0.0138354C15.5965 -0.100843 16.352 0.510774 16.4276 1.35175C16.5409 2.19273 15.9366 2.95724 15.1054 3.0337C8.79695 3.83645 3.28179 8.42362 3.28179 10.7936C3.28179 12.0933 4.3395 12.1315 5.62386 12.1315C7.43708 9.14989 10.6102 6.47405 13.6322 6.3976C17.2587 6.32115 18.8074 10.1055 16.352 12.5138C14.4255 14.4251 10.308 14.9985 7.47485 15.1514C7.24819 15.7247 7.13487 16.2599 7.13487 16.7186C7.13487 17.1391 7.13487 17.9802 9.21251 17.9802C12.1212 17.9802 16.3898 16.3746 19.1474 14.1957C19.8273 13.6988 20.7718 13.8135 21.2629 14.4633C21.7539 15.1514 21.6406 16.1071 20.9984 16.604C17.7119 19.1652 12.7634 21 9.21251 21ZM13.7078 9.45569C12.3856 9.49394 10.8746 10.526 9.59023 11.8639C11.7056 11.5963 13.4811 11.0612 14.2366 10.3349C14.4255 10.1438 14.6144 9.83791 14.4255 9.68505C14.2744 9.49394 13.9344 9.45569 13.7078 9.45569Z" fill="#66BF7A"/>
</svg>
