<svg width="289" height="220" viewBox="0 0 289 220" fill="none" xmlns="http://www.w3.org/2000/svg">
<g filter="url(#filter0_dd_6_8182)">
<rect x="61.5762" y="20.6006" width="210" height="96" rx="20" transform="rotate(6 61.5762 20.6006)" fill="white"/>
<rect x="79.376" y="42.5815" width="56" height="56" rx="28" transform="rotate(6 79.376 42.5815)" fill="url(#paint0_linear_6_8182)" fill-opacity="0.12"/>
<rect x="79.821" y="43.1311" width="55" height="55" rx="27.5" transform="rotate(6 79.821 43.1311)" stroke="url(#paint1_linear_6_8182)" stroke-opacity="0.16"/>
<path d="M90.9796 84.034L115.108 86.5701L110.184 69.67L105.452 69.1727L104.378 71.3521L103.509 68.9685L98.8696 68.4808L90.9796 84.034Z" fill="white"/>
<path d="M98.8693 68.4811L95.017 76.0758L101.424 76.7491L98.8693 68.4811Z" fill="#FF8686"/>
<path d="M97.6646 84.7368L94.9129 76.2797L91.0073 84.0371L97.6646 84.7368Z" fill="#FF8686"/>
<path d="M104.197 85.4233L101.512 77.1496L97.6644 84.7367L104.197 85.4233Z" fill="#FF8686"/>
<path d="M110.615 86.0976L108.086 77.9116L104.197 85.423L110.615 86.0976Z" fill="#FF8686"/>
<path d="M108.131 77.4987L105.453 69.1732L101.656 76.8871L108.131 77.4987Z" fill="#FF8686"/>
<path d="M100.622 68.6651L98.8701 68.481L99.3943 70.1963L100.622 68.6651Z" fill="#0D0C10"/>
<path d="M107.223 69.3593L105.556 69.1841L106.09 70.9694L107.223 69.3593Z" fill="#0D0C10"/>
<path d="M103.511 68.9685L102.087 68.8188L104.006 70.3267L103.511 68.9685Z" fill="#0D0C10"/>
<path d="M108.831 69.5278L110.184 69.6701L110.63 71.1984L108.831 69.5278Z" fill="#0D0C10"/>
<path d="M107.636 75.9604L108.131 77.4986L109.666 77.66L107.636 75.9604Z" fill="#0D0C10"/>
<path d="M112.156 76.4356L112.639 78.0952L111.216 77.8229L112.156 76.4356Z" fill="#0D0C10"/>
<path d="M109.486 77.7638L108.077 77.6157L108.586 79.3179L109.486 77.7638Z" fill="#0D0C10"/>
<path d="M111.329 77.9818L112.638 78.0949L113.049 79.5062L111.329 77.9818Z" fill="#0D0C10"/>
<path d="M110.026 84.1245L110.616 86.0979L112.177 86.262L110.026 84.1245Z" fill="#0D0C10"/>
<path d="M114.56 84.6872L115.108 86.5699L113.866 86.4394L114.56 84.6872Z" fill="#0D0C10"/>
<path d="M96.7154 76.4446L94.9125 76.2796L95.5617 78.2733L96.7154 76.4446Z" fill="#0D0C10"/>
<path d="M103.176 77.0463L101.536 76.9277L102.19 79.0386L103.176 77.0463Z" fill="#0D0C10"/>
<path d="M99.8842 76.7879L100.745 78.6833L101.536 76.9276L99.8842 76.7879Z" fill="#0D0C10"/>
<path d="M107.277 79.3701L108.078 77.6154L106.585 77.4585L107.277 79.3701Z" fill="#0D0C10"/>
<path d="M105.295 69.0509L97.4072 84.6048L97.9254 84.8676L105.813 69.3137L105.295 69.0509Z" fill="#0D0C10"/>
<path d="M105.833 69.1005L105.276 69.267L110.338 86.1815L110.895 86.0149L105.833 69.1005Z" fill="#0D0C10"/>
<path d="M95.1889 76.1888L94.6364 76.3685L97.3876 84.8258L97.9401 84.646L95.1889 76.1888Z" fill="#0D0C10"/>
<path d="M99.1482 68.3921L98.594 68.5665L103.923 85.5083L104.477 85.3341L99.1482 68.3921Z" fill="#0D0C10"/>
<path d="M107.849 77.5814L103.94 85.2905L104.458 85.5533L108.368 77.8442L107.849 77.5814Z" fill="#0D0C10"/>
<path d="M112.669 77.8044L94.943 75.9914L94.8839 76.5693L112.61 78.3824L112.669 77.8044Z" fill="#0D0C10"/>
<path d="M115.508 86.9036L90.5322 84.2786L98.7024 68.1719L103.722 68.6995L104.421 70.6142L105.282 68.8635L110.411 69.4025L110.465 69.5892L115.508 86.9036ZM91.4296 83.7888L114.707 86.2354L109.959 69.9392L105.622 69.4834L104.339 72.0917L103.299 69.2391L99.038 68.7913L91.4296 83.7888Z" fill="#0D0C10"/>
<path d="M107.797 69.3665L100.163 68.5642L99.6026 61.9147L102.767 65.4134L104.771 61.4437L106.028 65.7562L109.728 62.9789L107.797 69.3665Z" fill="#FF8686"/>
<path d="M108.62 67.7115L100.294 66.8364L100.233 67.4142L108.559 68.2893L108.62 67.7115Z" fill="#0D0C10"/>
<path d="M99.6162 62.0083L100.668 62.1433L103.203 64.5467L102.766 65.4132L99.6162 62.0083Z" fill="#0D0C10"/>
<path d="M104.771 61.4438L105.668 61.9752L106.813 65.1682L106.028 65.7563L104.771 61.4438Z" fill="#0D0C10"/>
<path d="M109.727 62.9791L110.295 63.5353L108.715 69.5159L107.796 69.3667L109.727 62.9791Z" fill="#0D0C10"/>
<path d="M108.932 69.8317L99.8934 68.8268L99.2981 61.6736L100.797 61.8673L103.117 64.067L104.647 61.0359L105.902 61.7789L106.95 64.693L109.753 62.5925L110.619 63.4407L108.932 69.8317ZM100.432 68.3016L108.499 69.1985L109.971 63.6284L109.702 63.3664L106.67 65.6415L105.43 62.172L104.89 61.8478L103.287 65.0266L100.541 62.4199L99.9393 62.3427L100.432 68.3016Z" fill="#0D0C10"/>
<path d="M102.836 65.9185L99.4033 62.2046L99.8303 61.8102L102.695 64.9095L104.511 61.3138L105.03 61.575L102.836 65.9185Z" fill="#0D0C10"/>
<path d="M105.865 66.2405L104.492 61.5255L105.049 61.3632L106.188 65.2719L109.553 62.7468L109.902 63.2111L105.865 66.2405Z" fill="#0D0C10"/>
<path d="M150.255 73.9421L151.446 62.6085L154.342 62.9129L153.151 74.2465L150.255 73.9421ZM146.528 69.2147L146.818 66.4579L158.04 67.6374L157.751 70.3942L146.528 69.2147ZM158.045 77.9986L158.437 74.2672L165.822 70.1726C166.202 69.9498 166.594 69.7001 166.998 69.4235C167.403 69.147 167.774 68.8294 168.112 68.4707C168.469 68.1141 168.763 67.7227 168.996 67.2967C169.247 66.8726 169.399 66.4006 169.454 65.8808C169.511 65.3425 169.439 64.8657 169.238 64.4505C169.038 64.0352 168.708 63.6909 168.249 63.4174C167.808 63.1458 167.244 62.9739 166.558 62.9017C165.964 62.8393 165.434 62.8775 164.969 63.0163C164.504 63.1551 164.113 63.3955 163.795 63.7376C163.478 64.0796 163.226 64.513 163.039 65.0377C162.873 65.5458 162.762 66.1535 162.707 66.8609L159.402 65.8941C159.49 64.5145 159.837 63.3591 160.442 62.4279C161.067 61.48 161.927 60.7915 163.024 60.3624C164.122 59.9148 165.432 59.7709 166.954 59.9309C168.272 60.0695 169.401 60.4039 170.34 60.9343C171.281 61.4462 171.978 62.1388 172.43 63.0122C172.903 63.869 173.079 64.8729 172.958 66.0239C172.865 66.915 172.631 67.7069 172.258 68.3997C171.904 69.0945 171.454 69.7135 170.909 70.2568C170.365 70.7816 169.782 71.2458 169.157 71.6494C168.533 72.0531 167.923 72.4112 167.327 72.724L162.402 75.3877L162.378 75.6105L172.22 76.5323L171.913 79.4562L158.045 77.9986ZM180.866 80.7914C179.492 80.647 178.317 80.317 177.338 79.8012C176.36 79.2855 175.633 78.6178 175.156 77.7981C174.697 76.9804 174.516 76.0322 174.61 74.9535L177.991 74.6613C177.985 75.6179 178.253 76.3687 178.796 76.9138C179.358 77.4609 180.15 77.788 181.171 77.8954C182.322 78.0163 183.236 77.8027 183.913 77.2545C184.592 76.6877 184.997 75.7731 185.13 74.5107C185.187 73.9723 185.173 73.4735 185.09 73.0143C185.026 72.5571 184.89 72.1487 184.684 71.7892C184.48 71.4111 184.183 71.1078 183.794 70.8792C183.424 70.6526 182.96 70.51 182.403 70.4514C181.976 70.4066 181.58 70.4306 181.213 70.5235C180.868 70.5997 180.554 70.7263 180.273 70.9032C179.993 71.0615 179.737 71.2692 179.503 71.5262C179.29 71.7666 179.102 72.0377 178.939 72.3397L175.291 71.9563L177.102 61.4199L189.216 62.693L188.906 65.6448L179.744 64.6819L178.687 70.455L178.993 70.4872C179.472 69.5051 180.154 68.8167 181.04 68.4218C181.928 68.0084 182.901 67.8573 183.96 67.9685C185.185 68.0973 186.168 68.4728 186.91 69.0951C187.672 69.7007 188.198 70.4974 188.489 71.4852C188.8 72.4563 188.888 73.5824 188.753 74.8633C188.589 76.4227 188.149 77.6622 187.433 78.5817C186.736 79.5032 185.824 80.1394 184.699 80.4904C183.573 80.8413 182.296 80.9417 180.866 80.7914ZM198.009 82.6213C196.486 82.4613 195.169 82.1352 194.057 81.6429C192.945 81.1506 192.114 80.4908 191.562 79.6633C191.011 78.8358 190.794 77.8651 190.911 76.7513C191.003 75.8787 191.268 75.1464 191.705 74.5542C192.143 73.9621 192.707 73.5052 193.398 73.1836C194.107 72.864 194.895 72.6934 195.76 72.6718L195.781 72.4768L199.097 72.2624L202.3 73.1339L202.276 73.3566C203.121 73.5392 203.848 73.8503 204.459 74.2899C205.088 74.7314 205.554 75.2966 205.857 75.9853C206.16 76.6741 206.265 77.4641 206.171 78.3552C206.054 79.469 205.64 80.3733 204.929 81.0681C204.218 81.7629 203.267 82.2355 202.077 82.4858C200.906 82.7381 199.549 82.7832 198.009 82.6213ZM198.35 79.6446C198.777 79.6895 199.226 79.6992 199.698 79.6737C200.19 79.6316 200.651 79.5392 201.078 79.3965C201.508 79.2352 201.871 79.0012 202.166 78.6943C202.461 78.3875 202.635 77.9834 202.687 77.4822C202.754 76.851 202.613 76.3107 202.266 75.8613C201.938 75.4139 201.468 75.0642 200.856 74.8122C200.265 74.5436 199.608 74.3713 198.884 74.2952C198.16 74.2191 197.481 74.2509 196.846 74.3907C196.214 74.512 195.691 74.7573 195.277 75.1267C194.865 75.4775 194.626 75.9593 194.562 76.5719C194.509 77.0731 194.586 77.5035 194.792 77.863C195.017 78.2245 195.322 78.5381 195.707 78.8038C196.094 79.0509 196.515 79.2453 196.969 79.3869C197.444 79.5119 197.904 79.5978 198.35 79.6446ZM199.168 71.594C199.743 71.6545 200.291 71.6183 200.812 71.4853C201.351 71.3543 201.799 71.1105 202.156 70.7538C202.531 70.3991 202.751 69.9154 202.815 69.3027C202.866 68.8201 202.797 68.3999 202.61 68.0424C202.441 67.6868 202.189 67.3976 201.856 67.1749C201.544 66.9355 201.188 66.748 200.789 66.6122C200.409 66.4785 200.033 66.392 199.662 66.353C199.161 66.3003 198.642 66.3302 198.104 66.4427C197.587 66.5385 197.133 66.7535 196.741 67.0877C196.368 67.4239 196.148 67.9076 196.082 68.5388C196.016 69.17 196.119 69.7063 196.391 70.1479C196.666 70.571 197.044 70.9016 197.526 71.14C198.026 71.3802 198.573 71.5316 199.168 71.594ZM198.936 73.7939L195.751 72.7553L195.792 72.3655C195.028 72.135 194.377 71.8132 193.839 71.3999C193.319 70.9887 192.941 70.4797 192.704 69.873C192.486 69.2682 192.418 68.576 192.5 67.7963C192.621 66.6453 193.018 65.7204 193.693 65.0217C194.367 64.323 195.243 63.8427 196.322 63.5807C197.419 63.3206 198.654 63.2627 200.028 63.4071C201.457 63.5574 202.671 63.8913 203.667 64.409C204.666 64.9081 205.404 65.5675 205.881 66.3872C206.376 67.2088 206.565 68.1766 206.448 69.2905C206.333 70.3858 205.931 71.2632 205.242 71.9228C204.574 72.5658 203.596 72.9417 202.309 73.0503L202.273 73.3845L198.936 73.7939Z" fill="#0D0C10"/>
<path d="M142.829 99.526L143.741 90.8465L144.792 90.957L144.386 94.822L149.014 95.3085L149.42 91.4434L150.471 91.5538L149.559 100.233L148.508 100.123L148.916 96.2408L144.288 95.7544L143.88 99.6364L142.829 99.526ZM153.427 100.794C153.014 100.751 152.648 100.634 152.328 100.443C152.009 100.249 151.766 99.9939 151.599 99.6765C151.433 99.3562 151.372 98.9842 151.416 98.5604C151.456 98.1874 151.561 97.8928 151.732 97.6766C151.904 97.4575 152.119 97.2945 152.379 97.1876C152.639 97.0806 152.921 97.0102 153.224 96.9764C153.531 96.9401 153.837 96.918 154.144 96.9103C154.545 96.901 154.869 96.8965 155.118 96.8969C155.369 96.8948 155.555 96.8672 155.675 96.8141C155.798 96.7613 155.867 96.6544 155.884 96.4933L155.888 96.4594C155.932 96.0413 155.851 95.7043 155.647 95.4486C155.445 95.1932 155.114 95.0412 154.654 94.9928C154.176 94.9427 153.791 95.0078 153.498 95.1884C153.204 95.369 152.99 95.5721 152.855 95.7979L151.941 95.3591C152.153 94.9813 152.411 94.6971 152.717 94.5065C153.025 94.3132 153.353 94.1905 153.698 94.1383C154.047 94.0835 154.385 94.0733 154.712 94.1078C154.922 94.1297 155.159 94.1804 155.425 94.2598C155.694 94.3366 155.948 94.4647 156.186 94.644C156.427 94.8236 156.616 95.0763 156.753 95.402C156.89 95.7278 156.932 96.1492 156.877 96.6663L156.427 100.955L155.426 100.85L155.519 99.9685L155.468 99.9632C155.385 100.097 155.257 100.237 155.081 100.381C154.906 100.525 154.681 100.64 154.407 100.726C154.132 100.811 153.806 100.834 153.427 100.794ZM153.674 99.9117C154.069 99.9533 154.411 99.9106 154.699 99.7837C154.989 99.6571 155.216 99.4782 155.381 99.247C155.548 99.016 155.646 98.7649 155.674 98.4937L155.77 97.5783C155.723 97.6247 155.624 97.6615 155.476 97.6887C155.33 97.7134 155.163 97.7315 154.973 97.743C154.786 97.752 154.604 97.7585 154.427 97.7627C154.252 97.7644 154.111 97.7666 154.002 97.7695C153.738 97.7761 153.49 97.8056 153.256 97.8581C153.025 97.9081 152.832 98.0007 152.678 98.1359C152.527 98.2686 152.438 98.4621 152.411 98.7163C152.375 99.0639 152.476 99.3401 152.714 99.5452C152.956 99.7476 153.276 99.8698 153.674 99.9117ZM157.995 103.588L158.936 94.6374L159.903 94.739L159.794 95.773L159.912 95.7855C159.998 95.6802 160.115 95.5468 160.263 95.3853C160.415 95.2213 160.62 95.0829 160.881 94.9703C161.144 94.8552 161.488 94.8199 161.912 94.8645C162.46 94.9221 162.929 95.1099 163.318 95.4279C163.707 95.7459 163.993 96.1687 164.174 96.6962C164.356 97.2238 164.411 97.8294 164.339 98.5132C164.267 99.2026 164.087 99.7878 163.799 100.269C163.512 100.747 163.146 101.103 162.701 101.336C162.257 101.567 161.764 101.653 161.221 101.596C160.803 101.552 160.476 101.448 160.239 101.283C160.002 101.115 159.825 100.935 159.709 100.743C159.592 100.548 159.503 100.387 159.442 100.261L159.357 100.252L158.996 103.693L157.995 103.588ZM159.577 97.9955C159.526 98.4872 159.552 98.9284 159.657 99.3193C159.762 99.7074 159.941 100.022 160.196 100.263C160.451 100.501 160.779 100.641 161.18 100.683C161.598 100.727 161.959 100.654 162.262 100.463C162.568 100.269 162.811 99.9922 162.992 99.6313C163.176 99.2679 163.292 98.8545 163.341 98.3911C163.389 97.9334 163.362 97.5135 163.259 97.1313C163.159 96.7466 162.98 96.4321 162.72 96.1877C162.463 95.9407 162.122 95.795 161.699 95.7504C161.292 95.7077 160.939 95.7749 160.641 95.952C160.342 96.1263 160.103 96.3897 159.923 96.7422C159.744 97.0918 159.628 97.5096 159.577 97.9955ZM165.268 104.352L166.209 95.4018L167.175 95.5033L167.066 96.5374L167.185 96.5499C167.27 96.4446 167.387 96.3112 167.536 96.1497C167.687 95.9856 167.893 95.8473 168.153 95.7347C168.417 95.6196 168.76 95.5843 169.184 95.6288C169.732 95.6864 170.201 95.8742 170.59 96.1922C170.98 96.5103 171.265 96.933 171.447 97.4606C171.629 97.9882 171.683 98.5938 171.612 99.2775C171.539 99.9669 171.359 100.552 171.071 101.033C170.784 101.512 170.418 101.867 169.974 102.1C169.53 102.331 169.036 102.418 168.494 102.361C168.076 102.317 167.748 102.212 167.511 102.047C167.275 101.88 167.098 101.7 166.981 101.507C166.864 101.312 166.776 101.152 166.715 101.025L166.63 101.016L166.268 104.458L165.268 104.352ZM166.85 98.7599C166.798 99.2515 166.825 99.6928 166.929 100.084C167.034 100.472 167.214 100.786 167.468 101.027C167.723 101.266 168.051 101.406 168.453 101.448C168.871 101.492 169.231 101.418 169.534 101.227C169.84 101.034 170.084 100.757 170.264 100.396C170.448 100.032 170.564 99.6188 170.613 99.1555C170.661 98.6978 170.634 98.2778 170.531 97.8957C170.432 97.511 170.252 97.1965 169.992 96.952C169.735 96.7051 169.395 96.5593 168.971 96.5148C168.564 96.472 168.212 96.5392 167.913 96.7164C167.615 96.8907 167.376 97.1541 167.196 97.5065C167.016 97.8562 166.901 98.274 166.85 98.7599ZM172.951 105.16C172.782 105.142 172.632 105.112 172.502 105.07C172.372 105.031 172.283 104.996 172.235 104.965L172.582 104.11C172.818 104.198 173.031 104.243 173.219 104.245C173.407 104.248 173.581 104.182 173.741 104.048C173.903 103.916 174.063 103.691 174.219 103.374L174.459 102.885L172.739 96.0882L173.824 96.2022L175.076 101.578L175.144 101.586L177.486 96.5871L178.571 96.7011L175.024 103.87C174.864 104.193 174.681 104.455 174.474 104.656C174.267 104.86 174.036 105.003 173.782 105.085C173.531 105.167 173.254 105.192 172.951 105.16ZM190.31 98.4834L189.259 98.373C189.229 98.0641 189.148 97.7871 189.017 97.5419C188.888 97.297 188.722 97.0853 188.518 96.9068C188.317 96.7257 188.088 96.5816 187.831 96.4746C187.573 96.3676 187.301 96.2989 187.013 96.2686C186.487 96.2134 185.997 96.2961 185.542 96.5169C185.091 96.7379 184.712 97.0937 184.406 97.5844C184.103 98.0753 183.912 98.6965 183.833 99.448C183.754 100.2 183.812 100.847 184.006 101.39C184.203 101.934 184.5 102.36 184.896 102.67C185.294 102.981 185.757 103.164 186.282 103.219C186.57 103.249 186.851 103.239 187.125 103.188C187.399 103.136 187.653 103.045 187.887 102.912C188.124 102.777 188.331 102.603 188.507 102.39C188.687 102.175 188.824 101.921 188.917 101.628L189.968 101.738C189.843 102.173 189.657 102.555 189.411 102.884C189.165 103.212 188.874 103.483 188.537 103.696C188.201 103.906 187.832 104.055 187.432 104.141C187.034 104.228 186.617 104.248 186.179 104.202C185.438 104.124 184.799 103.874 184.261 103.452C183.722 103.03 183.323 102.468 183.063 101.767C182.802 101.065 182.72 100.257 182.816 99.3411C182.912 98.4257 183.161 97.652 183.561 97.0199C183.962 96.3879 184.47 95.9214 185.084 95.6203C185.698 95.3192 186.376 95.2076 187.116 95.2854C187.554 95.3314 187.958 95.4382 188.329 95.6057C188.703 95.7736 189.032 95.9967 189.317 96.2752C189.602 96.5508 189.831 96.8748 190.003 97.2471C190.176 97.6166 190.278 98.0287 190.31 98.4834ZM195.628 102.385L196.033 98.5364L197.033 98.6415L196.349 105.151L195.348 105.046L195.464 103.944L195.397 103.937C195.209 104.252 194.942 104.508 194.596 104.706C194.25 104.901 193.831 104.972 193.339 104.921C192.932 104.878 192.58 104.751 192.282 104.539C191.985 104.325 191.765 104.028 191.622 103.647C191.479 103.264 191.437 102.795 191.496 102.242L191.93 98.1052L192.93 98.2103L192.503 102.279C192.453 102.754 192.546 103.146 192.782 103.457C193.021 103.767 193.348 103.944 193.763 103.988C194.012 104.014 194.271 103.977 194.542 103.877C194.815 103.777 195.053 103.605 195.256 103.361C195.461 103.117 195.585 102.791 195.628 102.385ZM203.322 100.777L202.397 100.936C202.357 100.781 202.288 100.626 202.193 100.474C202.101 100.318 201.966 100.184 201.79 100.071C201.613 99.9585 201.379 99.8868 201.088 99.8562C200.69 99.8143 200.348 99.8712 200.063 100.027C199.782 100.18 199.626 100.397 199.597 100.676C199.571 100.925 199.64 101.131 199.806 101.294C199.972 101.457 200.242 101.607 200.616 101.743L201.557 102.082C202.124 102.285 202.535 102.546 202.79 102.867C203.045 103.185 203.149 103.572 203.101 104.027C203.062 104.4 202.919 104.722 202.674 104.993C202.431 105.265 202.11 105.465 201.711 105.595C201.311 105.724 200.859 105.762 200.353 105.709C199.689 105.639 199.155 105.437 198.75 105.104C198.345 104.77 198.114 104.32 198.056 103.754L199.031 103.616C199.084 103.976 199.227 104.257 199.46 104.458C199.696 104.66 200.019 104.783 200.429 104.826C200.895 104.875 201.276 104.815 201.57 104.646C201.868 104.474 202.032 104.249 202.061 103.969C202.085 103.743 202.026 103.545 201.884 103.376C201.742 103.204 201.511 103.063 201.191 102.952L200.133 102.584C199.552 102.38 199.137 102.115 198.888 101.789C198.643 101.46 198.544 101.071 198.591 100.622C198.63 100.255 198.767 99.9407 199.003 99.6798C199.242 99.4193 199.549 99.2273 199.925 99.104C200.303 98.981 200.721 98.9435 201.179 98.9916C201.823 99.0593 202.314 99.2537 202.652 99.5749C202.992 99.8963 203.216 100.297 203.322 100.777ZM207.931 99.787L207.842 100.635L204.468 100.28L204.557 99.4324L207.931 99.787ZM205.705 97.9761L206.705 98.0813L206.053 104.286C206.023 104.568 206.042 104.784 206.109 104.934C206.179 105.082 206.277 105.186 206.401 105.248C206.529 105.307 206.667 105.344 206.814 105.36C206.924 105.371 207.015 105.375 207.087 105.371C207.159 105.365 207.217 105.359 207.26 105.355L207.369 106.275C207.298 106.293 207.201 106.309 207.077 106.322C206.953 106.337 206.797 106.335 206.611 106.315C206.328 106.286 206.058 106.196 205.799 106.046C205.543 105.896 205.34 105.688 205.188 105.42C205.039 105.153 204.984 104.83 205.024 104.452L205.705 97.9761ZM211.312 106.861C210.724 106.799 210.223 106.605 209.809 106.279C209.397 105.953 209.094 105.525 208.898 104.996C208.705 104.467 208.644 103.867 208.715 103.194C208.786 102.516 208.971 101.937 209.27 101.457C209.572 100.978 209.958 100.621 210.428 100.388C210.901 100.155 211.431 100.069 212.019 100.131C212.607 100.193 213.106 100.387 213.517 100.713C213.932 101.039 214.235 101.468 214.428 101.999C214.623 102.531 214.685 103.136 214.614 103.814C214.543 104.487 214.357 105.061 214.056 105.538C213.757 106.015 213.371 106.37 212.898 106.603C212.428 106.837 211.899 106.923 211.312 106.861ZM211.406 105.962C211.852 106.009 212.232 105.934 212.544 105.735C212.856 105.536 213.101 105.258 213.279 104.9C213.456 104.541 213.568 104.144 213.614 103.709C213.66 103.274 213.633 102.861 213.534 102.471C213.435 102.081 213.254 101.755 212.99 101.493C212.726 101.231 212.371 101.076 211.924 101.029C211.478 100.982 211.099 101.06 210.786 101.261C210.474 101.462 210.228 101.744 210.05 102.105C209.872 102.466 209.761 102.864 209.715 103.299C209.669 103.735 209.696 104.146 209.795 104.533C209.894 104.921 210.076 105.244 210.34 105.503C210.604 105.762 210.96 105.916 211.406 105.962ZM215.802 107.196L216.486 100.686L217.453 100.788L217.346 101.805L217.431 101.814C217.603 101.481 217.85 101.234 218.173 101.073C218.495 100.91 218.869 100.851 219.292 100.895C219.722 100.941 220.069 101.076 220.334 101.301C220.602 101.523 220.798 101.816 220.923 102.181L220.99 102.188C221.193 101.869 221.471 101.629 221.825 101.466C222.179 101.3 222.59 101.242 223.056 101.291C223.638 101.352 224.095 101.584 224.427 101.988C224.759 102.388 224.884 102.971 224.804 103.737L224.346 108.094L223.346 107.989L223.804 103.632C223.854 103.152 223.759 102.795 223.518 102.561C223.277 102.327 222.978 102.191 222.622 102.154C222.165 102.106 221.795 102.207 221.515 102.457C221.235 102.705 221.072 103.039 221.028 103.46L220.583 107.698L219.566 107.591L220.034 103.133C220.073 102.763 219.984 102.452 219.768 102.201C219.552 101.947 219.255 101.8 218.876 101.76C218.616 101.733 218.366 101.776 218.125 101.891C217.887 102.006 217.686 102.179 217.522 102.41C217.361 102.639 217.264 102.913 217.23 103.232L216.802 107.301L215.802 107.196ZM228.89 108.708C228.263 108.643 227.736 108.447 227.31 108.123C226.888 107.795 226.58 107.369 226.386 106.843C226.196 106.314 226.136 105.717 226.206 105.05C226.276 104.383 226.46 103.808 226.756 103.325C227.056 102.84 227.439 102.477 227.907 102.238C228.378 101.996 228.908 101.906 229.495 101.968C229.835 102.003 230.163 102.095 230.482 102.243C230.801 102.391 231.082 102.606 231.327 102.889C231.572 103.169 231.753 103.525 231.87 103.957C231.988 104.389 232.014 104.909 231.95 105.517L231.906 105.94L226.888 105.413L226.979 104.548L230.98 104.969C231.018 104.602 230.979 104.266 230.863 103.963C230.749 103.659 230.566 103.41 230.316 103.215C230.068 103.021 229.763 102.904 229.401 102.866C229.003 102.824 228.648 102.887 228.336 103.054C228.027 103.219 227.779 103.45 227.59 103.747C227.402 104.044 227.289 104.372 227.251 104.731L227.191 105.308C227.139 105.799 227.18 106.225 227.313 106.585C227.45 106.942 227.662 107.225 227.948 107.435C228.235 107.643 228.58 107.768 228.984 107.81C229.247 107.838 229.488 107.826 229.708 107.775C229.931 107.721 230.128 107.627 230.299 107.494C230.47 107.358 230.61 107.181 230.719 106.964L231.656 107.337C231.52 107.654 231.319 107.924 231.053 108.147C230.787 108.368 230.47 108.529 230.102 108.63C229.735 108.729 229.331 108.755 228.89 108.708ZM233.121 109.016L233.805 102.506L234.771 102.608L234.668 103.591L234.736 103.598C234.888 103.289 235.131 103.05 235.462 102.882C235.794 102.714 236.155 102.651 236.545 102.692C236.619 102.699 236.71 102.71 236.82 102.725C236.93 102.739 237.013 102.752 237.069 102.764L236.962 103.781C236.929 103.769 236.853 103.748 236.733 103.718C236.616 103.686 236.492 103.663 236.359 103.649C236.042 103.616 235.753 103.652 235.49 103.759C235.231 103.863 235.017 104.024 234.848 104.24C234.683 104.454 234.585 104.708 234.554 105.002L234.121 109.121L233.121 109.016ZM242.703 104.916L241.778 105.076C241.737 104.92 241.669 104.766 241.574 104.613C241.482 104.457 241.347 104.323 241.171 104.21C240.994 104.098 240.76 104.026 240.469 103.995C240.071 103.953 239.729 104.01 239.444 104.166C239.162 104.319 239.007 104.536 238.977 104.815C238.951 105.064 239.021 105.27 239.187 105.433C239.352 105.596 239.622 105.746 239.996 105.882L240.938 106.221C241.505 106.424 241.916 106.685 242.171 107.006C242.426 107.325 242.529 107.711 242.482 108.166C242.442 108.539 242.3 108.861 242.054 109.132C241.812 109.404 241.491 109.604 241.091 109.734C240.692 109.863 240.24 109.901 239.734 109.848C239.07 109.778 238.536 109.577 238.131 109.243C237.726 108.909 237.495 108.459 237.437 107.893L238.411 107.755C238.465 108.115 238.608 108.396 238.841 108.597C239.077 108.799 239.4 108.922 239.81 108.965C240.276 109.014 240.656 108.954 240.951 108.785C241.249 108.613 241.413 108.388 241.442 108.108C241.466 107.882 241.407 107.685 241.265 107.515C241.123 107.343 240.892 107.202 240.572 107.091L239.514 106.723C238.933 106.519 238.518 106.254 238.269 105.928C238.024 105.599 237.925 105.21 237.972 104.761C238.01 104.394 238.148 104.08 238.384 103.819C238.622 103.558 238.93 103.366 239.305 103.243C239.684 103.12 240.102 103.083 240.56 103.131C241.204 103.198 241.695 103.393 242.033 103.714C242.373 104.035 242.597 104.436 242.703 104.916Z" fill="#52505F"/>
</g>
<defs>
<filter id="filter0_dd_6_8182" x="-1.28438" y="-1.68513" width="324.536" height="223.076" filterUnits="userSpaceOnUse" color-interpolation-filters="sRGB">
<feFlood flood-opacity="0" result="BackgroundImageFix"/>
<feColorMatrix in="SourceAlpha" type="matrix" values="0 0 0 0 0 0 0 0 0 0 0 0 0 0 0 0 0 0 127 0" result="hardAlpha"/>
<feMorphology radius="4" operator="dilate" in="SourceAlpha" result="effect1_dropShadow_6_8182"/>
<feOffset/>
<feComposite in2="hardAlpha" operator="out"/>
<feColorMatrix type="matrix" values="0 0 0 0 1 0 0 0 0 1 0 0 0 0 1 0 0 0 0.24 0"/>
<feBlend mode="normal" in2="BackgroundImageFix" result="effect1_dropShadow_6_8182"/>
<feColorMatrix in="SourceAlpha" type="matrix" values="0 0 0 0 0 0 0 0 0 0 0 0 0 0 0 0 0 0 127 0" result="hardAlpha"/>
<feOffset dy="30.5397"/>
<feGaussianBlur stdDeviation="26.4127"/>
<feComposite in2="hardAlpha" operator="out"/>
<feColorMatrix type="matrix" values="0 0 0 0 0.2716 0 0 0 0 0.256667 0 0 0 0 0.443333 0 0 0 0.24 0"/>
<feBlend mode="normal" in2="effect1_dropShadow_6_8182" result="effect2_dropShadow_6_8182"/>
<feBlend mode="normal" in="SourceGraphic" in2="effect2_dropShadow_6_8182" result="shape"/>
</filter>
<linearGradient id="paint0_linear_6_8182" x1="136.872" y1="100.07" x2="74.968" y2="42.429" gradientUnits="userSpaceOnUse">
<stop stop-color="#A981FF" stop-opacity="0.92"/>
<stop offset="0.646157" stop-color="#FF8BC1"/>
<stop offset="1" stop-color="#FFF385"/>
</linearGradient>
<linearGradient id="paint1_linear_6_8182" x1="136.872" y1="100.07" x2="74.968" y2="42.429" gradientUnits="userSpaceOnUse">
<stop stop-color="#A981FF" stop-opacity="0.92"/>
<stop offset="0.5" stop-color="#FF8BC1"/>
<stop offset="1" stop-color="#FFF385"/>
</linearGradient>
</defs>
</svg>
