<svg width="132" height="36" viewBox="0 0 132 36" fill="none" xmlns="http://www.w3.org/2000/svg">
<path fill-rule="evenodd" clip-rule="evenodd" d="M118.498 3.00116L128.341 8.68261C128.917 9.01517 129.396 9.49516 129.729 10.074C130.062 10.6529 130.237 11.3101 130.237 11.9792V24.546C130.237 25.1785 130.069 25.7993 129.75 26.3438C129.43 26.8883 128.972 27.3365 128.422 27.6416L117.822 33.5244C117.268 33.8322 116.644 33.9907 116.011 33.9847C115.378 33.9786 114.757 33.8083 114.209 33.49L104.893 28.0869C104.132 27.6453 103.499 27.0094 103.06 26.2432C102.62 25.4769 102.389 24.6075 102.389 23.7223V13.0738C102.389 12.0956 102.64 11.1341 103.119 10.2834C103.599 9.43257 104.288 8.72157 105.122 8.21982L113.715 3.0456C114.437 2.61119 115.26 2.37811 116.101 2.3703C116.941 2.36249 117.768 2.58023 118.498 3.00116Z" fill="#0D0C10"/>
<path fill-rule="evenodd" clip-rule="evenodd" d="M84.5523 2.83471L94.8383 8.73483C95.3901 9.05128 95.8489 9.50934 96.168 10.0624C96.4871 10.6155 96.6551 11.2439 96.655 11.8837V24.2087C96.6552 24.9171 96.4675 25.6126 96.1114 26.2234C95.7553 26.8342 95.2437 27.338 94.6296 27.6827L84.3427 33.4556C83.7579 33.7838 83.0985 33.953 82.4291 33.9467C81.7598 33.9403 81.1036 33.7586 80.5251 33.4194L71.2466 27.9769C70.5041 27.5415 69.8881 26.9174 69.4599 26.1671C69.0317 25.4167 68.8064 24.5663 68.8064 23.7007V13.1939C68.8064 12.1527 69.0749 11.1293 69.5857 10.2241C70.0965 9.31894 70.832 8.56309 71.72 8.03066L80.3181 2.87535C80.9575 2.49201 81.6863 2.28629 82.4302 2.27915C83.1742 2.27201 83.9058 2.4637 84.5523 2.83471Z" fill="#0D0C10"/>
<path fill-rule="evenodd" clip-rule="evenodd" d="M50.9868 2.67126L61.2657 8.75868C61.7897 9.06905 62.2247 9.51131 62.528 10.0421C62.8313 10.5729 62.9924 11.174 62.9957 11.7865L63.0597 24.0382C63.0639 24.7977 62.8656 25.5443 62.4856 26.2002C62.1055 26.856 61.5577 27.397 60.8992 27.7666L50.8044 33.4309C50.2063 33.7665 49.5318 33.9396 48.8473 33.9331C48.1627 33.9266 47.4916 33.7407 46.8999 33.3937L37.6205 27.9513C36.8915 27.5237 36.2865 26.9108 35.8661 26.1739C35.4456 25.4371 35.2242 24.6019 35.2242 23.7519V12.8803C35.2241 11.9316 35.4647 10.9986 35.9231 10.1699C36.3815 9.34128 37.0424 8.64441 37.8433 8.14552L46.5501 2.72074C47.2151 2.30649 47.9798 2.08296 48.7616 2.07424C49.5434 2.06552 50.3128 2.27194 50.9868 2.67126Z" fill="#0D0C10"/>
<path fill-rule="evenodd" clip-rule="evenodd" d="M17.7159 2.95045L27.7476 8.82936C28.3313 9.17141 28.8156 9.66183 29.1523 10.2516C29.489 10.8414 29.6661 11.5099 29.666 12.1903V24.2441C29.666 24.9962 29.4674 25.7347 29.0906 26.384C28.7139 27.0333 28.1726 27.5699 27.5222 27.9389L17.5659 33.5881C16.9165 33.9565 16.1831 34.1484 15.4379 34.1448C14.6926 34.1412 13.9611 33.9424 13.3151 33.5678L4.14621 28.2499C3.43839 27.8394 2.85043 27.2481 2.44159 26.5357C2.03274 25.8233 1.81744 25.0149 1.81738 24.1919V12.7531C1.81731 11.9244 2.02754 11.1095 2.42809 10.3858C2.82863 9.66209 3.4062 9.05362 4.10588 8.6182L13.1196 3.01141C13.8085 2.58298 14.5999 2.35103 15.4094 2.34029C16.2188 2.32955 17.016 2.54044 17.7159 2.95045Z" fill="#0D0C10"/>
<path fill-rule="evenodd" clip-rule="evenodd" d="M118.498 3.00116L128.341 8.68261C128.917 9.01517 129.396 9.49516 129.729 10.074C130.062 10.6529 130.237 11.3101 130.237 11.9792V24.546C130.237 25.1785 130.069 25.7993 129.75 26.3438C129.43 26.8883 128.972 27.3365 128.422 27.6416L117.822 33.5244C117.268 33.8322 116.644 33.9907 116.011 33.9847C115.378 33.9786 114.757 33.8083 114.209 33.49L104.893 28.0869C104.132 27.6453 103.499 27.0094 103.06 26.2432C102.62 25.4769 102.389 24.6075 102.389 23.7223V13.0738C102.389 12.0956 102.64 11.1341 103.119 10.2834C103.599 9.43257 104.288 8.72157 105.122 8.21982L113.715 3.0456C114.437 2.61119 115.26 2.37811 116.101 2.3703C116.941 2.36249 117.768 2.58023 118.498 3.00116Z" stroke="#0D0C10" stroke-width="2"/>
<path fill-rule="evenodd" clip-rule="evenodd" d="M84.5523 2.83471L94.8383 8.73483C95.3901 9.05128 95.8489 9.50934 96.168 10.0624C96.4871 10.6155 96.6551 11.2439 96.655 11.8837V24.2087C96.6552 24.9171 96.4675 25.6126 96.1114 26.2234C95.7553 26.8342 95.2437 27.338 94.6296 27.6827L84.3427 33.4556C83.7579 33.7838 83.0985 33.953 82.4291 33.9467C81.7598 33.9403 81.1036 33.7586 80.5251 33.4194L71.2466 27.9769C70.5041 27.5415 69.8881 26.9174 69.4599 26.1671C69.0317 25.4167 68.8064 24.5663 68.8064 23.7007V13.1939C68.8064 12.1527 69.0749 11.1293 69.5857 10.2241C70.0965 9.31894 70.832 8.56309 71.72 8.03066L80.3181 2.87535C80.9575 2.49201 81.6863 2.28629 82.4302 2.27915C83.1742 2.27201 83.9058 2.4637 84.5523 2.83471Z" stroke="#0D0C10" stroke-width="2"/>
<path fill-rule="evenodd" clip-rule="evenodd" d="M50.9868 2.67126L61.2657 8.75868C61.7897 9.06905 62.2247 9.51131 62.528 10.0421C62.8313 10.5729 62.9924 11.174 62.9957 11.7865L63.0597 24.0382C63.0639 24.7977 62.8656 25.5443 62.4856 26.2002C62.1055 26.856 61.5577 27.397 60.8992 27.7666L50.8044 33.4309C50.2063 33.7665 49.5318 33.9396 48.8473 33.9331C48.1627 33.9266 47.4916 33.7407 46.8999 33.3937L37.6205 27.9513C36.8915 27.5237 36.2865 26.9108 35.8661 26.1739C35.4456 25.4371 35.2242 24.6019 35.2242 23.7519V12.8803C35.2241 11.9316 35.4647 10.9986 35.9231 10.1699C36.3815 9.34128 37.0424 8.64441 37.8433 8.14552L46.5501 2.72074C47.2151 2.30649 47.9798 2.08296 48.7616 2.07424C49.5434 2.06552 50.3128 2.27194 50.9868 2.67126Z" stroke="#0D0C10" stroke-width="2"/>
<path fill-rule="evenodd" clip-rule="evenodd" d="M17.7159 2.95045L27.7476 8.82936C28.3313 9.17141 28.8156 9.66183 29.1523 10.2516C29.489 10.8414 29.6661 11.5099 29.666 12.1903V24.2441C29.666 24.9962 29.4674 25.7347 29.0906 26.384C28.7139 27.0333 28.1726 27.5699 27.5222 27.9389L17.5659 33.5881C16.9165 33.9565 16.1831 34.1484 15.4379 34.1448C14.6926 34.1412 13.9611 33.9424 13.3151 33.5678L4.14621 28.2499C3.43839 27.8394 2.85043 27.2481 2.44159 26.5357C2.03274 25.8233 1.81744 25.0149 1.81738 24.1919V12.7531C1.81731 11.9244 2.02754 11.1095 2.42809 10.3858C2.82863 9.66209 3.4062 9.05362 4.10588 8.6182L13.1196 3.01141C13.8085 2.58298 14.5999 2.35103 15.4094 2.34029C16.2188 2.32955 17.016 2.54044 17.7159 2.95045Z" stroke="#0D0C10" stroke-width="2"/>
<path d="M8.78027 9.00854V27.3168H12.5813V19.3112H18.8874V27.3168H22.6998V9.00854H18.8874V15.6773H12.5813V9.00854H8.78027Z" fill="white"/>
<path fill-rule="evenodd" clip-rule="evenodd" d="M116.35 8.69507C121.505 8.69507 125.69 12.9121 125.69 18.1054C125.69 23.3005 121.505 27.5166 116.35 27.5166C111.196 27.5166 107.01 23.2996 107.01 18.1054C107.01 12.9121 111.196 8.69507 116.35 8.69507ZM116.35 12.1911C119.59 12.1911 122.22 14.8417 122.22 18.1054C122.219 19.6737 121.601 21.1776 120.5 22.2866C119.399 23.3956 117.907 24.0189 116.35 24.0196C113.111 24.0196 110.481 21.37 110.481 18.1054C110.482 16.5372 111.1 15.0334 112.201 13.9245C113.301 12.8155 114.794 12.1921 116.35 12.1911ZM91.4663 17.9614C91.4663 22.1298 90.6824 23.3446 89.1155 25.0807C87.5486 26.8169 85.4706 27.5166 82.8813 27.5166C80.5139 27.5166 78.6068 26.6702 76.9531 25.1991C75.1223 23.5691 73.7896 21.0431 73.7896 18.2238C73.7896 15.4522 74.8172 13.057 76.6384 11.2732C78.2359 9.71199 80.6139 8.69507 83.0655 8.69507C86.0265 8.69507 89.1006 10.1069 90.9954 12.8944L88.2133 15.264C87.0339 13.0526 85.325 12.3078 82.8804 12.2371C80.1772 12.1593 77.2013 14.7578 77.4222 18.2229C77.545 20.1613 78.4437 23.4931 82.7673 24.1045C85.0383 24.4252 87.6214 21.9823 87.6214 20.6552H83.3539V17.342H91.4645V17.9587L91.4663 17.9614ZM45.8445 9.5989V19.5093C45.8445 21.082 45.8875 22.1007 45.9734 22.5671C46.1216 23.3164 46.3951 23.8368 46.9528 24.29C47.5113 24.7432 48.1628 24.8722 49.1308 24.8722C50.1128 24.8722 50.4425 24.7185 50.9423 24.2891C51.4412 23.8606 51.742 23.4533 51.8437 22.8287C51.9445 22.204 52.1129 21.1677 52.1129 19.7205V9.5989H55.8201V19.2098C55.8201 21.4062 55.7262 22.9585 55.5386 23.865C55.351 24.7724 55.0055 25.5375 54.5022 26.1622C53.9989 26.7859 53.3255 27.2834 52.4829 27.6535C51.6394 28.0237 50.5399 28.2084 49.1817 28.2084C47.542 28.2084 46.2996 28.007 45.4534 27.6032C44.6064 27.1994 43.9365 26.6755 43.4455 26.0305C42.9536 25.3856 42.6301 24.7097 42.474 24.002C42.2478 22.9541 42.1338 21.4062 42.1338 19.3591V9.5989H45.8445Z" fill="white"/>
</svg>
