<svg width="16" height="16" viewBox="0 0 16 16" fill="none" xmlns="http://www.w3.org/2000/svg">
<path d="M8.74959 0.708984C9.5702 0.710341 9.98604 0.714679 10.3454 0.725376L10.4869 0.730006C10.6504 0.735818 10.8117 0.74311 11.0061 0.752224C11.7821 0.78807 12.3114 0.910818 12.7762 1.09129C13.2568 1.27661 13.6627 1.52696 14.068 1.93226C14.4727 2.33755 14.7231 2.74467 14.909 3.2241C15.0888 3.68833 15.2116 4.21819 15.2481 4.99415C15.2567 5.18859 15.2637 5.34988 15.2695 5.5134L15.2741 5.65491C15.2847 6.01421 15.2896 6.43011 15.2912 7.25072L15.2917 7.79446C15.2918 7.86088 15.2918 7.92943 15.2918 8.00016L15.2917 8.20585L15.2913 8.74959C15.2899 9.5702 15.2856 9.98604 15.2749 10.3454L15.2702 10.4869C15.2645 10.6504 15.2572 10.8117 15.2481 11.0061C15.2122 11.7821 15.0888 12.3114 14.909 12.7762C14.7237 13.2568 14.4727 13.6627 14.068 14.068C13.6627 14.4727 13.255 14.7231 12.7762 14.909C12.3114 15.0888 11.7821 15.2116 11.0061 15.2481C10.8117 15.2567 10.6504 15.2637 10.4869 15.2695L10.3454 15.2741C9.98604 15.2847 9.5702 15.2896 8.74959 15.2912L8.20585 15.2917C8.13943 15.2918 8.07089 15.2918 8.00016 15.2918L7.79446 15.2917L7.25072 15.2913C6.43011 15.2899 6.01421 15.2856 5.65491 15.2749L5.5134 15.2702C5.34988 15.2645 5.18859 15.2572 4.99415 15.2481C4.21819 15.2122 3.68955 15.0888 3.2241 14.909C2.74406 14.7237 2.33755 14.4727 1.93226 14.068C1.52696 13.6627 1.27722 13.255 1.09129 12.7762C0.910818 12.3114 0.788682 11.7821 0.752224 11.0061C0.743562 10.8117 0.736496 10.6504 0.730772 10.4869L0.726185 10.3454C0.715518 9.98604 0.710654 9.5702 0.709079 8.74959L0.708984 7.25072C0.710341 6.43011 0.714679 6.01421 0.725376 5.65491L0.730006 5.5134C0.735818 5.34988 0.74311 5.18859 0.752224 4.99415C0.78807 4.21759 0.910818 3.68894 1.09129 3.2241C1.27661 2.74406 1.52696 2.33755 1.93226 1.93226C2.33755 1.52696 2.74467 1.27722 3.2241 1.09129C3.68894 0.910818 4.21759 0.788682 4.99415 0.752224C5.18859 0.743562 5.34988 0.736496 5.5134 0.730772L5.65491 0.726185C6.01421 0.715518 6.43011 0.710654 7.25072 0.709079L8.74959 0.708984ZM8.00016 4.35431C5.98553 4.35431 4.35431 5.9873 4.35431 8.00016C4.35431 10.0148 5.9873 11.646 8.00016 11.646C10.0148 11.646 11.646 10.0129 11.646 8.00016C11.646 5.98553 10.0129 4.35431 8.00016 4.35431ZM8.00016 5.81264C9.20831 5.81264 10.1877 6.79164 10.1877 8.00016C10.1877 9.20831 9.2086 10.1877 8.00016 10.1877C6.792 10.1877 5.81264 9.2086 5.81264 8.00016C5.81264 6.792 6.79164 5.81264 8.00016 5.81264ZM11.8283 3.26056C11.3257 3.26056 10.9168 3.66882 10.9168 4.1714C10.9168 4.67397 11.3251 5.08286 11.8283 5.08286C12.3308 5.08286 12.7397 4.6746 12.7397 4.1714C12.7397 3.66882 12.3302 3.25992 11.8283 3.26056Z" fill="#C8C6D3"/>
</svg>
