<svg width="72" height="72" viewBox="0 0 72 72" fill="none" xmlns="http://www.w3.org/2000/svg">
<path d="M62.2544 35.3653L48.8446 35.2389L41.137 46.2162L37.1137 33.4207L24.293 29.4834L35.2171 21.7024L34.9997 8.29248L45.7747 16.2783L58.4614 11.9263L54.1981 24.6434L62.2544 35.3653Z" fill="#FF8686"/>
<path d="M18.7879 38.2808V64.021H9.68438C7.66138 64.021 6 58.2581 6 51.1498C6 44.0412 7.6487 38.2808 9.68438 38.2808H18.7879Z" fill="#FF8686"/>
<path d="M18.7879 38.2808V64.021H9.68438C7.66138 64.021 6 58.2581 6 51.1498C6 44.0412 7.6487 38.2808 9.68438 38.2808H18.7879Z" fill="black" fill-opacity="0.44"/>
<path d="M19.4217 64.653H9.69355C6.86135 64.653 5.37695 57.8605 5.37695 51.1496C5.37695 44.4381 6.86135 37.6484 9.69355 37.6484H19.4217V64.653ZM9.69355 38.9128C8.44939 38.9128 6.64132 43.6795 6.64132 51.1496C6.64132 58.6194 8.44939 63.3887 9.69355 63.3887H18.1573V38.9128H9.69355Z" fill="#FF8686"/>
<path d="M19.4217 64.653H9.69355C6.86135 64.653 5.37695 57.8605 5.37695 51.1496C5.37695 44.4381 6.86135 37.6484 9.69355 37.6484H19.4217V64.653ZM9.69355 38.9128C8.44939 38.9128 6.64132 43.6795 6.64132 51.1496C6.64132 58.6194 8.44939 63.3887 9.69355 63.3887H18.1573V38.9128H9.69355Z" fill="black" fill-opacity="0.44"/>
<path d="M59.6745 50.9804L54.7886 63.5559L32.1767 62.8225L26.6968 60.013L21.523 60.0558L16.071 60.1038C15.411 57.7878 15.0039 54.6294 15.0039 51.1498C15.0039 47.3363 15.4919 43.9124 16.2683 41.5556L21.2423 41.3457L28.9828 41.0195L37.2847 33.9946L38.2279 36.9937L58.319 39.1634L59.6745 50.9804Z" fill="white"/>
<path d="M55.2157 64.203L32.0142 63.4446L26.5471 60.6424L15.595 60.736L15.4635 60.2733C14.7605 57.8027 14.3711 54.5608 14.3711 51.1446C14.3711 47.4223 14.844 43.8542 15.6683 41.3533L15.8049 40.9386L28.7395 40.3923L37.6129 32.8921L38.7179 36.4096L58.8997 38.5894L60.321 51.0765L55.2157 64.203ZM32.3404 62.2029L54.3632 62.9185L59.0312 50.8969L57.7669 39.7374L37.7671 37.5778L36.9857 35.0921L29.2326 41.6415L16.7456 42.1701C16.0451 44.5218 15.643 47.7611 15.643 51.1499C15.643 54.2397 15.9693 57.1705 16.561 59.4669L26.8556 59.3809L32.3404 62.2029Z" fill="#FF8686"/>
<path d="M55.2157 64.203L32.0142 63.4446L26.5471 60.6424L15.595 60.736L15.4635 60.2733C14.7605 57.8027 14.3711 54.5608 14.3711 51.1446C14.3711 47.4223 14.844 43.8542 15.6683 41.3533L15.8049 40.9386L28.7395 40.3923L37.6129 32.8921L38.7179 36.4096L58.8997 38.5894L60.321 51.0765L55.2157 64.203ZM32.3404 62.2029L54.3632 62.9185L59.0312 50.8969L57.7669 39.7374L37.7671 37.5778L36.9857 35.0921L29.2326 41.6415L16.7456 42.1701C16.0451 44.5218 15.643 47.7611 15.643 51.1499C15.643 54.2397 15.9693 57.1705 16.561 59.4669L26.8556 59.3809L32.3404 62.2029Z" fill="black" fill-opacity="0.44"/>
<path d="M58.6962 42.7866L50.2266 44.3931L50.4622 45.6353L58.9318 44.0289L58.6962 42.7866Z" fill="#FF8686"/>
<path d="M58.6962 42.7866L50.2266 44.3931L50.4622 45.6353L58.9318 44.0289L58.6962 42.7866Z" fill="black" fill-opacity="0.44"/>
<path d="M59.6536 50.3477L49.2812 50.688L49.3225 51.9518L59.6948 51.6115L59.6536 50.3477Z" fill="#FF8686"/>
<path d="M59.6536 50.3477L49.2812 50.688L49.3225 51.9518L59.6948 51.6115L59.6536 50.3477Z" fill="black" fill-opacity="0.44"/>
<path d="M57.078 57.0317H48.0684V58.2961H57.078V57.0317Z" fill="#FF8686"/>
<path d="M57.078 57.0317H48.0684V58.2961H57.078V57.0317Z" fill="black" fill-opacity="0.44"/>
<path d="M21.2416 41.3455L16.2676 41.5554C16.9377 39.5324 17.8202 38.2807 18.7963 38.2807C19.7724 38.2807 20.5942 39.4439 21.2416 41.3455Z" fill="#FF8686"/>
<path d="M21.2416 41.3455L16.2676 41.5554C16.9377 39.5324 17.8202 38.2807 18.7963 38.2807C19.7724 38.2807 20.5942 39.4439 21.2416 41.3455Z" fill="black" fill-opacity="0.44"/>
<path d="M21.5223 60.0557C20.832 62.4989 19.8634 64.0209 18.7887 64.0209C17.714 64.0209 16.7657 62.519 16.0703 60.1041L21.5223 60.0557Z" fill="#FF8686"/>
<path d="M21.5223 60.0557C20.832 62.4989 19.8634 64.0209 18.7887 64.0209C17.714 64.0209 16.7657 62.519 16.0703 60.1041L21.5223 60.0557Z" fill="black" fill-opacity="0.44"/>
<path d="M16.2676 42.1876C16.1678 42.1873 16.0694 42.1635 15.9806 42.118C15.8918 42.0725 15.815 42.0065 15.7565 41.9256C15.698 41.8447 15.6595 41.7511 15.6442 41.6525C15.6289 41.5538 15.6371 41.453 15.6683 41.3581C16.6798 38.2933 17.9239 37.6484 18.7888 37.6484C19.6536 37.6484 20.8421 38.2554 21.841 41.1381C21.8719 41.2311 21.8809 41.3299 21.8673 41.4269C21.8537 41.5239 21.8178 41.6165 21.7625 41.6972C21.7071 41.7781 21.6338 41.845 21.5483 41.8927C21.4627 41.9406 21.3673 41.9679 21.2695 41.9726L16.2954 42.1876H16.2676ZM18.7963 38.9128C18.3943 38.9128 17.7848 39.4489 17.1982 40.8827L20.3414 40.7512C19.7573 39.411 19.1757 38.9128 18.7888 38.9128H18.7963Z" fill="#FF8686"/>
<path d="M16.2676 42.1876C16.1678 42.1873 16.0694 42.1635 15.9806 42.118C15.8918 42.0725 15.815 42.0065 15.7565 41.9256C15.698 41.8447 15.6595 41.7511 15.6442 41.6525C15.6289 41.5538 15.6371 41.453 15.6683 41.3581C16.6798 38.2933 17.9239 37.6484 18.7888 37.6484C19.6536 37.6484 20.8421 38.2554 21.841 41.1381C21.8719 41.2311 21.8809 41.3299 21.8673 41.4269C21.8537 41.5239 21.8178 41.6165 21.7625 41.6972C21.7071 41.7781 21.6338 41.845 21.5483 41.8927C21.4627 41.9406 21.3673 41.9679 21.2695 41.9726L16.2954 42.1876H16.2676ZM18.7963 38.9128C18.3943 38.9128 17.7848 39.4489 17.1982 40.8827L20.3414 40.7512C19.7573 39.411 19.1757 38.9128 18.7888 38.9128H18.7963Z" fill="black" fill-opacity="0.44"/>
<path d="M18.7893 64.6532C17.4289 64.6532 16.2808 63.1359 15.464 60.2784C15.4371 60.1848 15.4323 60.086 15.4497 59.9904C15.4672 59.8944 15.5067 59.8037 15.5649 59.726C15.6232 59.6477 15.6988 59.5844 15.7856 59.5402C15.8725 59.496 15.9684 59.4725 16.0659 59.4716L21.5178 59.4212C21.6164 59.4183 21.7142 59.4399 21.8024 59.484C21.8907 59.5282 21.9666 59.5935 22.0236 59.6741C22.0837 59.7519 22.1247 59.8431 22.1431 59.9396C22.1615 60.036 22.157 60.1359 22.1298 60.2304C21.313 63.1234 20.1574 64.6532 18.7893 64.6532ZM16.9282 60.7287C17.5958 62.6756 18.3291 63.3888 18.7893 63.3888C19.2495 63.3888 19.993 62.6655 20.6631 60.6956L16.9282 60.7287Z" fill="#FF8686"/>
<path d="M18.7893 64.6532C17.4289 64.6532 16.2808 63.1359 15.464 60.2784C15.4371 60.1848 15.4323 60.086 15.4497 59.9904C15.4672 59.8944 15.5067 59.8037 15.5649 59.726C15.6232 59.6477 15.6988 59.5844 15.7856 59.5402C15.8725 59.496 15.9684 59.4725 16.0659 59.4716L21.5178 59.4212C21.6164 59.4183 21.7142 59.4399 21.8024 59.484C21.8907 59.5282 21.9666 59.5935 22.0236 59.6741C22.0837 59.7519 22.1247 59.8431 22.1431 59.9396C22.1615 60.036 22.157 60.1359 22.1298 60.2304C21.313 63.1234 20.1574 64.6532 18.7893 64.6532ZM16.9282 60.7287C17.5958 62.6756 18.3291 63.3888 18.7893 63.3888C19.2495 63.3888 19.993 62.6655 20.6631 60.6956L16.9282 60.7287Z" fill="black" fill-opacity="0.44"/>
<path d="M13.6627 42.6805L11.4436 40.4614L9.22461 42.6805L11.4436 44.8995L13.6627 42.6805Z" fill="white"/>
<path d="M37.1742 14.8248L37.1387 20.1806L38.403 20.189L38.4386 14.8332L37.1742 14.8248Z" fill="white"/>
<path d="M35 8.29202L37.8069 7.99365L46.9508 14.1183L60.7403 9.79408L56.512 24.4659L65.3046 35.3952L62.2547 35.3648L54.1984 24.6429L58.4617 11.9259L45.775 16.2778L35 8.29202Z" fill="#FF8686"/>
<path d="M35 8.29202L37.8069 7.99365L46.9508 14.1183L60.7403 9.79408L56.512 24.4659L65.3046 35.3952L62.2547 35.3648L54.1984 24.6429L58.4617 11.9259L45.775 16.2778L35 8.29202Z" fill="black" fill-opacity="0.44"/>
<path d="M48.8452 35.2387H51.9L49.715 38.0684L46.9512 37.9343L48.8452 35.2387Z" fill="#FF8686"/>
<path d="M48.8452 35.2387H51.9L49.715 38.0684L46.9512 37.9343L48.8452 35.2387Z" fill="black" fill-opacity="0.44"/>
<path d="M50.0038 38.7311L37.762 37.5856L36.6114 33.929L22.8828 29.711L34.5808 21.3814L34.3583 7.72608L37.9694 7.34424L47.0526 13.4233L61.674 8.8463L57.2134 24.3324L66.6377 36.0506L52.2036 35.8736L50.0038 38.7311ZM38.7153 36.4097L49.4297 37.4212L51.5945 34.6168L63.9852 34.7635L55.8276 24.6207L59.8203 10.7631L46.8529 14.8116L37.6456 8.64653L35.6429 8.85897L35.8553 22.0236L25.7024 29.2559L37.6179 32.915L38.7153 36.4097Z" fill="#FF8686"/>
<path d="M50.0038 38.7311L37.762 37.5856L36.6114 33.929L22.8828 29.711L34.5808 21.3814L34.3583 7.72608L37.9694 7.34424L47.0526 13.4233L61.674 8.8463L57.2134 24.3324L66.6377 36.0506L52.2036 35.8736L50.0038 38.7311ZM38.7153 36.4097L49.4297 37.4212L51.5945 34.6168L63.9852 34.7635L55.8276 24.6207L59.8203 10.7631L46.8529 14.8116L37.6456 8.64653L35.6429 8.85897L35.8553 22.0236L25.7024 29.2559L37.6179 32.915L38.7153 36.4097Z" fill="black" fill-opacity="0.44"/>
<path d="M47.4691 38.2986L46.4348 37.5703L48.5184 34.6016L60.9801 34.7204L53.4926 24.7572L57.455 12.9403L45.6661 16.9838L34.623 8.80072L35.3766 7.78418L45.8836 15.5702L59.4681 10.9122L54.9038 24.5296L63.5318 36.0076L49.1712 35.8735L47.4691 38.2986Z" fill="#FF8686"/>
<path d="M47.4691 38.2986L46.4348 37.5703L48.5184 34.6016L60.9801 34.7204L53.4926 24.7572L57.455 12.9403L45.6661 16.9838L34.623 8.80072L35.3766 7.78418L45.8836 15.5702L59.4681 10.9122L54.9038 24.5296L63.5318 36.0076L49.1712 35.8735L47.4691 38.2986Z" fill="black" fill-opacity="0.44"/>
</svg>
