<svg width="22" height="16" viewBox="0 0 22 16" fill="none" xmlns="http://www.w3.org/2000/svg">
<path d="M19.8021 5.11366C19.7714 5.06721 19.7308 5.02818 19.6832 4.99939C19.6355 4.9706 19.5821 4.95278 19.5267 4.94721C19.4713 4.94165 19.4154 4.94848 19.363 4.96722C19.3106 4.98595 19.263 5.01612 19.2237 5.05553L12.1531 12.1262C12.01 12.2533 11.8236 12.321 11.6323 12.3152C11.4409 12.3095 11.259 12.2307 11.1238 12.0952C10.9886 11.9596 10.9104 11.7775 10.9051 11.5861C10.8999 11.3948 10.968 11.2086 11.0956 11.0658L19.7862 2.37616C19.8559 2.30648 19.9111 2.22375 19.9489 2.13271C19.9866 2.04166 20.006 1.94408 20.006 1.84554C20.006 1.74699 19.9866 1.64941 19.9489 1.55836C19.9111 1.46732 19.8559 1.38459 19.7862 1.31491C19.7165 1.24523 19.6338 1.18995 19.5427 1.15224C19.4517 1.11453 19.3541 1.09512 19.2556 1.09512C19.157 1.09512 19.0594 1.11453 18.9684 1.15224C18.8773 1.18995 18.7946 1.24523 18.7249 1.31491L17.4706 2.57022C15.6804 1.17211 13.4853 0.391902 11.2143 0.346575C8.94333 0.301248 6.71884 0.993241 4.87432 2.31881C3.0298 3.64438 1.66462 5.53212 0.983464 7.69901C0.302303 9.8659 0.341852 12.1952 1.09618 14.3377C1.19953 14.6315 1.39126 14.886 1.64506 15.0665C1.89886 15.2469 2.20228 15.3444 2.51368 15.3455H19.489C19.8001 15.3457 20.1035 15.2492 20.3573 15.0693C20.6111 14.8894 20.8027 14.6351 20.9056 14.3415C21.4402 12.8215 21.6187 11.1991 21.4274 9.5992C21.2361 7.99933 20.68 6.46474 19.8021 5.11366ZM4.38681 12.1965C4.42633 12.3914 4.38681 12.5941 4.27692 12.7598C4.16704 12.9256 3.9958 13.041 3.80087 13.0805C3.75151 13.0906 3.70125 13.0957 3.65087 13.0955C3.478 13.0953 3.31052 13.0354 3.17676 12.9259C3.04299 12.8164 2.95117 12.664 2.91681 12.4946C2.64861 11.1744 2.70758 9.80857 3.08858 8.51637C3.46957 7.22418 4.161 6.04485 5.10254 5.0813C6.04408 4.11775 7.20712 3.39926 8.49018 2.98853C9.77323 2.57779 11.1373 2.48728 12.4634 2.72491C12.6592 2.75997 12.833 2.87137 12.9467 3.03462C13.0604 3.19786 13.1045 3.39957 13.0695 3.59538C13.0344 3.79118 12.923 3.96504 12.7598 4.07871C12.5965 4.19237 12.3948 4.23653 12.199 4.20147C11.1139 4.0072 9.99765 4.0814 8.94777 4.4176C7.89789 4.75379 6.94622 5.34178 6.17577 6.13025C5.40532 6.91873 4.83951 7.88374 4.52768 8.94112C4.21586 9.9985 4.16749 11.1161 4.38681 12.1965Z" fill="#73BEFF"/>
</svg>
