<svg width="128" height="24" viewBox="0 0 128 24" fill="none" xmlns="http://www.w3.org/2000/svg">
<path d="M30.1858 1.81641V7.06944C28.9161 5.8979 27.1982 5.36881 25.6297 5.36881C21.5589 5.36881 18.4219 8.39213 18.4219 12.5492C18.4219 16.7063 21.5216 19.7674 25.8537 19.7674C30.1858 19.7674 33.2855 16.744 33.2855 12.3225V1.81641H30.1858ZM25.8537 16.9331C23.3515 16.9331 21.5963 15.1946 21.5963 12.5492C21.5963 9.90379 23.3889 8.20318 25.8911 8.20318C28.3933 8.20318 30.1858 9.90379 30.1858 12.5114C30.1858 15.1946 28.3933 16.9331 25.8537 16.9331Z" fill="#1B1921"/>
<path d="M35.1914 1.81641V4.68856H40.9053V19.5029H44.1545V4.68856H49.9057V1.81641H35.1914Z" fill="#1B1921"/>
<path d="M55.6556 5.36816C52.5185 5.36816 49.9043 7.71123 49.9043 11.6038V19.5022H53.004V11.7171C53.004 9.22288 54.0124 8.20253 55.917 8.20253C57.1494 8.20253 58.1578 8.80718 58.6059 9.2607L60.3238 7.03099C59.2781 6.12399 57.8216 5.36816 55.6556 5.36816Z" fill="#1B1921"/>
<path d="M62.0072 5.67028V19.502H65.1069V5.67028H62.0072ZM63.5758 0.795166C62.6048 0.795166 61.7832 1.58879 61.7832 2.57137C61.7832 3.51616 62.5675 4.30978 63.5758 4.30978C64.5841 4.30978 65.2937 3.51616 65.2937 2.57137C65.2937 1.58879 64.5467 0.795166 63.5758 0.795166Z" fill="#1B1921"/>
<path d="M74.3342 5.36816C70.0021 5.36816 66.9023 8.42931 66.9023 12.8509V23.8104H70.0394V18.0661C71.3092 19.2377 73.0271 19.7667 74.5956 19.7667C78.6664 19.7667 81.8034 16.7434 81.8034 12.6242C81.8034 8.46704 78.7037 5.36816 74.3342 5.36816ZM74.3342 16.9323C71.832 16.9323 70.0394 15.2317 70.0394 12.6242C70.0394 9.97871 71.832 8.24032 74.3715 8.24032C76.9111 8.24032 78.6664 9.97871 78.6664 12.6242C78.6664 15.2317 76.8737 16.9323 74.3342 16.9323Z" fill="#1B1921"/>
<path d="M91.0582 5.36816C86.726 5.36816 83.627 8.42931 83.627 12.8509V23.8104H86.764V18.0661C88.0335 19.2377 89.7136 19.7667 91.3201 19.7667C95.3905 19.7667 98.5275 16.7434 98.5275 12.6242C98.5275 8.46704 95.3905 5.36816 91.0582 5.36816ZM91.0582 16.9323C88.5564 16.9323 86.764 15.2317 86.764 12.6242C86.764 9.97871 88.5564 8.24032 91.0954 8.24032C93.6353 8.24032 95.3905 9.97871 95.3905 12.6242C95.3905 15.2317 93.5609 16.9323 91.0582 16.9323Z" fill="#1B1921"/>
<path d="M102.192 7.56022C99.7275 10.0545 99.4665 14.5517 102.006 17.386C104.47 20.4093 110.297 20.6739 113.06 17.386L110.894 15.5343C108.878 17.8395 104.172 17.386 103.425 13.6446H114.778C115.861 5.89739 106.524 2.94965 102.192 7.56022ZM103.574 11.037C104.695 7.2201 110.446 7.25789 111.566 11.037H103.574Z" fill="#1B1921"/>
<path d="M122.805 5.36816C119.667 5.36816 117.053 7.71123 117.053 11.6038V19.5022H120.153V11.7171C120.153 9.22288 121.161 8.20253 123.066 8.20253C124.298 8.20253 125.27 8.80718 125.754 9.2607L127.435 7.03099C126.427 6.12399 124.971 5.36816 122.805 5.36816Z" fill="#1B1921"/>
<path d="M9.0873 21.0149C4.45641 21.0149 4.08295 17.8027 4.0456 16.7822C4.0456 16.291 4.1203 15.7619 4.23234 15.195C1.80485 14.9683 0.236328 13.3055 0.236328 10.9246C0.236328 6.50295 7.48143 1.13654 14.5771 0.26734C15.3987 0.153965 16.1457 0.75863 16.2203 1.59004C16.3324 2.42146 15.7349 3.17729 14.9132 3.25287C8.67646 4.04649 3.224 8.58153 3.224 10.9246C3.224 12.2095 4.26968 12.2472 5.53944 12.2472C7.33205 9.29954 10.4691 6.65412 13.4568 6.57854C17.042 6.50295 18.5731 10.2443 16.1457 12.6252C14.241 14.5147 10.1703 15.0816 7.36939 15.2328C7.14531 15.7997 7.03328 16.3287 7.03328 16.7822C7.03328 17.1979 7.03328 18.0294 9.0873 18.0294C11.9629 18.0294 16.183 16.4421 18.9093 14.288C19.5815 13.7967 20.5151 13.9101 21.0007 14.5526C21.4862 15.2328 21.3741 16.1776 20.7392 16.6689C17.4901 19.2009 12.5979 21.0149 9.0873 21.0149ZM13.5315 9.60186C12.2243 9.63968 10.7305 10.66 9.46072 11.9827C11.5521 11.7182 13.3074 11.1891 14.0543 10.4711C14.241 10.2821 14.4278 9.97973 14.241 9.82862C14.0916 9.63968 13.7555 9.60186 13.5315 9.60186Z" fill="#1B1921"/>
</svg>
