<svg width="85" height="28" viewBox="0 0 85 28" fill="none" xmlns="http://www.w3.org/2000/svg">
<path d="M3.54015 2.68994L4.10578 15.4144H4.38983L5.23951 2.68994H8.07139L8.91983 15.4144H9.20388L9.76951 2.68994H13.3097V2.97356L12.0358 25.31H7.64593L6.79623 15.4144H6.51341L5.66373 25.31H1.27391L0 2.97356V2.68994H3.54015Z" fill="#1B1921"/>
<path d="M15.4756 16.7423C15.7982 17.8384 17.4888 23.6755 17.6116 25.7128C17.6178 25.8131 17.7171 25.88 17.8138 25.8503C18.1438 25.7475 18.8061 25.3858 19.1299 24.1213C19.1547 24.0247 19.2639 23.9752 19.3519 24.021L19.476 24.0866C19.5678 24.1349 19.6794 24.0817 19.7005 23.9801L20.1036 21.9911C20.1247 21.8895 20.2363 21.8363 20.3282 21.8846C20.4249 21.9354 20.5415 21.8747 20.5551 21.7669L20.8417 19.4608C20.8516 19.3791 20.9248 19.3196 21.0066 19.3258L21.0513 19.3295C21.1406 19.3357 21.2175 19.2651 21.2175 19.1747V16.3262C21.2175 16.2456 21.2795 16.1775 21.3602 16.1714C22.1801 16.1069 26.2536 15.6549 25.8629 12.9946C25.4287 10.0382 23.9663 4.02406 22.9789 2.98C22.0598 2.00777 20.988 2.01149 19.4822 2.34341C17.9763 2.67409 14.8877 3.84695 16.3427 6.11465C17.6153 8.09875 18.6151 10.3949 18.8446 10.9387C18.8744 11.008 18.8496 11.0885 18.7851 11.1294C18.4613 11.335 17.4901 11.9257 16.7756 12.0521C15.9073 12.2044 14.1211 12.7147 14.3258 14.5489C14.5304 16.3831 14.4957 16.7237 14.8443 16.7237C15.0204 16.7237 15.1655 16.6828 15.2673 16.642C15.3528 16.6073 15.4496 16.6519 15.4756 16.7411" fill="#1B1921"/>
<path d="M30.5713 2.68994L32.9777 14H33.2617L32.8361 2.68994H36.8004V25.31H33.1189L30.7126 14H30.4297L30.8539 25.31H26.8896V2.68994H30.5713Z" fill="#1B1921"/>
<path d="M43.6906 2.40698C47.0892 2.40698 48.8445 5.23449 48.8445 9.47638C48.8445 9.98541 48.8729 10.5786 48.9858 11.032V11.3143H44.7386C44.653 11.032 44.5973 10.6071 44.5973 10.0411V7.10093C44.5973 6.30952 44.2575 5.80048 43.5778 5.80048C42.898 5.80048 42.4738 6.30952 42.4738 7.24212V20.6155C42.4738 21.5481 42.8992 22.0571 43.5778 22.0571C44.2561 22.0571 44.5973 21.5481 44.5973 20.7567V12.9554H48.7029V25.3095H46.7207L46.0125 22.3977H45.7297C45.5312 24.123 44.653 25.5931 42.5295 25.5931C40.4061 25.5931 37.7998 23.6139 37.7998 16.687V13.1523C37.7998 5.37691 40.0933 2.40822 43.6906 2.40822" fill="#1B1921"/>
<path d="M54.2335 21.9177H54.5164C55.5075 21.9177 56.3573 21.2106 56.3573 19.5138V18.1007C56.3573 16.4039 55.5075 15.6967 54.5164 15.6967H54.2335V21.9177ZM54.2335 12.3045H54.5164C55.5075 12.3045 56.2157 11.5973 56.2157 10.043V8.34619C56.2157 6.79064 55.5075 6.08346 54.5164 6.08346H54.2335V12.3045ZM54.0351 2.69118C57.4909 2.69118 60.6057 4.61334 60.6057 8.48738C60.6057 11.5973 58.8504 13.0116 57.2068 13.7176V14C58.9621 14.6217 60.747 16.0918 60.747 19.2872C60.747 23.3024 57.915 25.31 54.4607 25.31H49.9863V2.68994H54.0363L54.0351 2.69118Z" fill="#1B1921"/>
<path d="M66.4196 20.616C66.4196 21.5486 66.8737 22.0576 67.5523 22.0576C68.2306 22.0576 68.6858 21.5486 68.6858 20.616V7.24261C68.6858 6.31001 68.2332 5.80097 67.5523 5.80097C66.871 5.80097 66.4196 6.31001 66.4196 7.24261V20.616ZM61.7471 13.1515C61.7471 5.37617 63.8705 2.40747 67.5523 2.40747C71.2338 2.40747 73.3572 5.37617 73.3572 13.1515V14.8483C73.3572 22.6236 71.2338 25.5923 67.5523 25.5923C63.8705 25.5923 61.7471 22.6236 61.7471 14.8483V13.1515Z" fill="#1B1921"/>
<path d="M77.1884 17.2523L74.3564 2.97356V2.68994H78.3208L79.3119 9.67389H79.5959L80.587 2.68994H84.5516V2.97356L81.7197 17.2523V25.31H77.1884V17.2523Z" fill="#1B1921"/>
</svg>
