<svg width="116" height="36" viewBox="0 0 116 36" fill="none" xmlns="http://www.w3.org/2000/svg">
<g filter="url(#filter0_i_6_10085)">
<rect width="37" height="36" rx="4" fill="url(#paint0_linear_6_10085)"/>
<path d="M12.375 17.4375C11.7102 17.4375 11.0519 17.3066 10.4377 17.0521C9.82345 16.7977 9.26537 16.4248 8.79527 15.9547C8.32518 15.4846 7.95227 14.9265 7.69786 14.3123C7.44345 13.6981 7.3125 13.0398 7.3125 12.375C7.3125 11.7102 7.44345 11.0519 7.69786 10.4377C7.95227 9.82345 8.32518 9.26537 8.79527 8.79527C9.26537 8.32518 9.82345 7.95227 10.4377 7.69786C11.0519 7.44345 11.7102 7.3125 12.375 7.3125C13.7177 7.3125 15.0053 7.84587 15.9547 8.79527C16.9041 9.74467 17.4375 11.0323 17.4375 12.375C17.4375 13.7177 16.9041 15.0053 15.9547 15.9547C15.0053 16.9041 13.7177 17.4375 12.375 17.4375ZM12.375 28.6875C11.0323 28.6875 9.74467 28.1541 8.79527 27.2047C7.84587 26.2553 7.3125 24.9677 7.3125 23.625C7.3125 22.2823 7.84587 20.9947 8.79527 20.0453C9.74467 19.0959 11.0323 18.5625 12.375 18.5625C13.7177 18.5625 15.0053 19.0959 15.9547 20.0453C16.9041 20.9947 17.4375 22.2823 17.4375 23.625C17.4375 24.9677 16.9041 26.2553 15.9547 27.2047C15.0053 28.1541 13.7177 28.6875 12.375 28.6875ZM23.625 17.4375C22.9602 17.4375 22.3019 17.3066 21.6877 17.0521C21.0735 16.7977 20.5154 16.4248 20.0453 15.9547C19.5752 15.4846 19.2023 14.9265 18.9479 14.3123C18.6934 13.6981 18.5625 13.0398 18.5625 12.375C18.5625 11.7102 18.6934 11.0519 18.9479 10.4377C19.2023 9.82345 19.5752 9.26537 20.0453 8.79527C20.5154 8.32518 21.0735 7.95227 21.6877 7.69786C22.3019 7.44345 22.9602 7.3125 23.625 7.3125C24.9677 7.3125 26.2553 7.84587 27.2047 8.79527C28.1541 9.74467 28.6875 11.0323 28.6875 12.375C28.6875 13.7177 28.1541 15.0053 27.2047 15.9547C26.2553 16.9041 24.9677 17.4375 23.625 17.4375ZM23.625 28.6875C22.2823 28.6875 20.9947 28.1541 20.0453 27.2047C19.0959 26.2553 18.5625 24.9677 18.5625 23.625C18.5625 22.2823 19.0959 20.9947 20.0453 20.0453C20.9947 19.0959 22.2823 18.5625 23.625 18.5625C24.9677 18.5625 26.2553 19.0959 27.2047 20.0453C28.1541 20.9947 28.6875 22.2823 28.6875 23.625C28.6875 24.9677 28.1541 26.2553 27.2047 27.2047C26.2553 28.1541 24.9677 28.6875 23.625 28.6875Z" fill="#FA6318"/>
<path d="M12.375 17.4375C11.7102 17.4375 11.0519 17.3066 10.4377 17.0521C9.82345 16.7977 9.26537 16.4248 8.79527 15.9547C8.32518 15.4846 7.95227 14.9265 7.69786 14.3123C7.44345 13.6981 7.3125 13.0398 7.3125 12.375C7.3125 11.7102 7.44345 11.0519 7.69786 10.4377C7.95227 9.82345 8.32518 9.26537 8.79527 8.79527C9.26537 8.32518 9.82345 7.95227 10.4377 7.69786C11.0519 7.44345 11.7102 7.3125 12.375 7.3125C13.7177 7.3125 15.0053 7.84587 15.9547 8.79527C16.9041 9.74467 17.4375 11.0323 17.4375 12.375C17.4375 13.7177 16.9041 15.0053 15.9547 15.9547C15.0053 16.9041 13.7177 17.4375 12.375 17.4375ZM12.375 28.6875C11.0323 28.6875 9.74467 28.1541 8.79527 27.2047C7.84587 26.2553 7.3125 24.9677 7.3125 23.625C7.3125 22.2823 7.84587 20.9947 8.79527 20.0453C9.74467 19.0959 11.0323 18.5625 12.375 18.5625C13.7177 18.5625 15.0053 19.0959 15.9547 20.0453C16.9041 20.9947 17.4375 22.2823 17.4375 23.625C17.4375 24.9677 16.9041 26.2553 15.9547 27.2047C15.0053 28.1541 13.7177 28.6875 12.375 28.6875ZM23.625 17.4375C22.9602 17.4375 22.3019 17.3066 21.6877 17.0521C21.0735 16.7977 20.5154 16.4248 20.0453 15.9547C19.5752 15.4846 19.2023 14.9265 18.9479 14.3123C18.6934 13.6981 18.5625 13.0398 18.5625 12.375C18.5625 11.7102 18.6934 11.0519 18.9479 10.4377C19.2023 9.82345 19.5752 9.26537 20.0453 8.79527C20.5154 8.32518 21.0735 7.95227 21.6877 7.69786C22.3019 7.44345 22.9602 7.3125 23.625 7.3125C24.9677 7.3125 26.2553 7.84587 27.2047 8.79527C28.1541 9.74467 28.6875 11.0323 28.6875 12.375C28.6875 13.7177 28.1541 15.0053 27.2047 15.9547C26.2553 16.9041 24.9677 17.4375 23.625 17.4375ZM23.625 28.6875C22.2823 28.6875 20.9947 28.1541 20.0453 27.2047C19.0959 26.2553 18.5625 24.9677 18.5625 23.625C18.5625 22.2823 19.0959 20.9947 20.0453 20.0453C20.9947 19.0959 22.2823 18.5625 23.625 18.5625C24.9677 18.5625 26.2553 19.0959 27.2047 20.0453C28.1541 20.9947 28.6875 22.2823 28.6875 23.625C28.6875 24.9677 28.1541 26.2553 27.2047 27.2047C26.2553 28.1541 24.9677 28.6875 23.625 28.6875Z" fill="url(#paint1_linear_6_10085)"/>
<path d="M12.375 17.4375C11.7102 17.4375 11.0519 17.3066 10.4377 17.0521C9.82345 16.7977 9.26537 16.4248 8.79527 15.9547C8.32518 15.4846 7.95227 14.9265 7.69786 14.3123C7.44345 13.6981 7.3125 13.0398 7.3125 12.375C7.3125 11.7102 7.44345 11.0519 7.69786 10.4377C7.95227 9.82345 8.32518 9.26537 8.79527 8.79527C9.26537 8.32518 9.82345 7.95227 10.4377 7.69786C11.0519 7.44345 11.7102 7.3125 12.375 7.3125C13.7177 7.3125 15.0053 7.84587 15.9547 8.79527C16.9041 9.74467 17.4375 11.0323 17.4375 12.375C17.4375 13.7177 16.9041 15.0053 15.9547 15.9547C15.0053 16.9041 13.7177 17.4375 12.375 17.4375ZM12.375 28.6875C11.0323 28.6875 9.74467 28.1541 8.79527 27.2047C7.84587 26.2553 7.3125 24.9677 7.3125 23.625C7.3125 22.2823 7.84587 20.9947 8.79527 20.0453C9.74467 19.0959 11.0323 18.5625 12.375 18.5625C13.7177 18.5625 15.0053 19.0959 15.9547 20.0453C16.9041 20.9947 17.4375 22.2823 17.4375 23.625C17.4375 24.9677 16.9041 26.2553 15.9547 27.2047C15.0053 28.1541 13.7177 28.6875 12.375 28.6875ZM23.625 17.4375C22.9602 17.4375 22.3019 17.3066 21.6877 17.0521C21.0735 16.7977 20.5154 16.4248 20.0453 15.9547C19.5752 15.4846 19.2023 14.9265 18.9479 14.3123C18.6934 13.6981 18.5625 13.0398 18.5625 12.375C18.5625 11.7102 18.6934 11.0519 18.9479 10.4377C19.2023 9.82345 19.5752 9.26537 20.0453 8.79527C20.5154 8.32518 21.0735 7.95227 21.6877 7.69786C22.3019 7.44345 22.9602 7.3125 23.625 7.3125C24.9677 7.3125 26.2553 7.84587 27.2047 8.79527C28.1541 9.74467 28.6875 11.0323 28.6875 12.375C28.6875 13.7177 28.1541 15.0053 27.2047 15.9547C26.2553 16.9041 24.9677 17.4375 23.625 17.4375ZM23.625 28.6875C22.2823 28.6875 20.9947 28.1541 20.0453 27.2047C19.0959 26.2553 18.5625 24.9677 18.5625 23.625C18.5625 22.2823 19.0959 20.9947 20.0453 20.0453C20.9947 19.0959 22.2823 18.5625 23.625 18.5625C24.9677 18.5625 26.2553 19.0959 27.2047 20.0453C28.1541 20.9947 28.6875 22.2823 28.6875 23.625C28.6875 24.9677 28.1541 26.2553 27.2047 27.2047C26.2553 28.1541 24.9677 28.6875 23.625 28.6875Z" fill="url(#paint2_linear_6_10085)"/>
<path d="M12.375 17.4375C11.7102 17.4375 11.0519 17.3066 10.4377 17.0521C9.82345 16.7977 9.26537 16.4248 8.79527 15.9547C8.32518 15.4846 7.95227 14.9265 7.69786 14.3123C7.44345 13.6981 7.3125 13.0398 7.3125 12.375C7.3125 11.7102 7.44345 11.0519 7.69786 10.4377C7.95227 9.82345 8.32518 9.26537 8.79527 8.79527C9.26537 8.32518 9.82345 7.95227 10.4377 7.69786C11.0519 7.44345 11.7102 7.3125 12.375 7.3125C13.7177 7.3125 15.0053 7.84587 15.9547 8.79527C16.9041 9.74467 17.4375 11.0323 17.4375 12.375C17.4375 13.7177 16.9041 15.0053 15.9547 15.9547C15.0053 16.9041 13.7177 17.4375 12.375 17.4375ZM12.375 28.6875C11.0323 28.6875 9.74467 28.1541 8.79527 27.2047C7.84587 26.2553 7.3125 24.9677 7.3125 23.625C7.3125 22.2823 7.84587 20.9947 8.79527 20.0453C9.74467 19.0959 11.0323 18.5625 12.375 18.5625C13.7177 18.5625 15.0053 19.0959 15.9547 20.0453C16.9041 20.9947 17.4375 22.2823 17.4375 23.625C17.4375 24.9677 16.9041 26.2553 15.9547 27.2047C15.0053 28.1541 13.7177 28.6875 12.375 28.6875ZM23.625 17.4375C22.9602 17.4375 22.3019 17.3066 21.6877 17.0521C21.0735 16.7977 20.5154 16.4248 20.0453 15.9547C19.5752 15.4846 19.2023 14.9265 18.9479 14.3123C18.6934 13.6981 18.5625 13.0398 18.5625 12.375C18.5625 11.7102 18.6934 11.0519 18.9479 10.4377C19.2023 9.82345 19.5752 9.26537 20.0453 8.79527C20.5154 8.32518 21.0735 7.95227 21.6877 7.69786C22.3019 7.44345 22.9602 7.3125 23.625 7.3125C24.9677 7.3125 26.2553 7.84587 27.2047 8.79527C28.1541 9.74467 28.6875 11.0323 28.6875 12.375C28.6875 13.7177 28.1541 15.0053 27.2047 15.9547C26.2553 16.9041 24.9677 17.4375 23.625 17.4375ZM23.625 28.6875C22.2823 28.6875 20.9947 28.1541 20.0453 27.2047C19.0959 26.2553 18.5625 24.9677 18.5625 23.625C18.5625 22.2823 19.0959 20.9947 20.0453 20.0453C20.9947 19.0959 22.2823 18.5625 23.625 18.5625C24.9677 18.5625 26.2553 19.0959 27.2047 20.0453C28.1541 20.9947 28.6875 22.2823 28.6875 23.625C28.6875 24.9677 28.1541 26.2553 27.2047 27.2047C26.2553 28.1541 24.9677 28.6875 23.625 28.6875Z" fill="url(#paint3_radial_6_10085)"/>
</g>
<path d="M55.248 27.364C53.848 27.364 52.5973 27.1587 51.496 26.748C50.3947 26.3373 49.4613 25.7307 48.696 24.928C47.9493 24.1067 47.38 23.1173 46.988 21.96C46.596 20.784 46.4 19.4493 46.4 17.956C46.4 16.4253 46.596 15.0627 46.988 13.868C47.3987 12.6547 47.9773 11.6187 48.724 10.76C49.4893 9.90133 50.404 9.25733 51.468 8.828C52.532 8.38 53.7267 8.156 55.052 8.156C56.0973 8.156 57.0493 8.296 57.908 8.576C58.7853 8.856 59.532 9.25733 60.148 9.78C60.764 10.3027 61.24 10.9373 61.576 11.684C61.9307 12.4307 62.108 13.2613 62.108 14.176L58.804 14.988C58.804 14.1293 58.6267 13.42 58.272 12.86C57.9173 12.2813 57.4413 11.8427 56.844 11.544C56.2653 11.2453 55.6307 11.096 54.94 11.096C54.324 11.096 53.7173 11.2267 53.12 11.488C52.5413 11.7307 52.0187 12.1227 51.552 12.664C51.104 13.1867 50.7493 13.868 50.488 14.708C50.2267 15.548 50.096 16.5653 50.096 17.76C50.096 19.3093 50.3107 20.5693 50.74 21.54C51.188 22.5107 51.804 23.2387 52.588 23.724C53.3907 24.1907 54.3147 24.424 55.36 24.424C56.3867 24.424 57.208 24.2187 57.824 23.808C58.44 23.3787 58.888 22.8093 59.168 22.1C59.448 21.372 59.5973 20.5787 59.616 19.72L62.78 20.224C62.78 21.2133 62.64 22.1467 62.36 23.024C62.08 23.8827 61.6413 24.6387 61.044 25.292C60.4467 25.9453 59.672 26.4587 58.72 26.832C57.768 27.1867 56.6107 27.364 55.248 27.364ZM79.2359 27.364C78.2466 27.364 77.2852 27.1307 76.3519 26.664C75.4372 26.1973 74.5599 25.572 73.7199 24.788C72.8986 23.9853 72.1519 23.0893 71.4799 22.1C70.8079 21.1107 70.2199 20.084 69.7159 19.02C69.2119 17.956 68.8292 16.9293 68.5679 15.94C68.3066 14.932 68.1759 14.0267 68.1759 13.224C68.1759 12.3093 68.3626 11.4693 68.7359 10.704C69.1092 9.92 69.6879 9.29467 70.4719 8.828C71.2559 8.34267 72.2639 8.1 73.4959 8.1C74.6346 8.1 75.5866 8.296 76.3519 8.688C77.1172 9.08 77.6959 9.60267 78.0879 10.256C78.4799 10.9093 78.6759 11.6187 78.6759 12.384C78.6759 13.0373 78.5079 13.6627 78.1719 14.26C77.8546 14.8573 77.3412 15.3987 76.6319 15.884C75.9226 16.3507 74.9706 16.752 73.7759 17.088L73.5239 16.472C74.1586 15.912 74.6346 15.352 74.9519 14.792C75.2692 14.232 75.4279 13.644 75.4279 13.028C75.4279 12.4493 75.2786 11.9547 74.9799 11.544C74.6812 11.1333 74.2146 10.928 73.5799 10.928C73.1132 10.928 72.7399 11.0307 72.4599 11.236C72.1986 11.4413 72.0026 11.7213 71.8719 12.076C71.7412 12.412 71.6759 12.7947 71.6759 13.224C71.6759 13.7653 71.7786 14.4187 71.9839 15.184C72.1892 15.9307 72.4692 16.724 72.8239 17.564C73.1972 18.404 73.6172 19.2347 74.0839 20.056C74.5692 20.8587 75.0919 21.596 75.6519 22.268C76.2119 22.9213 76.7906 23.444 77.3879 23.836C77.9852 24.228 78.5732 24.424 79.1519 24.424C79.6186 24.424 79.9826 24.3027 80.2439 24.06C80.5052 23.8173 80.6359 23.5 80.6359 23.108C80.6359 22.6973 80.4772 22.2867 80.1599 21.876C79.8612 21.4653 79.4039 21.092 78.7879 20.756C78.1906 20.4013 77.4439 20.14 76.5479 19.972V17.144H83.0719V19.776L78.0879 19.02V19.524C79.9732 19.8787 81.3732 20.4107 82.2879 21.12C83.2026 21.8293 83.6599 22.744 83.6599 23.864C83.6599 24.5547 83.5012 25.1333 83.1839 25.6C82.8852 26.048 82.5026 26.4027 82.0359 26.664C81.5692 26.9253 81.0839 27.1027 80.5799 27.196C80.0759 27.308 79.6279 27.364 79.2359 27.364ZM69.2399 27.392C68.3066 27.392 67.4666 27.2147 66.7199 26.86C65.9919 26.5053 65.4226 26.0013 65.0119 25.348C64.6012 24.6947 64.3959 23.92 64.3959 23.024C64.3959 22.184 64.5639 21.4653 64.8999 20.868C65.2546 20.2707 65.7026 19.776 66.2439 19.384C66.8039 18.992 67.4106 18.684 68.0639 18.46C68.7172 18.2173 69.3426 18.0493 69.9399 17.956L70.1359 18.74C69.3332 19.1693 68.7266 19.6827 68.3159 20.28C67.9239 20.8587 67.7279 21.4653 67.7279 22.1C67.7279 22.66 67.8586 23.1547 68.1199 23.584C68.3999 24.0133 68.7732 24.3493 69.2399 24.592C69.7252 24.8347 70.2852 24.956 70.9199 24.956C71.4799 24.956 71.9746 24.8533 72.4039 24.648C72.8332 24.4427 73.2346 24.1627 73.6079 23.808L74.1679 24.816H73.6079C73.3466 25.3387 73.0106 25.796 72.5999 26.188C72.1892 26.5613 71.7039 26.8507 71.1439 27.056C70.6026 27.28 69.9679 27.392 69.2399 27.392ZM86.2412 27V8.52H93.5492C94.6505 8.52 95.6398 8.62267 96.5172 8.828C97.4132 9.01467 98.1692 9.304 98.7852 9.696C99.4012 10.088 99.8772 10.592 100.213 11.208C100.549 11.824 100.717 12.552 100.717 13.392C100.717 14.12 100.568 14.764 100.269 15.324C99.9705 15.8653 99.4945 16.3133 98.8412 16.668C98.2065 17.004 97.3665 17.2373 96.3212 17.368V17.732C98.0945 17.8627 99.3918 18.3107 100.213 19.076C101.034 19.8413 101.445 20.8587 101.445 22.128C101.445 23.192 101.174 24.088 100.633 24.816C100.11 25.5253 99.3172 26.0667 98.2532 26.44C97.1892 26.8133 95.8545 27 94.2492 27H86.2412ZM89.6572 24.116H94.2492C95.4998 24.116 96.4332 23.9107 97.0492 23.5C97.6652 23.0893 97.9732 22.4733 97.9732 21.652C97.9732 20.6813 97.5812 19.9627 96.7972 19.496C96.0132 19.0107 94.8185 18.768 93.2132 18.768H89.6572V24.116ZM89.6572 16.416H92.7372C94.2678 16.416 95.3972 16.2013 96.1252 15.772C96.8532 15.3427 97.2172 14.6987 97.2172 13.84C97.2172 13 96.8905 12.384 96.2372 11.992C95.5838 11.5813 94.5852 11.376 93.2412 11.376H89.6572V16.416Z" fill="white"/>
<path d="M106.491 6V1.38H107.506V6H106.491ZM105.126 2.22V1.38H108.878V2.22H105.126ZM109.384 6V1.38H110.896L112.191 4.859H112.226L113.5 1.38H114.942V6H113.99L114.053 2.402H113.976L112.569 6H111.722L110.343 2.402H110.266L110.329 6H109.384Z" fill="white"/>
<defs>
<filter id="filter0_i_6_10085" x="0" y="0" width="37" height="39" filterUnits="userSpaceOnUse" color-interpolation-filters="sRGB">
<feFlood flood-opacity="0" result="BackgroundImageFix"/>
<feBlend mode="normal" in="SourceGraphic" in2="BackgroundImageFix" result="shape"/>
<feColorMatrix in="SourceAlpha" type="matrix" values="0 0 0 0 0 0 0 0 0 0 0 0 0 0 0 0 0 0 127 0" result="hardAlpha"/>
<feOffset dy="3"/>
<feGaussianBlur stdDeviation="2.5"/>
<feComposite in2="hardAlpha" operator="arithmetic" k2="-1" k3="1"/>
<feColorMatrix type="matrix" values="0 0 0 0 0.0588235 0 0 0 0 0.054902 0 0 0 0 0.0784314 0 0 0 0.12 0"/>
<feBlend mode="normal" in2="shape" result="effect1_innerShadow_6_10085"/>
</filter>
<linearGradient id="paint0_linear_6_10085" x1="37.9887" y1="36.957" x2="2.65544" y2="1.48474" gradientUnits="userSpaceOnUse">
<stop stop-color="#7EFFF5"/>
<stop offset="0.361958" stop-color="#A981FF" stop-opacity="0.92"/>
<stop offset="0.738981" stop-color="#FF8BC1"/>
<stop offset="1" stop-color="#FFF385"/>
</linearGradient>
<linearGradient id="paint1_linear_6_10085" x1="29.2587" y1="29.2557" x2="8.28517" y2="8.76878" gradientUnits="userSpaceOnUse">
<stop stop-color="#7EFFF5"/>
<stop offset="0.361958" stop-color="#A981FF" stop-opacity="0.92"/>
<stop offset="0.738981" stop-color="#FF8BC1"/>
<stop offset="1" stop-color="#FFF385"/>
</linearGradient>
<linearGradient id="paint2_linear_6_10085" x1="18.0002" y1="7.3092" x2="18.0002" y2="28.0364" gradientUnits="userSpaceOnUse">
<stop stop-color="white"/>
<stop offset="1" stop-color="white" stop-opacity="0.5"/>
</linearGradient>
<radialGradient id="paint3_radial_6_10085" cx="0" cy="0" r="1" gradientUnits="userSpaceOnUse" gradientTransform="translate(0.162091 34.6642) rotate(-46.3881) scale(30.2385 34.9933)">
<stop stop-color="#D0B3FF" stop-opacity="0.73"/>
<stop offset="1" stop-color="#D0B3FF" stop-opacity="0"/>
</radialGradient>
</defs>
</svg>
