<svg width="135" height="24" viewBox="0 0 135 24" fill="none" xmlns="http://www.w3.org/2000/svg">
<g clip-path="url(#clip0_6_8324)">
<path d="M47.1459 22.5015C46.0849 23.4671 44.6997 24.0018 43.2632 24H6.66536C5.90638 23.9992 5.15498 23.8494 4.45406 23.5592C3.75314 23.2689 3.11644 22.8438 2.5803 22.3082C2.04416 21.7726 1.61908 21.137 1.32933 20.4376C1.03958 19.7382 0.890844 18.9888 0.891604 18.2321V5.76735C0.890208 4.23924 1.49771 2.77315 2.58048 1.69158C3.66326 0.610004 5.13262 0.00153054 6.66536 0H43.2637C44.0226 0.000757826 44.774 0.150536 45.4748 0.440783C46.1756 0.731028 46.8123 1.15606 47.3484 1.69161C47.8845 2.22715 48.3095 2.86273 48.5992 3.56205C48.889 4.26136 49.0377 5.01073 49.0369 5.76735V18.2321C49.0369 18.2526 49.0369 18.2725 49.0369 18.293C50.1743 19.9834 50.7995 21.9644 50.8379 23.9995C49.7415 23.2195 48.477 22.7065 47.1459 22.5015ZM2.23831 5.76735V18.2321C2.23844 19.4029 2.7044 20.5259 3.53395 21.3546C4.36351 22.1833 5.4889 22.6501 6.66325 22.6527H43.2616C44.3625 22.6535 45.4239 22.2439 46.2372 21.5042L46.7047 21.0791L47.3301 21.1662C47.9426 21.2526 48.5446 21.4018 49.1265 21.6113C48.849 20.6997 48.4399 19.8333 47.9119 19.0394L47.6818 18.694L47.6855 18.2799C47.6855 18.2594 47.6855 18.2389 47.6855 18.2179V5.76735C47.6853 4.5964 47.2193 3.47333 46.3897 2.64451C45.5601 1.81569 44.4345 1.34881 43.26 1.34631H6.66536C5.49096 1.34895 4.36556 1.81589 3.53603 2.64469C2.70649 3.4735 2.24055 4.59649 2.24041 5.76735H2.23831ZM74.1595 16.3415L75.0545 15.1448C75.8342 15.8821 76.8557 16.3128 77.9293 16.3573C78.9823 16.3573 79.8774 15.7668 79.8774 14.6976C79.8774 12.2569 74.4153 12.7834 74.4153 9.32131C74.4153 7.56609 75.9326 6.17778 78.0569 6.17778C79.227 6.13768 80.3691 6.54263 81.2506 7.31046L80.5324 8.61899C79.8446 8.02033 78.9706 7.67643 78.058 7.64535C76.8604 7.64535 76.0134 8.39491 76.0134 9.28823C76.0134 11.6182 81.4754 10.9956 81.4754 14.6493C81.4754 16.3883 80.1338 17.8243 77.8977 17.8243C76.5039 17.8422 75.1599 17.3091 74.1595 16.3415ZM63.236 13.6452V6.36989H64.8153V13.6447C64.8153 15.3678 65.9334 16.3741 67.6579 16.3741C69.3993 16.3741 70.5326 15.3694 70.5326 13.6143V6.37095H72.1119V13.6458C72.1119 16.1505 70.3072 17.8259 67.6725 17.8259C65.0372 17.8259 63.236 16.1494 63.236 13.6452ZM15.3558 16.2943L16.2181 15.0971C16.9354 15.8426 17.914 16.2827 18.9494 16.3253C19.237 16.3458 19.5259 16.3084 19.7987 16.2152C20.0716 16.122 20.3228 15.975 20.5375 15.783C20.7521 15.5909 20.9257 15.3577 21.0479 15.0973C21.1702 14.8369 21.2386 14.5545 21.249 14.2672C21.249 12.8789 20.0197 12.1929 18.6304 12.1929H17.8475L17.479 11.3473L19.9381 8.46047C20.158 8.20209 20.3928 7.95676 20.6414 7.72566V7.69417C20.3232 7.73034 20.003 7.74626 19.6828 7.74193H15.8659V6.36989H22.6046V7.37502L19.5385 10.9006C21.0242 11.0607 22.8442 12.0181 22.8442 14.2042C22.8415 14.6961 22.739 15.1823 22.5429 15.6336C22.3467 16.085 22.0611 16.492 21.703 16.8304C21.3449 17.1688 20.9219 17.4314 20.4593 17.6025C19.9968 17.7735 19.5043 17.8495 19.0115 17.8259C18.3311 17.8229 17.6579 17.6861 17.0305 17.4232C16.4032 17.1604 15.8341 16.7768 15.3558 16.2943ZM34.7602 11.9861C34.7602 8.74759 35.7342 6.1783 38.7371 6.1783C41.7554 6.1783 42.7299 8.75022 42.7299 11.9861C42.7299 15.2404 41.7554 17.8248 38.7371 17.8248C35.7342 17.8248 34.7602 15.2404 34.7602 11.9861ZM36.3733 11.9861C36.3733 14.443 36.8998 16.373 38.7371 16.373C40.5898 16.373 41.1168 14.443 41.1168 11.9861C41.1168 9.54486 40.5903 7.6296 38.7371 7.6296C36.9019 7.63013 36.3733 9.54386 36.3733 11.9861ZM24.7785 11.9861C24.7785 8.74759 25.7529 6.1783 28.7554 6.1783C31.7741 6.1783 32.7481 8.75022 32.7481 11.9861C32.7481 15.2404 31.7741 17.8248 28.7554 17.8248C25.7524 17.8248 24.7785 15.2404 24.7785 11.9861ZM26.3915 11.9861C26.3915 14.443 26.918 16.373 28.7548 16.373C30.6075 16.373 31.135 14.443 31.135 11.9861C31.135 9.54486 30.6085 7.6296 28.7548 7.6296C26.918 7.63013 26.3915 9.54386 26.3915 11.9861ZM133.298 17.6337L132.163 14.3947H127.916L126.797 17.6337H125.169L129.225 6.36989H130.887L134.94 17.6337H133.298ZM129.592 9.5129L128.329 13.0862H131.747L130.501 9.5129C130.31 8.93549 130.07 7.91725 130.07 7.91725H130.038C130.038 7.91725 129.785 8.93813 129.594 9.5129H129.592ZM113.48 17.6337V6.36989H115.059V16.2623H120.106V17.6343L113.48 17.6337ZM110.174 17.6337L109.039 14.3947H104.791L103.674 17.6337H102.045L106.098 6.36989H107.764L111.818 17.6337H110.174ZM106.468 9.5129L105.204 13.0862H108.622L107.377 9.5129C107.185 8.93549 106.945 7.91725 106.945 7.91725H106.914C106.914 7.91725 106.658 8.93813 106.468 9.5129ZM99.5849 17.6337L97.2054 13.1502H94.7937V17.6337H93.2143V6.36989H96.6645C97.3757 6.32283 98.0904 6.40917 98.7701 6.62447C99.366 6.87143 99.8699 7.29805 100.211 7.8446C100.551 8.3911 100.712 9.0302 100.671 9.67241C100.702 10.3294 100.521 10.9791 100.157 11.5271C99.7921 12.0751 99.2612 12.4928 98.6419 12.7194V12.7514C98.7695 12.9106 98.8819 13.0814 98.9773 13.2615L101.373 17.6333L99.5849 17.6337ZM94.7942 11.7788H97.062C97.3336 11.7971 97.6058 11.7565 97.8598 11.6596C98.1139 11.5627 98.3439 11.4119 98.5341 11.2177C98.7238 11.0234 98.869 10.7903 98.9597 10.5346C99.0504 10.2788 99.0838 10.0065 99.0586 9.73645C99.0879 9.39208 99.0194 9.04636 98.8614 8.73887C98.7027 8.43132 98.461 8.17428 98.1636 7.99703C97.6778 7.78138 97.1445 7.6937 96.6147 7.74246H94.7937L94.7942 11.7788ZM86.1537 17.6337V7.74193H82.2885V6.36989H91.6017V7.74193H87.7371V17.6337H86.1537ZM60.1991 17.6337L59.0661 14.3947H54.818L53.7004 17.6337H52.0715L56.1253 6.36989H57.7857L61.8428 17.6337H60.1991ZM56.4938 9.5129L55.2303 13.0862H58.6486L57.403 9.5129C57.2108 8.93549 56.9713 7.91725 56.9713 7.91725H56.9397C56.9397 7.91725 56.6875 8.93813 56.4959 9.5129H56.4938ZM7.80097 17.6337V16.2623H10.2927V8.98642C10.2927 8.63526 10.3085 8.28468 10.3085 8.28468H10.2769C10.1311 8.52878 9.94879 8.74935 9.73625 8.93865L8.68329 9.97528L7.72458 8.98589L10.4207 6.36989H11.8263V16.2623H14.2854V17.6343L7.80097 17.6337ZM121.926 17.6337V6.36831H123.505V17.6322L121.926 17.6337Z" fill="#1B1921"/>
</g>
<defs>
<clipPath id="clip0_6_8324">
<rect width="134.049" height="24" fill="white" transform="translate(0.891602)"/>
</clipPath>
</defs>
</svg>
