<svg width="216" height="28" viewBox="0 0 216 28" fill="none" xmlns="http://www.w3.org/2000/svg">
<path d="M0.193359 15.0879V12.8809H6.73219V15.0879H4.55807V24.7067H2.3016V15.0879H0.193359Z" fill="#1B1921"/>
<path d="M8.04883 24.7063V12.584H10.2395V16.8499C11.0795 16.1252 11.8865 15.7299 12.8253 15.7299C14.4724 15.7299 15.823 16.8005 15.823 18.9252V24.7063H13.6324V20.5722C13.6324 18.7934 13.4183 17.7393 12.1336 17.7393C11.5242 17.7393 10.9971 18.0522 10.6512 18.5957C10.2065 19.2875 10.2395 20.0781 10.2395 20.984V24.7063H8.04883Z" fill="#1B1921"/>
<path d="M24.2647 22.1365L26.1094 23.0095C25.1705 24.3436 23.9352 24.9366 22.0905 24.9366C19.307 24.9366 17.5117 22.8942 17.5117 20.3248C17.5117 17.9366 19.2411 15.7295 22.0576 15.7295C24.8247 15.7295 26.7023 17.706 26.7023 20.473C26.7023 20.6707 26.6858 20.7695 26.6858 20.9671H19.6364C19.8505 22.2683 20.8388 22.993 22.0905 22.993C23.0294 22.993 23.6552 22.7295 24.2647 22.1365ZM19.7352 19.2377H24.4952C24.1988 18.2166 23.26 17.5907 22.0905 17.5907C21.0035 17.5907 20.1635 18.1342 19.7352 19.2377Z" fill="#1B1921"/>
<path d="M157.248 24.7067V12.8809H163.112V15.0879H159.439V17.1962H163.112V19.4032H159.439V24.7067H157.248Z" fill="#1B1921"/>
<path d="M171.335 24.706V23.7836C170.561 24.5413 169.737 24.9366 168.634 24.9366C166.41 24.9366 164.467 23.026 164.467 20.3413C164.467 17.6071 166.312 15.7295 168.584 15.7295C169.639 15.7295 170.544 16.1248 171.335 16.9154V15.9601H173.526V24.706H171.335ZM169.029 17.7389C167.58 17.7389 166.674 18.8918 166.674 20.3248C166.674 21.8236 167.662 22.9271 169.029 22.9271C170.38 22.9271 171.434 21.906 171.434 20.3083C171.434 18.7766 170.413 17.7389 169.029 17.7389Z" fill="#1B1921"/>
<path d="M182.472 21.9224L184.202 23.1083C183.263 24.3271 181.945 24.9366 180.232 24.9366C177.251 24.9366 175.324 22.9107 175.324 20.3577C175.324 17.7389 177.367 15.7295 180.265 15.7295C181.978 15.7295 183.428 16.4377 184.301 17.7224L182.472 18.7271C181.847 18.0683 181.237 17.7389 180.282 17.7389C178.602 17.7389 177.531 18.8754 177.531 20.3907C177.531 21.873 178.569 22.9271 180.183 22.9271C181.155 22.9271 181.929 22.5977 182.472 21.9224Z" fill="#1B1921"/>
<path d="M186.536 15.9597V12.7314H188.727V15.9597H190.028V17.8373H188.727V24.7056H186.536V17.8373H185.416V15.9597H186.536Z" fill="#1B1921"/>
<path d="M195.322 15.7295C197.875 15.7295 199.967 17.7389 199.967 20.3248C199.967 22.8613 198.007 24.9366 195.339 24.9366C192.802 24.9366 190.793 22.9107 190.793 20.3413C190.793 17.6895 192.934 15.7295 195.322 15.7295ZM195.355 17.8048C193.988 17.8048 193 18.8754 193 20.3248C193 21.8071 193.939 22.8613 195.355 22.8613C196.706 22.8613 197.76 21.873 197.76 20.3413C197.76 18.8589 196.788 17.8048 195.355 17.8048Z" fill="#1B1921"/>
<path d="M203.128 15.9601V17.0636C203.54 16.1577 204.248 15.7295 204.973 15.7295C205.434 15.7295 205.714 15.8613 205.928 15.9601L205.253 17.8377C205.088 17.7554 204.841 17.6566 204.611 17.6566C203.985 17.6566 203.491 18.3813 203.441 19.666C203.425 20.1436 203.425 20.6871 203.425 21.1648V24.706H201.234V15.9601H203.128Z" fill="#1B1921"/>
<path d="M209.393 24.047L206.066 15.96H208.306L210.579 21.4447L213.099 15.96H215.356L209.855 27.9011H207.598L209.393 24.047Z" fill="#1B1921"/>
<path d="M32.9687 19.2211C33.028 20.9703 33.2652 22.423 33.621 23.3124C33.9767 24.1128 34.3325 24.2611 34.6586 24.2314C36.3485 24.2018 39.5504 19.7251 40.1433 18.5985C40.2916 18.302 40.677 18.1834 40.9438 18.3317C41.2403 18.4799 41.3589 18.8653 41.2106 19.1321C40.6177 20.2291 37.4751 25.358 34.7179 25.4173C33.7692 25.447 32.9984 24.854 32.5537 23.7867C31.9311 22.3933 31.7532 20.2884 31.7829 17.887C31.8125 16.1081 31.9904 14.1811 32.2276 12.254L28.492 12.4912C28.1659 12.5208 27.8991 12.254 27.8694 11.9279C27.8398 11.6018 28.1066 11.335 28.4327 11.3053L32.4054 11.0681C32.6426 9.55613 32.9391 8.07378 33.2652 6.71002C33.5617 5.49449 33.9174 4.3679 34.2732 3.41919C34.8365 1.90719 35.6666 0.0987179 37.0304 0.602719C38.9871 1.3439 38.1273 5.16837 37.2083 8.48884C37.0007 9.25966 36.7636 10.0305 36.4967 10.831L38.3941 10.7124C38.7203 10.6827 38.9871 10.9495 39.0167 11.2757C39.0464 11.6018 38.7796 11.8686 38.4534 11.8983L36.0817 12.0465C35.0737 14.9815 33.8581 17.7387 32.9687 19.2211ZM34.8069 12.1058L33.4431 12.1947C33.2356 13.6474 33.0873 15.1298 33.028 16.5232C33.5913 15.278 34.2139 13.7364 34.8069 12.1058ZM35.2219 10.8903C35.5184 10.0008 35.8149 9.08178 36.052 8.19237C37.1193 4.42719 37.0897 1.93684 36.6153 1.72931C36.2299 1.87754 35.1923 3.8639 34.4214 7.00649C34.125 8.22202 33.8581 9.58578 33.621 11.0088L35.2219 10.8903Z" fill="#1B1921"/>
<path d="M40.6867 18.0937C41.161 17.6194 41.6354 16.8782 41.9615 16.1074C42.0208 15.9295 42.0801 15.7812 42.1394 15.633C42.6434 14.0914 42.1987 13.7652 42.1394 13.7356C41.9615 13.6763 41.0721 13.9431 40.5385 15.5144C40.1827 16.5817 40.242 17.6194 40.6867 18.0937ZM41.9022 18.5088C43.2067 18.5088 44.3926 18.0937 45.3116 18.0937C45.6674 18.0937 46.0528 18.1234 46.3789 18.4495C46.6458 18.7163 46.7347 19.1017 46.7347 19.4575C46.7347 20.7619 45.4895 24.705 46.9126 25.6834C47.298 25.9502 48.6914 25.713 50.3516 23.5488C51.7747 21.6514 53.0792 19.3389 53.4942 18.5977C53.6425 18.3012 53.9982 18.1826 54.2947 18.3309C54.5912 18.5088 54.6801 18.8645 54.5319 19.1314C54.1168 19.9318 52.7827 22.2739 51.3003 24.2603C49.9366 26.0391 47.8909 27.7883 46.201 26.6321C43.9182 25.0904 45.5488 20.4951 45.5488 19.4575V19.2796C45.2523 19.1906 43.7107 19.6946 41.8429 19.6946C41.4279 19.6946 41.0425 19.6354 40.6867 19.4871C40.657 19.4871 40.6274 19.4575 40.5978 19.4575C40.4495 19.4278 40.3013 19.3389 40.2123 19.2499C38.8782 18.3309 38.9672 16.4928 39.4119 15.1587C39.9752 13.4095 41.2796 12.1939 42.5248 12.609C43.6514 12.9944 43.7996 14.4175 43.266 16.0184C43.2067 16.1963 43.1178 16.3742 43.0585 16.5817C42.762 17.2636 42.3766 17.9455 41.9022 18.5088Z" fill="#1B1921"/>
<path d="M60.2875 15.2781C60.6729 14.863 61.3251 15.0112 61.3251 15.4856C61.3251 15.7524 61.1472 17.7684 61.1176 18.0945C61.0879 18.4503 61.0286 18.895 60.999 19.399C60.8804 21.4446 61.1176 23.935 61.503 24.2611C62.007 24.6762 63.3708 23.8164 64.9717 21.8004C65.9797 20.5552 66.8395 19.2211 67.3138 18.5392C67.4917 18.2724 67.8771 18.1835 68.1439 18.3613C68.4108 18.5689 68.4701 18.9246 68.2922 19.1915C67.8475 19.8733 66.9284 21.2371 65.8908 22.5416C64.5566 24.2018 62.4517 26.5736 60.7618 25.1505C59.8428 24.439 59.7835 22.6898 59.7835 21.1778C59.5463 21.5632 59.3091 21.9783 59.0719 22.3637C58.0046 23.9943 56.463 25.8028 54.6545 25.2691C53.2611 24.8541 52.8164 23.3421 52.8164 21.919C52.8164 20.6145 53.1425 19.1915 53.8244 18.0649C55.0399 16.0489 56.8781 14.7444 58.6865 14.8037C59.2498 14.8333 59.7835 14.9816 60.2875 15.2781ZM59.9613 16.4936C59.5463 16.1675 59.1312 16.0192 58.6569 15.9896C57.471 15.9599 55.9293 16.879 54.8621 18.6578C54.2988 19.5769 54.0023 20.8221 54.0023 21.919C54.0023 23.1938 54.447 23.9646 54.9806 24.1425C55.7515 24.3797 56.967 23.431 58.0639 21.7115C58.6569 20.8221 59.1609 19.8437 59.5166 19.0136C59.6056 18.7468 59.6945 18.5096 59.7538 18.3021C59.7835 18.1835 59.9021 17.1162 59.9613 16.4936Z" fill="#1B1921"/>
<path d="M74.2476 17.7974C74.5145 17.1451 74.722 16.4929 74.8999 15.9C75.4335 14.1211 76.145 11.1268 76.5601 8.31032C77.153 4.42655 76.8566 1.9362 76.4415 1.81761C76.0265 2.11408 75.2556 4.4562 74.8109 7.65808C74.4552 10.2374 74.2476 13.2614 74.2476 16.0186C74.218 16.6115 74.2476 17.2044 74.2476 17.7974ZM74.3959 20.347C74.4255 20.5546 74.4255 20.7917 74.4552 20.9696C74.5737 21.9776 74.7516 22.8077 74.9592 23.3414C75.2853 24.1418 75.5817 24.2604 75.8486 24.2604C76.3526 24.2604 77.2716 23.6378 78.1907 22.5706C79.7323 20.8807 80.7403 19.0722 81.0368 18.5682C81.2147 18.2717 81.5704 18.1828 81.8373 18.3607C82.1337 18.5089 82.2227 18.8943 82.0448 19.1611C81.778 19.6651 80.7107 21.5626 79.0801 23.371C78.1314 24.4383 77.0344 25.4463 75.8189 25.4463C74.9295 25.4167 74.2476 24.7941 73.8622 23.7564C73.6843 23.3117 73.5361 22.7188 73.4175 22.0666C72.0834 24.1418 70.097 26.1875 68.081 24.8534C67.9625 24.7941 67.8439 24.6755 67.7253 24.5866C65.6796 22.7484 66.5987 18.8647 68.4961 16.7597C69.6227 15.5442 71.2533 14.803 73.0617 15.396C73.0914 12.7574 73.2989 9.9409 73.6547 7.4802C74.0994 4.15973 74.6923 0.513135 76.5008 0.631724C78.2796 0.779958 78.25 3.4482 78.0721 5.67173C78.0128 6.56114 77.8942 7.50984 77.746 8.4882C77.3013 11.364 76.5897 14.388 76.0561 16.2557C75.73 17.2637 75.3149 18.3607 74.8109 19.4576C74.6923 19.7541 74.5441 20.0506 74.3959 20.347ZM73.0617 16.6708C71.609 16.0186 70.3639 16.4929 69.3855 17.5898C67.666 19.428 67.2806 22.6002 68.5257 23.6971C68.6147 23.8157 68.7333 23.875 68.8519 23.9343C69.8599 24.468 71.4015 23.2524 72.8839 20.6435C72.9728 20.4656 73.0914 20.2877 73.1803 20.1098C73.1507 19.8134 73.121 19.4873 73.121 19.1908C73.0617 18.3903 73.0617 17.5306 73.0617 16.6708Z" fill="#1B1921"/>
<path d="M82.016 19.6651C84.151 19.6651 85.6333 19.2501 86.4931 18.6868C87.2936 18.1828 87.5604 17.6195 87.5604 17.2341C87.5604 16.7004 87.086 16.0482 85.7223 16.0482C84.7143 16.0482 82.5797 16.8783 82.016 19.6651ZM81.8678 20.8214V20.9696C81.8382 23.1338 83.3801 24.1122 85.0107 24.1122C86.8785 24.1122 88.8056 23.1931 90.3768 22.0665C92.6597 20.436 93.9048 18.8647 94.1717 18.5089C94.3792 18.2421 94.735 18.2124 95.0018 18.3903C95.2686 18.5978 95.2983 18.9832 95.1204 19.2204C94.7943 19.6355 93.4601 21.2957 91.0587 23.0152C89.3688 24.2308 87.2639 25.2981 85.0107 25.2981C82.9058 25.2981 80.6523 23.9047 80.6819 20.9696C80.6819 20.6435 80.7116 20.347 80.7412 20.0505C81.1859 16.1668 84.1213 14.8623 85.7223 14.8623C87.4714 14.8623 88.7463 15.8407 88.7463 17.2341C88.7166 18.1531 88.1533 19.0425 87.1157 19.6948C85.9891 20.4063 84.2399 20.8807 81.8678 20.8214Z" fill="#1B1921"/>
<path d="M95.0975 14.8636C95.394 14.9229 95.6312 15.2193 95.6015 15.5455C95.5126 16.0495 95.4533 17.0575 95.3644 18.1544C96.0462 16.3163 97.2321 14.1817 99.1295 14.8932C100.79 15.5455 101.205 17.2946 101.294 18.8363C101.323 18.777 101.323 18.7473 101.353 18.7177C102.272 16.9389 103.784 14.6264 105.77 15.3972C107.371 16.0791 106.986 18.3916 106.867 20.0222C106.719 21.8603 106.719 23.4019 107.371 23.9059C107.935 24.3803 108.735 24.1135 109.773 23.0165C111.463 21.2673 112.945 18.9549 113.242 18.5398C113.419 18.273 113.775 18.184 114.042 18.3916C114.309 18.5695 114.398 18.9252 114.19 19.192C113.923 19.5775 112.411 21.9789 110.633 23.8466C109.595 24.9436 108.024 25.9812 106.601 24.8546C105.266 23.7577 105.533 21.5935 105.682 19.9036C105.83 17.8876 105.77 16.7017 105.296 16.5238C104.555 16.1977 103.458 17.265 102.391 19.2513C101.353 21.2377 100.671 23.4612 100.671 23.4612C100.582 23.728 100.286 23.9356 99.9893 23.8763C99.6632 23.7873 99.4557 23.4316 99.5446 23.1055C99.5446 23.1055 100.138 21.0005 100.108 19.0142C100.078 17.5022 99.6632 16.3756 98.7145 16.0198C98.0326 15.753 97.2025 16.6127 96.402 18.7473C95.4533 21.3859 94.9789 24.7953 94.9789 24.7953C94.9493 25.0622 94.6825 25.2993 94.4157 25.2993C94.0599 25.2993 93.7634 25.0325 93.7931 24.6768C93.7931 24.6768 94.1488 17.4429 94.4157 15.3676C94.4749 15.0711 94.7714 14.8339 95.0975 14.8636Z" fill="#1B1921"/>
<path d="M119.961 15.2781C120.347 14.863 120.999 15.0112 120.999 15.4856C120.999 15.7524 120.821 17.7684 120.791 18.0945C120.762 18.4503 120.702 18.895 120.673 19.399C120.554 21.4446 120.791 23.935 121.177 24.2611C121.681 24.6762 123.045 23.8164 124.646 21.8004C125.654 20.5552 126.513 19.2211 126.988 18.5392C127.166 18.2724 127.551 18.1835 127.818 18.3613C128.085 18.5689 128.144 18.9246 127.966 19.1915C127.521 19.8733 126.602 21.2371 125.565 22.5416C124.23 24.2018 122.126 26.5736 120.436 25.1505C119.517 24.439 119.457 22.6898 119.457 21.1778C119.22 21.5632 118.983 21.9783 118.746 22.3637C117.678 23.9943 116.137 25.8028 114.328 25.2691C112.935 24.8541 112.49 23.3421 112.49 21.919C112.49 20.6145 112.816 19.1915 113.498 18.0649C114.714 16.0489 116.552 14.7444 118.36 14.8037C118.924 14.8333 119.457 14.9816 119.961 15.2781ZM119.635 16.4936C119.22 16.1675 118.805 16.0192 118.331 15.9896C117.145 15.9599 115.603 16.879 114.536 18.6578C113.973 19.5769 113.676 20.8221 113.676 21.919C113.676 23.1938 114.121 23.9646 114.654 24.1425C115.425 24.3797 116.641 23.431 117.738 21.7115C118.331 20.8221 118.835 19.8437 119.19 19.0136C119.279 18.7468 119.368 18.5096 119.428 18.3021C119.457 18.1835 119.576 17.1162 119.635 16.4936Z" fill="#1B1921"/>
<path d="M127.429 18.0937C127.903 17.6194 128.378 16.8782 128.704 16.1074C128.763 15.9295 128.822 15.7812 128.882 15.633C129.386 14.0914 128.941 13.7652 128.882 13.7356C128.704 13.6763 127.814 13.9431 127.281 15.5144C126.925 16.5817 126.984 17.6194 127.429 18.0937ZM128.644 18.5088C129.949 18.5088 131.135 18.0937 132.054 18.0937C132.41 18.0937 132.795 18.1234 133.121 18.4495C133.388 18.7163 133.477 19.1017 133.477 19.4575C133.477 20.7619 132.232 24.705 133.655 25.6834C134.04 25.9502 135.434 25.713 137.094 23.5488C138.517 21.6514 139.821 19.3389 140.236 18.5977C140.385 18.3012 140.74 18.1826 141.037 18.3309C141.333 18.5088 141.422 18.8645 141.274 19.1314C140.859 19.9318 139.525 22.2739 138.043 24.2603C136.679 26.0391 134.633 27.7883 132.943 26.6321C130.66 25.0904 132.291 20.4951 132.291 19.4575V19.2796C131.995 19.1906 130.453 19.6946 128.585 19.6946C128.17 19.6946 127.785 19.6354 127.429 19.4871C127.399 19.4871 127.37 19.4575 127.34 19.4575C127.192 19.4278 127.043 19.3389 126.955 19.2499C125.62 18.3309 125.709 16.4928 126.154 15.1587C126.717 13.4095 128.022 12.1939 129.267 12.609C130.394 12.9944 130.542 14.4175 130.008 16.0184C129.949 16.1963 129.86 16.3742 129.801 16.5817C129.504 17.2636 129.119 17.9455 128.644 18.5088Z" fill="#1B1921"/>
<path d="M141.783 15.6634C142.643 13.7067 143.621 11.2164 144.362 8.87424C145.578 4.93118 145.756 2.02577 145.281 1.7293C144.777 2.05542 143.799 4.63471 143.058 8.10342C142.554 10.4455 142.109 13.1434 141.783 15.6634ZM143.206 18.6281C143.888 18.3317 144.481 17.9462 144.985 17.5312C145.696 16.9086 146.141 16.2564 146.23 15.9302C145.281 15.6338 144.214 16.5825 143.206 18.6281ZM141.368 19.1321C141.338 19.4879 141.309 19.814 141.279 20.1401L141.368 19.8733C141.516 19.4879 141.664 19.1025 141.842 18.7171C142.85 16.5232 144.511 13.8549 146.823 14.9222C146.971 14.9815 147.09 15.0408 147.179 15.1594C148.039 16.1378 146.764 17.5905 145.756 18.4206C145.222 18.8653 144.57 19.31 143.858 19.6361C144.244 19.9326 144.57 20.318 144.837 20.7331C145.637 21.8893 146.171 23.3124 146.349 23.6681C146.438 23.8164 146.497 23.9053 146.586 23.9942C146.912 24.2907 147.623 24.1128 148.75 22.8973C150.381 21.1481 151.478 19.2507 151.833 18.5688C152.011 18.302 152.367 18.1834 152.663 18.3317C152.93 18.5095 153.049 18.8653 152.901 19.1618C152.486 19.9029 151.359 21.8596 149.639 23.6978C148.631 24.7947 147.031 26.0399 145.785 24.854C145.578 24.6761 145.43 24.4686 145.281 24.2018C145.015 23.6978 144.57 22.4229 143.858 21.3853C143.443 20.7924 142.969 20.3477 142.524 20.1994C142.495 20.2291 142.495 20.2587 142.465 20.2884C141.575 22.5712 141.101 24.8244 141.101 24.8244C141.042 25.0615 140.864 25.2394 140.627 25.2987C140.271 25.358 139.945 25.0912 139.915 24.7651C139.797 23.3717 139.975 20.5552 140.36 17.294C140.745 14.2404 141.279 10.8013 141.902 7.86624C142.672 4.21965 143.71 -0.138467 145.667 0.60271C147.742 1.40318 146.615 5.64271 145.489 9.23001C144.273 13.0841 142.524 17.2051 141.368 19.1321Z" fill="#1B1921"/>
</svg>
