<svg width="133" height="129" viewBox="0 0 133 129" fill="none" xmlns="http://www.w3.org/2000/svg">
<path fill-rule="evenodd" clip-rule="evenodd" d="M39.4046 72.7826L39.369 72.7728L39.3908 72.7446L39.4046 72.7826L39.5216 72.8815C39.3977 72.8702 39.4401 72.9124 39.4046 72.7826ZM47.7272 47.8395C47.5769 47.7072 47.5827 47.4195 47.7318 47.2814C47.9475 47.2078 48.0691 47.2721 48.1712 47.4517C48.3009 47.488 48.8206 48.0044 48.9112 48.1275C50.2823 49.9898 47.64 48.9899 47.7272 47.8395ZM47.5712 43.2631C47.4163 43.0891 47.414 42.695 47.375 42.4478C47.3279 42.1603 47.2476 41.8313 47.453 41.6289C47.7456 41.6003 47.7857 41.7927 47.9177 42.0196C48.0313 42.2162 48.2114 42.4126 48.2928 42.6069C48.3743 42.6501 49.8268 44.3723 50.0586 44.6176C50.3706 44.9489 50.6758 45.2997 51.0005 45.6224C51.3218 45.9422 51.6568 46.244 51.9769 46.5608C52.9223 47.4963 54.0673 48.377 55.0769 49.2677C55.3018 49.4653 56.0785 50.0115 55.7389 50.3388C55.3615 50.7024 53.2435 49.8409 52.7949 49.6018C51.2197 48.7603 49.7534 47.3854 48.7908 45.8774C48.4753 45.3824 47.5436 43.794 47.5712 43.2631ZM75.2034 17.5819C74.9217 17.4058 74.5812 17.0857 74.1923 16.8697C73.7819 16.641 73.429 16.4718 73.0069 16.2957L72.0526 15.9493C71.9276 15.9116 71.8094 15.8887 71.6924 15.8499L70.2318 15.5595C69.9932 15.5401 69.8383 15.5218 69.5721 15.5218C69.6777 15.731 69.9393 16.0042 70.0873 16.2294C70.1837 16.3758 70.5462 16.8125 70.5864 16.9337L71.6889 18.9801C71.7624 19.1184 71.8048 19.2613 71.8759 19.4077C71.9941 19.6489 72.1616 20.025 72.2901 20.2228C72.5352 20.2525 73.6416 20.0616 73.9718 20.0182C74.5677 19.9404 75.1751 20.0182 75.7743 20.0113C76.2382 20.0444 76.8334 20.2479 77.0377 20.2525C76.8966 19.7381 76.1293 18.6588 75.7527 18.1752L75.2034 17.5819ZM99.6639 92.2384C99.8987 92.2957 100.631 92.2067 100.584 92.5761C100.563 92.7379 100.021 93.0107 99.8657 93.1263C99.3141 93.5382 98.7675 93.8237 98.0771 93.9026C97.372 93.9832 96.7643 93.4719 97.6885 92.7498C98.1306 92.4043 98.5429 92.3076 99.0719 92.2207C99.3346 92.1776 99.4507 92.1865 99.6639 92.2384ZM2.103 82.9519C2.33131 82.8892 2.547 83.0262 2.77531 83.0733C3.01166 83.1224 3.25833 83.1713 3.48895 83.2398C4.17734 83.4444 5.32236 83.8589 5.91323 84.2572C6.19547 84.4471 6.83797 84.9568 6.28726 85.2564C5.89717 85.4688 5.26614 85.4651 4.84279 85.3625C3.43503 85.0216 1.93663 83.4454 2.103 82.9519ZM103.416 94.2984C103.933 94.363 104.278 94.3615 104.799 94.5224C105.024 94.5919 105.826 94.822 105.935 95C106.166 95.3751 105.411 95.2668 104.776 95.3482C102.694 95.6151 100.527 96.5535 98.5854 97.2677C97.9316 97.5081 96.5205 97.9815 96.3783 96.8818C96.275 96.0836 97.2396 95.4211 97.8738 95.1471C99.4653 94.4593 101.7 94.0842 103.416 94.2984ZM0.621796 78.3142C0.711288 78.3497 1.23677 78.6869 1.38936 78.7706C5.55756 81.0594 5.77784 81.4568 10.7469 82.9884C11.3687 83.1799 11.9906 83.3458 12.5941 83.5893C12.8075 83.6752 13.2652 83.8456 13.4373 83.9703C13.8561 84.2743 13.4006 84.5045 13.1138 84.5807C11.6946 84.9581 10.2558 84.6251 8.86413 84.2541C6.1645 83.5341 2.87399 81.9296 1.01534 79.7914C0.54953 79.255 0.0240479 78.0756 0.621796 78.3142ZM88.1785 119.286L88.1671 119.297C88.1678 119.296 88.1822 119.289 88.1785 119.286ZM57.2832 114.136L57.1295 114.059C57.2086 114.169 57.1478 114.124 57.2832 114.136ZM19.8049 80.5838C21.3332 80.776 25.9362 81.1464 27.3554 81.1047C27.3199 80.7914 27.2063 80.4312 27.1627 80.1028C27.0193 79.0299 26.947 77.8644 27.0744 76.7813C27.2614 75.1959 27.3119 75.2256 27.6388 73.8653C27.7077 73.5765 27.8855 73.3032 27.9314 73.0061C26.8954 72.9777 25.7974 73.0579 24.7797 73.0186C22.9119 72.9466 20.5473 73.061 18.6152 73.0615L3.11722 73.1761C3.40289 74.235 3.94673 74.8714 4.76247 75.5607C7.80975 78.1369 9.4986 78.1397 13.193 79.1861C15.444 79.8241 17.4747 80.2907 19.8049 80.5838ZM45.8009 79.2729C46.1646 79.3103 49.2474 78.3411 49.8016 78.1549C52.3004 77.316 54.5813 76.1977 56.8518 74.8709C57.3303 74.591 59.8039 73.1199 59.984 72.7863L47.3979 72.8586C47.4266 73.065 47.5769 73.4939 47.6354 73.7472C47.71 74.0768 47.7593 74.3881 47.7662 74.7281C47.7811 75.479 47.6916 75.9307 47.4725 76.6212C47.3165 77.1109 46.9872 77.645 46.6763 78.0455C46.0636 78.8349 45.6116 78.8091 45.8009 79.2729ZM9.88639 65.8542L9.55138 64.8065C9.24046 64.8383 7.67896 65.5169 7.36688 65.6941C6.5041 66.1844 6.33315 66.2295 5.49332 66.9164C4.98505 67.3312 4.26338 67.8993 3.871 68.3899C3.58647 68.7455 2.93365 70.1341 2.92563 70.5253L3.16769 70.4937C3.32947 70.6161 4.79689 70.5332 4.98621 70.5314C6.56835 70.5152 9.10737 70.5921 10.4383 70.507C10.4692 70.2793 10.4096 69.5327 10.4073 69.2348C10.4015 68.4955 10.1939 66.2442 9.88639 65.8542ZM36.9918 67.0222L36.7921 66.9158C36.7141 66.8737 36.6395 66.8339 36.565 66.7998C36.2816 66.67 35.2192 66.4118 34.9599 66.4118C33.8148 66.4118 32.8958 66.5092 31.861 67.2504C31.3229 67.6367 30.5198 68.5755 30.522 69.2729C30.9053 69.1707 31.308 69.184 31.6544 69.4035C32.0285 69.6401 32.1088 69.9555 32.2706 70.3215C32.3704 70.5463 32.1122 71.1708 31.955 71.3878C31.7566 71.6637 31.5064 71.9685 31.293 72.2541C30.2478 73.6594 29.6306 76.3825 29.6386 78.124C29.6409 78.5589 29.7212 79.0914 29.7556 79.5359C29.813 80.2938 30.1354 81.1794 30.4291 81.8784C31.0165 83.2746 32.4002 84.6469 34.0443 84.0364C33.886 83.6559 33.5946 83.4164 33.2251 82.3731C33.0083 81.7587 32.8224 80.9723 32.7972 80.3259C32.7719 79.678 32.6377 78.7696 33.0748 78.2252C33.8045 77.3153 35.1136 77.6909 35.3775 78.6266C35.5875 79.3745 35.2306 80.2198 35.8869 81.819C36.3642 82.9822 37.5161 84.0816 38.8676 83.7313C38.7208 83.3226 38.0829 82.5016 37.6974 81.1591C37.5998 80.8199 37.5104 80.4943 37.4518 80.1448C37.3669 79.6391 37.3119 79.6049 37.5069 79.0946C37.6079 78.8326 37.8752 78.5731 38.1265 78.453C38.7632 78.1493 39.5021 78.3626 39.8555 78.9703C40.1641 79.5009 40.1813 81.0737 41.3229 82.5058C41.6923 82.9684 42.3061 83.6189 42.7524 82.8713C43.6405 81.3833 43.1689 78.7737 42.5046 77.3605C42.2476 76.8129 42.0698 76.5693 41.6958 76.1067C41.3596 75.6914 40.9007 75.4993 40.7963 74.9053C40.5714 73.6276 42.0973 72.8542 43.0508 73.6888C44.4057 74.8756 44.587 75.7663 44.8784 76.0252C45.0459 75.4456 45.1802 75.2627 45.0999 74.6217C44.9438 73.3727 44.065 72.2423 43.0794 71.4855C41.6074 70.3552 39.8142 69.6926 37.9498 69.6926C35.2547 69.6926 35.0861 70.8398 33.9996 70.4242C33.185 70.1128 32.8477 69.1459 33.4362 68.3612C33.8022 67.8727 35.0184 67.439 35.6219 67.2968C35.864 67.2395 36.0395 67.2028 36.285 67.1565L36.9654 67.0339C36.9723 67.0318 36.9837 67.0275 36.9918 67.0222ZM65.8973 67.4037C66.3103 67.9488 67.2626 68.7374 67.834 69.1357C69.8314 70.5286 72.4754 71.2378 74.8926 71.3341C75.1588 71.3448 76.577 71.3642 76.7365 71.3051C76.7745 71.1217 76.0444 70.0827 75.8894 69.8831C75.5366 69.4287 75.1853 69.0671 74.7577 68.6838C74.0762 68.073 72.6117 67.1731 71.7165 67.0222C71.8473 67.2976 72.4635 69.7718 71.6981 69.2557C71.6247 69.2067 71.1635 68.5582 71.0178 68.4051C70.6196 67.9891 69.9519 67.1863 69.5343 66.831C69.2429 66.5836 69.3473 66.6442 68.9962 66.6762C68.7679 66.697 68.5109 66.696 68.2688 66.7157C67.6022 66.77 66.5077 67.0992 65.8973 67.4037ZM60.8617 70.1122C60.9627 70.1763 61.1015 70.1539 61.2231 70.1405C60.9225 69.6429 57.0687 67.3902 56.3264 66.9836C52.0159 64.6236 49.1212 63.7694 44.3575 62.7732C43.5602 62.6065 37.5964 61.6605 37.2637 61.8323C37.173 61.9989 37.2224 62.7382 37.2212 62.9784C37.2052 63.2849 37.2488 63.6005 37.2775 63.9059C37.3165 64.3326 37.3532 64.2671 37.7146 64.4292C38.9571 64.9856 40.1343 65.9858 40.763 67.1954C40.9775 67.6081 40.9259 67.4765 41.3504 67.6075C42.9383 68.0965 44.338 69.0432 45.537 70.142C45.7596 70.3449 47.0434 70.2533 47.406 70.253C48.0565 70.2526 48.707 70.2504 49.3576 70.2473C50.6345 70.2412 51.9115 70.2171 53.1861 70.2109C54.2164 70.2061 60.3718 70.2678 60.8617 70.1122ZM19.5709 63.2454C19.6202 63.3925 21.0326 64.6249 21.2758 64.8677C22.4587 66.0502 23.3559 67.0944 24.3506 68.4415C24.564 68.7309 25.5989 70.3191 25.701 70.4074L27.8132 70.3891C27.7719 68.9277 27.8981 68.0841 28.715 66.7871C29.0053 66.3264 29.0179 66.5305 28.9491 65.9523C28.7816 64.5492 28.8401 64.0953 28.8561 62.6733C28.8906 62.5686 28.8779 62.2488 28.902 62.0891C28.9307 61.901 28.9743 61.6706 28.9904 61.4907C28.7426 61.4907 28.5624 61.5234 28.341 61.53C28.1092 61.537 27.8419 61.5122 27.6147 61.5308C27.1902 61.5656 26.7416 61.6203 26.3114 61.6434C25.8903 61.6659 25.3729 61.6472 24.9713 61.7196L22.3268 61.9462C22.212 61.9548 22.1065 61.9404 21.994 61.9574C21.8782 61.9746 21.799 62.0125 21.6762 62.0223C21.4651 62.039 21.207 62.0506 21.0051 62.0785L18.676 62.4285C18.6634 62.4318 18.6301 62.4416 18.6198 62.4449L18.5486 62.4727C18.7081 62.5975 19.4596 63.2148 19.5709 63.2454ZM79.9855 60.7277C77.9409 60.7277 77.2722 60.6257 75.1992 60.3089C74.2463 60.1633 71.9448 59.6156 71.0269 59.2783C70.4016 59.0484 69.7305 58.825 69.0983 58.6059C68.1701 58.2849 66.3539 57.4937 65.4556 57.0478C65.1986 56.9206 63.8551 56.2195 63.7105 56.192C63.683 56.2336 63.722 56.1603 63.6715 56.2609C63.6703 56.263 63.6267 56.3636 63.6256 56.366C63.5946 56.4684 63.5981 56.5274 63.5831 56.6295L63.3319 58.2099C63.5671 58.3813 63.9503 58.6105 64.2119 58.7824C65.1584 59.4051 66.0017 59.8428 67.04 60.3139C68.8023 61.1145 71.736 62.108 73.6622 62.4127L76.2058 62.7774C76.8884 62.8559 78.253 62.802 78.9092 62.5925C79.6536 62.3551 79.3381 62.6157 79.609 61.8402C79.7038 61.569 79.9484 60.9712 79.9855 60.7277ZM44.4562 55.2912C43.9904 55.3725 43.9755 55.1651 43.8114 54.7412C43.6978 54.4478 43.5395 54.1619 43.3961 53.8816L42.5815 52.1994C42.4599 52.2939 42.3463 52.4746 42.2235 52.5882C41.1015 53.627 40.7446 53.8564 39.6971 55.2583C39.2681 55.8311 38.8894 56.4649 38.5556 57.0963C38.3674 57.4515 37.7283 58.8609 37.7295 59.1922C38.2756 59.3086 39.0959 59.3493 39.6799 59.4209C43.8321 59.9304 48.1861 60.7168 52.0974 62.1556C54.9232 63.1949 58.1024 64.8593 60.6609 66.5168L63.2194 68.2952C63.0783 67.9398 62.2614 66.933 61.7291 65.5712C60.5485 62.5477 60.3993 59.6299 60.9351 56.4619L61.2885 54.7765C60.7791 54.3869 60.0345 54.1617 59.7132 53.5736C59.0925 52.4379 60.3075 51.7746 60.3075 51.7743C61.207 51.5626 61.386 51.7738 62.1054 52.2207C62.5873 52.52 63.076 52.8092 63.5682 53.0914C64.5733 53.6677 65.6036 54.2131 66.6511 54.7104C68.8838 55.771 71.0889 56.6131 73.4804 57.2542C76.6028 58.091 80.6498 58.5442 83.7851 57.4919C84.3959 57.287 84.9289 56.9213 85.5967 57.1585C86.2026 57.3736 86.5143 58.0129 86.3908 58.6283C86.2576 59.2918 85.7388 59.5277 85.1681 59.7517C83.2326 60.5109 83.215 59.8784 82.4473 61.7303C81.3405 64.4008 81.3007 67.101 81.2726 69.9195C81.2688 70.2972 81.2549 70.7144 81.3066 71.0874C81.3529 71.4225 81.5038 71.6725 81.5601 71.9832C81.6731 72.6054 81.321 73.1852 80.7382 73.4129C79.9388 73.725 77.489 73.9342 76.575 73.9577C72.7941 74.0542 69.4999 73.3988 66.3493 71.3019C66.1898 71.1959 65.8296 70.8559 65.6781 70.8534C65.5967 71.0631 65.6896 71.3221 65.5061 71.7064C65.2502 72.247 64.8578 72.2189 64.4264 72.6133C62.7502 74.1428 61.1967 75.241 59.2761 76.4487C58.9273 76.6682 56.8759 77.8188 56.7704 77.9427C56.6292 77.9494 54.7878 78.921 54.4815 79.0681C52.9968 79.7823 51.1405 80.498 49.5629 80.9667L46.8943 81.7276C47.8626 82.4231 49.9737 83.318 51.1221 83.7679C59.5916 87.0841 68.9228 86.7654 77.1809 82.9547C78.5673 82.315 79.93 81.5458 81.2109 80.7172C81.9706 80.2255 84.2033 78.6587 84.733 78.044C85.2977 77.6901 86.2742 76.664 86.7808 76.1582C90.1572 72.7863 92.6447 68.6231 94.2745 64.1618C94.8251 62.6546 95.734 59.4522 95.7996 57.9047C95.9098 57.7225 96.112 55.0205 96.1418 54.4715V51.9533L95.9561 49.6206C95.8956 49.282 95.8355 48.83 95.8354 48.482C95.7285 48.5077 94.8974 49.1223 94.8016 49.2298C94.4688 49.3513 93.9218 49.7628 93.564 49.9567C92.1496 50.7232 90.9645 51.2127 89.3589 51.5648C83.5372 52.8417 77.9991 50.2331 75.0368 45.2096C74.8682 44.9236 74.5253 44.1759 74.3578 43.9881C73.5053 45.245 72.8585 46.2169 71.6798 47.2257C67.8248 50.5253 62.749 51.0407 58.115 48.9476C52.632 46.4706 49.1866 41.2639 47.858 35.5513C47.4794 35.7449 43.2263 38.824 42.2006 39.445C41.1875 40.0581 40.1434 40.6449 39.0248 41.0471C38.0266 41.4057 37.1363 41.6351 36.0762 41.6687C34.369 41.7227 35.4108 41.4171 33.4007 42.577C32.9027 42.8642 32.4105 43.1761 31.9091 43.4547C31.581 43.6372 31.5845 43.8997 31.4869 44.2484C31.3997 44.5611 31.316 44.8759 31.238 45.1911C31.0785 45.8288 30.9339 46.47 30.8077 47.1153C30.3178 49.6145 30.0643 53.3796 30.3614 55.9744C30.5301 55.88 30.6563 55.4173 30.7343 55.2188C30.8364 54.9609 30.9592 54.7008 31.0728 54.4471C31.7141 53.0159 32.5585 51.5926 33.4913 50.3337C34.2875 49.2605 36.1795 47.2683 37.4404 46.6015C37.6434 46.494 38.0244 46.3813 38.1724 46.2694C38.0278 46.1081 37.5402 45.7725 37.3176 45.5632C36.1175 44.4384 36.69 43.0343 38.2171 43.0029C39.1671 42.9833 39.2738 43.1601 40.1434 43.4833C40.2788 43.534 40.4417 43.6928 40.5966 43.7863C41.2265 44.1651 41.729 44.765 42.2407 45.2758C43.084 46.117 44.0271 48.3749 44.2222 49.543C44.4344 50.8188 44.4906 50.9253 44.5916 52.3096C44.6329 52.8637 44.6065 54.8129 44.4562 55.2912ZM115.168 46.1556C115.11 46.0701 114.897 45.9089 114.797 45.8004C114.675 45.6671 114.577 45.553 114.463 45.4084C113.706 44.4472 113.631 44.0155 113.171 42.9961C113.014 42.6489 111.531 42.6779 109.839 41.128C109.554 40.867 109.4 40.5874 109.158 40.3181C108.961 41.0695 109.076 42.2034 109.298 42.964C109.738 44.4746 110.912 45.9878 112.464 46.447C112.918 46.5815 113.451 46.666 113.929 46.5975C114.217 46.5563 115.012 46.3752 115.168 46.1556ZM82.5124 39.479C82.7455 40.5632 83.825 42.9334 84.3986 43.932C84.7839 44.6028 85.1851 45.2211 85.6977 45.804C85.8427 45.9688 86.6929 46.9396 86.867 47.0084C87.1595 47.124 87.2788 46.9166 87.2598 46.6564C87.1673 45.3898 84.8767 41.7153 83.8994 40.5001C83.8108 40.3899 82.2711 38.357 82.5124 39.479ZM127.765 38.0293C127.636 38.0774 127.469 38.314 127.359 38.4258L126.769 38.9827C126.717 39.0255 126.65 39.0724 126.594 39.1138C126.376 39.2771 126.154 39.4277 125.939 39.5673C125.737 39.6985 125.405 39.8899 125.191 39.9667C124.487 40.219 124.256 40.3772 123.446 40.4779C123.236 40.5039 123.128 40.502 122.898 40.5049C122.628 40.5082 122.615 40.551 122.761 40.7615C123.324 41.5687 123.9 41.9579 124.93 41.9223C125.511 41.9022 126.127 41.6894 126.55 41.2822C127.504 40.3639 127.765 39.3662 127.765 38.0293ZM86.1877 37.8767C86.8073 39.5383 87.8962 41.3699 88.7774 42.9258C89.2 43.6721 89.7696 44.5517 90.2889 45.2346C90.6104 45.6575 91.2546 46.3682 91.7135 46.6741C91.951 46.8325 92.2735 46.8042 92.2709 46.4619C92.2586 44.8722 88.2219 39.8136 86.983 38.3812C86.8909 38.2747 86.4051 37.6706 86.2992 37.6314C86.104 37.559 86.148 37.7704 86.1877 37.8767ZM57.5127 37.457C57.9269 39.0621 59.4436 42.311 60.4923 43.7575C60.7137 44.0628 60.9501 44.3345 61.2162 44.6004C61.3768 44.7603 62.1123 45.4754 62.0297 44.7519C61.9505 44.0644 60.3546 41.4257 59.9221 40.6644C59.5595 40.0281 59.143 39.3638 58.7415 38.7508L57.7915 37.3718C57.6332 37.122 57.4232 37.1091 57.5127 37.457ZM62.6114 36.8277C62.3796 37.1514 64.2876 41.1487 64.5515 41.6975C65.2525 43.1598 65.6139 43.6972 66.495 44.9489C66.643 45.1595 67.1043 45.9134 67.406 45.6788C67.9418 45.2607 65.8296 41.458 65.4934 40.8731C65.1894 40.3447 63.0382 36.8306 62.6114 36.8277ZM34.7843 33.0546C34.7075 33.0077 33.5923 33.0877 33.3938 33.0877C33.1678 33.0866 32.0399 33.0123 31.9528 33.1609C31.8575 33.321 31.8392 34.3756 31.8541 34.5969C31.9837 36.5338 32.8649 38.6255 34.9427 39.0374C35.9764 39.2424 36.6808 39.0151 37.6297 38.7871C38.0266 38.6916 37.9211 38.5823 37.6216 37.7488C37.2522 36.7187 35.35 33.3987 34.7843 33.0546ZM126.469 33.2432C126.32 33.3393 125.62 34.5729 123.796 35.4864C123.276 35.7468 122.475 35.9988 121.898 36.0745C121.653 36.1066 121.295 35.8906 121.29 36.6947C121.285 37.7766 123.285 38.571 125.212 36.7825C126.018 36.0341 126.297 35.4025 126.513 34.3785C126.555 34.1787 126.587 33.3907 126.469 33.2432ZM45.4785 34.0211C45.3695 33.7463 44.1935 32.0257 43.9457 31.709C43.6749 31.3626 42.4564 29.8238 42.1593 29.69C42.0503 29.7335 41.7417 29.9564 41.6132 30.0433C41.0911 30.3943 40.4509 30.7487 39.914 31.0608C39.5319 31.2814 39.1086 31.4918 38.707 31.6884C38.4339 31.8233 37.5849 32.18 37.5 32.2772C37.5953 32.4578 37.788 32.7059 37.9062 32.8842L39.0443 34.7641C39.2887 35.2017 39.5205 35.6469 39.7327 36.097C39.8383 36.3229 39.9645 36.5932 40.0425 36.817C40.1125 37.019 40.2088 37.3979 40.3224 37.5428C40.6861 37.4305 45.3523 34.222 45.4785 34.0211ZM88.9058 34.7265C89.4142 34.745 89.977 34.863 90.5138 34.863C90.0661 33.9573 88.1628 31.797 87.4296 30.9556C85.4506 28.6817 82.2223 26.2123 79.5958 24.7226C78.7962 24.2687 76.952 23.337 76.0605 22.9803C75.5448 22.7745 75.3281 22.5882 74.7407 22.6087C73.5793 22.3984 70.077 23.4971 68.8528 23.9281C67.2419 24.4951 65.3271 25.3102 63.8229 26.1162C62.2431 26.9645 60.7011 27.7225 59.0857 28.6085C58.699 28.8211 54.4711 31.1922 54.5102 31.2688L63.0783 32.1674C65.9397 32.4281 68.808 32.7997 71.6671 33.0489C73.095 33.1735 74.5183 33.3621 75.9431 33.4947C78.7763 33.7577 81.7593 34.1272 84.5506 34.3466C85.6356 34.4319 88.0487 34.7249 88.9058 34.7265ZM114.48 31.6198C115.322 32.124 115.334 31.9925 115.811 32.2395C116.73 32.7162 116.83 34.0695 115.821 34.5937C115.266 34.8817 114.805 34.7061 114.264 34.5073C112.345 33.8034 111.305 32.2635 110.383 30.552C109.499 28.9115 108.193 27.1028 106.125 27.008C105.135 26.9634 104.033 27.6105 103.865 28.6417C103.524 30.7407 107.97 31.2505 109.915 34.2614C111.062 36.0371 110.382 38.6078 112.324 39.6813C112.721 39.9007 113.261 40.1196 113.693 40.2626C114.271 40.4538 114.599 40.3586 115.026 40.8808C115.839 41.8764 115.639 42.3619 116.347 43.4554C118.082 46.1375 121.894 43.8382 121.933 43.7345C121.764 43.5554 121.414 43.3328 121.017 42.8834C120.263 42.0294 119.685 40.8452 119.801 39.6901C119.834 39.3675 119.789 39.3203 119.563 39.1088C118.734 38.3344 118.403 36.8054 118.733 35.7499C119.01 34.8639 118.792 35.1663 118.413 34.568C118.292 34.3764 118.182 34.1776 118.097 33.9671C117.378 32.1766 117.918 30.0124 119.356 28.7354C120.078 28.094 121.24 28.1706 121.685 29.0944C121.901 29.5425 121.857 30.0684 121.549 30.464C121.222 30.8847 120.974 30.7441 120.68 31.39C120.236 32.3652 120.339 33.6068 121.726 33.3873C122.586 33.2501 123.407 32.6796 123.982 32.0474C124.658 31.3066 124.895 30.4011 124.812 29.4156C124.74 28.5719 124.354 27.5064 123.602 27.032C121.182 25.5057 115.266 30.2216 114.48 31.6198ZM53.8436 28.6062C53.7655 28.2747 52.344 26.1665 52.0503 25.8098C51.3424 24.9501 51.1474 24.7066 50.2949 24.1258C49.9748 23.9086 49.9278 24.063 49.6341 24.3042C48.5051 25.2325 46.9207 26.3506 45.6861 27.2366C45.4142 27.4321 44.5491 27.9923 44.3816 28.1867C44.4264 28.3124 44.7178 28.5879 44.8176 28.7057C45.6058 29.634 46.1772 30.3257 46.8564 31.3706C46.9849 31.5684 47.1008 31.7513 47.2258 31.9582C47.3348 32.1377 47.4714 32.3206 47.5838 32.5104C47.7926 32.4978 48.9285 31.6976 49.1866 31.5249L53.8436 28.6062ZM43.1861 25.8521C43.1425 25.6681 42.8947 25.2805 42.7949 25.077C42.3612 24.2013 42.0606 23.6457 41.752 22.6476C41.3929 21.4815 41.0016 20.121 40.8215 18.9172C40.6207 17.575 40.3626 16.1494 40.2915 14.7969C40.2524 14.0618 40.1893 13.3244 40.1744 12.5859C40.1595 11.8222 40.1882 11.054 40.1698 10.296C39.8566 10.5681 38.5969 13.8721 38.4099 14.4585C38.1701 15.2119 37.928 15.9528 37.6962 16.7107C37.3302 17.9077 36.8415 20.3291 36.674 21.6027C36.5535 22.5161 36.4514 23.3724 36.4273 24.2962C36.3871 25.8098 36.4835 28.2038 36.9986 29.626C37.1696 29.6066 38.4362 28.9332 38.6772 28.796C39.2084 28.493 39.7155 28.1615 40.2238 27.862C41.2345 27.2686 42.2132 26.4889 43.1861 25.8521ZM58.3548 19.3596C58.2447 19.235 57.7938 18.8406 57.6653 18.796C57.2626 18.9389 53.9021 21.0265 53.7231 21.2826C53.5912 21.2826 53.6761 21.2666 53.6462 21.3352C53.3915 21.4586 52.4025 22.1126 52.289 22.3115C52.3348 22.3995 53.2332 23.2307 53.4099 23.4262C54.2348 24.3453 54.6111 24.8861 55.2685 25.9219C55.5336 26.3403 55.8101 26.8811 56.0957 27.2629C56.3413 27.2686 57.2591 26.6501 57.5402 26.5026C57.7857 26.3746 58.0187 26.242 58.2584 26.1117L61.8209 24.2196C61.7692 23.9303 59.0019 19.5643 58.3548 19.3596ZM60.9982 18.3067C60.9982 18.3067 62.4186 20.2011 62.6618 20.6115L64.174 23.0409C64.3381 23.026 65.2949 22.5733 65.5244 22.4727C65.981 22.2715 66.4273 22.0966 66.8817 21.9182C67.9395 21.5021 68.7564 21.2814 69.7133 20.9282C69.6697 20.384 67.6699 17.0011 67.1226 16.7736C66.8748 16.4409 66.2036 15.7093 65.7745 15.8167C65.4441 15.8979 65.1389 15.9482 64.8027 16.0339C63.0795 16.4707 62.2259 16.7565 60.5416 17.4333C60.4383 17.4756 60.4097 17.4847 60.3454 17.543C60.381 17.6745 60.8674 18.1192 60.9982 18.3067ZM53.4764 18.2553C53.4397 18.0003 51.682 15.5732 51.3917 15.2108C50.6081 14.2299 49.8532 13.4045 48.9365 12.5482C48.076 11.7445 47.0618 10.9431 46.1026 10.2583C45.623 9.91528 43.3617 8.43021 42.9326 8.32617C42.7112 8.65314 42.7524 12.1766 42.7605 12.8146C42.7823 14.6552 43.3491 19.075 43.9548 20.9808C44.1889 21.7147 44.8291 23.7691 45.3385 24.2905C45.6414 24.1658 48.8814 21.6416 49.3931 21.2391C50.0494 20.7224 50.7332 20.1942 51.4124 19.7038L53.4764 18.2553ZM30.8238 22.0829C30.7584 22.1949 30.7699 22.1057 30.8249 22.1972L30.8272 22.3881C30.7527 22.5047 30.7699 22.4155 30.8307 22.5024C30.8467 24.9055 31.0234 25.6589 31.5787 27.8185C31.7084 28.3204 32.3119 30.2273 32.5172 30.4949C33.0588 30.5566 33.9066 30.5189 34.455 30.4594C34.5182 30.2308 34.2554 29.4031 34.1958 29.1081C34.0914 28.5914 34.0432 28.1386 33.9812 27.6207C33.6359 24.7363 33.8997 22.6156 34.3461 19.8284C34.5182 18.7514 35.0023 16.7176 35.3041 15.7115C35.849 13.8869 36.3137 12.491 37.0858 10.7384L38.1563 8.40849C37.5413 8.58112 35.7228 10.2525 35.2157 10.7761C34.3667 11.6519 33.5739 12.7002 32.9635 13.7566C31.4743 16.3346 30.7745 19.107 30.8238 22.0829ZM60.4785 14.606C60.1871 14.0092 58.2011 12.2269 57.6068 11.7273C56.6981 10.9636 55.2054 9.98959 54.1224 9.51286C52.1559 8.64742 52.1065 8.59598 50.015 7.91689C49.4379 7.72939 45.8192 6.73591 45.5267 6.81593C46.5156 7.35555 47.6377 8.17297 48.5407 8.85778C50.8858 10.6378 53.0726 12.8546 54.6777 15.3343C54.8865 15.6567 55.4773 16.6193 55.7137 16.8319C55.9053 16.8159 56.666 16.3666 56.9 16.2477C57.6722 15.8544 58.4638 15.4612 59.2658 15.1342C59.4815 15.0462 59.6708 14.949 59.8865 14.877C60.0047 14.837 60.0792 14.8049 60.1894 14.7569L60.451 14.6255C60.4567 14.6117 60.4705 14.6129 60.4785 14.606ZM51.9344 5.79388C51.9952 5.85561 53.8504 6.56671 54.1086 6.66618C54.7591 6.91769 55.5588 7.32355 56.1715 7.66537C57.5563 8.43935 58.5533 9.18817 59.7729 10.1794C60.8376 11.0437 61.8874 12.2418 62.7869 13.2799C63.3881 13.9749 62.9888 13.7051 64.9634 13.3084C65.3948 13.2215 65.8422 13.169 66.2725 13.0786C66.5547 13.0192 67.4622 13.0249 67.6183 12.8889C67.7582 12.8889 67.8994 12.8957 68.037 12.882L69.2658 12.8511C69.2417 12.754 69.0536 12.6328 68.8505 12.4647C68.7025 12.3412 68.535 12.2155 68.3824 12.092C67.5196 11.3923 66.3975 10.631 65.4544 10.049C62.6756 8.33532 59.3622 6.82279 56.1738 6.09798C53.9239 5.58694 53.3399 5.52407 51.2047 5.32744C51.0349 5.31143 50.6884 5.27027 50.5141 5.30571C50.4314 5.32286 50.4762 5.30685 50.4303 5.33543C50.5955 5.33657 51.8358 5.74014 51.9344 5.79388ZM97.9027 120.43C99.2848 119.397 100.622 118.276 101.973 117.2C103.334 116.116 104.689 115.023 106.047 113.935C106.696 113.415 107.456 112.866 108.068 112.331C108.802 111.689 109.243 111.074 110.306 111C111.227 110.935 112.522 111.322 113.49 111.448C117.801 112.012 130.737 114.016 132.666 117.854C133.677 119.866 132.223 121.434 130.572 122.389C125.274 125.454 112.471 126.78 106.203 127.328C96.8752 128.144 87.3604 128.447 77.9978 128.368C64.8567 128.258 50.0035 127.572 36.9608 125.421C33.1792 124.798 28.7644 123.93 25.2054 122.524C23.785 121.962 21.6131 120.94 20.8685 119.545C20.3935 118.658 20.4096 117.577 20.9201 116.709C21.3378 115.998 22.1661 115.395 22.8683 114.979C25.8249 113.228 30.7756 112.23 34.174 111.633C37.6779 111.017 43.6944 110.215 47.1914 110.005C48.1024 109.95 49.9255 109.682 50.5611 109.725C51.6878 109.8 52.0124 110.405 52.7353 111.113C53.7747 112.131 55.8169 113.417 57.1295 114.059C56.4801 113.526 55.7607 113.117 55.1068 112.527C53.1403 110.754 51.6189 108.874 50.615 106.36C49.1464 102.682 49.2027 98.4366 51.674 95.1946C52.819 93.6932 53.9812 92.8907 55.6575 92.068C56.1623 91.8201 56.3757 91.5932 56.9987 91.7568C57.4783 91.8829 57.7031 92.2029 57.9739 92.5804C59.3954 94.5684 61.4721 96.628 63.8092 97.409C64.8899 97.7702 65.7676 97.8424 66.892 97.656C67.8913 97.4904 68.5682 97.0804 69.4195 96.5873C69.7442 97.0759 70.2341 97.5794 70.6231 98.1723L71.8255 99.7591C72.1284 100.164 74.1479 102.759 74.2047 102.958C74.0069 103.174 72.884 103.736 72.5667 103.882C71.4021 104.417 69.8234 104.892 68.535 105.014C68.1667 105.049 67.6779 105.098 67.3142 105.095C66.6855 105.09 66.7669 105.205 66.2885 104.819C65.3661 104.074 64.1247 103.382 63.0359 102.909C62.032 102.474 60.1068 101.737 59.0444 101.737C59.3163 102.084 63.7954 104.012 65.8284 106.002C66.0545 106.223 66.3252 106.418 66.5363 106.67C67.2224 107.491 67.7376 108.04 68.2585 109.074C68.8459 110.237 69.0593 110.905 69.3094 112.147C69.3828 112.514 69.3886 113.045 69.4838 113.385C69.5997 112.934 69.6123 111.02 69.4953 110.55C69.4563 110.39 69.4379 110.186 69.4195 110.016C69.3805 109.653 69.2578 109.336 69.2279 108.986C70.2617 108.883 74.9774 108.947 76.3869 108.947C76.6799 108.947 76.9747 108.951 77.2674 108.947C77.5787 108.944 77.8406 108.99 78.1474 108.986C78.9513 108.976 78.9432 108.85 79.4546 109.477C79.9852 110.127 80.6201 110.739 81.1338 111.389L84.5117 115.195C85.0772 115.769 87.556 118.693 87.9104 118.981C87.5099 118.302 82.9329 112.424 82.1939 111.401C81.291 110.151 80.2792 108.837 79.3287 107.618C76.4477 103.924 73.5972 99.9257 70.7263 96.2761C69.7534 95.039 68.8149 93.7489 67.8603 92.4948C67.3808 91.8654 66.9069 91.2327 66.4285 90.6027C66.0418 90.094 65.2731 89.2002 65.0551 88.6524C64.532 88.6524 64.0822 88.6556 63.5602 88.6897C62.6389 88.7498 60.1068 88.5337 59.1866 88.434C58.0336 88.3092 56.386 88.0797 55.2502 87.7791C54.8509 87.6734 54.3943 87.5538 53.9939 87.4668C52.8098 87.2102 50.537 86.4002 49.3977 85.9045C48.6921 85.5979 47.9922 85.2816 47.3039 84.9392C46.6992 84.639 45.8387 84.2252 45.2995 83.8457C44.5526 85.0768 43.8068 85.9067 42.243 85.912C41.7761 85.9135 41.5719 85.7498 41.1852 85.7009C40.8261 85.6554 40.6299 85.8853 40.3339 86.0354C39.361 86.5287 38.1322 86.5775 37.0916 86.3101C36.8013 86.2352 36.4365 85.9855 36.168 86.0084C35.9523 86.0267 35.2341 86.5348 34.3667 86.721C32.0514 87.218 30.4429 86.3035 28.9846 84.6529C28.2997 83.8776 28.9135 83.7684 27.3187 83.7565C26.0395 83.7471 23.7735 83.5736 22.4254 83.4826C19.3942 83.2779 16.4984 82.8007 13.5681 82.0086C9.13145 80.8097 6.30447 80.4494 2.79138 77.3348C1.64177 76.3153 1.26889 75.6809 0.702118 74.2667C0.434784 73.6003 0.196152 72.9675 0.173203 72.2419C0.143372 71.3225 0.0745239 70.8366 0.32579 69.9283C0.63327 68.8147 1.2184 67.3188 2.02956 66.479C3.78725 64.6577 5.88914 63.2194 8.31686 62.4444C8.17115 61.8948 6.92747 60.4454 6.48804 59.9941C6.02223 59.5148 5.78359 59.2219 5.82833 58.5153C5.8639 57.9763 6.31136 57.5064 6.8242 57.3715C7.89121 57.0908 12.2579 58.7845 13.4041 59.321C13.8745 59.5413 14.3839 59.7749 14.8325 60.0345C15.0287 60.148 15.3602 60.3677 15.5794 60.3437C15.7641 60.3234 16.2529 60.1934 16.4605 60.1441C17.5814 59.8764 18.9869 59.6752 20.1377 59.5362C22.1065 59.2984 24.0626 59.1513 26.0372 59.0055C26.4961 58.9715 27.7203 58.9415 28.0714 58.8584C27.9176 58.5138 27.7237 56.0157 27.6882 55.6169C27.4908 53.4088 27.6044 50.8242 27.9027 48.6561C27.9762 48.1165 28.0576 47.6111 28.1494 47.0714C28.2354 46.5687 28.3203 46.0383 28.4546 45.5446C27.9142 45.8285 27.4289 46.1306 26.908 46.4452C25.9408 47.0306 26.1565 46.7423 25.9018 47.884C25.7618 48.5132 25.6218 49.2643 25.4463 49.8716C24.9851 51.4683 22.9658 51.2109 22.8339 49.7643C22.7983 49.3686 23.5039 46.2152 23.6771 45.7434C23.91 45.1101 24.3632 44.857 24.9117 44.5316C25.9339 43.9253 26.9619 43.3102 27.9922 42.718C29.8497 41.6497 29.4229 42.0074 30.1583 39.9967C30.5106 39.033 30.7676 39.2951 30.1893 38.3165C29.1487 36.556 29.0259 34.1729 29.4723 32.252C29.6879 31.3237 30.1342 31.5352 29.6994 30.5337C29.4677 30.0021 29.2577 29.259 29.0948 28.6942C28.699 27.3315 28.4477 26.0271 28.2836 24.6186C27.4461 17.4161 30.3981 10.3371 36.495 6.32777C36.7187 6.1803 37.9635 5.46919 38.0198 5.38116C37.9291 5.19024 36.7107 4.15102 36.9745 2.49446C37.1512 1.3798 37.7134 0.694992 38.7208 0.229691C40.5794 -0.628891 43.1001 1.02654 43.1173 3.4285C46.6579 2.41444 51.0705 2.43501 54.6788 3.08895C61.121 4.2562 67.102 7.27553 71.9597 11.6553C72.4769 12.1206 73.1371 12.7185 73.5871 13.2375C74.6667 14.4825 76.5545 14.2745 78.7308 17.8014C79.3648 18.8292 79.8301 19.937 80.3005 21.0448C80.451 21.3992 80.5547 21.8976 80.7445 22.204C80.9673 22.5642 81.3299 22.6773 81.6779 22.8763C82.6446 23.4307 83.6898 24.167 84.5745 24.8346C87.0442 26.6993 89.1964 28.7857 91.1258 31.2014C91.896 32.1663 92.4464 33.0363 93.1403 34.0005C93.3451 34.2851 93.5564 34.8163 93.7701 35.0134C94.0808 35.3 94.7117 35.2491 95.1146 35.2758C95.5924 35.3077 96.0986 35.3733 96.58 35.4179C97.5744 35.5101 98.5699 35.594 99.5644 35.6868C100.351 35.7603 101.59 35.7134 102.148 36.3107C102.827 37.0371 102.351 38.018 102.094 38.8085C101.832 39.6166 101.584 40.3939 101.257 41.1807C100.942 41.9375 100.551 42.6332 100.2 43.3701C102.359 42.6698 104.308 41.2265 106.023 39.788C107 38.9684 106.615 38.9663 107.201 37.7958C107.746 36.7084 108.249 36.7521 107.675 35.7315C106.771 34.1208 103.667 33.2204 102.299 31.6644C99.7789 28.7983 101.783 24.8918 105.319 24.3991C107.013 24.1636 108.717 24.7706 110.035 25.8247C111.599 27.0766 111.808 27.8254 112.795 29.3699C113.176 29.0407 113.538 28.6588 113.919 28.3147C116.518 25.9665 121.173 22.8065 124.639 24.5488C126.107 25.2862 127.048 26.8067 127.375 28.3856C127.456 28.7766 127.506 29.9758 127.628 30.1896C127.742 30.3897 128.005 30.5211 128.169 30.7212C128.335 30.927 128.491 31.1454 128.624 31.374C128.918 31.8759 129.083 32.4613 129.181 33.0317C129.347 34.0022 128.956 33.9105 129.579 34.8479C129.846 35.249 130.09 35.9576 130.216 36.4256C130.814 38.6415 130.244 41.4001 128.588 43.0459C127.849 43.7801 126.726 44.3997 125.685 44.5322C124.609 44.6691 125.023 44.703 124.304 45.3006C123.872 45.6597 123.494 45.9342 123.012 46.2255C121.867 46.9155 120.067 47.5161 118.693 47.4147C118.373 47.391 118.05 47.3148 117.776 47.5254C117.289 47.8993 117.335 48.0071 116.522 48.4954C115.529 49.0924 114.234 49.3503 113.084 49.2683C111.794 49.1764 110.891 48.7541 109.809 48.1005C109.685 48.2015 109.461 48.4859 109.336 48.621C108.167 49.891 106.669 50.8221 105.174 51.6457C103.328 52.6626 100.898 53.4813 98.7832 53.4795C98.7832 60.0298 96.8292 66.5749 93.3199 72.1072C91.7717 74.5479 89.9796 76.7491 87.9012 78.7627C86.1648 80.4448 83.1353 82.8316 80.981 83.922C80.9938 84.0427 81.1093 84.4227 81.1521 84.5525C81.3645 85.1964 81.4404 85.9093 81.5935 86.5543C81.7121 87.0539 81.8269 88.2172 81.8238 88.7282C81.8203 89.3122 81.8865 89.7875 81.8289 90.2984C81.8015 90.5413 81.8323 90.8435 81.8246 91.0952C81.7949 92.0755 81.5406 93.6683 81.2866 94.6411L81.1034 95.2828C80.8889 95.1828 78.4178 92.4517 77.9116 91.9016L74.7296 88.4727C74.3932 88.0992 74.0272 87.7069 73.6785 87.3457C73.3808 87.0372 73.3249 87.2326 72.913 87.3273C72.6551 87.3864 72.2523 87.4748 72.0733 87.5723C72.2546 87.9459 74.431 90.1675 74.8959 90.7102C75.7895 91.7536 76.8329 92.8146 77.7728 93.833C78.7287 94.8688 79.6759 95.9402 80.6475 96.9576C81.5951 97.9496 82.6241 99.0507 83.5232 100.082C84.4424 101.136 85.4558 102.136 86.3824 103.184L89.9705 107.085C90.8346 107.996 90.5417 107.68 90.4474 109.301C90.3939 110.219 90.4752 111.194 90.6404 112.102C90.7395 112.647 91.0528 113.998 91.2221 114.498C91.337 114.837 91.4074 115.338 91.7389 115.509C91.7857 115.053 91.7683 114.735 91.745 114.282C91.7221 113.839 91.745 113.395 91.7387 112.95C91.7057 110.635 91.8773 108.132 92.6401 105.954C93.4398 103.671 95.1177 101.298 97.0114 99.781C98.1182 98.8944 99.1028 98.3794 100.455 97.9478C101.547 97.5991 103.656 97.0028 104.755 96.9703C106.539 96.9177 107.739 97.1051 109.446 97.56C110.77 97.9129 112.132 98.2954 113.306 99.0155C114.193 99.5588 115.761 100.572 115.964 101.641C116.12 102.465 115.661 102.83 115.14 103.349L103.215 115.156C102.344 116.024 101.464 116.947 100.564 117.78C99.6916 118.587 98.7069 119.557 97.9027 120.43Z" fill="#0D0C10"/>
</svg>
