<svg width="136" height="36" viewBox="0 0 136 36" fill="none" xmlns="http://www.w3.org/2000/svg">
<path d="M35.4323 36C35.84 36.0004 36.242 35.9034 36.6049 35.7171C36.9677 35.5307 37.281 35.2603 37.5188 34.9283C37.7566 34.5963 37.9119 34.2122 37.972 33.808C38.0321 33.4038 37.9952 32.9911 37.8643 32.6041V32.6072L27.4697 1.75033C27.2985 1.2406 26.972 0.797539 26.5363 0.483542C26.1006 0.169546 25.5776 0.000427879 25.0409 0H12.957C12.4203 0.000427879 11.8973 0.169546 11.4616 0.483542C11.0259 0.797539 10.6994 1.2406 10.5281 1.75033L0.135195 32.6057C0.0046248 32.9926 -0.0320659 33.4052 0.028163 33.8092C0.0883919 34.2131 0.243806 34.5969 0.48153 34.9287C0.719253 35.2605 1.03244 35.5308 1.39514 35.7171C1.75785 35.9034 2.15962 36.0004 2.56718 36H10.0737C10.6107 35.9999 11.134 35.8309 11.57 35.5169C12.0061 35.2029 12.3328 34.7597 12.5041 34.2497L14.051 29.6604L21.8838 35.4922C22.3271 35.8223 22.8623 36 23.4133 36M18.5303 16.1148L24.2682 33.1563C24.3117 33.285 24.324 33.4223 24.304 33.5567C24.2841 33.6911 24.2326 33.8189 24.1537 33.9294C24.0748 34.0399 23.9709 34.13 23.8504 34.1924C23.7299 34.2547 23.5963 34.2874 23.4608 34.2878L23.4133 34.2862C23.2297 34.2864 23.0509 34.2274 22.9034 34.118L8.19907 23.1685H15.883M25.8785 34.2862C26.0622 33.7688 26.0843 33.1849 25.8896 32.6072L15.4998 1.75033C15.4962 1.73973 15.4925 1.72915 15.4887 1.71859H25.0425C25.2212 1.71833 25.3956 1.77421 25.541 1.87839C25.6864 1.98257 25.7956 2.1298 25.8532 2.29939L36.2429 33.1563C36.3154 33.3714 36.2997 33.6065 36.1994 33.81C36.099 34.0135 35.9222 34.1687 35.7078 34.2417" fill="#0D0C10"/>
<path d="M59.9355 15.4991H57.4962V6.15338C57.4962 5.38731 57.5445 4.4518 57.6409 3.343H57.6001C57.4478 3.97405 57.3135 4.42701 57.1969 4.7033L52.7734 15.4991H51.0783L46.6442 4.78417C46.5203 4.46888 46.3891 3.98849 46.2517 3.3442H46.2109C46.2665 3.92183 46.2937 4.8648 46.2937 6.17384V15.4991H44.0195V1.05753H47.4819L51.3785 10.6755C51.6746 11.4139 51.8677 11.965 51.9569 12.327H52.0083C52.2634 11.5681 52.4698 11.0037 52.6284 10.6345L56.5977 1.05753H59.9362L59.9352 15.4991H59.9355ZM64.5144 3.02097C64.1219 3.02097 63.785 2.89727 63.5069 2.64865C63.2276 2.40027 63.0882 2.08426 63.0882 1.70183C63.0882 1.31939 63.2276 1.00025 63.5069 0.744654C63.7862 0.490018 64.1219 0.361978 64.5144 0.361978C64.9205 0.361978 65.2659 0.490018 65.5481 0.744654C65.8304 1.00025 65.9722 1.31819 65.9722 1.70183C65.9722 2.0638 65.8304 2.37476 65.5481 2.63324C65.2647 2.89221 64.9205 3.02097 64.5144 3.02097ZM65.7024 15.4991H63.3053V5.1861H65.7026V15.4991H65.7024ZM76.421 15.0257C75.574 15.5022 74.5707 15.7405 73.4131 15.7405C71.8421 15.7405 70.5742 15.262 69.6094 14.3058C68.6452 13.3496 68.1623 12.1092 68.1623 10.5845C68.1623 8.88578 68.6809 7.52163 69.7178 6.49057C70.7549 5.45999 72.1411 4.94446 73.8779 4.94446C74.8425 4.94446 75.6935 5.10909 76.4305 5.43857V7.61357C75.6926 7.07686 74.9076 6.80778 74.0744 6.80778C73.0616 6.80778 72.2314 7.14232 71.5839 7.80996C70.9363 8.47784 70.6118 9.35222 70.6118 10.4331C70.6118 11.5007 70.9162 12.3433 71.5261 12.9609C72.1357 13.5787 72.9543 13.8875 73.9809 13.8875C74.8425 13.8875 75.6547 13.5891 76.4198 12.9917L76.421 15.0257ZM84.9471 7.41212C84.6573 7.19022 84.2408 7.07999 83.6962 7.07999C82.9865 7.07999 82.3936 7.39166 81.9183 8.01646C81.4427 8.64029 81.2047 9.49012 81.2047 10.564V15.4991H78.8064V5.1861H81.2047V7.31104H81.2455C81.4796 6.58588 81.8396 6.02029 82.3253 5.61427C82.8111 5.20849 83.354 5.00487 83.9532 5.00487C84.3877 5.00487 84.7183 5.06937 84.9461 5.19621L84.9471 7.41212ZM91.3552 15.7405C89.7222 15.7405 88.4187 15.2589 87.4427 14.2955C86.4678 13.3323 85.9798 12.0548 85.9798 10.4639C85.9798 8.73127 86.4877 7.37843 87.5047 6.40489C88.5216 5.43135 89.8901 4.94446 91.6134 4.94446C93.2674 4.94446 94.5552 5.41811 95.4787 6.36494C96.4024 7.312 96.8631 8.62393 96.8631 10.3022C96.8631 11.9477 96.3657 13.2649 95.3696 14.2546C94.3748 15.2457 93.0367 15.7405 91.3552 15.7405ZM91.4686 6.80778C90.5315 6.80778 89.7905 7.12692 89.2469 7.76399C88.7021 8.40202 88.4303 9.28146 88.4303 10.4023C88.4303 11.4832 88.7062 12.3342 89.2574 12.9549C89.8082 13.5756 90.5461 13.8863 91.4696 13.8863C92.4144 13.8863 93.1394 13.5807 93.6454 12.9703C94.1511 12.3587 94.4051 11.4894 94.4051 10.3614C94.4051 9.22731 94.1523 8.351 93.6454 7.73318C93.1385 7.11657 92.4132 6.80778 91.4686 6.80778ZM98.6525 15.1771V13.0122C99.5487 13.6769 100.537 14.0091 101.618 14.0091C103.066 14.0091 103.789 13.5929 103.789 12.7604C103.789 12.5253 103.727 12.326 103.603 12.1612C103.479 11.9965 103.312 11.8504 103.101 11.7236C102.89 11.5968 102.643 11.4822 102.357 11.3811C102.071 11.2798 101.752 11.1662 101.401 11.0384C100.999 10.8853 100.607 10.707 100.228 10.5046C99.8793 10.3164 99.5908 10.1039 99.3598 9.86558C99.1323 9.633 98.9549 9.35706 98.8383 9.0545C98.7207 8.75293 98.6629 8.39986 98.6629 7.99721C98.6629 7.50021 98.7837 7.06242 99.0248 6.68311C99.2665 6.30356 99.5896 5.98467 99.9959 5.7269C100.403 5.46817 100.864 5.27395 101.381 5.14302C101.905 5.01125 102.443 4.94527 102.983 4.94663C103.961 4.94663 104.836 5.09079 105.608 5.37912V7.42343C104.863 6.92643 104.009 6.67782 103.045 6.67782C102.741 6.67782 102.467 6.70862 102.223 6.76783C101.978 6.82824 101.769 6.91224 101.597 7.01958C101.425 7.12692 101.291 7.25568 101.194 7.40707C101.098 7.55578 101.048 7.72883 101.05 7.90527C101.05 8.12693 101.098 8.31514 101.194 8.46966C101.291 8.62393 101.434 8.75991 101.623 8.8776C101.812 8.99529 102.04 9.10264 102.306 9.19963C102.571 9.29686 102.876 9.40324 103.221 9.51684C103.638 9.68119 104.047 9.86618 104.446 10.0711C104.808 10.2591 105.116 10.4718 105.371 10.7101C105.622 10.9428 105.823 11.224 105.96 11.5364C106.098 11.8483 106.167 12.2196 106.167 12.649C106.167 13.1727 106.043 13.6286 105.794 14.0185C105.547 14.4081 105.215 14.7301 104.803 14.9848C104.389 15.2404 103.911 15.4295 103.371 15.5533C102.829 15.6782 102.26 15.7395 101.66 15.7395C100.502 15.7405 99.4994 15.5533 98.6525 15.1771ZM113.143 15.7405C111.51 15.7405 110.205 15.2589 109.23 14.2955C108.255 13.3323 107.768 12.0548 107.768 10.4639C107.768 8.73127 108.276 7.37843 109.293 6.40489C110.309 5.43135 111.679 4.94446 113.401 4.94446C115.055 4.94446 116.343 5.41811 117.266 6.36494C118.19 7.312 118.652 8.62393 118.652 10.3022C118.652 11.9477 118.154 13.2649 117.158 14.2546C116.163 15.2457 114.823 15.7405 113.143 15.7405ZM113.256 6.80778C112.319 6.80778 111.578 7.12692 111.033 7.76399C110.489 8.40202 110.217 9.28146 110.217 10.4023C110.217 11.4832 110.493 12.3342 111.044 12.9549C111.595 13.5756 112.333 13.8863 113.256 13.8863C114.2 13.8863 114.925 13.5807 115.432 12.9703C115.939 12.3587 116.192 11.4894 116.192 10.3614C116.192 9.22731 115.939 8.351 115.432 7.73318C114.925 7.11657 114.2 6.80778 113.256 6.80778ZM127.085 2.13528C126.762 1.95429 126.393 1.86332 125.979 1.86332C124.814 1.86332 124.233 2.50448 124.233 3.78681V5.18682H126.693V7.01958H124.243V15.4991H121.845V7.01958H120.037V5.18682H121.845V3.51484C121.845 2.42698 122.211 1.56993 122.941 0.942009C123.671 0.313842 124.585 0 125.68 0C126.273 0 126.741 0.0635387 127.085 0.191338V2.13528ZM134 15.3886C133.532 15.6168 132.914 15.7314 132.149 15.7314C130.096 15.7314 129.07 14.7711 129.07 12.8517V7.02054H127.303V5.18803H129.07V2.801L131.468 2.13649V5.18803H134.001V7.02054H131.468V12.1763C131.468 12.7869 131.582 13.2235 131.809 13.4854C132.037 13.7472 132.416 13.8781 132.946 13.8781C133.352 13.8781 133.704 13.7645 134 13.5354V15.3886Z" fill="#0D0C10"/>
<path fill-rule="evenodd" clip-rule="evenodd" d="M57.8376 35.7547H55.1387L53.8048 32.0237H47.972L46.6897 35.7547H44L49.5535 21.0986H52.3251L57.8376 35.7547ZM67.4356 26.2804L61.7162 33.9042H67.4147V35.7547H58.3543V34.8654L64.1978 27.1387H58.9131V25.2883H67.4356V26.2804ZM76.2995 35.7547H78.6982L78.7004 25.2883H76.3005V31.3088C76.3005 32.1473 76.0715 32.8251 75.6127 33.3429C75.1538 33.8608 74.5697 34.1192 73.86 34.1192C72.3905 34.1192 71.6564 33.1791 71.6564 31.2983V25.2883H69.2568V31.5433C69.2568 34.5146 70.5085 35.9997 73.0115 35.9997C74.4795 35.9997 75.5623 35.3656 76.2587 34.0984H76.2995V35.7547ZM87.9759 27.5476C87.6861 27.3224 87.2691 27.2105 86.7241 27.2105C86.0142 27.2105 85.4206 27.5268 84.945 28.1609C84.4693 28.794 84.2309 29.6565 84.2309 30.7463V35.7547H81.8319V25.2885H84.2309V27.445H84.2717C84.506 26.7091 84.8662 26.1351 85.3523 25.723C85.8387 25.3112 86.3817 25.1046 86.9813 25.1046C87.4151 25.1046 87.7469 25.1701 87.9737 25.2988L87.9761 27.5476H87.9759ZM91.4404 31.1654H98.6596L98.6605 30.2554C98.6605 28.6196 98.2636 27.3422 97.4708 26.4226C96.6777 25.5032 95.5582 25.0433 94.1101 25.0433C92.6617 25.0433 91.4499 25.556 90.4742 26.5813C89.4974 27.6067 89.0101 28.9342 89.0101 30.5626C89.0101 32.2863 89.4522 33.6231 90.3386 34.5737C91.225 35.5244 92.4464 35.9997 94.0051 35.9997C95.591 35.9997 96.867 35.6997 97.832 35.0998V33.1893C96.8877 33.8566 95.8501 34.1907 94.7192 34.1907C93.7119 34.1907 92.9211 33.9282 92.3455 33.404C91.769 32.8789 91.4676 32.1327 91.4404 31.1654ZM50.8578 23.1893L53.1527 30.0417H48.6133L50.8578 23.1893ZM96.3442 29.4893C96.3337 28.6373 96.1342 27.9749 95.7341 27.5018C95.3337 27.0287 94.7824 26.792 94.0787 26.792C93.3896 26.792 92.8046 27.0411 92.3257 27.5382C91.8468 28.0352 91.5518 28.6862 91.4414 29.4902H96.3442V29.4893Z" fill="#0D0C10"/>
</svg>
