<svg width="136" height="28" viewBox="0 0 136 28" fill="none" xmlns="http://www.w3.org/2000/svg">
<g clip-path="url(#clip0_6_8904)">
<path d="M90.4082 0.0117188H114.097V4.50126H104.7V28.1201H100.001V4.50126H90.4082V0.0117188Z" fill="#0D0C10"/>
<path d="M51.4485 0.0117188V4.50126H32.4603V11.7236H47.7306V16.2131H32.4603V23.6306H51.4485V28.1201H27.7617V4.50126H27.7598V0.0117188H51.4485Z" fill="#0D0C10"/>
<path d="M63.2779 0.0234375H57.1289L79.1533 28.1319H85.3203L74.3067 14.0873L85.3027 0.0448825L79.1533 0.0546399L71.228 10.1614L63.2779 0.0234375Z" fill="#0D0C10"/>
<path d="M69.5878 20.1015L66.5084 16.1702L57.1113 28.1534H63.2779L69.5878 20.1015Z" fill="#0D0C10"/>
<path fill-rule="evenodd" clip-rule="evenodd" d="M27.9273 28.1202L5.87323 0H0V28.1084H4.69859V6.00816L22.0246 28.1202H27.9273Z" fill="#0D0C10"/>
<path d="M115.153 27.9485C114.809 27.9485 114.516 27.8261 114.271 27.5813C114.026 27.3365 113.905 27.0401 113.908 26.689C113.905 26.3476 114.026 26.0544 114.271 25.8096C114.516 25.5648 114.809 25.4424 115.153 25.4424C115.484 25.4424 115.774 25.5648 116.019 25.8096C116.268 26.0544 116.391 26.3476 116.395 26.689C116.391 26.9209 116.334 27.1335 116.22 27.3236C116.102 27.5169 115.952 27.6683 115.764 27.7778C115.58 27.8905 115.376 27.9485 115.153 27.9485Z" fill="#0D0C10"/>
<path d="M123.173 16.1072H125.255V24.3439C125.252 25.1009 125.093 25.7484 124.781 26.2928C124.466 26.8371 124.03 27.2526 123.469 27.5458C122.912 27.8357 122.26 27.9839 121.518 27.9839C120.84 27.9839 120.232 27.8582 119.69 27.6134C119.149 27.3686 118.719 27.0014 118.404 26.5182C118.086 26.035 117.93 25.4327 117.93 24.7111H120.015C120.018 25.0268 120.088 25.3006 120.222 25.5293C120.356 25.758 120.54 25.9319 120.776 26.0543C121.015 26.1768 121.289 26.238 121.597 26.238C121.932 26.238 122.218 26.1671 122.45 26.0221C122.683 25.8804 122.861 25.6678 122.986 25.3843C123.106 25.1041 123.17 24.7562 123.173 24.3439V16.1072Z" fill="#0D0C10"/>
<path d="M133.823 19.3283C133.772 18.829 133.549 18.4392 133.161 18.1622C132.769 17.882 132.263 17.7435 131.642 17.7435C131.206 17.7435 130.831 17.8111 130.519 17.9432C130.207 18.0785 129.965 18.2588 129.799 18.4875C129.634 18.7163 129.551 18.9772 129.544 19.2703C129.544 19.5151 129.602 19.7277 129.713 19.9049C129.825 20.0853 129.974 20.2367 130.168 20.3591C130.359 20.4847 130.573 20.5878 130.805 20.6715C131.041 20.7553 131.276 20.8262 131.512 20.8842L132.597 21.158C133.034 21.261 133.457 21.3996 133.861 21.5767C134.266 21.7507 134.632 21.9729 134.953 22.2403C135.275 22.5077 135.53 22.8298 135.717 23.2067C135.905 23.5835 136.001 24.0248 136.001 24.5338C136.001 25.2199 135.829 25.8223 135.482 26.3441C135.135 26.8627 134.635 27.2686 133.979 27.5618C133.326 27.8517 132.537 27.9999 131.607 27.9999C130.71 27.9999 129.926 27.8582 129.267 27.5747C128.605 27.2944 128.089 26.8821 127.717 26.3409C127.344 25.7998 127.144 25.1394 127.115 24.3631H129.178C129.207 24.7689 129.334 25.1072 129.551 25.381C129.77 25.6516 130.057 25.8513 130.407 25.9866C130.761 26.1186 131.155 26.1863 131.592 26.1863C132.047 26.1863 132.448 26.1154 132.795 25.9769C133.139 25.8384 133.409 25.6452 133.604 25.3939C133.801 25.1458 133.9 24.8527 133.903 24.5177C133.9 24.2117 133.81 23.9572 133.638 23.7575C133.463 23.5578 133.221 23.3903 132.912 23.255C132.601 23.1197 132.238 22.9973 131.824 22.891L130.506 22.5495C129.554 22.3015 128.799 21.9246 128.248 21.4189C127.695 20.9132 127.421 20.2431 127.421 19.4024C127.421 18.7131 127.605 18.1075 127.978 17.5888C128.347 17.0702 128.854 16.6676 129.494 16.3809C130.137 16.091 130.862 15.9492 131.671 15.9492C132.492 15.9492 133.212 16.091 133.833 16.3809C134.453 16.6676 134.941 17.067 135.294 17.5759C135.647 18.0849 135.832 18.6679 135.842 19.3283H133.823Z" fill="#0D0C10"/>
</g>
<defs>
<clipPath id="clip0_6_8904">
<rect width="136" height="28" fill="white"/>
</clipPath>
</defs>
</svg>
