<svg width="128" height="32" viewBox="0 0 128 32" fill="none" xmlns="http://www.w3.org/2000/svg">
<g clip-path="url(#clip0_6_9014)">
<path d="M60.32 32C60.6656 32 60.96 31.7134 60.96 31.36V16.48C60.96 16.48 61.76 17.92 63.2 20.32L69.44 31.04C69.7256 31.6384 70.359 32 70.88 32H75.2V8H70.88C70.5923 8 70.24 8.23906 70.24 8.64V23.68L67.36 18.56L61.6 8.8C61.3197 8.30259 60.7166 8 60.16 8H56V32H60.32Z" fill="#0D0C10"/>
<path d="M116.16 14.7201H118.24C118.77 14.7201 119.2 14.2903 119.2 13.7601V9.6001H123.68V14.7201H128V18.5601H123.68V25.4401C123.68 27.1201 124.489 27.8401 125.92 27.8401H128V32.0001H125.28C121.592 32.0001 119.2 29.6115 119.2 25.6001V18.5601H116.16V14.7201Z" fill="#0D0C10"/>
<path d="M94.5597 14.7201V24.6401C94.5597 26.8807 93.7184 28.7695 92.4797 30.0801C91.241 31.3907 89.5302 32.0001 87.1997 32.0001C84.8691 32.0001 82.9984 31.3907 81.7597 30.0801C80.5419 28.7695 79.6797 26.8807 79.6797 24.6401V14.7201H82.2397C82.7856 14.7201 83.3227 14.8196 83.6797 15.2001C84.0366 15.5594 84.1597 15.7705 84.1597 16.3201V24.6401C84.1597 25.9295 84.2328 26.726 84.7997 27.3601C85.3666 27.9731 86.0659 28.1601 87.1997 28.1601C88.3544 28.1601 88.8728 27.9731 89.4397 27.3601C90.0066 26.726 90.0797 25.9295 90.0797 24.6401V16.3201C90.0797 15.7705 90.2027 15.4206 90.5597 15.0401C90.8733 14.7058 91.2042 14.7137 91.6797 14.7201C91.7454 14.721 91.9334 14.7201 91.9997 14.7201H94.5597Z" fill="#0D0C10"/>
<path d="M108.159 23.0402L113.599 14.7202H109.439C108.915 14.7202 108.449 14.9083 108.159 15.3602L105.599 19.2002L103.199 15.5202C102.909 15.0683 102.284 14.7202 101.759 14.7202H97.7593L103.199 22.8802L97.2793 32.0002H101.439C101.959 32.0002 102.428 31.4861 102.719 31.0402L105.599 26.7202L108.639 31.2002C108.93 31.6461 109.399 32.0002 109.919 32.0002H114.079L108.159 23.0402Z" fill="#0D0C10"/>
<path d="M26.88 32H44.64C45.2067 32 45.7491 31.801 46.24 31.52C46.7309 31.239 47.2368 30.8866 47.52 30.4C47.8032 29.9134 48.0003 29.3616 48 28.7998C47.9997 28.2381 47.8037 27.6864 47.52 27.2002L35.52 6.56C35.2368 6.0736 34.8907 5.72083 34.4 5.44C33.9093 5.15917 33.2067 4.96 32.64 4.96C32.0733 4.96 31.5307 5.15917 31.04 5.44C30.5493 5.72083 30.2032 6.0736 29.92 6.56L26.88 11.84L20.8 1.59962C20.5165 1.11325 20.1709 0.600786 19.68 0.32C19.1891 0.0392139 18.6467 0 18.08 0C17.5133 0 16.9709 0.0392139 16.48 0.32C15.9892 0.600786 15.4835 1.11325 15.2 1.59962L0.320001 27.2002C0.0363176 27.6864 0.000247811 28.2381 1.21729e-06 28.7998C-0.000245376 29.3616 0.0367446 29.9134 0.320001 30.4C0.603257 30.8864 1.10919 31.239 1.6 31.52C2.0908 31.801 2.63325 32 3.2 32H14.4C18.8379 32 22.068 30.0093 24.32 26.24L29.76 16.8L32.64 11.84L41.44 26.88H29.76L26.88 32ZM14.24 26.88H6.4L18.08 6.72L24 16.8L20.0786 23.636C18.583 26.0816 16.8781 26.88 14.24 26.88Z" fill="#0D0C10"/>
</g>
<defs>
<clipPath id="clip0_6_9014">
<rect width="128" height="32" fill="white"/>
</clipPath>
</defs>
</svg>
