<svg width="122" height="32" viewBox="0 0 122 32" fill="none" xmlns="http://www.w3.org/2000/svg">
<g clip-path="url(#clip0_6_8964)">
<path d="M38.1982 15.3839C38.1982 20.6159 41.6405 24.2639 46.4105 24.2639C51.1805 24.2639 54.6227 20.6159 54.6227 15.3839C54.6227 10.1519 51.1805 6.50391 46.4105 6.50391C41.6405 6.50391 38.1982 10.1519 38.1982 15.3839ZM51.4755 15.3839C51.4755 19.1279 49.3856 21.5519 46.4105 21.5519C43.4354 21.5519 41.3455 19.1279 41.3455 15.3839C41.3455 11.6399 43.4354 9.21591 46.4105 9.21591C49.3856 9.21591 51.4755 11.6399 51.4755 15.3839Z" fill="#0D0C10"/>
<path d="M63.4865 24.2639C67.1009 24.2639 69.1662 21.2879 69.1662 17.7119C69.1662 14.1359 67.1009 11.1599 63.4865 11.1599C61.8145 11.1599 60.5851 11.8079 59.7738 12.7439V11.3999H56.8232V28.3199H59.7738V22.6799C60.5851 23.6159 61.8145 24.2639 63.4865 24.2639ZM59.7 17.3519C59.7 14.9759 61.0769 13.6799 62.8964 13.6799C65.0355 13.6799 66.1911 15.3119 66.1911 17.7119C66.1911 20.1119 65.0355 21.7439 62.8964 21.7439C61.0769 21.7439 59.7 20.4239 59.7 18.0959V17.3519Z" fill="#0D0C10"/>
<path d="M77.1517 24.2642C79.7334 24.2642 81.7741 22.9442 82.6839 20.7362L80.1513 19.8002C79.7579 21.0962 78.6023 21.8162 77.1517 21.8162C75.2584 21.8162 73.9307 20.4962 73.7094 18.3362H82.7576V17.3762C82.7576 13.9202 80.766 11.1602 77.0287 11.1602C73.2914 11.1602 70.8818 14.0162 70.8818 17.7122C70.8818 21.6002 73.4635 24.2642 77.1517 24.2642ZM77.0041 13.5842C78.8728 13.5842 79.7579 14.7842 79.7825 16.1762H73.8569C74.2995 14.4722 75.4797 13.5842 77.0041 13.5842Z" fill="#0D0C10"/>
<path d="M84.9697 24.0002H87.9202V16.6082C87.9202 14.8082 89.2726 13.8482 90.6003 13.8482C92.2231 13.8482 92.8623 14.9762 92.8623 16.5362V24.0002H95.8128V15.6962C95.8128 12.9842 94.1901 11.1602 91.4854 11.1602C89.8135 11.1602 88.6579 11.9042 87.9202 12.7442V11.4002H84.9697V24.0002Z" fill="#0D0C10"/>
<path d="M104.454 6.76758L97.7666 23.9996H100.889L102.389 20.0636H110.011L111.536 23.9996H114.707L108.02 6.76758H104.454ZM106.176 10.1756L108.979 17.3756H103.422L106.176 10.1756Z" fill="#0D0C10"/>
<path d="M119.773 6.81836H116.626V24.0504H119.773V6.81836Z" fill="#0D0C10"/>
<path d="M30.9895 13.0971C31.7333 10.9181 31.4771 8.53115 30.2877 6.54915C28.499 3.50915 24.903 1.94515 21.3911 2.68115C19.8288 0.963148 17.5841 -0.0138516 15.2309 0.000148423C11.6411 -0.00785158 8.456 2.24815 7.35161 5.58215C5.0455 6.04315 3.05493 7.45215 1.8901 9.44915C0.0880318 12.4811 0.498849 16.3032 2.90638 18.9031C2.16261 21.0821 2.41873 23.4692 3.60815 25.4511C5.3969 28.4911 8.99283 30.0552 12.5048 29.3192C14.0661 31.0372 16.3117 32.0142 18.665 31.9992C22.2568 32.0082 25.4429 29.7502 26.5473 26.4132C28.8534 25.9522 30.844 24.5431 32.0088 22.5462C33.8089 19.5142 33.397 15.6951 30.9905 13.0951L30.9895 13.0971ZM18.667 29.9082C17.2297 29.9102 15.8374 29.4192 14.734 28.5202C14.7842 28.4942 14.8713 28.4472 14.9277 28.4132L21.4557 24.7332C21.7896 24.5482 21.9945 24.2011 21.9925 23.8261V14.8431L24.7514 16.3981C24.7811 16.4121 24.8006 16.4401 24.8047 16.4721V23.9111C24.8006 27.2192 22.056 29.9012 18.667 29.9082ZM5.46759 24.4052C4.74738 23.1912 4.48818 21.7682 4.73508 20.3871C4.78323 20.4151 4.86827 20.4662 4.92871 20.5002L11.4567 24.1802C11.7876 24.3692 12.1974 24.3692 12.5293 24.1802L20.4988 19.6882V22.7981C20.5008 22.8301 20.4855 22.8612 20.4599 22.8811L13.8612 26.6002C10.9219 28.2522 7.16823 27.2702 5.46861 24.4052H5.46759ZM3.74953 10.4962C4.46667 9.28015 5.59872 8.35015 6.94694 7.86715C6.94694 7.92215 6.94387 8.01915 6.94387 8.08715V15.4481C6.94182 15.8221 7.14671 16.1691 7.47967 16.3541L15.4491 20.8451L12.6902 22.4002C12.6625 22.4181 12.6277 22.4212 12.597 22.4081L5.99724 18.6861C3.06415 17.0281 2.05811 13.3652 3.74851 10.4971L3.74953 10.4962ZM26.4172 15.6451L18.4478 11.1531L21.2067 9.59915C21.2344 9.58115 21.2692 9.57815 21.2999 9.59115L27.8996 13.3102C30.8379 14.9671 31.8449 18.6361 30.1474 21.5041C29.4292 22.7181 28.2982 23.6482 26.951 24.1322V16.5511C26.9541 16.1771 26.7502 15.8311 26.4182 15.6451H26.4172ZM29.1628 11.6111C29.1147 11.5821 29.0297 11.5322 28.9692 11.4981L22.4412 7.81815C22.1103 7.62915 21.7005 7.62915 21.3686 7.81815L13.3991 12.3102V9.20015C13.3971 9.16815 13.4124 9.13715 13.4381 9.11715L20.0367 5.40115C22.976 3.74615 26.7338 4.73115 28.4283 7.60115C29.1444 8.81315 29.4036 10.2322 29.1608 11.6111H29.1628ZM11.8993 17.1541L9.13933 15.5991C9.10962 15.5851 9.09016 15.5571 9.08606 15.5251V8.08615C9.08811 4.77415 11.8409 2.09015 15.234 2.09215C16.6693 2.09215 18.0585 2.58415 19.1618 3.48015C19.1116 3.50615 19.0256 3.55315 18.9682 3.58715L12.4402 7.26715C12.1062 7.45215 11.9013 7.79815 11.9034 8.17315L11.8993 17.1521V17.1541ZM13.3981 14.0001L16.9479 11.9991L20.4978 13.9992V18.0001L16.9479 20.0002L13.3981 18.0001V14.0001Z" fill="#0D0C10"/>
</g>
<defs>
<clipPath id="clip0_6_8964">
<rect width="120.889" height="32" fill="white" transform="translate(0.555664)"/>
</clipPath>
</defs>
</svg>
