<svg width="18" height="23" viewBox="0 0 18 23" fill="none" xmlns="http://www.w3.org/2000/svg">
<path d="M17.2713 10.6777C17.2428 10.5582 17.1849 10.4475 17.1027 10.3555C17.0206 10.2635 16.9168 10.193 16.8005 10.1502L11.3761 8.13626L12.7564 1.30221C12.7877 1.14343 12.7659 0.978885 12.6944 0.83342C12.6229 0.687954 12.5055 0.569457 12.36 0.495808C12.2145 0.42216 12.0487 0.397358 11.8877 0.425143C11.7267 0.452929 11.5792 0.531795 11.4674 0.649841L0.921728 11.8333C0.836077 11.9227 0.774116 12.0316 0.741381 12.1504C0.708646 12.2692 0.706156 12.3942 0.734134 12.5142C0.762112 12.6342 0.819686 12.7455 0.901712 12.8381C0.983739 12.9307 1.08766 13.0017 1.2042 13.0449L6.63052 15.0588L5.25393 21.8854C5.22267 22.0442 5.24444 22.2088 5.31595 22.3542C5.38747 22.4997 5.50484 22.6182 5.65036 22.6918C5.79588 22.7655 5.96166 22.7903 6.12267 22.7625C6.28368 22.7347 6.4312 22.6558 6.54295 22.5378L17.0886 11.3543C17.1727 11.265 17.2334 11.1565 17.2652 11.0386C17.2971 10.9206 17.2992 10.7967 17.2713 10.6777Z" fill="#9585FF"/>
</svg>
