<svg width="135" height="35" viewBox="0 0 135 35" fill="none" xmlns="http://www.w3.org/2000/svg">
<path fill-rule="evenodd" clip-rule="evenodd" d="M33.7428 18.2176L31.23 15.7431C31.0305 15.5466 30.9185 15.2801 30.9187 15.0026V11.9736C30.9187 9.17436 30.6224 8.15942 30.0669 7.13612C29.5239 6.1255 28.6843 5.29868 27.6572 4.76298C26.619 4.21505 25.5883 3.92387 22.7471 3.92387H18.6822C18.6402 3.92365 18.5992 3.91123 18.5644 3.88815C18.5295 3.86508 18.5024 3.83239 18.4864 3.79421C18.4704 3.75602 18.4663 3.71403 18.4745 3.67354C18.4828 3.63305 18.5029 3.59586 18.5327 3.56664L21.0454 1.09117C21.2442 0.894883 21.5149 0.78418 21.7969 0.78418H23.2099C26.9985 0.78418 28.3727 1.17304 29.7583 1.90237C31.1276 2.61689 32.2468 3.71954 32.9705 5.06718C33.7116 6.4319 34.1063 7.78545 34.1063 11.5168V18.0706C34.1063 18.112 34.0937 18.1524 34.0703 18.1868C34.0469 18.2212 34.0137 18.248 33.9748 18.2638C33.9359 18.2796 33.8931 18.2838 33.8519 18.2757C33.8105 18.2676 33.7726 18.2468 33.7428 18.2176ZM16.4079 33.9179L18.9207 31.4424C19.1194 31.2461 19.3901 31.1354 19.6722 31.1354H22.7471C25.5883 31.1354 26.6181 30.8443 27.6572 30.2963C28.6843 29.7607 29.5239 28.9338 30.0669 27.9232C30.6224 26.8999 30.9187 25.8849 30.9187 23.0857V19.0818C30.9188 19.0406 30.9314 19.0004 30.9548 18.9663C30.9782 18.932 31.0112 18.9054 31.0499 18.8896C31.0886 18.8738 31.1312 18.8696 31.1723 18.8774C31.2135 18.8853 31.2513 18.905 31.2811 18.9339L33.7949 21.4094C33.9936 21.6057 34.1063 21.8727 34.1063 22.1499V23.5425C34.1063 27.2739 33.7116 28.6274 32.9705 29.9921C32.2468 31.3397 31.1276 32.4424 29.7583 33.1569C28.3727 33.8853 26.9985 34.2742 23.2099 34.2742H16.5574C16.5154 34.274 16.4744 34.2615 16.4396 34.2385C16.4048 34.2154 16.3776 34.1827 16.3616 34.1445C16.3456 34.1064 16.3416 34.0643 16.3498 34.0239C16.358 33.9834 16.3782 33.9471 16.4079 33.9179ZM0.470883 16.8399L2.98556 19.3153C3.18431 19.5116 3.29694 19.7786 3.29694 20.0558V23.0848C3.29694 25.884 3.59223 26.8989 4.14873 27.9223C4.69147 28.9327 5.53066 29.7596 6.55741 30.2954C7.5966 30.8433 8.62726 31.1345 11.4685 31.1345H15.5325C15.5747 31.1343 15.6159 31.1465 15.651 31.1695C15.6862 31.1924 15.7136 31.225 15.7298 31.2633C15.746 31.3016 15.7503 31.3437 15.7421 31.3844C15.734 31.425 15.7137 31.4624 15.6839 31.4917L13.1692 33.9672C12.9705 34.1635 12.6998 34.2742 12.4187 34.2742H11.0047C7.21613 34.2742 5.84285 33.8853 4.45727 33.156C3.08759 32.4416 1.96807 31.339 1.24412 29.9912C0.503062 28.6265 0.108398 27.2729 0.108398 23.5416V16.9878C0.10862 16.9466 0.121195 16.9064 0.144549 16.8722C0.167904 16.838 0.201001 16.8114 0.239696 16.7956C0.278391 16.7798 0.320965 16.7756 0.362088 16.7834C0.40321 16.7913 0.441055 16.8109 0.470883 16.8399ZM15.294 3.61688C15.0943 3.81317 14.8245 3.92387 14.5425 3.92387H11.4675C8.62632 3.92387 7.59565 4.21505 6.55646 4.76298C5.52936 5.29868 4.68983 6.1255 4.14684 7.13612C3.59128 8.15942 3.29505 9.17436 3.29505 11.9736V15.9775C3.29483 16.0187 3.28225 16.0589 3.25889 16.093C3.23554 16.1273 3.20245 16.1539 3.16375 16.1697C3.12506 16.1855 3.08248 16.1897 3.04135 16.1819C3.00023 16.174 2.96239 16.1543 2.93256 16.1254L0.420722 13.6499C0.220844 13.4535 0.1085 13.1872 0.108398 12.9094V11.5168C0.108398 7.78545 0.503062 6.4319 1.24412 5.06718C1.96782 3.71954 3.08699 2.61689 4.45632 1.90237C5.84191 1.17304 7.21613 0.78418 11.0038 0.78418H17.6572C17.6992 0.784399 17.7402 0.796827 17.775 0.819899C17.8099 0.842972 17.837 0.875658 17.853 0.913845C17.869 0.952031 17.8731 0.994011 17.8649 1.0345C17.8566 1.075 17.8365 1.11219 17.8067 1.14141L15.294 3.61688ZM28.4343 13.0043L25.0082 9.77811C24.781 9.55484 24.516 9.39297 24.233 9.29157C23.9929 9.20217 23.7383 9.15647 23.4816 9.15668H13.368C13.3258 9.15665 13.2848 9.14435 13.2498 9.12135C13.2147 9.09834 13.1875 9.06567 13.1714 9.02745C13.1553 8.98922 13.151 8.94717 13.1593 8.90659C13.1675 8.86601 13.1878 8.82873 13.2175 8.79946L15.734 6.32306C15.9328 6.1277 16.2025 6.01699 16.4846 6.01699H24.5444C26.8916 6.01699 28.7939 7.8915 28.7939 10.2032V12.8536C28.7937 12.8944 28.7813 12.9344 28.7583 12.9684C28.7353 13.0025 28.7027 13.0292 28.6644 13.0452C28.6262 13.0612 28.5841 13.0658 28.5432 13.0585C28.5022 13.0513 28.4644 13.0325 28.4343 13.0043ZM21.7004 28.6897L24.975 25.3138C25.2022 25.0905 25.3669 24.83 25.47 24.5509C25.5605 24.3145 25.6067 24.0639 25.6063 23.8114V13.8481C25.6063 13.8067 25.6189 13.7663 25.6423 13.7319C25.6657 13.6975 25.6989 13.6707 25.7378 13.6549C25.7767 13.639 25.8195 13.6349 25.8607 13.6429C25.9021 13.651 25.9399 13.671 25.9697 13.7002L28.4835 16.1784C28.6822 16.3747 28.7939 16.6408 28.7939 16.9189V24.8579C28.7939 27.1697 26.8916 29.0442 24.5444 29.0442H21.8537C21.8122 29.044 21.7715 29.0318 21.7369 29.0092C21.7023 28.9866 21.6751 28.9545 21.6588 28.9169C21.6425 28.8793 21.6378 28.8379 21.6452 28.7977C21.6526 28.7575 21.6717 28.7193 21.7004 28.6897ZM5.77944 22.0541L9.20743 25.2803C9.43363 25.5035 9.69958 25.6654 9.98161 25.7668C10.2144 25.8542 10.4681 25.9017 10.7331 25.9017H20.8467C20.8887 25.9019 20.9297 25.9143 20.9645 25.9374C20.9994 25.9605 21.0265 25.9931 21.0425 26.0314C21.0585 26.0695 21.0626 26.1116 21.0543 26.152C21.0461 26.1925 21.0259 26.2297 20.9962 26.2589L18.4806 28.7353C18.2819 28.9307 18.0112 29.0414 17.7301 29.0414H9.67024C9.11156 29.0407 8.55849 28.932 8.04257 28.7213C7.52666 28.5106 7.05803 28.2021 6.66343 27.8133C6.26882 27.4246 5.95599 26.9633 5.74277 26.4557C5.52954 25.9481 5.42012 25.4043 5.42074 24.8551V22.2048C5.42094 22.1639 5.43331 22.124 5.45631 22.09C5.47931 22.0559 5.51194 22.0292 5.55018 22.0132C5.58841 21.9972 5.63058 21.9926 5.6715 21.9998C5.7124 22.0071 5.74931 22.0259 5.77944 22.0541ZM12.5143 6.3705L9.23866 9.74741C9.01152 9.97068 8.84778 10.2312 8.74462 10.5102C8.65384 10.7466 8.60735 10.9971 8.60739 11.2498V21.2131C8.60698 21.2542 8.59427 21.2943 8.57085 21.3284C8.54742 21.3624 8.51432 21.3889 8.47566 21.4045C8.437 21.4203 8.39451 21.4244 8.35347 21.4164C8.31243 21.4085 8.27468 21.3889 8.2449 21.3601L5.73117 18.8818C5.53222 18.6853 5.42059 18.4195 5.42074 18.1422V10.2032C5.42074 7.8915 7.32308 6.01699 9.67024 6.01699H12.361C12.4025 6.01719 12.4431 6.02935 12.4777 6.05195C12.5124 6.07456 12.5395 6.10664 12.5558 6.14422C12.5721 6.1818 12.5768 6.22326 12.5695 6.26347C12.5621 6.30368 12.543 6.34088 12.5143 6.3705Z" fill="#0D0C10"/>
<path d="M64.398 10.4568H63.4705C62.7853 10.4568 62.2307 11.0029 62.2307 11.6755V22.556C62.2307 22.8792 62.3613 23.1892 62.5938 23.4178C62.8264 23.6463 63.1417 23.7747 63.4705 23.7747H64.2314C64.5602 23.7747 64.8756 23.6463 65.1081 23.4178C65.3406 23.1892 65.4713 22.8792 65.4713 22.556V16.6441C65.4713 16.459 65.511 16.1818 65.5924 15.8115C65.6849 15.416 65.8497 15.0402 66.0789 14.7026C66.3221 14.3315 66.6732 14.004 67.1323 13.7165C67.5913 13.43 68.1979 13.2867 68.9551 13.2867C69.2132 13.2874 69.4707 13.3108 69.7245 13.3565C69.822 13.3738 69.9223 13.3698 70.018 13.3449C70.1137 13.32 70.2028 13.2747 70.2788 13.2122C70.3548 13.1498 70.4159 13.0717 70.4578 12.9834C70.4998 12.8952 70.5215 12.799 70.5214 12.7016V10.8745C70.5213 10.7105 70.4633 10.5515 70.3574 10.4248C70.2514 10.2981 70.1041 10.2114 69.9403 10.1796C69.752 10.1424 69.558 10.1238 69.3602 10.1238C68.4961 10.1238 67.7304 10.3368 67.0641 10.762C66.3978 11.1871 65.8849 11.7881 65.5252 12.5658C65.4949 12.5658 65.4713 12.5416 65.4713 12.5128V11.5108C65.4713 10.9285 64.9905 10.4568 64.398 10.4568Z" fill="#0D0C10"/>
<path d="M75.1959 10.4568H74.4349C73.7497 10.4568 73.1951 11.0029 73.1951 11.6755V22.556C73.1951 22.8792 73.3257 23.1892 73.5583 23.4178C73.7908 23.6463 74.1062 23.7747 74.4349 23.7747H75.1959C75.5247 23.7747 75.84 23.6463 76.0726 23.4178C76.3051 23.1892 76.4357 22.8792 76.4357 22.556V11.6755C76.4357 11.0029 75.8802 10.4568 75.1959 10.4568Z" fill="#0D0C10"/>
<path d="M73.3163 4.53283C72.9292 4.93099 72.7361 5.39799 72.7361 5.93383C72.7334 6.19364 72.7834 6.45135 72.8831 6.69203C72.9827 6.9327 73.1299 7.15151 73.3163 7.33576C73.7034 7.73299 74.1946 7.93207 74.788 7.93207C75.3823 7.93207 75.8821 7.74229 76.2871 7.36274C76.6922 6.98411 76.8947 6.50781 76.8947 5.93383C76.8947 5.36078 76.6922 4.88448 76.2871 4.50492C75.8821 4.1263 75.3823 3.93652 74.788 3.93652C74.1946 3.93652 73.7043 4.1356 73.3163 4.53283Z" fill="#0D0C10"/>
<path d="M84.9432 12.7872C85.4552 12.7872 86.0411 13.0253 86.6989 13.4998C86.9324 13.6687 87.2188 13.7518 87.5083 13.7347C87.7978 13.7175 88.0719 13.6011 88.2832 13.4058L88.6864 13.0328C88.8156 12.9135 88.9173 12.7683 88.9846 12.6071C89.0519 12.4459 89.0832 12.2724 89.0765 12.0982C89.0698 11.9241 89.0251 11.7535 88.9456 11.5977C88.866 11.4419 88.7535 11.3048 88.6154 11.1955C88.2378 10.8969 87.8961 10.6922 87.5895 10.5815C86.7433 10.2764 85.8878 10.1238 85.0237 10.1238C84.3764 10.1237 83.7321 10.2075 83.1071 10.3731C82.5042 10.527 81.9358 10.7908 81.4319 11.1508C80.9419 11.5063 80.54 11.9662 80.2565 12.496C79.9602 13.0421 79.8117 13.6849 79.8117 14.4245C79.8117 15.2748 79.983 15.9408 80.3246 16.4218C80.6573 16.8946 81.1024 17.2803 81.6212 17.5456C82.1529 17.8173 82.7211 18.0137 83.3087 18.1288C83.8753 18.2405 84.438 18.3699 84.9962 18.5168C85.5187 18.6554 85.9512 18.8359 86.2928 19.0582C86.6354 19.2796 86.8068 19.6219 86.8068 20.0852C86.8068 20.3438 86.7386 20.5699 86.6042 20.7643C86.4689 20.9588 86.2928 21.1197 86.077 21.2499C85.8613 21.3792 85.6275 21.4713 85.3748 21.5272C85.123 21.583 84.8798 21.6109 84.6451 21.6109C83.9618 21.6109 83.3807 21.4583 82.9037 21.1523C82.7598 21.0602 82.5894 20.929 82.3926 20.7587C82.1576 20.5554 81.8529 20.4469 81.5399 20.4552C81.2268 20.4635 80.9286 20.5879 80.7051 20.8034L80.3691 21.1271C80.2421 21.2493 80.1433 21.3968 80.0794 21.5597C80.0154 21.7227 79.9879 21.8972 79.9986 22.0716C80.0093 22.2458 80.0579 22.4158 80.1413 22.5701C80.2246 22.7243 80.3407 22.8591 80.4817 22.9654C80.9455 23.3151 81.343 23.5477 81.6742 23.664C82.5213 23.9589 83.4488 24.1077 84.4568 24.1077C85.1294 24.1069 85.7998 24.0324 86.4556 23.8854C87.0921 23.7494 87.6997 23.5054 88.251 23.1644C88.7825 22.8312 89.2267 22.3797 89.5476 21.8462C89.8808 21.3002 90.0473 20.6304 90.0473 19.835C90.0473 18.9652 89.876 18.2814 89.5344 17.7819C89.1918 17.2814 88.7602 16.8888 88.2378 16.6023C87.7153 16.3157 87.1531 16.1036 86.5493 15.9641C85.9464 15.8255 85.3843 15.6915 84.8618 15.5622C84.3394 15.4329 83.9078 15.2748 83.5652 15.0906C83.2226 14.9054 83.0522 14.6096 83.0522 14.2021C83.0522 13.7026 83.2595 13.3426 83.6731 13.1202C84.0876 12.8988 84.5107 12.7872 84.9432 12.7872Z" fill="#0D0C10"/>
<path d="M94.6678 10.4568H94.0688C93.3845 10.4568 92.8289 11.0029 92.8289 11.6755V22.556C92.8289 22.8792 92.9595 23.1892 93.1921 23.4178C93.4246 23.6463 93.74 23.7747 94.0688 23.7747H94.8297C94.9926 23.7748 95.1539 23.7434 95.3044 23.6822C95.455 23.621 95.5918 23.5313 95.707 23.4181C95.8222 23.3049 95.9136 23.1705 95.976 23.0226C96.0384 22.8747 96.0705 22.7161 96.0705 22.556V16.5055C96.0684 16.0751 96.1224 15.6461 96.2314 15.2292C96.3321 14.8376 96.5113 14.4698 96.7585 14.1473C97.0017 13.8328 97.3075 13.5835 97.6766 13.3975C98.0457 13.2133 98.5009 13.1202 99.0404 13.1202C99.8335 13.1202 100.399 13.3658 100.742 13.8551C101.085 14.3454 101.255 15.0068 101.255 15.8394V22.556C101.255 22.8792 101.386 23.1892 101.618 23.4178C101.85 23.6463 102.166 23.7747 102.495 23.7747H103.256C103.419 23.7747 103.579 23.7432 103.73 23.682C103.88 23.6207 104.018 23.531 104.132 23.4178C104.248 23.3046 104.339 23.1703 104.401 23.0224C104.463 22.8746 104.496 22.716 104.496 22.556V16.5604C104.496 16.1354 104.546 15.7118 104.644 15.298C104.735 14.9015 104.9 14.5251 105.131 14.1882C105.353 13.8667 105.649 13.6007 105.995 13.4114C106.346 13.217 106.774 13.1202 107.277 13.1202C107.764 13.1202 108.159 13.203 108.466 13.3705C108.765 13.5305 109.016 13.7646 109.195 14.0496C109.383 14.3567 109.511 14.6955 109.573 15.0487C109.645 15.4273 109.681 15.8208 109.681 16.2274V22.5551C109.681 22.8783 109.812 23.1883 110.045 23.4168C110.276 23.6454 110.593 23.7738 110.921 23.7738H111.682C112.01 23.7738 112.326 23.6454 112.558 23.4168C112.791 23.1883 112.922 22.8783 112.922 22.5551V15.8385C112.922 15.044 112.841 14.2998 112.679 13.6058C112.517 12.9118 112.252 12.3062 111.883 11.7881C111.512 11.2691 111.016 10.8495 110.437 10.5675C109.843 10.2717 109.114 10.1238 108.25 10.1238C107.277 10.1238 106.441 10.3229 105.738 10.7201C105.036 11.1183 104.451 11.7425 103.983 12.5928C103.316 10.9471 101.967 10.1238 99.9319 10.1238C98.8511 10.1238 97.9917 10.3685 97.3529 10.8587C96.7551 11.311 96.2624 11.8835 95.9077 12.5379V11.6755C95.9077 11.0029 95.3521 10.4568 94.6678 10.4568Z" fill="#0D0C10"/>
<path d="M118.919 10.4568H118.159C117.474 10.4568 116.919 11.0029 116.919 11.6755V22.556C116.919 22.8792 117.05 23.1892 117.283 23.4178C117.515 23.6463 117.831 23.7747 118.159 23.7747H118.919C119.248 23.7747 119.564 23.6463 119.796 23.4178C120.029 23.1892 120.159 22.8792 120.159 22.556V11.6755C120.159 11.0029 119.605 10.4568 118.919 10.4568Z" fill="#0D0C10"/>
<path d="M117.041 4.53283C116.654 4.93099 116.46 5.39799 116.46 5.93383C116.457 6.1937 116.507 6.45147 116.607 6.69214C116.707 6.93281 116.854 7.15158 117.041 7.33576C117.428 7.73299 117.918 7.93207 118.512 7.93207C119.107 7.93207 119.606 7.74229 120.011 7.36274C120.417 6.98411 120.619 6.50781 120.619 5.93383C120.619 5.36078 120.417 4.88448 120.011 4.50492C119.606 4.1263 119.107 3.93652 118.512 3.93652C117.918 3.93652 117.428 4.1356 117.041 4.53283Z" fill="#0D0C10"/>
<path d="M131.962 13.4812C132.084 13.5544 132.202 13.6352 132.313 13.7231C132.556 13.9094 132.859 14.0006 133.166 13.9789C133.473 13.9573 133.76 13.8243 133.973 13.6058L134.475 13.0914C134.596 12.9666 134.69 12.8179 134.748 12.655C134.807 12.4921 134.83 12.3189 134.815 12.1467C134.8 11.9746 134.748 11.8074 134.663 11.6564C134.578 11.5055 134.461 11.374 134.32 11.2708C133.886 10.9536 133.51 10.7331 133.191 10.6094C132.353 10.2857 131.521 10.1238 130.692 10.1238C129.75 10.1184 128.816 10.2879 127.938 10.6234C127.1 10.9395 126.337 11.421 125.696 12.0383C125.052 12.6685 124.543 13.4183 124.198 14.244C123.828 15.1045 123.644 16.0618 123.644 17.1158C123.644 18.1698 123.828 19.127 124.198 19.9875C124.543 20.8133 125.052 21.5631 125.696 22.1932C126.337 22.8106 127.1 23.2921 127.938 23.6082C128.816 23.9436 129.75 24.1131 130.692 24.1077C130.981 24.1077 131.322 24.0752 131.719 24.011C132.609 23.8609 133.464 23.5553 134.244 23.1086C134.395 23.0223 134.526 22.9039 134.625 22.762C134.725 22.62 134.791 22.4582 134.818 22.288C134.846 22.1179 134.836 21.9438 134.786 21.7784C134.737 21.613 134.651 21.4605 134.535 21.3318L134.042 20.7885C133.837 20.5613 133.553 20.4177 133.245 20.3859C132.938 20.3541 132.629 20.4363 132.38 20.6164C132.279 20.6899 132.185 20.7485 132.097 20.7922C131.665 21.0043 131.196 21.1113 130.692 21.1113C130.099 21.1113 129.567 20.9997 129.099 20.7783C128.642 20.5642 128.234 20.2622 127.898 19.8899C127.564 19.5205 127.311 19.0945 127.141 18.6135C126.97 18.1326 126.885 17.6339 126.885 17.1148C126.884 16.605 126.97 16.0985 127.141 15.6171C127.306 15.147 127.562 14.7134 127.897 14.3408C128.233 13.9687 128.642 13.667 129.099 13.4533C129.567 13.2319 130.099 13.1202 130.692 13.1202C131.141 13.1247 131.58 13.2495 131.962 13.4812Z" fill="#0D0C10"/>
<path fill-rule="evenodd" clip-rule="evenodd" d="M46.8729 10.4568H46.0514C45.3661 10.4568 44.8115 11.0029 44.8115 11.6755V28.8819C44.8115 29.0419 44.8436 29.2005 44.9059 29.3483C44.9682 29.4962 45.0595 29.6305 45.1747 29.7437C45.2898 29.8569 45.4264 29.9465 45.5769 30.0078C45.7273 30.0691 45.8886 30.1006 46.0514 30.1006H46.8113C47.1401 30.1006 47.4555 29.9722 47.688 29.7437C47.9206 29.5151 48.0512 29.2051 48.0512 28.8819V22.1616C48.0515 22.1406 48.0601 22.1204 48.0753 22.1056C48.0905 22.0908 48.1112 22.0825 48.1326 22.0825C48.3166 22.3287 48.525 22.5564 48.7544 22.7626C49.0341 23.0133 49.3422 23.2318 49.6724 23.4138C50.0638 23.63 50.4809 23.7978 50.9141 23.9133C51.3826 24.0426 51.9221 24.1077 52.5344 24.1077C53.4115 24.1166 54.2793 23.9316 55.0737 23.5663C55.8347 23.2155 56.5113 22.7097 57.0584 22.0825C57.6226 21.4274 58.0575 20.6747 58.3408 19.8629C58.6524 18.9797 58.8076 18.0505 58.7998 17.1158C58.7998 16.1362 58.656 15.2199 58.3673 14.3687C58.0997 13.5529 57.6685 12.7982 57.0991 12.149C56.5407 11.5211 55.8659 11.0252 55.0737 10.6652C54.2816 10.3043 53.39 10.1238 52.3991 10.1238C51.5127 10.1169 50.636 10.3064 49.8343 10.6783C49.0411 11.0494 48.4118 11.6402 47.9433 12.4541C47.9139 12.4541 47.8893 12.4309 47.8893 12.4011V11.456C47.8893 10.9034 47.4341 10.4568 46.8729 10.4568ZM55.3641 15.7989C55.4945 16.2232 55.5597 16.6624 55.5597 17.1158C55.5597 17.6339 55.4746 18.1326 55.3042 18.6135C55.1319 19.0945 54.8802 19.5205 54.547 19.8899C54.5051 19.9364 54.4619 19.9819 54.4177 20.0262C54.1081 20.3364 53.7451 20.5911 53.3451 20.7783C53.2866 20.806 53.2272 20.8319 53.1668 20.8562C52.7438 21.0259 52.2723 21.1113 51.7522 21.1113C51.7151 21.1113 51.6782 21.1109 51.6415 21.11C51.0917 21.0969 50.5977 20.9858 50.1594 20.7783C49.7022 20.5643 49.2934 20.2622 48.9574 19.8899C48.6233 19.5205 48.3716 19.0945 48.2003 18.6135C48.0299 18.1326 47.9447 17.6339 47.9447 17.1148C47.9431 16.605 48.0295 16.0985 48.2003 15.6171C48.2105 15.5877 48.2212 15.5585 48.2322 15.5294C48.3973 15.0931 48.6427 14.6901 48.9565 14.3408C49.2925 13.9687 49.7013 13.6669 50.1584 13.4533C50.626 13.2319 51.1579 13.1202 51.7522 13.1202C52.3466 13.1202 52.8775 13.2309 53.3451 13.4533C53.3736 13.4666 53.402 13.4803 53.4302 13.4944C53.853 13.7049 54.232 13.992 54.547 14.3408C54.5889 14.3874 54.6296 14.4349 54.669 14.4834C54.9451 14.8227 55.16 15.2064 55.3042 15.618C55.3255 15.678 55.3455 15.7383 55.3641 15.7989Z" fill="#0D0C10"/>
</svg>
