<svg width="132" height="40" viewBox="0 0 132 40" fill="none" xmlns="http://www.w3.org/2000/svg">
<g clip-path="url(#clip0_6_8981)">
<mask id="mask0_6_8981" style="mask-type:luminance" maskUnits="userSpaceOnUse" x="0" y="0" width="150" height="40">
<path d="M149.434 0H0V40H149.434V0Z" fill="white"/>
</mask>
<g mask="url(#mask0_6_8981)">
<mask id="mask1_6_8981" style="mask-type:luminance" maskUnits="userSpaceOnUse" x="0" y="0" width="150" height="40">
<path d="M149.434 0H0V40H149.434V0Z" fill="white"/>
</mask>
<g mask="url(#mask1_6_8981)">
<path fill-rule="evenodd" clip-rule="evenodd" d="M0.292589 25.3483C-0.103148 25.9963 -0.0970238 26.8139 0.308377 27.4557L7.64601 39.0745C8.12223 39.8285 9.04018 40.1724 9.89213 39.9159L31.0668 33.5394C32.2223 33.1914 32.8037 31.8975 32.2987 30.7976L18.6866 1.15802C18.0227 -0.28743 16.0216 -0.406079 15.1928 0.95088L0.292589 25.3483ZM18.325 7.93395C18.0356 7.26197 17.0559 7.36547 16.9123 8.08319L11.6717 34.2759C11.5612 34.8281 12.0763 35.2998 12.6141 35.1386L27.2441 30.7549C27.6711 30.627 27.8911 30.1535 27.7143 29.7429L18.325 7.93395Z" fill="#0D0C10"/>
<path fill-rule="evenodd" clip-rule="evenodd" d="M55.4584 16.9214C55.4584 18.9567 54.8251 20.5128 53.5574 21.5908C52.2906 22.6692 50.4886 23.2077 48.1521 23.2077H46.438V29.9342H42.4434V11.0229H48.4611C50.7467 11.0229 52.484 11.5167 53.6738 12.5037C54.8637 13.4912 55.4584 14.9638 55.4584 16.9214ZM46.4386 19.9227H47.7531C48.9817 19.9227 49.9005 19.6792 50.5107 19.1918C51.1209 18.7046 51.4257 17.9952 51.4257 17.0638C51.4257 16.1243 51.1699 15.4301 50.659 14.9816C50.1476 14.5331 49.3467 14.3087 48.2555 14.3087H46.4386V19.9227Z" fill="#0D0C10"/>
<path d="M67.3745 15.3172C67.0222 15.2396 66.58 15.2007 66.0472 15.2007C65.1534 15.2007 64.3267 15.4487 63.5668 15.9443C62.8059 16.4403 62.2026 17.0939 61.7558 17.9042H61.5629L60.9827 15.4724H58.0059V29.9341H61.9365V22.5741C61.9365 21.4098 62.2864 20.5041 62.9861 19.8573C63.687 19.2106 64.6639 18.8872 65.9184 18.8872C66.3738 18.8872 66.7602 18.9306 67.0782 19.0164L67.3745 15.3172Z" fill="#0D0C10"/>
<path d="M69.4629 29.9343H73.3934V15.4727H69.4629V29.9343Z" fill="#0D0C10"/>
<path d="M69.2949 11.7342C69.2949 10.4493 70.008 9.80713 71.4339 9.80713C72.8595 9.80713 73.5731 10.4493 73.5731 11.7342C73.5731 12.3467 73.3948 12.823 73.0384 13.1638C72.6817 13.5045 72.147 13.6744 71.4339 13.6744C70.008 13.6744 69.2949 13.0276 69.2949 11.7342Z" fill="#0D0C10"/>
<path d="M85.6904 29.0283C86.7174 28.2523 87.2306 27.1228 87.2306 25.6393C87.2306 24.9236 87.1064 24.3069 86.857 23.7894C86.6077 23.2719 86.2209 22.8152 85.6972 22.4183C85.1735 22.0218 84.3485 21.5952 83.2228 21.1381C81.9601 20.6292 81.1419 20.2451 80.7679 19.9866C80.3947 19.7281 80.2073 19.4219 80.2073 19.0681C80.2073 18.4386 80.7875 18.1239 81.9474 18.1239C82.5999 18.1239 83.2401 18.2231 83.8671 18.4213C84.4941 18.6199 85.1689 18.8739 85.8905 19.1844L87.0759 16.3389C85.4351 15.5803 83.7469 15.2007 82.0115 15.2007C80.19 15.2007 78.7835 15.5519 77.7916 16.2549C76.7987 16.9578 76.3027 17.9513 76.3027 19.2361C76.3027 19.9866 76.421 20.6182 76.6576 21.1312C76.8934 21.6446 77.2714 22.0994 77.7916 22.4959C78.3108 22.8928 79.1253 23.3241 80.2332 23.7894C81.0063 24.1174 81.6252 24.4038 82.0888 24.6496C82.5529 24.8957 82.8792 25.1154 83.0685 25.3096C83.2574 25.5036 83.352 25.7557 83.352 26.0663C83.352 26.8939 82.6385 27.3078 81.2125 27.3078C80.5168 27.3078 79.7113 27.1913 78.7967 26.9588C77.8813 26.7259 77.059 26.4372 76.3286 26.0919V29.3517C76.9729 29.6276 77.6646 29.8368 78.4035 29.9788C79.1425 30.1213 80.0353 30.1926 81.0836 30.1926C83.1281 30.1926 84.6638 29.8044 85.6904 29.0283Z" fill="#0D0C10"/>
<path d="M102.8 29.9341H98.8694V21.4874C98.8694 20.4442 98.6951 19.6613 98.3479 19.1397C97.9993 18.6181 97.4519 18.3568 96.7044 18.3568C95.6997 18.3568 94.9693 18.7277 94.5138 19.4696C94.0584 20.2113 93.8309 21.4312 93.8309 23.1303V29.9341H89.9004V15.4724H92.903L93.4314 17.3223H93.6507C94.037 16.6582 94.5957 16.1384 95.3256 15.7634C96.0559 15.3884 96.8937 15.2007 97.8387 15.2007C99.9952 15.2007 101.455 15.9082 102.22 17.3223H102.568C102.955 16.6496 103.524 16.1279 104.276 15.7571C105.027 15.3862 105.875 15.2007 106.821 15.2007C108.453 15.2007 109.688 15.6214 110.525 16.4618C111.363 17.3027 111.782 18.6501 111.782 20.5041V29.9341H107.838V21.4874C107.838 20.4442 107.664 19.6613 107.317 19.1397C106.968 18.6181 106.421 18.3568 105.673 18.3568C104.711 18.3568 103.992 18.7022 103.515 19.3918C103.038 20.0821 102.8 21.1768 102.8 22.6773V29.9341Z" fill="#0D0C10"/>
<path fill-rule="evenodd" clip-rule="evenodd" d="M123.618 27.9679L124.378 29.9342H127.123V20.2972C127.123 18.5726 126.608 17.2877 125.576 16.4427C124.545 15.5977 123.064 15.1748 121.131 15.1748C119.112 15.1748 117.274 15.6106 115.615 16.4816L116.917 19.1462C118.472 18.4474 119.825 18.0984 120.976 18.0984C122.471 18.0984 123.218 18.8316 123.218 20.2972V20.9312L120.718 21.0088C118.562 21.0864 116.95 21.4898 115.879 22.2183C114.81 22.9473 114.275 24.0791 114.275 25.6138C114.275 27.0799 114.673 28.2096 115.467 29.0029C116.262 29.7963 117.35 30.1927 118.734 30.1927C119.859 30.1927 120.772 30.0311 121.472 29.7077C122.172 29.3843 122.853 28.8047 123.515 27.9679H123.618ZM121.698 23.2856L123.219 23.2339V24.4238C123.219 25.2953 122.946 25.9937 122.4 26.5193C121.855 27.0456 121.126 27.3087 120.216 27.3087C118.945 27.3087 118.309 26.7523 118.309 25.6401C118.309 24.8637 118.588 24.2863 119.147 23.9068C119.705 23.5272 120.555 23.3203 121.698 23.2856Z" fill="#0D0C10"/>
</g>
</g>
</g>
<defs>
<clipPath id="clip0_6_8981">
<rect width="132" height="40" fill="white"/>
</clipPath>
</defs>
</svg>
