<svg width="124" height="125" viewBox="0 0 124 125" fill="none" xmlns="http://www.w3.org/2000/svg">
<path d="M22.9754 37.4131H100.981V83.6199L111.669 96.1695V100.55H12.2871V96.1695L22.9754 83.6199V37.4131Z" fill="white"/>
<path d="M111.685 96.1738H12.3027V100.554H111.685V96.1738Z" fill="#0D0C10"/>
<path d="M103.5 86.5608H83.7068L86.6596 91.1207L62.1701 91.129L61.9941 96.1741H89.491H111.685L103.5 86.5608Z" fill="#FF8686"/>
<path d="M36.4022 80.9017L28.6939 77.5814L23.7155 83.2521L23.1719 80.843L28.0721 73.9169L34.9161 76.7875L41.4159 61.6447L47.947 70.9799L49.5465 65.1879L53.1875 68.9111L57.1413 50.2955L61.0874 57.6322L65.972 49.8496L74.0792 61.0072L63.0389 77.8121L58.9403 69.9748L56.324 77.4132L51.4042 72.6381L49.0889 79.6893L42.245 69.3178L36.4022 80.9017Z" fill="#FF8686"/>
<path d="M112.664 101.531H11.3262V95.81L22.0145 83.2599V36.4395H101.975V83.2637L112.664 95.81V101.531ZM13.2816 99.5763H110.708V96.5333L100.02 83.9837V38.3949H23.9699V83.9837L13.2816 96.5333V99.5763Z" fill="#0D0C10"/>
<path d="M101.001 82.6465H22.9922V84.6018H101.001V82.6465Z" fill="#0D0C10"/>
<path d="M111.685 95.1963H12.3027V97.1514H111.685V95.1963Z" fill="#0D0C10"/>
<path d="M103.499 85.584H20.4883V87.5391H103.499V85.584Z" fill="#0D0C10"/>
<path d="M62.971 83.3545H61.0156V96.1744H62.971V83.3545Z" fill="#0D0C10"/>
<path d="M41.9504 83.0557L33.0977 95.6049L34.6955 96.7324L43.5483 84.1828L41.9504 83.0557Z" fill="#0D0C10"/>
<path d="M16.5938 92.114V90.159L84.8886 90.1432L81.1147 84.1441L82.769 83.1035L88.4317 92.0983L16.5938 92.114Z" fill="#0D0C10"/>
<path d="M75.5372 62.9278L63.7266 47.3822L93.7653 24.5625L109.28 25.0357L105.76 39.9673L75.5372 62.9278Z" fill="white"/>
<path d="M75.3492 64.2968L62.3574 47.1947L93.4484 23.5771L110.508 24.0934L106.632 40.5189L75.3492 64.2968ZM65.095 47.5702L75.7247 61.5592L104.892 39.4004L108.056 25.9745L94.0825 25.5521L65.095 47.5702Z" fill="#0D0C10"/>
<path d="M89.557 45.1644C92.3991 45.1644 94.7038 42.8602 94.7038 40.0178C94.7038 37.1753 92.3991 34.8711 89.557 34.8711C86.7141 34.8711 84.4102 37.1753 84.4102 40.0178C84.4102 42.8602 86.7141 45.1644 89.557 45.1644Z" fill="#0D0C10"/>
<path d="M85.8776 41.7314C85.6535 41.0408 85.6081 40.3044 85.7461 39.5915C85.885 38.8787 86.2024 38.2126 86.6687 37.6561C87.1349 37.0997 87.7359 36.671 88.4138 36.4103C89.0916 36.1497 89.8241 36.0657 90.5433 36.1663L90.2771 38.1217C89.8886 38.0734 89.4934 38.1234 89.1288 38.2671C88.7635 38.4108 88.4411 38.6436 88.1889 38.9443C87.9376 39.245 87.7648 39.6038 87.688 39.9882C87.6111 40.3726 87.6309 40.7702 87.7475 41.1448L85.8776 41.7314Z" fill="white"/>
<path d="M79.5588 35.3564L65.0887 36.8425L51.1113 47.4605L63.7277 47.3823L79.5588 35.3564Z" fill="#0D0C10"/>
<path d="M72.1387 75.1374L77.4496 61.5942L91.4227 50.9802L87.9655 63.1155L72.1387 75.1374Z" fill="#0D0C10"/>
<path d="M48.1855 48.4534L64.7323 35.8957L82.9218 34.0186L64.0596 48.3478L48.1855 48.4534ZM65.4597 37.7847L54.0401 46.4628L63.3948 46.4042L76.191 36.6857L65.4597 37.7847Z" fill="#0D0C10"/>
<path d="M69.957 78.0239L76.6406 61.0039L93.1675 48.4463L88.8193 63.6985L69.957 78.0239ZM78.2597 62.2085L74.3176 72.2515L87.118 62.5331L89.679 53.5381L78.2597 62.2085Z" fill="#0D0C10"/>
<path d="M71.8989 41.1738L70.3418 42.3566L82.1507 57.9031L83.7083 56.7203L71.8989 41.1738Z" fill="#0D0C10"/>
</svg>
