<svg width="18" height="17" viewBox="0 0 18 17" fill="none" xmlns="http://www.w3.org/2000/svg">
<path d="M9 0.470703C7.39303 0.470703 5.82214 0.947226 4.486 1.84001C3.14985 2.7328 2.10844 4.00175 1.49348 5.4864C0.87852 6.97105 0.717618 8.60472 1.03112 10.1808C1.34463 11.7569 2.11846 13.2046 3.25476 14.3409C4.39106 15.4772 5.8388 16.2511 7.4149 16.5646C8.99099 16.8781 10.6247 16.7172 12.1093 16.1022C13.594 15.4873 14.8629 14.4459 15.7557 13.1097C16.6485 11.7736 17.125 10.2027 17.125 8.5957C17.1227 6.44152 16.266 4.37621 14.7427 2.85297C13.2195 1.32973 11.1542 0.472978 9 0.470703ZM12.125 9.8457C12.125 10.0115 12.0592 10.1704 11.9419 10.2876C11.8247 10.4049 11.6658 10.4707 11.5 10.4707C11.3342 10.4707 11.1753 10.4049 11.0581 10.2876C10.9409 10.1704 10.875 10.0115 10.875 9.8457V7.6043L6.94219 11.5379C6.88412 11.596 6.81518 11.642 6.73931 11.6734C6.66344 11.7049 6.58213 11.7211 6.5 11.7211C6.41788 11.7211 6.33656 11.7049 6.26069 11.6734C6.18482 11.642 6.11588 11.596 6.05782 11.5379C5.99975 11.4798 5.95368 11.4109 5.92226 11.335C5.89083 11.2591 5.87466 11.1778 5.87466 11.0957C5.87466 11.0136 5.89083 10.9323 5.92226 10.8564C5.95368 10.7805 5.99975 10.7116 6.05782 10.6535L9.99141 6.7207H7.75C7.58424 6.7207 7.42527 6.65486 7.30806 6.53764C7.19085 6.42043 7.125 6.26146 7.125 6.0957C7.125 5.92994 7.19085 5.77097 7.30806 5.65376C7.42527 5.53655 7.58424 5.4707 7.75 5.4707H11.5C11.6658 5.4707 11.8247 5.53655 11.9419 5.65376C12.0592 5.77097 12.125 5.92994 12.125 6.0957V9.8457Z" fill="#201E28"/>
</svg>
