<svg width="72" height="72" viewBox="0 0 72 72" fill="none" xmlns="http://www.w3.org/2000/svg">
<path d="M9.74561 35.3653L23.1554 35.2389L30.863 46.2162L34.8863 33.4207L47.707 29.4834L36.7829 21.7024L37.0003 8.29248L26.2253 16.2783L13.5386 11.9263L17.8019 24.6434L9.74561 35.3653Z" fill="#FF8686"/>
<path d="M53.2121 38.2808V64.021H62.3156C64.3386 64.021 66 58.2581 66 51.1498C66 44.0412 64.3513 38.2808 62.3156 38.2808H53.2121Z" fill="#FF8686"/>
<path d="M53.2121 38.2808V64.021H62.3156C64.3386 64.021 66 58.2581 66 51.1498C66 44.0412 64.3513 38.2808 62.3156 38.2808H53.2121Z" fill="black" fill-opacity="0.44"/>
<path d="M52.5783 64.653H62.3065C65.1386 64.653 66.623 57.8605 66.623 51.1496C66.623 44.4381 65.1386 37.6484 62.3065 37.6484H52.5783V64.653ZM62.3065 38.9128C63.5506 38.9128 65.3587 43.6795 65.3587 51.1496C65.3587 58.6194 63.5506 63.3887 62.3065 63.3887H53.8427V38.9128H62.3065Z" fill="#FF8686"/>
<path d="M52.5783 64.653H62.3065C65.1386 64.653 66.623 57.8605 66.623 51.1496C66.623 44.4381 65.1386 37.6484 62.3065 37.6484H52.5783V64.653ZM62.3065 38.9128C63.5506 38.9128 65.3587 43.6795 65.3587 51.1496C65.3587 58.6194 63.5506 63.3887 62.3065 63.3887H53.8427V38.9128H62.3065Z" fill="black" fill-opacity="0.44"/>
<path d="M12.3255 50.9804L17.2114 63.5559L39.8233 62.8225L45.3032 60.013L50.477 60.0558L55.929 60.1038C56.589 57.7878 56.9961 54.6294 56.9961 51.1498C56.9961 47.3363 56.5081 43.9124 55.7317 41.5556L50.7577 41.3457L43.0172 41.0195L34.7153 33.9946L33.7721 36.9937L13.681 39.1634L12.3255 50.9804Z" fill="white"/>
<path d="M16.7843 64.203L39.9858 63.4446L45.4529 60.6424L56.405 60.736L56.5365 60.2733C57.2395 57.8027 57.6289 54.5608 57.6289 51.1446C57.6289 47.4223 57.156 43.8542 56.3317 41.3533L56.1951 40.9386L43.2605 40.3923L34.3871 32.8921L33.2821 36.4096L13.1003 38.5894L11.679 51.0765L16.7843 64.203ZM39.6596 62.2029L17.6368 62.9185L12.9688 50.8969L14.2331 39.7374L34.2329 37.5778L35.0143 35.0921L42.7674 41.6415L55.2544 42.1701C55.9549 44.5218 56.357 47.7611 56.357 51.1499C56.357 54.2397 56.0307 57.1705 55.439 59.4669L45.1444 59.3809L39.6596 62.2029Z" fill="#FF8686"/>
<path d="M16.7843 64.203L39.9858 63.4446L45.4529 60.6424L56.405 60.736L56.5365 60.2733C57.2395 57.8027 57.6289 54.5608 57.6289 51.1446C57.6289 47.4223 57.156 43.8542 56.3317 41.3533L56.1951 40.9386L43.2605 40.3923L34.3871 32.8921L33.2821 36.4096L13.1003 38.5894L11.679 51.0765L16.7843 64.203ZM39.6596 62.2029L17.6368 62.9185L12.9688 50.8969L14.2331 39.7374L34.2329 37.5778L35.0143 35.0921L42.7674 41.6415L55.2544 42.1701C55.9549 44.5218 56.357 47.7611 56.357 51.1499C56.357 54.2397 56.0307 57.1705 55.439 59.4669L45.1444 59.3809L39.6596 62.2029Z" fill="black" fill-opacity="0.44"/>
<path d="M13.3038 42.7866L21.7734 44.3931L21.5378 45.6353L13.0682 44.0289L13.3038 42.7866Z" fill="#FF8686"/>
<path d="M13.3038 42.7866L21.7734 44.3931L21.5378 45.6353L13.0682 44.0289L13.3038 42.7866Z" fill="black" fill-opacity="0.44"/>
<path d="M12.3464 50.3477L22.7188 50.688L22.6775 51.9518L12.3052 51.6115L12.3464 50.3477Z" fill="#FF8686"/>
<path d="M12.3464 50.3477L22.7188 50.688L22.6775 51.9518L12.3052 51.6115L12.3464 50.3477Z" fill="black" fill-opacity="0.44"/>
<path d="M14.922 57.0317H23.9316V58.2961H14.922V57.0317Z" fill="#FF8686"/>
<path d="M14.922 57.0317H23.9316V58.2961H14.922V57.0317Z" fill="black" fill-opacity="0.44"/>
<path d="M50.7584 41.3455L55.7324 41.5554C55.0623 39.5324 54.1798 38.2807 53.2037 38.2807C52.2276 38.2807 51.4058 39.4439 50.7584 41.3455Z" fill="#FF8686"/>
<path d="M50.7584 41.3455L55.7324 41.5554C55.0623 39.5324 54.1798 38.2807 53.2037 38.2807C52.2276 38.2807 51.4058 39.4439 50.7584 41.3455Z" fill="black" fill-opacity="0.44"/>
<path d="M50.4777 60.0557C51.168 62.4989 52.1366 64.0209 53.2113 64.0209C54.286 64.0209 55.2343 62.519 55.9297 60.1041L50.4777 60.0557Z" fill="#FF8686"/>
<path d="M50.4777 60.0557C51.168 62.4989 52.1366 64.0209 53.2113 64.0209C54.286 64.0209 55.2343 62.519 55.9297 60.1041L50.4777 60.0557Z" fill="black" fill-opacity="0.44"/>
<path d="M55.7324 42.1876C55.8322 42.1873 55.9306 42.1635 56.0194 42.118C56.1082 42.0725 56.185 42.0065 56.2435 41.9256C56.302 41.8447 56.3405 41.7511 56.3558 41.6525C56.3711 41.5538 56.3629 41.453 56.3317 41.3581C55.3202 38.2933 54.0761 37.6484 53.2112 37.6484C52.3464 37.6484 51.1579 38.2554 50.159 41.1381C50.1281 41.2311 50.1191 41.3299 50.1327 41.4269C50.1463 41.5239 50.1822 41.6165 50.2375 41.6972C50.2929 41.7781 50.3662 41.845 50.4517 41.8927C50.5373 41.9406 50.6327 41.9679 50.7305 41.9726L55.7046 42.1876H55.7324ZM53.2037 38.9128C53.6057 38.9128 54.2152 39.4489 54.8018 40.8827L51.6586 40.7512C52.2427 39.411 52.8243 38.9128 53.2112 38.9128H53.2037Z" fill="#FF8686"/>
<path d="M55.7324 42.1876C55.8322 42.1873 55.9306 42.1635 56.0194 42.118C56.1082 42.0725 56.185 42.0065 56.2435 41.9256C56.302 41.8447 56.3405 41.7511 56.3558 41.6525C56.3711 41.5538 56.3629 41.453 56.3317 41.3581C55.3202 38.2933 54.0761 37.6484 53.2112 37.6484C52.3464 37.6484 51.1579 38.2554 50.159 41.1381C50.1281 41.2311 50.1191 41.3299 50.1327 41.4269C50.1463 41.5239 50.1822 41.6165 50.2375 41.6972C50.2929 41.7781 50.3662 41.845 50.4517 41.8927C50.5373 41.9406 50.6327 41.9679 50.7305 41.9726L55.7046 42.1876H55.7324ZM53.2037 38.9128C53.6057 38.9128 54.2152 39.4489 54.8018 40.8827L51.6586 40.7512C52.2427 39.411 52.8243 38.9128 53.2112 38.9128H53.2037Z" fill="black" fill-opacity="0.44"/>
<path d="M53.2107 64.6532C54.5711 64.6532 55.7192 63.1359 56.536 60.2784C56.5629 60.1848 56.5677 60.086 56.5503 59.9904C56.5328 59.8944 56.4933 59.8037 56.4351 59.726C56.3768 59.6477 56.3012 59.5844 56.2144 59.5402C56.1275 59.496 56.0316 59.4725 55.9341 59.4716L50.4822 59.4212C50.3836 59.4183 50.2858 59.4399 50.1976 59.484C50.1093 59.5282 50.0334 59.5935 49.9764 59.6741C49.9163 59.7519 49.8753 59.8431 49.8569 59.9396C49.8385 60.036 49.843 60.1359 49.8702 60.2304C50.687 63.1234 51.8426 64.6532 53.2107 64.6532ZM55.0718 60.7287C54.4042 62.6756 53.6709 63.3888 53.2107 63.3888C52.7505 63.3888 52.007 62.6655 51.3369 60.6956L55.0718 60.7287Z" fill="#FF8686"/>
<path d="M53.2107 64.6532C54.5711 64.6532 55.7192 63.1359 56.536 60.2784C56.5629 60.1848 56.5677 60.086 56.5503 59.9904C56.5328 59.8944 56.4933 59.8037 56.4351 59.726C56.3768 59.6477 56.3012 59.5844 56.2144 59.5402C56.1275 59.496 56.0316 59.4725 55.9341 59.4716L50.4822 59.4212C50.3836 59.4183 50.2858 59.4399 50.1976 59.484C50.1093 59.5282 50.0334 59.5935 49.9764 59.6741C49.9163 59.7519 49.8753 59.8431 49.8569 59.9396C49.8385 60.036 49.843 60.1359 49.8702 60.2304C50.687 63.1234 51.8426 64.6532 53.2107 64.6532ZM55.0718 60.7287C54.4042 62.6756 53.6709 63.3888 53.2107 63.3888C52.7505 63.3888 52.007 62.6655 51.3369 60.6956L55.0718 60.7287Z" fill="black" fill-opacity="0.44"/>
<path d="M58.3373 42.6805L60.5564 40.4614L62.7754 42.6805L60.5564 44.8995L58.3373 42.6805Z" fill="white"/>
<path d="M34.8258 14.8248L34.8613 20.1806L33.597 20.189L33.5614 14.8332L34.8258 14.8248Z" fill="white"/>
<path d="M37 8.29202L34.1931 7.99365L25.0492 14.1183L11.2597 9.79408L15.488 24.4659L6.69539 35.3952L9.74531 35.3648L17.8016 24.6429L13.5383 11.9259L26.225 16.2778L37 8.29202Z" fill="#FF8686"/>
<path d="M37 8.29202L34.1931 7.99365L25.0492 14.1183L11.2597 9.79408L15.488 24.4659L6.69539 35.3952L9.74531 35.3648L17.8016 24.6429L13.5383 11.9259L26.225 16.2778L37 8.29202Z" fill="black" fill-opacity="0.44"/>
<path d="M23.1548 35.2387H20.1L22.285 38.0684L25.0488 37.9343L23.1548 35.2387Z" fill="#FF8686"/>
<path d="M23.1548 35.2387H20.1L22.285 38.0684L25.0488 37.9343L23.1548 35.2387Z" fill="black" fill-opacity="0.44"/>
<path d="M21.9962 38.7311L34.238 37.5856L35.3886 33.929L49.1172 29.711L37.4192 21.3814L37.6417 7.72608L34.0306 7.34424L24.9474 13.4233L10.326 8.8463L14.7866 24.3324L5.3623 36.0506L19.7964 35.8736L21.9962 38.7311ZM33.2847 36.4097L22.5703 37.4212L20.4055 34.6168L8.01479 34.7635L16.1724 24.6207L12.1797 10.7631L25.1471 14.8116L34.3544 8.64653L36.3571 8.85897L36.1447 22.0236L46.2976 29.2559L34.3821 32.915L33.2847 36.4097Z" fill="#FF8686"/>
<path d="M21.9962 38.7311L34.238 37.5856L35.3886 33.929L49.1172 29.711L37.4192 21.3814L37.6417 7.72608L34.0306 7.34424L24.9474 13.4233L10.326 8.8463L14.7866 24.3324L5.3623 36.0506L19.7964 35.8736L21.9962 38.7311ZM33.2847 36.4097L22.5703 37.4212L20.4055 34.6168L8.01479 34.7635L16.1724 24.6207L12.1797 10.7631L25.1471 14.8116L34.3544 8.64653L36.3571 8.85897L36.1447 22.0236L46.2976 29.2559L34.3821 32.915L33.2847 36.4097Z" fill="black" fill-opacity="0.44"/>
<path d="M24.5309 38.2986L25.5652 37.5703L23.4816 34.6016L11.0199 34.7204L18.5074 24.7572L14.545 12.9403L26.3339 16.9838L37.377 8.80072L36.6234 7.78418L26.1164 15.5702L12.5319 10.9122L17.0962 24.5296L8.46819 36.0076L22.8288 35.8735L24.5309 38.2986Z" fill="#FF8686"/>
<path d="M24.5309 38.2986L25.5652 37.5703L23.4816 34.6016L11.0199 34.7204L18.5074 24.7572L14.545 12.9403L26.3339 16.9838L37.377 8.80072L36.6234 7.78418L26.1164 15.5702L12.5319 10.9122L17.0962 24.5296L8.46819 36.0076L22.8288 35.8735L24.5309 38.2986Z" fill="black" fill-opacity="0.44"/>
</svg>
