<svg width="172" height="172" viewBox="0 0 172 172" fill="none" xmlns="http://www.w3.org/2000/svg">
<path d="M47.1212 99.0413L41.0977 106.119L42.7284 158.03L137.129 154.472L142.664 146.005L141.12 96.1312L47.1212 99.0413Z" fill="#FF8686"/>
<path d="M41.3947 159.436L39.709 105.625L46.4737 97.6795L142.45 94.7034L144.053 146.385L137.887 155.817L41.3947 159.436ZM42.4929 106.591L44.0578 156.559L136.371 153.083L141.286 145.572L139.797 97.5038L47.7806 100.397L42.4929 106.591Z" fill="#0D0C10"/>
<path d="M65.2631 138.697L63.3082 136.77L73.2193 126.716L61.4688 121.669L74.043 107.778L76.0801 109.623L66.0812 120.665L77.9965 125.783L65.2631 138.697Z" fill="white"/>
<path d="M82.9002 137.5L80.2207 136.896L86.7329 107.992L89.4015 107.942L97.0174 136.402L94.3653 137.115L88.188 114.032L82.9002 137.5Z" fill="white"/>
<path d="M96.0913 121.362L80.832 121.972L80.9418 124.717L96.201 124.107L96.0913 121.362Z" fill="white"/>
<path d="M101.498 136.666L100.625 108.387L103.37 108.299L104.156 133.838L113.551 133.547L113.639 136.292L101.498 136.666Z" fill="white"/>
<path d="M117.202 136.182L116.279 106.526L127.3 106.185L127.382 108.931L119.113 109.189L119.859 133.354L128.135 133.096L128.217 135.842L117.202 136.182Z" fill="white"/>
<path d="M124.807 119.727L118.078 119.934L118.163 122.678L124.892 122.471L124.807 119.727Z" fill="white"/>
<path d="M47.1212 99.0413L48.6642 148.915L142.664 146.005L137.129 154.472L42.7284 158.03L41.0977 106.119L47.1212 99.0413Z" fill="#0D0C10"/>
<path d="M47.3349 150.333L45.748 99.0854L48.4935 98.9976L49.9979 147.499L142.619 144.632L142.707 147.378L47.3349 150.333Z" fill="#0D0C10"/>
<path d="M80.798 98.4704L78.1953 97.6083L88.6664 66.0903L105.046 95.8072L102.641 97.1306L89.2924 72.9101L80.798 98.4704Z" fill="#0D0C10"/>
<path d="M46.7764 15.733L41.7906 46.7732L30.7593 45.06C29.0352 44.791 28.7112 37.6199 30.0455 29.043C31.3798 20.4662 33.8617 13.7288 35.5914 13.9923L46.7764 15.733Z" fill="#0D0C10"/>
<path d="M42.9308 48.3437L30.5488 46.4163C28.9015 46.1582 28.0614 44.2199 27.8802 40.228C27.79 36.4113 28.0603 32.5948 28.6874 28.8289C29.3023 24.8699 31.636 11.9991 35.8256 12.6361L48.3284 14.591L42.9308 48.3437ZM31.2241 43.7422L40.6411 45.2247L45.1986 16.8806L35.6334 15.3926C34.7493 16.2052 32.6958 20.8835 31.3998 29.2517C30.104 37.6198 30.6311 42.699 31.2241 43.7422Z" fill="#0D0C10"/>
<path d="M113.758 65.481L105.95 57.6565L112.539 70.033L107.625 69.5443L98.0155 57.4972L100.053 63.0925L92.1786 73.2286L88.961 69.5004L92.3214 60.7808L82.4048 48.7831L75.3654 51.0783L88.961 69.5004L87.0776 74.2226L65.9759 58.2988L59.2222 41.8701L46.593 42.0622H46.2197L41.5633 41.9304C41.4878 38.253 41.7543 34.5766 42.3595 30.9485C42.8454 27.657 43.5908 24.4091 44.5888 21.2351L49.4373 21.5261L70.6652 22.8275L97.395 35.5225L117.223 65.2394L113.758 65.481Z" fill="white"/>
<path d="M87.7037 76.4024L64.8669 59.1445L58.3217 43.2207L46.6809 43.4129L40.2676 43.2756L40.2181 41.9853C40.1401 38.2216 40.4122 34.4587 41.0308 30.7453C41.5258 27.3792 42.2878 24.0576 43.3094 20.8122L43.639 19.8074L71.0442 21.4547L71.2858 21.57L98.3561 34.4298L98.5647 34.7427L119.704 66.4308L113.253 66.8701L111.501 65.1131L114.961 71.6362L106.922 70.8346L101.272 63.7458L92.2556 75.4251L89.4333 72.1305L87.7037 76.4024ZM67.1181 57.4093L86.4846 72.0371L87.4181 69.7034L73.1417 50.3644L82.8771 47.1852L93.9029 60.5281L90.548 69.2312L92.1183 71.0652L98.4823 62.8288L93.837 50.0569L108.317 68.2154L110.101 68.3912L100.426 50.1667L114.285 64.0533H114.762L96.4617 36.5987L70.3194 24.1891L45.5827 22.6737C44.7733 25.4608 44.1496 28.2984 43.7158 31.1681C43.21 34.2823 42.9402 37.4303 42.9087 40.5851L46.6809 40.6674L60.1666 40.4642L67.1181 57.4093ZM77.6004 51.814L88.5822 66.6945L90.7786 61.0608L81.9436 50.3754L77.6004 51.814Z" fill="#0D0C10"/>
<path d="M98.2065 43.3589L95.9121 44.8666L104.811 58.4083L107.105 56.9006L98.2065 43.3589Z" fill="#0D0C10"/>
<path d="M90.7775 43.8877L88.4766 45.3854L96.8486 58.2479L99.1496 56.7501L90.7775 43.8877Z" fill="#0D0C10"/>
<path d="M49.4266 21.5316L44.5781 21.2405C45.6763 17.8417 46.9172 15.7496 47.8726 15.9089C48.828 16.0682 49.3606 18.2206 49.4266 21.5316Z" fill="#0D0C10"/>
<path d="M46.2593 42.0291C45.1611 45.1974 44.0189 47.1247 43.0745 46.9709C42.1301 46.8172 41.6798 44.9174 41.5645 41.9303L46.2593 42.0291Z" fill="#0D0C10"/>
<path d="M48.0661 21.5645C47.9837 17.869 47.3743 17.1223 47.3633 17.1113C47.4543 17.1958 47.5696 17.2496 47.6927 17.265L48.1155 14.5525C49.8782 14.827 50.7072 16.9685 50.8115 21.4985L48.0661 21.5645Z" fill="#0D0C10"/>
<path d="M43.2112 48.3603C43.0961 48.3684 42.9804 48.3684 42.8652 48.3603L43.288 45.6479C43.1658 45.6207 43.0379 45.6362 42.9257 45.6918C42.9257 45.6918 43.7493 45.1426 44.9573 41.6174L47.5545 42.4795C46.1762 46.5154 44.8255 48.3603 43.2112 48.3603Z" fill="#0D0C10"/>
<path d="M35.2555 42.8307C36.6413 42.8307 37.7648 41.7072 37.7648 40.3214C37.7648 38.9355 36.6413 37.812 35.2555 37.812C33.8696 37.812 32.7461 38.9355 32.7461 40.3214C32.7461 41.7072 33.8696 42.8307 35.2555 42.8307Z" fill="white"/>
</svg>
