<svg width="136" height="40" viewBox="0 0 136 40" fill="none" xmlns="http://www.w3.org/2000/svg">
<path d="M47.0233 22.2245C45.8519 21.5698 45.235 21.0211 45.235 20.2603C45.235 19.2966 46.0665 18.6787 47.372 18.6787C48.3607 18.7038 49.3354 18.9261 50.2422 19.3335L51.3107 15.9582C51.3107 15.9582 50.3271 15.1652 47.439 15.1652C43.4154 15.1652 40.6256 17.5398 40.6256 20.8827C40.6256 22.7778 41.9266 24.2257 43.6613 25.2585C45.0651 26.0839 45.5658 26.6695 45.5658 27.5317C45.5658 28.394 44.8639 29.1502 43.5629 29.1502C42.2476 29.0982 40.9595 28.7488 39.7896 28.1265L38.654 31.4925C40.0356 32.3046 41.6068 32.7097 43.1963 32.6637C47.3362 32.6637 50.3093 30.5611 50.3093 26.7709C50.3271 24.7421 48.825 23.2943 47.0233 22.2245ZM63.5203 15.1283C61.4817 15.1283 59.8811 16.1289 58.6427 17.6459L58.5757 17.609L60.364 8.06891H55.7367L51.266 32.3548H55.8843L57.4222 24.0551C58.0213 20.9196 59.595 18.983 61.0614 18.983C62.0986 18.983 62.501 19.7069 62.501 20.7398C62.5012 21.4458 62.4338 22.1501 62.2998 22.8424L60.5607 32.3502H65.17L66.9583 22.5335C67.1556 21.5109 67.2663 20.4726 67.2891 19.4303C67.2936 16.7467 65.9256 15.1283 63.5203 15.1283ZM77.7149 15.1283C72.1712 15.1283 68.4963 20.2972 68.4963 26.0516C68.4963 29.7404 70.7003 32.696 74.8447 32.696C80.2856 32.696 83.9605 27.6701 83.9605 21.7773C83.9605 18.3698 82.0247 15.1283 77.7149 15.1283ZM75.4438 29.0487C73.8745 29.0487 73.2084 27.6655 73.2084 25.9456C73.2084 23.2251 74.5765 18.7801 77.0801 18.7801C78.7164 18.7801 79.2529 20.228 79.2529 21.6389C79.2529 24.5669 77.8848 29.0487 75.4438 29.0487ZM95.7499 15.1283C92.6427 15.1283 90.8768 17.9548 90.8768 17.9548H90.8097L91.078 15.4049H87.0007C86.7995 17.1294 86.4329 19.7438 86.0663 21.7081L82.8607 39.1052H87.4701L88.7398 32.0781H88.8381C89.6651 32.5208 90.5896 32.7338 91.5206 32.696C96.9302 32.696 100.462 26.9784 100.462 21.1917C100.493 17.9825 99.1253 15.1283 95.7499 15.1283ZM91.3417 29.1133C90.6497 29.1219 89.977 28.8786 89.4417 28.4263L90.2062 23.9767C90.7427 21.0165 92.2448 19.0522 93.8498 19.0522C95.2492 19.0522 95.6873 20.394 95.6873 21.6712C95.6873 24.7375 93.899 29.1087 91.3417 29.1087V29.1133ZM107.074 8.29946C106.729 8.29824 106.387 8.36717 106.068 8.50231C105.748 8.63744 105.458 8.83613 105.213 9.08704C104.968 9.33794 104.773 9.63615 104.64 9.96463C104.507 10.2931 104.438 10.6454 104.437 11.0015V11.066C104.437 12.477 105.304 13.4407 106.609 13.4407H106.676C107.362 13.4631 108.029 13.2054 108.531 12.7236C109.033 12.2417 109.331 11.5747 109.359 10.8678V10.6741C109.388 10.078 109.188 9.4941 108.802 9.04939C108.416 8.60468 107.875 8.33516 107.298 8.29946H107.074ZM100.627 32.3548H105.237L108.38 15.5064H103.735L100.627 32.3548ZM120.102 15.4741H116.892L117.062 14.681C117.33 13.0626 118.265 11.6147 119.798 11.6147C120.298 11.6148 120.794 11.6973 121.269 11.8591L122.163 8.13807C121.366 7.819 120.513 7.67757 119.659 7.72309C118.02 7.67657 116.419 8.23953 115.148 9.30926C113.579 10.6925 112.846 12.6845 112.466 14.681L112.332 15.4741H110.195L109.533 19.0568H111.67L109.234 32.3548H113.843L116.28 19.0568H119.454L120.102 15.4741ZM131.189 15.511C131.189 15.511 128.31 22.9946 127.014 27.0845H126.969C126.88 25.7657 125.834 15.511 125.834 15.511H120.969L123.741 30.9761C123.776 31.1084 123.786 31.2467 123.769 31.3828C123.752 31.519 123.709 31.6503 123.643 31.7692C123.046 32.9118 122.194 33.8917 121.157 34.628C120.351 35.2042 119.466 35.6548 118.533 35.9652L119.816 39.9997C121.505 39.5406 123.056 38.6529 124.327 37.4176C126.433 35.3842 128.351 32.2487 130.371 27.979L136.018 15.5294L131.189 15.511ZM22.7606 4.57842L21.6295 4.93808C21.4922 4.46029 21.311 3.9971 21.0885 3.55479C20.2882 1.97784 19.1124 1.14326 17.6952 1.14326H17.4001C17.3018 1.14326 17.3197 1.03721 17.275 0.991101C16.977 0.656222 16.6107 0.393628 16.2025 0.222211C15.7944 0.0507947 15.3544 -0.0251824 14.9144 -0.000253391C13.0859 0.055078 11.2618 1.41992 9.78198 3.84067C8.75886 5.52198 8.06053 7.39144 7.72544 9.34614L4.12203 10.4989C3.06246 10.8447 3.02669 10.877 2.8881 11.9098C2.7808 12.7306 0 34.8724 0 34.8724L23.0333 38.9853V4.54153C22.9412 4.54215 22.8496 4.55455 22.7606 4.57842ZM17.4359 6.28447L13.5508 7.52943C13.8965 6.07898 14.5689 4.73305 15.5135 3.6009C15.8884 3.17732 16.3453 2.83959 16.8547 2.60954C17.2944 3.77942 17.4924 5.03112 17.4359 6.28447ZM14.9412 1.30465C15.3284 1.28499 15.7122 1.38797 16.041 1.59975C15.5105 1.89357 15.0315 2.27697 14.6238 2.73404C13.385 4.21793 12.5544 6.01714 12.2185 7.94441L9.02643 8.96344C9.6568 5.96171 12.1202 1.38303 14.9457 1.30465H14.9412ZM11.3646 18.5865C11.4898 20.6061 16.6446 21.0487 16.9352 25.7796C17.1632 29.5052 15.0172 32.0551 11.9324 32.2349C10.8908 32.3314 9.84114 32.202 8.85095 31.855C7.86075 31.508 6.95196 30.951 6.18304 30.2199L6.96989 26.7755C6.96989 26.7755 9.02196 28.3755 10.6672 28.2649C11.0482 28.2528 11.4093 28.0863 11.6721 27.8014C11.9349 27.5166 12.0782 27.1364 12.071 26.7433V26.6603C11.9235 24.0228 7.72544 24.1796 7.46167 19.8268C7.23813 16.1796 9.55845 12.4862 14.6819 12.1542C16.6535 12.0251 17.6639 12.5461 17.6639 12.5461L16.4926 17.0649C15.5893 16.6821 14.6158 16.5074 13.6402 16.5531C11.4049 16.7191 11.3602 18.1946 11.3825 18.568L11.3646 18.5865ZM18.6385 5.89715C18.6451 4.72787 18.4576 3.56605 18.0842 2.46199C19.4746 2.73404 20.1586 4.35248 20.4447 5.32078L18.6385 5.89715ZM23.8022 38.8885L33.3562 36.4263C33.3562 36.4263 29.2431 7.73231 29.2163 7.53865C29.2036 7.4551 29.1641 7.37835 29.1041 7.32067C29.0442 7.263 28.9672 7.22773 28.8855 7.2205L26.0555 7.16516C26.0555 7.16516 24.4147 5.52367 23.8201 4.90119L23.8022 38.8885Z" fill="#0D0C10"/>
</svg>
