<svg width="52" height="46" viewBox="0 0 52 46" fill="none" xmlns="http://www.w3.org/2000/svg">
<path d="M50.5113 2.77691L4.41619 1.32568L1.46875 1.89943L2.97845 44.6263L5.86517 44.417L48.441 44.6263L50.5113 2.77691Z" fill="white"/>
<path d="M34.4473 2.27051V13.8061L50.008 14.5823L50.512 2.77676L34.4473 2.27051Z" fill="#FF8686"/>
<path d="M41.4386 5.72607L39.918 8.85712L40.9298 9.34854L42.4504 6.21745L41.4386 5.72607Z" fill="#0D0C10"/>
<path d="M44.31 7.64502L42.9453 10.6676L43.9706 11.1306L45.3352 8.10793L44.31 7.64502Z" fill="#0D0C10"/>
<path d="M4.41619 1.32568L1.46875 1.89943L2.97845 44.6263L5.86517 44.417L4.41619 1.32568Z" fill="#0D0C10"/>
<path d="M2.43662 45.2268L2.41637 44.6441L0.888672 1.44499L4.36934 0.77002H4.43237L51.1011 2.23925L48.9747 45.1976L5.89258 44.9816L2.43662 45.2268ZM5.8476 43.8545H5.86781L47.9063 44.0571L49.9309 3.31925L4.48186 1.88828L2.04739 2.36074L3.52114 44.0235L5.8476 43.8545Z" fill="#0D0C10"/>
<path d="M4.76489 12.083L4.7168 13.207L49.9807 15.1436L50.0287 14.0197L4.76489 12.083Z" fill="#0D0C10"/>
<path d="M35.0097 2.27051H33.8848V13.6148H35.0097V2.27051Z" fill="#0D0C10"/>
<path d="M23.1386 19.8184H8.63086V20.9433H23.1386V19.8184Z" fill="#0D0C10"/>
<path d="M8.63701 27.0625L8.62305 28.1874L23.132 28.3672L23.1459 27.2423L8.63701 27.0625Z" fill="#0D0C10"/>
<path d="M23.1223 34.5728L8.61523 34.8665L8.63803 35.9913L23.145 35.6975L23.1223 34.5728Z" fill="#0D0C10"/>
</svg>
