<svg width="20" height="17" viewBox="0 0 20 17" fill="none" xmlns="http://www.w3.org/2000/svg">
<path d="M18.25 0.345703H4.75C4.35218 0.345703 3.97064 0.503738 3.68934 0.785043C3.40804 1.06635 3.25 1.44788 3.25 1.8457V3.3457H1.75C1.35218 3.3457 0.970644 3.50374 0.68934 3.78504C0.408035 4.06635 0.25 4.44788 0.25 4.8457V15.3457C0.25 15.7435 0.408035 16.1251 0.68934 16.4064C0.970644 16.6877 1.35218 16.8457 1.75 16.8457H15.25C15.6478 16.8457 16.0294 16.6877 16.3107 16.4064C16.592 16.1251 16.75 15.7435 16.75 15.3457V13.8457H18.25C18.6478 13.8457 19.0294 13.6877 19.3107 13.4064C19.592 13.1251 19.75 12.7435 19.75 12.3457V1.8457C19.75 1.44788 19.592 1.06635 19.3107 0.785043C19.0294 0.503738 18.6478 0.345703 18.25 0.345703ZM15.25 4.8457V6.3457H1.75V4.8457H15.25ZM18.25 12.3457H16.75V4.8457C16.75 4.44788 16.592 4.06635 16.3107 3.78504C16.0294 3.50374 15.6478 3.3457 15.25 3.3457H4.75V1.8457H18.25V12.3457Z" fill="#FF8686"/>
</svg>
