<svg width="166" height="32" viewBox="0 0 166 32" fill="none" xmlns="http://www.w3.org/2000/svg">
<path d="M19.2 31.4684C18.3604 32.4979 16.6579 31.9338 16.6376 30.6193L16.3418 11.3931H29.6201C32.0252 11.3931 33.3666 14.0976 31.871 15.9314L19.2 31.4684Z" fill="#0D0C10"/>
<path d="M13.7997 0.531706C14.6393 -0.497886 16.3419 0.066256 16.3621 1.38078L16.4917 20.607H3.37958C0.974441 20.607 -0.366947 17.9025 1.12864 16.0686L13.7997 0.531706Z" fill="#0D0C10"/>
<path d="M42.998 18.906C43.1689 20.4922 44.6217 23.2113 48.838 23.2113C52.5127 23.2113 54.2792 20.8887 54.2792 18.6227C54.2792 16.5833 52.8831 14.9122 50.12 14.3456L48.1257 13.9208C47.3566 13.7792 46.8439 13.3543 46.8439 12.6745C46.8439 11.8814 47.6415 11.2866 48.6386 11.2866C50.2338 11.2866 50.832 12.3346 50.9461 13.156L54.1081 12.4479C53.9373 10.9467 52.5983 8.42578 48.6101 8.42578C45.5904 8.42578 43.3685 10.4935 43.3685 12.986C43.3685 14.9404 44.5932 16.555 47.2996 17.1498L49.1513 17.5747C50.2338 17.8013 50.6612 18.3112 50.6612 18.9343C50.6612 19.6707 50.063 20.3222 48.8094 20.3222C47.1573 20.3222 46.3309 19.3025 46.2456 18.1978L42.998 18.906Z" fill="#0D0C10"/>
<path d="M66.3879 22.7862H70.0059C69.9489 22.3047 69.8633 21.3416 69.8633 20.2653V8.85034H66.0742V16.9512C66.0742 18.5658 65.1059 19.6988 63.4252 19.6988C61.6589 19.6988 60.8611 18.4525 60.8611 16.8946V8.85034H57.0723V17.6594C57.0723 20.6901 59.0093 23.1544 62.3995 23.1544C63.8806 23.1544 65.5051 22.5879 66.2741 21.285C66.2741 21.8515 66.3309 22.5029 66.3879 22.7862Z" fill="#0D0C10"/>
<path d="M77.6948 28.1682V21.4269C78.3783 22.3616 79.8029 23.1264 81.7402 23.1264C85.6999 23.1264 88.3489 20.0106 88.3489 15.7902C88.3489 11.6548 85.9847 8.53906 81.8825 8.53906C79.7747 8.53906 78.2078 9.47375 77.581 10.5501V8.85062H73.9062V28.1682H77.6948ZM84.6171 15.8186C84.6171 18.3112 83.079 19.7557 81.1417 19.7557C79.2049 19.7557 77.638 18.2828 77.638 15.8186C77.638 13.3543 79.2049 11.9097 81.1417 11.9097C83.079 11.9097 84.6171 13.3543 84.6171 15.8186Z" fill="#0D0C10"/>
<path d="M90.4941 18.9909C90.4941 21.172 92.3171 23.183 95.3087 23.183C97.3877 23.183 98.7268 22.22 99.4388 21.1153C99.4388 21.6535 99.4958 22.4182 99.5814 22.7865H103.057C102.971 22.3049 102.886 21.3136 102.886 20.5771V13.7225C102.886 10.9183 101.234 8.42578 96.79 8.42578C93.0294 8.42578 91.0066 10.8333 90.779 13.0144L94.1404 13.7225C94.2544 12.5045 95.1661 11.4565 96.818 11.4565C98.4137 11.4565 99.1827 12.2779 99.1827 13.2693C99.1827 13.7508 98.9267 14.1474 98.1288 14.2607L94.6819 14.7705C92.3459 15.1104 90.4941 16.4983 90.4941 18.9909ZM96.1059 20.3789C94.8812 20.3789 94.2827 19.5858 94.2827 18.7644C94.2827 17.688 95.0517 17.1498 96.0207 17.0082L99.1827 16.5267V17.1498C99.1827 19.6141 97.7014 20.3789 96.1059 20.3789Z" fill="#0D0C10"/>
<path d="M110.38 22.7866V21.087C111.12 22.2767 112.602 23.1265 114.539 23.1265C118.528 23.1265 121.149 19.9824 121.149 15.762C121.149 11.6265 118.784 8.48247 114.682 8.48247C112.602 8.48247 111.064 9.38886 110.437 10.3802V2.2793H106.705V22.7866H110.38ZM117.359 15.7902C117.359 18.3395 115.821 19.7558 113.884 19.7558C111.975 19.7558 110.38 18.3112 110.38 15.7902C110.38 13.241 111.975 11.8531 113.884 11.8531C115.821 11.8531 117.359 13.241 117.359 15.7902Z" fill="#0D0C10"/>
<path d="M123.295 18.9907C123.295 21.1717 125.118 23.1828 128.109 23.1828C130.188 23.1828 131.528 22.2197 132.24 21.115C132.24 21.6532 132.297 22.418 132.382 22.7862H135.858C135.773 22.3047 135.687 21.3133 135.687 20.5769V13.7222C135.687 10.9181 134.035 8.42554 129.591 8.42554C125.83 8.42554 123.808 10.8331 123.58 13.0141L126.941 13.7222C127.055 12.5043 127.967 11.4563 129.619 11.4563C131.214 11.4563 131.984 12.2777 131.984 13.2691C131.984 13.7506 131.727 14.1472 130.929 14.2604L127.483 14.7703C125.147 15.1102 123.295 16.4981 123.295 18.9907ZM128.907 20.3786C127.682 20.3786 127.083 19.5855 127.083 18.7641C127.083 17.6878 127.853 17.1496 128.821 17.008L131.984 16.5264V17.1496C131.984 19.6139 130.502 20.3786 128.907 20.3786Z" fill="#0D0C10"/>
<path d="M138.309 18.906C138.479 20.4922 139.932 23.2113 144.148 23.2113C147.823 23.2113 149.589 20.8887 149.589 18.6227C149.589 16.5833 148.194 14.9122 145.43 14.3456L143.436 13.9208C142.667 13.7792 142.154 13.3543 142.154 12.6745C142.154 11.8814 142.952 11.2866 143.949 11.2866C145.545 11.2866 146.143 12.3346 146.257 13.156L149.419 12.4479C149.248 10.9467 147.909 8.42578 143.921 8.42578C140.901 8.42578 138.679 10.4935 138.679 12.986C138.679 14.9404 139.903 16.555 142.61 17.1498L144.462 17.5747C145.545 17.8013 145.972 18.3112 145.972 18.9343C145.972 19.6707 145.374 20.3222 144.12 20.3222C142.468 20.3222 141.642 19.3025 141.556 18.1978L138.309 18.906Z" fill="#0D0C10"/>
<path d="M155.345 14.2321C155.43 12.9575 156.513 11.4846 158.479 11.4846C160.643 11.4846 161.555 12.8442 161.612 14.2321H155.345ZM161.983 17.8577C161.527 19.104 160.558 19.9821 158.792 19.9821C156.912 19.9821 155.345 18.6508 155.26 16.8097H165.287C165.287 16.753 165.344 16.1865 165.344 15.6483C165.344 11.173 162.752 8.42554 158.421 8.42554C154.832 8.42554 151.527 11.3146 151.527 15.7617C151.527 20.4636 154.917 23.2111 158.763 23.2111C162.21 23.2111 164.432 21.2 165.145 18.7924L161.983 17.8577Z" fill="#0D0C10"/>
</svg>
