<svg width="132" height="34" viewBox="0 0 132 34" fill="none" xmlns="http://www.w3.org/2000/svg">
<path fill-rule="evenodd" clip-rule="evenodd" d="M12.0289 2.37961C16.285 -0.332252 22.1717 0.932176 25.1521 5.19805C25.8594 6.18805 26.3618 7.3094 26.6299 8.4962C26.8979 9.68301 26.9263 10.9114 26.7132 12.1093C26.5068 13.2533 26.0706 14.3435 25.4309 15.314C26.3643 17.094 26.6775 19.1343 26.3211 21.1122C26.1104 22.2865 25.6571 23.4039 24.99 24.393C24.3228 25.3821 23.4567 26.221 22.4468 26.8562L14.9719 31.6204C10.7162 34.3321 4.82979 33.0682 1.84865 28.8019C1.14149 27.8119 0.639134 26.6905 0.371064 25.5037C0.102994 24.317 0.0746007 23.0886 0.287551 21.8907C0.49413 20.7467 0.930521 19.6564 1.57035 18.6858C0.636594 16.906 0.323191 14.8656 0.679761 12.8876C0.890463 11.7134 1.34385 10.596 2.01095 9.60698C2.67804 8.61793 3.54417 7.77894 4.55395 7.14366L12.0289 2.37961ZM7.74421 29.024C8.88386 29.4465 10.1257 29.509 11.302 29.2032C11.8394 29.0596 12.3517 28.8345 12.8209 28.5358L20.2955 23.7723C20.9027 23.3903 21.4235 22.8857 21.8247 22.2909C22.2258 21.6961 22.4985 21.0242 22.6253 20.3181C22.7534 19.5977 22.7363 18.8589 22.5751 18.1452C22.4138 17.4315 22.1116 16.7572 21.6863 16.1619C20.9935 15.1632 20.0109 14.4012 18.8713 13.9787C17.7316 13.5563 16.4898 13.4938 15.3135 13.7996C14.7764 13.9431 14.2646 14.1681 13.7957 14.4667L10.9437 16.2844C10.8018 16.3746 10.6469 16.4427 10.4845 16.4862C10.1301 16.5781 9.75604 16.559 9.4128 16.4316C9.06956 16.3042 8.77366 16.0745 8.56505 15.7736C8.43702 15.5941 8.34609 15.3908 8.29759 15.1757C8.24908 14.9605 8.24398 14.7379 8.28257 14.5207C8.32078 14.3081 8.40292 14.1057 8.52376 13.9265C8.64459 13.7474 8.80147 13.5954 8.98435 13.4803L16.4595 8.71679C16.6013 8.62648 16.7562 8.55843 16.9186 8.51501C17.2729 8.42307 17.6468 8.44206 17.9899 8.56941C18.333 8.69677 18.6288 8.92636 18.8373 9.22717C19.0657 9.55051 19.1725 9.94414 19.1388 10.3386L19.1133 10.6158L19.3911 10.7001C20.442 11.0172 21.4309 11.5115 22.3153 12.1616L22.6981 12.4423L22.8389 12.0131C22.9142 11.7847 22.9739 11.5515 23.0175 11.315C23.1456 10.5946 23.1285 9.8559 22.9672 9.14219C22.806 8.42848 22.5038 7.75417 22.0785 7.15881C21.3857 6.16014 20.4031 5.39814 19.2635 4.9757C18.1238 4.55327 16.882 4.49076 15.7057 4.79661C15.1683 4.9402 14.6561 5.16527 14.1869 5.46399L6.71246 10.228C6.10516 10.6098 5.58424 11.1143 5.18303 11.709C4.78182 12.3037 4.50913 12.9756 4.38242 13.6817C4.25433 14.4021 4.27141 15.1408 4.43266 15.8545C4.59391 16.5682 4.89608 17.2425 5.32145 17.8379C6.01422 18.8366 6.99679 19.5986 8.13645 20.021C9.27612 20.4435 10.518 20.506 11.6943 20.2001C12.2313 20.0566 12.7431 19.8318 13.2122 19.5336L16.0646 17.7152C16.2063 17.625 16.361 17.557 16.5232 17.5136C16.8776 17.4217 17.2517 17.4407 17.595 17.5682C17.9382 17.6956 18.2341 17.9252 18.4427 18.2261C18.5707 18.4057 18.6616 18.609 18.7102 18.824C18.7588 19.0391 18.7641 19.2617 18.7257 19.4789C18.6873 19.6916 18.6051 19.894 18.4841 20.0731C18.3632 20.2523 18.2063 20.4043 18.0234 20.5195L10.5483 25.283C10.4064 25.3734 10.2516 25.4414 10.0891 25.4848C9.73488 25.5768 9.36093 25.5578 9.0178 25.4305C8.67466 25.3031 8.37888 25.0735 8.1704 24.7727C7.94177 24.4495 7.83496 24.0557 7.86889 23.6613L7.89443 23.384L7.61662 23.2997C6.56589 22.9827 5.577 22.4886 4.69256 21.8387L4.30962 21.5575L4.16884 21.9867C4.09327 22.215 4.03359 22.4482 3.99022 22.6847C3.86213 23.4051 3.87922 24.1439 4.04047 24.8576C4.20172 25.5713 4.50388 26.2456 4.92924 26.841C5.62201 27.8396 6.60456 28.6016 7.74421 29.024Z" fill="#0D0C10"/>
<path d="M43.0988 25.9943C41.7021 26.0299 40.3275 25.6359 39.1558 24.8641C38.0611 24.1319 37.2481 23.0398 36.8535 21.7713L39.2538 20.8769C39.5863 21.6561 40.1298 22.3236 40.8212 22.8022C41.523 23.2791 42.3522 23.5262 43.1968 23.5102C44.0088 23.5532 44.8101 23.3072 45.4622 22.8147C45.746 22.5731 45.9701 22.2676 46.1168 21.9225C46.2636 21.5775 46.3288 21.2024 46.3073 20.8273C46.3106 20.4778 46.2308 20.1326 46.0746 19.821C45.9388 19.5424 45.7611 19.2867 45.5481 19.0632C45.2786 18.8144 44.9729 18.6091 44.6418 18.4546C44.2335 18.2479 43.8947 18.0906 43.6256 17.9826C43.3561 17.8753 42.9602 17.7304 42.4378 17.5479C41.7844 17.3161 41.2945 17.1341 40.9682 17.0016C40.526 16.8107 40.0965 16.5907 39.6825 16.3431C39.2369 16.1033 38.8318 15.7931 38.4823 15.4242C38.18 15.0639 37.9361 14.6572 37.7599 14.2191C37.4217 13.384 37.3508 12.4622 37.5574 11.584C37.7639 10.7059 38.2374 9.91576 38.9109 9.32549C40.0337 8.39783 41.4572 7.92835 42.9031 8.00888C44.1261 7.95799 45.3352 8.28736 46.3685 8.95288C47.2482 9.54612 47.8941 10.4344 48.1931 11.4621L45.842 12.2569C45.6057 11.7187 45.2069 11.2706 44.703 10.9775C44.0936 10.6347 43.4036 10.4671 42.7072 10.493C42.0243 10.4533 41.3478 10.6456 40.7847 11.0396C40.5547 11.2203 40.3711 11.4548 40.2496 11.7229C40.1281 11.991 40.0722 12.2849 40.0866 12.5797C40.0887 12.8057 40.1377 13.0287 40.2305 13.2342C40.3233 13.4397 40.4578 13.6231 40.6252 13.7722C40.9507 14.0972 41.3327 14.3583 41.7518 14.5423C42.1439 14.708 42.7399 14.9316 43.5399 15.2131C44.0294 15.3956 44.3926 15.5322 44.6295 15.623C44.8664 15.7138 45.2134 15.8669 45.6704 16.0825C46.0369 16.247 46.3892 16.4423 46.7235 16.6664C47.0229 16.8848 47.3091 17.1212 47.5806 17.3743C47.8759 17.6341 48.1281 17.9403 48.3278 18.2811C48.5179 18.6345 48.6658 19.0097 48.7684 19.3987C48.8934 19.8558 48.9553 20.3282 48.9523 20.8025C48.987 21.5234 48.8569 22.2426 48.5722 22.904C48.2876 23.5655 47.856 24.1512 47.3112 24.6155C46.1142 25.57 44.6202 26.059 43.0988 25.9943ZM58.7973 25.6962L52.9191 8.30719H55.6623L59.5565 20.43C59.7718 21.082 59.9517 21.7455 60.0954 22.4174C60.2388 21.7454 60.4187 21.0819 60.6342 20.43L64.4794 8.30719H67.1979L61.3443 25.6963L58.7973 25.6962ZM72.3897 25.6962V8.30719H83.0189V10.7418H74.9369V15.5115H80.1534V17.946H74.9369V23.2619H83.5576V25.6964L72.3897 25.6962ZM90.0478 25.6962V8.30719H92.5951V23.2122H100.971V25.6963L90.0478 25.6962ZM110.571 10.7913V25.6963H108.024V10.7913H103.175V8.30719H115.42V10.7913H110.571ZM120.686 25.6963V8.30719H131.315V10.7418H123.233V15.5115H128.449V17.946H123.233V23.2619H131.854V25.6964L120.686 25.6963Z" fill="#0D0C10"/>
</svg>
