<svg width="114" height="114" viewBox="0 0 114 114" fill="none" xmlns="http://www.w3.org/2000/svg">
<g clip-path="url(#clip0_6_9668)">
<path d="M49.045 47.2772C48.0004 46.2325 47.1717 44.9924 46.6064 43.6274C46.041 42.2625 45.75 40.7996 45.75 39.3223C45.75 37.8449 46.041 36.382 46.6064 35.0171C47.1717 33.6522 48.0004 32.412 49.045 31.3673C50.0897 30.3226 51.3299 29.494 52.6948 28.9286C54.0597 28.3632 55.5226 28.0723 57 28.0723C58.4774 28.0723 59.9403 28.3632 61.3052 28.9286C62.6701 29.494 63.9103 30.3226 64.955 31.3673C67.0647 33.4771 68.25 36.3386 68.25 39.3223C68.25 42.3059 67.0647 45.1674 64.955 47.2772C62.8452 49.387 59.9837 50.5723 57 50.5723C54.0163 50.5723 51.1548 49.387 49.045 47.2772ZM31.3674 64.9549C29.2576 62.8451 28.0723 59.9836 28.0723 56.9999C28.0723 54.0162 29.2576 51.1548 31.3674 49.045C33.4772 46.9352 36.3386 45.7499 39.3223 45.7499C42.306 45.7499 45.1675 46.9352 47.2773 49.045C49.3871 51.1548 50.5723 54.0162 50.5723 56.9999C50.5723 59.9836 49.3871 62.8451 47.2773 64.9549C45.1675 67.0647 42.306 68.2499 39.3223 68.2499C36.3386 68.2499 33.4772 67.0647 31.3674 64.9549ZM66.7227 64.9549C65.6781 63.9102 64.8494 62.67 64.284 61.3051C63.7187 59.9402 63.4277 58.4773 63.4277 56.9999C63.4277 55.5226 63.7187 54.0596 64.284 52.6947C64.8494 51.3298 65.6781 50.0896 66.7227 49.045C67.7674 48.0003 69.0076 47.1716 70.3725 46.6063C71.7374 46.0409 73.2003 45.7499 74.6777 45.7499C76.155 45.7499 77.6179 46.0409 78.9829 46.6063C80.3478 47.1716 81.588 48.0003 82.6326 49.045C84.7424 51.1548 85.9277 54.0162 85.9277 56.9999C85.9277 59.9836 84.7424 62.8451 82.6326 64.9549C80.5228 67.0647 77.6614 68.2499 74.6777 68.2499C71.694 68.2499 68.8325 67.0647 66.7227 64.9549ZM49.045 82.6325C46.9353 80.5228 45.75 77.6613 45.75 74.6776C45.75 71.6939 46.9353 68.8324 49.045 66.7226C51.1548 64.6129 54.0163 63.4276 57 63.4276C59.9837 63.4276 62.8452 64.6129 64.955 66.7226C67.0647 68.8324 68.25 71.6939 68.25 74.6776C68.25 77.6613 67.0647 80.5228 64.955 82.6325C62.8452 84.7423 59.9837 85.9276 57 85.9276C54.0163 85.9276 51.1548 84.7423 49.045 82.6325Z" fill="#FA6318"/>
<path d="M49.045 47.2772C48.0004 46.2325 47.1717 44.9924 46.6064 43.6274C46.041 42.2625 45.75 40.7996 45.75 39.3223C45.75 37.8449 46.041 36.382 46.6064 35.0171C47.1717 33.6522 48.0004 32.412 49.045 31.3673C50.0897 30.3226 51.3299 29.494 52.6948 28.9286C54.0597 28.3632 55.5226 28.0723 57 28.0723C58.4774 28.0723 59.9403 28.3632 61.3052 28.9286C62.6701 29.494 63.9103 30.3226 64.955 31.3673C67.0647 33.4771 68.25 36.3386 68.25 39.3223C68.25 42.3059 67.0647 45.1674 64.955 47.2772C62.8452 49.387 59.9837 50.5723 57 50.5723C54.0163 50.5723 51.1548 49.387 49.045 47.2772ZM31.3674 64.9549C29.2576 62.8451 28.0723 59.9836 28.0723 56.9999C28.0723 54.0162 29.2576 51.1548 31.3674 49.045C33.4772 46.9352 36.3386 45.7499 39.3223 45.7499C42.306 45.7499 45.1675 46.9352 47.2773 49.045C49.3871 51.1548 50.5723 54.0162 50.5723 56.9999C50.5723 59.9836 49.3871 62.8451 47.2773 64.9549C45.1675 67.0647 42.306 68.2499 39.3223 68.2499C36.3386 68.2499 33.4772 67.0647 31.3674 64.9549ZM66.7227 64.9549C65.6781 63.9102 64.8494 62.67 64.284 61.3051C63.7187 59.9402 63.4277 58.4773 63.4277 56.9999C63.4277 55.5226 63.7187 54.0596 64.284 52.6947C64.8494 51.3298 65.6781 50.0896 66.7227 49.045C67.7674 48.0003 69.0076 47.1716 70.3725 46.6063C71.7374 46.0409 73.2003 45.7499 74.6777 45.7499C76.155 45.7499 77.6179 46.0409 78.9829 46.6063C80.3478 47.1716 81.588 48.0003 82.6326 49.045C84.7424 51.1548 85.9277 54.0162 85.9277 56.9999C85.9277 59.9836 84.7424 62.8451 82.6326 64.9549C80.5228 67.0647 77.6614 68.2499 74.6777 68.2499C71.694 68.2499 68.8325 67.0647 66.7227 64.9549ZM49.045 82.6325C46.9353 80.5228 45.75 77.6613 45.75 74.6776C45.75 71.6939 46.9353 68.8324 49.045 66.7226C51.1548 64.6129 54.0163 63.4276 57 63.4276C59.9837 63.4276 62.8452 64.6129 64.955 66.7226C67.0647 68.8324 68.25 71.6939 68.25 74.6776C68.25 77.6613 67.0647 80.5228 64.955 82.6325C62.8452 84.7423 59.9837 85.9276 57 85.9276C54.0163 85.9276 51.1548 84.7423 49.045 82.6325Z" fill="url(#paint0_linear_6_9668)"/>
<path d="M49.045 47.2772C48.0004 46.2325 47.1717 44.9924 46.6064 43.6274C46.041 42.2625 45.75 40.7996 45.75 39.3223C45.75 37.8449 46.041 36.382 46.6064 35.0171C47.1717 33.6522 48.0004 32.412 49.045 31.3673C50.0897 30.3226 51.3299 29.494 52.6948 28.9286C54.0597 28.3632 55.5226 28.0723 57 28.0723C58.4774 28.0723 59.9403 28.3632 61.3052 28.9286C62.6701 29.494 63.9103 30.3226 64.955 31.3673C67.0647 33.4771 68.25 36.3386 68.25 39.3223C68.25 42.3059 67.0647 45.1674 64.955 47.2772C62.8452 49.387 59.9837 50.5723 57 50.5723C54.0163 50.5723 51.1548 49.387 49.045 47.2772ZM31.3674 64.9549C29.2576 62.8451 28.0723 59.9836 28.0723 56.9999C28.0723 54.0162 29.2576 51.1548 31.3674 49.045C33.4772 46.9352 36.3386 45.7499 39.3223 45.7499C42.306 45.7499 45.1675 46.9352 47.2773 49.045C49.3871 51.1548 50.5723 54.0162 50.5723 56.9999C50.5723 59.9836 49.3871 62.8451 47.2773 64.9549C45.1675 67.0647 42.306 68.2499 39.3223 68.2499C36.3386 68.2499 33.4772 67.0647 31.3674 64.9549ZM66.7227 64.9549C65.6781 63.9102 64.8494 62.67 64.284 61.3051C63.7187 59.9402 63.4277 58.4773 63.4277 56.9999C63.4277 55.5226 63.7187 54.0596 64.284 52.6947C64.8494 51.3298 65.6781 50.0896 66.7227 49.045C67.7674 48.0003 69.0076 47.1716 70.3725 46.6063C71.7374 46.0409 73.2003 45.7499 74.6777 45.7499C76.155 45.7499 77.6179 46.0409 78.9829 46.6063C80.3478 47.1716 81.588 48.0003 82.6326 49.045C84.7424 51.1548 85.9277 54.0162 85.9277 56.9999C85.9277 59.9836 84.7424 62.8451 82.6326 64.9549C80.5228 67.0647 77.6614 68.2499 74.6777 68.2499C71.694 68.2499 68.8325 67.0647 66.7227 64.9549ZM49.045 82.6325C46.9353 80.5228 45.75 77.6613 45.75 74.6776C45.75 71.6939 46.9353 68.8324 49.045 66.7226C51.1548 64.6129 54.0163 63.4276 57 63.4276C59.9837 63.4276 62.8452 64.6129 64.955 66.7226C67.0647 68.8324 68.25 71.6939 68.25 74.6776C68.25 77.6613 67.0647 80.5228 64.955 82.6325C62.8452 84.7423 59.9837 85.9276 57 85.9276C54.0163 85.9276 51.1548 84.7423 49.045 82.6325Z" fill="url(#paint1_linear_6_9668)"/>
<path d="M49.045 47.2772C48.0004 46.2325 47.1717 44.9924 46.6064 43.6274C46.041 42.2625 45.75 40.7996 45.75 39.3223C45.75 37.8449 46.041 36.382 46.6064 35.0171C47.1717 33.6522 48.0004 32.412 49.045 31.3673C50.0897 30.3226 51.3299 29.494 52.6948 28.9286C54.0597 28.3632 55.5226 28.0723 57 28.0723C58.4774 28.0723 59.9403 28.3632 61.3052 28.9286C62.6701 29.494 63.9103 30.3226 64.955 31.3673C67.0647 33.4771 68.25 36.3386 68.25 39.3223C68.25 42.3059 67.0647 45.1674 64.955 47.2772C62.8452 49.387 59.9837 50.5723 57 50.5723C54.0163 50.5723 51.1548 49.387 49.045 47.2772ZM31.3674 64.9549C29.2576 62.8451 28.0723 59.9836 28.0723 56.9999C28.0723 54.0162 29.2576 51.1548 31.3674 49.045C33.4772 46.9352 36.3386 45.7499 39.3223 45.7499C42.306 45.7499 45.1675 46.9352 47.2773 49.045C49.3871 51.1548 50.5723 54.0162 50.5723 56.9999C50.5723 59.9836 49.3871 62.8451 47.2773 64.9549C45.1675 67.0647 42.306 68.2499 39.3223 68.2499C36.3386 68.2499 33.4772 67.0647 31.3674 64.9549ZM66.7227 64.9549C65.6781 63.9102 64.8494 62.67 64.284 61.3051C63.7187 59.9402 63.4277 58.4773 63.4277 56.9999C63.4277 55.5226 63.7187 54.0596 64.284 52.6947C64.8494 51.3298 65.6781 50.0896 66.7227 49.045C67.7674 48.0003 69.0076 47.1716 70.3725 46.6063C71.7374 46.0409 73.2003 45.7499 74.6777 45.7499C76.155 45.7499 77.6179 46.0409 78.9829 46.6063C80.3478 47.1716 81.588 48.0003 82.6326 49.045C84.7424 51.1548 85.9277 54.0162 85.9277 56.9999C85.9277 59.9836 84.7424 62.8451 82.6326 64.9549C80.5228 67.0647 77.6614 68.2499 74.6777 68.2499C71.694 68.2499 68.8325 67.0647 66.7227 64.9549ZM49.045 82.6325C46.9353 80.5228 45.75 77.6613 45.75 74.6776C45.75 71.6939 46.9353 68.8324 49.045 66.7226C51.1548 64.6129 54.0163 63.4276 57 63.4276C59.9837 63.4276 62.8452 64.6129 64.955 66.7226C67.0647 68.8324 68.25 71.6939 68.25 74.6776C68.25 77.6613 67.0647 80.5228 64.955 82.6325C62.8452 84.7423 59.9837 85.9276 57 85.9276C54.0163 85.9276 51.1548 84.7423 49.045 82.6325Z" fill="url(#paint2_radial_6_9668)"/>
</g>
<defs>
<linearGradient id="paint0_linear_6_9668" x1="57.0047" y1="92.3779" x2="56.2401" y2="27.2291" gradientUnits="userSpaceOnUse">
<stop stop-color="#7EFFF5"/>
<stop offset="0.361958" stop-color="#A981FF" stop-opacity="0.92"/>
<stop offset="0.738981" stop-color="#FF8BC1"/>
<stop offset="1" stop-color="#FFF385"/>
</linearGradient>
<linearGradient id="paint1_linear_6_9668" x1="73.7993" y1="40.2013" x2="41.2296" y2="72.771" gradientUnits="userSpaceOnUse">
<stop stop-color="white"/>
<stop offset="1" stop-color="white" stop-opacity="0.5"/>
</linearGradient>
<radialGradient id="paint2_radial_6_9668" cx="0" cy="0" r="1" gradientUnits="userSpaceOnUse" gradientTransform="translate(2.78519 55.1556) rotate(-1.38811) scale(67.1967 77.7629)">
<stop stop-color="#D0B3FF" stop-opacity="0.73"/>
<stop offset="1" stop-color="#D0B3FF" stop-opacity="0"/>
</radialGradient>
<clipPath id="clip0_6_9668">
<rect width="80" height="80" fill="white" transform="translate(57 0.431396) rotate(45)"/>
</clipPath>
</defs>
</svg>
