<svg width="154" height="154" viewBox="0 0 154 154" fill="none" xmlns="http://www.w3.org/2000/svg">
<g clip-path="url(#clip0_6_8152)">
<path d="M104.931 119.009L39.7194 100.31L66.3713 32.6116L118.203 47.4741L104.931 119.009Z" fill="white"/>
<path d="M105.758 120.348L38.3032 101.005L65.7407 31.3202L119.421 46.7126L105.758 120.348ZM41.1305 99.6127L104.102 117.67L116.969 48.2127L67.0055 33.886L41.1305 99.6127Z" fill="#0D0C10"/>
<path d="M104.167 39.5057L100.386 47.6528L81.3836 42.2039L82.494 33.291L88.0477 34.8835L89.1709 30.9665L99.7368 33.9962L98.6136 37.9132L104.167 39.5057Z" fill="#0D0C10"/>
<path d="M64.0248 56.4422L68.9267 42.2976L85.2205 46.5732L80.8613 60.869L64.0248 56.4422ZM70.2846 44.8461L66.7764 54.9751L79.3999 58.282L82.5375 48.0467L70.2846 44.8461Z" fill="#0D0C10"/>
<path d="M57.7037 75.6576L62.637 61.5264L79.309 65.8664L74.905 80.1493L57.7037 75.6576ZM64.0001 64.072L60.4595 74.1917L73.4802 77.6037L76.6382 67.3742L64.0001 64.072Z" fill="#0D0C10"/>
<path d="M51.0716 95.008L56.1538 80.4653L73.3184 84.9465L68.786 99.6464L51.0716 95.008ZM57.5087 83.0085L53.8275 93.5416L67.3525 97.0853L70.6389 86.4386L57.5087 83.0085Z" fill="#0D0C10"/>
<path d="M107.309 59.7771L86.7637 53.8857L86.1799 55.9216L106.726 61.813L107.309 59.7771Z" fill="#0D0C10"/>
<path d="M73.7803 54.7498L71.0702 48.0197L73.034 47.2256L74.8897 51.8336L86.2609 46.1537L87.2063 48.0507L73.7803 54.7498Z" fill="#FF8686"/>
<path d="M67.5233 74.1859L64.6635 67.0867L66.6302 66.2979L68.6298 71.2645L80.802 65.1885L81.7474 67.0855L67.5233 74.1859Z" fill="#FF8686"/>
<path d="M114.115 114.936L110.171 74.2617L89.0899 72.2354L78.0272 81.9255L94.7978 98.8608L93.5406 113.94L114.115 114.936Z" fill="white"/>
<path d="M92.3914 114.947L93.6989 99.2603L76.4816 81.8709L88.7334 71.1381L111.14 73.2889L115.27 116.052L92.3914 114.947ZM79.5698 81.9808L95.893 98.4618L94.6866 112.935L112.94 113.82L109.199 75.2308L89.4434 73.3334L79.5698 81.9808Z" fill="#0D0C10"/>
<path d="M117.576 123.578L90.0715 124.02L89.915 114.518C89.8723 111.668 95.9922 109.259 103.588 109.137C111.185 109.015 117.371 111.23 117.417 114.081L117.576 123.578Z" fill="white"/>
<path d="M89.0392 125.098L88.8636 114.539C88.8019 110.498 96.4101 108.198 103.578 108.081C107.372 108.019 110.969 108.522 113.694 109.497C116.751 110.594 118.454 112.214 118.483 114.065L118.652 124.618L89.0392 125.098ZM111.945 111.159C109.226 110.441 106.419 110.117 103.61 110.197C95.7475 110.326 90.9679 112.794 90.9838 114.508L91.1182 122.949L116.495 122.533L116.356 114.121C116.345 113.236 115.045 112.255 112.971 111.51C112.645 111.373 112.303 111.262 111.945 111.159Z" fill="#0D0C10"/>
<path d="M103.917 130.025C111.512 129.904 117.633 127.496 117.587 124.644C117.542 121.794 111.348 119.58 103.754 119.7C96.1589 119.821 90.0382 122.23 90.0841 125.081C90.129 127.933 96.3225 130.146 103.917 130.025Z" fill="#0D0C10"/>
<path d="M94.9599 130.026C94.561 129.911 94.1774 129.788 93.8094 129.656C90.7476 128.562 89.0492 126.943 89.02 125.092C88.9543 121.05 96.5664 118.752 103.73 118.633C110.894 118.515 118.592 120.586 118.639 124.618C118.701 128.659 111.094 130.955 103.929 131.077C100.905 131.157 97.8835 130.804 94.9599 130.026ZM112.119 121.726C109.392 121.004 106.575 120.682 103.756 120.769C95.8943 120.895 91.1155 123.363 91.1294 125.08C91.1406 125.965 92.4409 126.946 94.5153 127.686C97.0099 128.578 100.337 129.038 103.887 128.981C111.748 128.856 116.527 126.388 116.513 124.67C116.518 123.684 114.941 122.518 112.139 121.715L112.119 121.726Z" fill="#0D0C10"/>
<path d="M111.981 118.012C113.246 118.374 114.564 117.644 114.926 116.38C115.288 115.116 114.558 113.798 113.294 113.435C112.03 113.073 110.712 113.804 110.35 115.068C109.987 116.331 110.718 117.649 111.981 118.012Z" fill="#0D0C10"/>
<path d="M112.192 73.1276L76.1759 82.8185L64.8639 89.8284L77.6006 90.405L113.979 81.5715L112.192 73.1276Z" fill="#FF8686"/>
<path d="M61.3962 90.7293L75.7302 81.8318L112.976 71.8017L115.236 82.3599L77.7115 91.4727L61.3962 90.7293ZM76.6011 83.8044L68.3338 88.9247L77.5005 89.3499L112.733 80.7959L111.389 74.4487L76.6011 83.8044Z" fill="#0D0C10"/>
<path d="M77.2159 82.6194L75.1346 83.0111L76.563 90.5996L78.6442 90.2078L77.2159 82.6194Z" fill="#0D0C10"/>
<path d="M95.5251 88.1111L86.2995 83.2978L81.1829 85.1134L86.1119 90.8671L95.5251 88.1111Z" fill="white"/>
<path d="M87.5932 93.0937L79.2568 84.671L86.3201 82.1666L101.785 88.3194L101.004 90.2899L86.2755 84.4275L83.107 85.5503L89.0998 91.6046L87.5932 93.0937Z" fill="#0D0C10"/>
<path d="M22.6841 87.4496L42.1902 58.1177L59.6271 49.7398L56.0892 58.7278L67.7425 53.8162L66.6811 59.5002L50.4558 73.0416L42.6428 92.882L22.6841 87.4496Z" fill="white"/>
<path d="M20.9907 88.0873L41.472 57.2905L61.6023 47.6184L57.9979 56.7768L69.1454 52.0771L67.6512 60.0692L51.3403 73.6788L43.2674 94.1491L20.9907 88.0873ZM42.9139 58.9466L24.3781 86.8157L42.0041 91.624L49.5664 72.4122L65.709 58.9439L66.3377 55.5682L54.1821 60.6795L57.6535 51.8619L42.9139 58.9466Z" fill="#0D0C10"/>
<path d="M18.2978 91.3128L44.4344 99.8643L47.3898 90.8331C48.2762 88.126 43.1409 84.0141 35.9216 81.6532C28.7023 79.2922 22.1333 79.581 21.2458 82.292L18.2978 91.3128Z" fill="white"/>
<path d="M45.1138 101.201L16.9626 91.9916L20.2444 81.9604C20.8157 80.1987 22.9216 79.1545 26.1666 79.0098C29.0624 78.884 32.6453 79.4664 36.2713 80.6515C39.8972 81.8366 43.1102 83.4938 45.3798 85.2903C47.9082 87.3372 48.9925 89.4107 48.4183 91.1672L45.1138 101.201ZM19.6334 90.6376L43.7603 98.5294L46.3669 90.4999C46.6329 89.6947 45.7389 88.3103 44.018 86.9355C41.9471 85.2754 38.9493 83.7592 35.5775 82.6558C32.2058 81.5523 28.89 81.0069 26.239 81.1237C24.0443 81.217 22.5218 81.7938 22.2365 82.6198L19.6334 90.6376Z" fill="#0D0C10"/>
<path d="M44.1701 101.262C45.0658 98.5524 39.9406 94.422 32.723 92.0359C25.5051 89.6506 18.9279 89.9129 18.0322 92.623C17.1367 95.3322 22.2616 99.4634 29.4795 101.849C36.6971 104.235 43.2745 103.972 44.1701 101.262Z" fill="#0D0C10"/>
<path d="M30.3639 102.897C29.9567 102.781 29.5169 102.654 29.1047 102.51C25.4787 101.325 22.2656 99.6679 20.0001 97.8719C17.4676 95.824 16.3873 93.7521 16.9615 91.9956C18.2166 88.1562 26.149 88.4605 32.9709 90.6858C36.5969 91.8709 39.8097 93.5283 42.0755 95.3235C44.6079 97.3715 45.688 99.4441 45.1138 101.201C43.9347 104.806 36.8703 104.763 30.3639 102.897ZM30.9947 92.2915C24.2154 90.3476 19.4729 91.1204 18.9723 92.6512C18.7045 93.4774 19.6045 94.8414 21.3241 96.2203C23.3921 97.8754 26.3886 99.3959 29.7658 100.496C37.2339 102.942 42.5717 102.168 43.1044 100.54C43.3665 99.7339 42.4722 98.35 40.7514 96.9751C38.6835 95.3201 35.6867 93.8003 32.315 92.6967C31.8679 92.5505 31.4263 92.4153 30.9947 92.2915Z" fill="#0D0C10"/>
<path d="M24.6791 87.5627C25.9429 87.9251 27.2611 87.1946 27.6236 85.9303C27.9859 84.6668 27.2552 83.3486 25.9914 82.9862C24.7277 82.6239 23.4094 83.3545 23.0471 84.618C22.6845 85.8823 23.4154 87.2004 24.6791 87.5627Z" fill="#0D0C10"/>
<path d="M55.6456 57.766L50.5166 60.1468L51.4082 62.0678L56.5373 59.6869L55.6456 57.766Z" fill="#0D0C10"/>
</g>
<defs>
<clipPath id="clip0_6_8152">
<rect width="124" height="124" fill="white" transform="translate(34.4902 0.3125) rotate(16)"/>
</clipPath>
</defs>
</svg>
