<svg width="110" height="87" viewBox="0 0 110 87" fill="none" xmlns="http://www.w3.org/2000/svg">
<path d="M1.38477 22.7707V27.9534L45.2444 73.6367L91.8014 49.883V44.7188L41.1508 7.39062L1.38477 22.7707Z" fill="white"/>
<path d="M45.0555 74.7588L0.464844 28.3408V22.142L41.2909 6.37451L92.7163 44.2728V50.4608L92.219 50.7131L45.0555 74.7588ZM2.29963 27.5733L45.4355 72.5292L90.8884 49.3385V45.1793L41.013 8.42493L2.29963 23.4103V27.5733Z" fill="#0D0C10"/>
<path d="M1.38477 22.7705L45.3467 68.2238L91.8014 44.7186V49.8827L45.2444 73.6364L1.38477 27.9533V22.7705Z" fill="#0D0C10"/>
<path d="M45.162 69.3425L0.728516 23.4031L2.04437 22.1348L45.5384 67.1055L91.3901 43.9038L92.2159 45.5336L45.162 69.3425Z" fill="#0D0C10"/>
<path d="M40.133 11.7837L9 23.8232L44.6725 59.0056L79.3145 41.4767L40.133 11.7837Z" fill="#FFEBEB"/>
<path d="M44.5116 60.1028L7.35156 23.4801L40.2791 10.7607L81.0317 41.6452L44.5116 60.1028ZM10.6483 24.1671L44.8479 57.9098L77.6001 41.3382L39.9867 12.8295L10.6483 24.1671Z" fill="#0D0C10"/>
<path d="M61.5508 52.9785L71.0866 48.1289L73.8829 50.8953L64.0179 55.9062L61.5508 52.9785Z" fill="#0D0C10"/>
<path d="M46.7045 41.3197C51.8709 38.3629 53.6621 31.7778 50.7054 26.6115C47.7486 21.4451 41.1635 19.6539 35.9971 22.6106C30.8307 25.5674 29.0395 32.1525 31.9963 37.3189C34.953 42.4852 41.5381 44.2764 46.7045 41.3197Z" fill="#FF8686"/>
<path d="M47.1394 42.0862C45.2106 43.1853 43.0081 43.7111 40.7908 43.6018C38.5735 43.4925 36.4334 42.7527 34.6221 41.4692C32.8107 40.1857 31.4033 38.4119 30.5651 36.3562C29.7269 34.3005 29.4929 32.0483 29.8904 29.8642C30.288 27.6801 31.3007 25.6548 32.8094 24.0264C34.3182 22.3978 36.2604 21.2337 38.4078 20.6709C40.5552 20.108 42.8187 20.1697 44.9323 20.8487C47.0459 21.5277 48.9218 22.7959 50.3396 24.5041C52.3107 26.8858 53.2572 29.9517 52.9717 33.03C52.6861 36.1083 51.192 38.9479 48.8166 40.9265C48.293 41.3619 47.7317 41.75 47.1394 42.0862ZM36.4517 23.3618C34.6804 24.3648 33.2609 25.8887 32.3861 27.7267C31.5113 29.5646 31.2236 31.6274 31.5622 33.6346C31.9007 35.6417 32.8491 37.496 34.2784 38.9453C35.7076 40.3946 37.5485 41.3687 39.5508 41.7352C41.553 42.1016 43.6196 41.8427 45.4695 40.9936C47.3195 40.1444 48.8631 38.7463 49.8906 36.9891C50.9182 35.232 51.3798 33.2011 51.2126 31.1724C51.0455 29.1438 50.2578 27.2158 48.9566 25.6505C47.4709 23.8645 45.4049 22.6573 43.1197 22.2395C40.8344 21.8217 38.475 22.22 36.4535 23.3648L36.4517 23.3618Z" fill="#0D0C10"/>
<path d="M35.9699 29.7625L34.5987 30.894L36.3841 33.0578L37.7553 31.9263L35.9699 29.7625Z" fill="#0D0C10"/>
<path d="M41.6398 25.078L40.2686 26.2094L42.054 28.3732L43.4252 27.2418L41.6398 25.078Z" fill="#0D0C10"/>
<path d="M45.0035 38.3744C43.4975 39.2281 41.7393 39.5251 40.0365 39.2136C38.3336 38.9022 36.7945 38.002 35.6882 36.6706L37.0515 35.5396C38.0011 36.683 39.366 37.4022 40.846 37.5392C42.3259 37.6761 43.7997 37.2196 44.943 36.27C46.0863 35.3204 46.8056 33.9554 46.9425 32.4755C47.0796 30.9955 46.623 29.5218 45.6734 28.3784L47.0336 27.2492C48.2813 28.7544 48.8808 30.6932 48.7004 32.6399C48.5201 34.5867 47.5746 36.3823 46.0716 37.6326C45.7376 37.9102 45.3802 38.1585 45.0035 38.3744Z" fill="#0D0C10"/>
<path d="M105.094 56.374C103.625 62.3579 101.163 66.9143 99.626 66.5304L90.1413 64.2099L95.5056 42.5135L105.001 44.8528C106.527 45.2112 106.575 50.3834 105.094 56.374Z" fill="#0D0C10"/>
<path d="M100.811 67.1538C100.394 67.4137 99.8918 67.499 99.4129 67.3911L89.9282 65.0706L90.3516 63.3519L99.8364 65.6724C100.556 65.5907 102.729 62.2471 104.236 56.1648C105.742 50.0821 105.371 46.1056 104.755 45.6711L95.2985 43.3345L95.7267 41.6175L105.222 43.9562C106.427 44.253 107.049 45.7658 107.077 48.4733C107.032 51.2059 106.66 53.9221 105.971 56.5662C104.968 60.6149 103.035 65.8031 100.877 67.0993L100.811 67.1538Z" fill="#0D0C10"/>
<path d="M94.65 42.2767L89.2858 63.9731L91.004 64.3981L96.3679 42.7019L94.65 42.2767Z" fill="#0D0C10"/>
<path d="M96.6902 46.2728C96.6361 48.8915 96.2734 51.4942 95.6105 54.0278C95.0184 56.5527 94.1381 59.0007 92.9877 61.3247L88.9469 60.6064L78.0772 58.6381L71.1506 62.3622L52.4535 59.4939L55.099 55.3942L64.3602 54.2742L63.0284 48.719L46.2621 37.6945L44.9489 32.8629L60.5794 40.0145L72.0571 32.6627L93.2258 44.3532L96.6902 46.2728Z" fill="white"/>
<path d="M93.4685 62.3135L78.2199 59.5563L71.3052 63.2728L50.9727 60.1621L54.5804 54.5655L63.2731 53.514L62.2526 49.2652L45.503 38.2556L43.6122 31.2748L60.5235 39.0108L72.0344 31.6317L97.5742 45.7507L97.5783 46.2706C97.5223 48.9627 97.151 51.6391 96.4725 54.2444C95.8628 56.8379 94.9565 59.3533 93.7726 61.7403L93.4685 62.3135ZM70.9878 61.4353L77.927 57.7048L92.4872 60.3424C93.4552 58.2484 94.2116 56.0631 94.7445 53.8182C95.34 51.5201 95.6916 49.1656 95.7937 46.7947L72.0859 33.7026L60.6512 41.0299L46.2903 34.4649L47.0139 37.1544L63.7898 48.1815L65.4377 55.0443L55.6031 56.2314L53.9195 58.8264L70.9878 61.4353Z" fill="#0D0C10"/>
<path d="M60.9017 39.1237L60.1102 40.7066L63.3995 42.3514L64.191 40.7685L60.9017 39.1237Z" fill="#0D0C10"/>
<path d="M65.1735 36.5247L64.403 38.118L67.8701 39.7946L68.6405 38.2013L65.1735 36.5247Z" fill="#0D0C10"/>
<path d="M69.5718 33.5487L68.7892 35.1385L71.8925 36.6662L72.6751 35.0764L69.5718 33.5487Z" fill="#0D0C10"/>
<path d="M88.9465 60.6064L92.975 61.3317C91.9572 63.2804 90.921 64.3913 90.1231 64.1873C89.3252 63.9832 88.9883 62.6463 88.9465 60.6064Z" fill="#0D0C10"/>
<path d="M96.6901 46.2731L93.2297 44.359C94.0576 43.0412 94.8629 42.3317 95.5093 42.4917C96.292 42.6838 96.6898 44.12 96.6901 46.2731Z" fill="#0D0C10"/>
<path d="M91.3106 64.8135C91.1074 64.9418 90.8807 65.0285 90.6434 65.068C90.4066 65.108 90.1638 65.0998 89.9301 65.0452C88.7194 64.747 88.1129 63.2952 88.0778 60.6114C88.0746 60.4808 88.1006 60.3506 88.1549 60.2318C88.2087 60.1124 88.289 60.007 88.3893 59.923C88.4886 59.8386 88.6054 59.7769 88.7311 59.7428C88.8573 59.7093 88.989 59.7036 89.1171 59.7267L93.144 60.4563C93.2796 60.482 93.4072 60.5388 93.5169 60.6223C93.6265 60.7058 93.715 60.8135 93.7758 60.9378C93.8363 61.0615 93.8672 61.1978 93.8657 61.3355C93.8642 61.4731 93.8306 61.6085 93.7677 61.7313C92.9484 63.3212 92.1185 64.3511 91.3106 64.8135ZM90.3701 63.3128C90.5381 63.2571 90.9705 62.9365 91.6026 61.9673L89.8983 61.6617C90.0142 62.7336 90.2432 63.1979 90.3609 63.3181L90.3701 63.3128Z" fill="#0D0C10"/>
<path d="M97.129 47.0412C96.9978 47.1171 96.8495 47.1572 96.6977 47.1581C96.5459 47.1589 96.3966 47.1205 96.264 47.0467L92.7997 45.1348C92.6923 45.0749 92.5985 44.9936 92.5237 44.8961C92.449 44.7986 92.3953 44.6866 92.3652 44.5679C92.3349 44.4519 92.3284 44.3308 92.3471 44.2117C92.3652 44.093 92.408 43.9799 92.4729 43.8782C93.5736 42.1187 94.6644 41.3594 95.7129 41.6161C96.9398 41.9214 97.5633 43.4813 97.5601 46.2688C97.5597 46.423 97.5197 46.5741 97.4433 46.7081C97.3666 46.8415 97.2568 46.9534 97.1238 47.0321L97.129 47.0412ZM94.5134 44.0525L95.7078 44.7144C95.5932 43.8586 95.4016 43.4667 95.289 43.3557C94.9776 43.5227 94.7124 43.7657 94.5186 44.0615L94.5134 44.0525Z" fill="#0D0C10"/>
<path d="M101.425 45.848L99.0825 47.5747L100.809 49.9167L103.151 48.19L101.425 45.848Z" fill="white"/>
</svg>
