<svg width="124" height="124" viewBox="0 0 124 124" fill="none" xmlns="http://www.w3.org/2000/svg">
<path d="M100.429 94.6818H32.5898L39.5491 22.2598H93.4695L100.429 94.6818Z" fill="white"/>
<path d="M101.595 95.7408H31.4219L38.5887 21.1924H94.4318L101.595 95.7408ZM33.7557 93.6229H99.2653L92.4883 23.3102H40.5117L33.7557 93.6229Z" fill="#0D0C10"/>
<path d="M77.781 18.4691L76.3917 27.3429H56.6237L55.2344 18.4691H61.0119V14.3943H72.0036V18.4691H77.781Z" fill="#0D0C10"/>
<path d="M43.8613 45.8143L44.6746 30.8665L61.5157 30.4854L61.2658 45.4289L43.8613 45.8143ZM46.6823 32.942L46.102 43.6456L59.148 43.3449L59.3428 32.6413L46.6823 32.942Z" fill="#0D0C10"/>
<path d="M43.084 66.0273L43.9312 51.0837L61.1535 50.6602L60.857 65.6037L43.084 66.0273ZM45.9431 53.1549L45.329 63.8586L58.7858 63.5494L59.0018 52.8458L45.9431 53.1549Z" fill="#0D0C10"/>
<path d="M42.041 86.4571L42.9178 71.0769L60.6527 70.6533L60.3477 86.033L42.041 86.4571ZM44.9213 73.1482L44.2859 84.2879L58.2638 83.9664L58.4882 72.8262L44.9213 73.1482Z" fill="#0D0C10"/>
<path d="M86.3874 37.0889H65.0137V39.2068H86.3874V37.0889Z" fill="#0D0C10"/>
<path d="M52.7746 41.4992L48.3145 35.7767L49.9833 34.4721L53.0373 38.3902L62.4023 29.7959L63.834 31.3589L52.7746 41.4992Z" fill="#FF8686"/>
<path d="M52.116 61.9057L47.4102 55.8698L49.0832 54.5694L52.3744 58.7924L62.4003 49.5967L63.832 51.1597L52.116 61.9057Z" fill="#FF8686"/>
<path d="M108.134 88.2362L93.1318 50.2246L72.3088 54.0875L64.3457 66.4516L85.1346 78.1082L88.0825 92.9498L108.134 88.2362Z" fill="white"/>
<path d="M87.2562 94.2335L84.1892 78.7942L62.8457 66.8242L71.6645 53.1301L93.7959 49.0215L109.553 88.9899L87.2562 94.2335ZM65.8446 66.0787L86.0782 77.4219L88.9079 91.6667L106.698 87.4862L92.4658 51.4231L72.9521 55.0447L65.8446 66.0787Z" fill="#0D0C10"/>
<path d="M113.842 95.5889L87.5254 103.594L84.756 94.5043C83.9294 91.7763 89.1481 87.7736 96.4162 85.5623C103.685 83.3518 110.242 83.775 111.072 86.503L113.842 95.5889Z" fill="white"/>
<path d="M86.8313 104.915L83.752 94.8133C82.5789 90.9462 89.2584 86.6384 96.1165 84.5503C99.7464 83.4442 103.342 82.9366 106.231 83.1226C109.471 83.3342 111.555 84.423 112.093 86.1937L115.165 96.2914L86.8313 104.915ZM105.007 85.2025C102.197 85.262 99.4091 85.7241 96.7307 86.5748C89.208 88.8663 85.2937 92.5557 85.7815 94.1991L88.2375 102.276L112.517 94.8811L110.064 86.8335C109.81 85.9862 108.29 85.4017 106.091 85.2571C105.74 85.2149 105.38 85.2025 105.007 85.2025Z" fill="#0D0C10"/>
<path d="M102.493 105.551C109.76 103.341 114.98 99.3382 114.15 96.6102C113.321 93.8822 106.757 93.4615 99.4897 95.6703C92.2224 97.88 87.0029 101.883 87.8328 104.611C88.662 107.34 95.2257 107.76 102.493 105.551Z" fill="#0D0C10"/>
<path d="M93.883 108.02C93.468 108.02 93.0655 108.007 92.6753 107.982C89.4306 107.774 87.3515 106.685 86.8134 104.915C85.6362 101.048 92.3198 96.7398 99.1729 94.6516C106.027 92.5635 113.998 92.432 115.155 96.295C116.328 100.162 109.648 104.466 102.794 106.558C99.9094 107.469 96.9078 107.962 93.883 108.02ZM108.089 95.3121C105.27 95.3692 102.473 95.8362 99.7871 96.6976C92.2644 98.985 88.351 102.674 88.8379 104.322C89.0925 105.169 90.6127 105.754 92.8108 105.893C95.4545 106.063 98.7794 105.588 102.176 104.555C109.699 102.268 113.612 98.5783 113.125 96.9307C112.858 95.9817 111.021 95.2956 108.106 95.2956L108.089 95.3121Z" fill="#0D0C10"/>
<path d="M106.931 91.7813C108.246 91.7813 109.312 90.7157 109.312 89.4013C109.312 88.0861 108.246 87.0205 106.931 87.0205C105.616 87.0205 104.551 88.0861 104.551 89.4013C104.551 90.7157 105.616 91.7813 106.931 91.7813Z" fill="#0D0C10"/>
<path d="M94.7625 48.5769L62.8127 67.8197L53.8711 77.6762L66.2732 74.7197L98.8074 56.2012L94.7625 48.5769Z" fill="#FF8686"/>
<path d="M50.7852 79.4976L62.1114 66.9937L95.1495 47.0859L100.233 56.612L66.6733 75.7151L50.7852 79.4976ZM63.4923 68.6499L56.9566 75.8506L65.8854 73.7327L97.3948 55.7988L94.3535 50.0679L63.4923 68.6499Z" fill="#0D0C10"/>
<path d="M63.758 67.3408L61.8652 68.2911L65.33 75.1918L67.2226 74.2416L63.758 67.3408Z" fill="#0D0C10"/>
<path d="M82.8726 67.5732L72.6776 65.4893L68.2598 68.6448L74.5837 72.817L82.8726 67.5732Z" fill="white"/>
<path d="M76.6202 74.5494L66.2852 68.7508L72.3845 64.3965L88.9459 66.0484L88.7384 68.1578L72.9649 66.5821L70.2286 68.5348L77.658 72.7027L76.6202 74.5494Z" fill="#0D0C10"/>
<path d="M12.6699 87.0159L23.3354 53.4436L37.7876 40.584L36.8642 50.199L46.7122 42.2656L47.2586 48.0219L35.3944 65.5111L33.3529 86.7365L12.6699 87.0159Z" fill="white"/>
<path d="M11.2168 88.0953L22.416 52.8461L39.1004 38L38.1601 47.7972L47.5803 40.2068L48.3469 48.3012L36.4192 65.8794L34.3014 87.782L11.2168 88.0953ZM24.2585 54.0406L14.1224 85.9393L32.391 85.7029L34.3649 65.1509L46.1698 47.7548L45.8436 44.3366L35.5678 52.6004L36.4743 43.1676L24.2585 54.0406Z" fill="#0D0C10"/>
<path d="M9.51953 91.9378L37.0007 92.9538L37.3523 83.4579C37.4582 80.6113 31.3884 78.0742 23.798 77.7946C16.2077 77.5151 9.97271 79.6033 9.86681 82.4539L9.51953 91.9378Z" fill="white"/>
<path d="M38.021 94.0518L8.42188 92.959L8.81157 82.4118C8.87514 80.5608 10.6117 78.9766 13.6911 77.9431C16.44 77.024 20.0446 76.5962 23.8568 76.7359C27.6689 76.8757 31.2142 77.5831 33.8911 78.6844C36.8858 79.9551 38.4996 81.6494 38.4319 83.4961L38.021 94.0518ZM10.616 90.9212L35.9836 91.857L36.2759 83.4201C36.3097 82.5727 35.0687 81.4884 33.0355 80.6412C30.5873 79.6163 27.2877 78.9851 23.7424 78.8538C20.1972 78.7225 16.8594 79.1122 14.3434 79.9551C12.2594 80.6498 10.9549 81.6239 10.9082 82.4965L10.616 90.9212Z" fill="#0D0C10"/>
<path d="M37.1293 94.3714C37.2433 91.5194 31.1783 88.9617 23.5825 88.6575C15.9868 88.3541 9.73667 90.4191 9.62268 93.2711C9.5086 96.1223 15.5737 98.6808 23.1694 98.9842C30.7652 99.2884 37.0153 97.2226 37.1293 94.3714Z" fill="#0D0C10"/>
<path d="M24.3081 99.748C23.8846 99.748 23.4271 99.7479 22.9909 99.7223C19.1787 99.5826 15.6334 98.8758 12.9607 97.7739C9.96176 96.5033 8.35224 94.8094 8.42003 92.9627C8.56825 88.9261 16.2772 87.0322 23.4482 87.2909C27.2604 87.4306 30.8057 88.1382 33.4784 89.2394C36.4773 90.51 38.0869 92.2046 38.0191 94.0514C37.8793 97.8417 31.0768 99.748 24.3081 99.748ZM21.9912 89.3791C14.9387 89.3791 10.5929 91.4292 10.5336 93.0387C10.504 93.9067 11.745 94.9698 13.7781 95.8213C16.2222 96.8422 19.5217 97.4779 23.0713 97.6044C30.9243 97.897 35.842 95.6816 35.9055 93.9704C35.9351 93.123 34.6941 92.0393 32.6609 91.192C30.2169 90.171 26.9174 89.5361 23.372 89.4047C22.9019 89.3873 22.4402 89.3791 21.9912 89.3791Z" fill="#0D0C10"/>
<path d="M14.6188 86.5756C15.9335 86.5756 16.9992 85.5101 16.9992 84.1948C16.9992 82.8804 15.9335 81.8147 14.6188 81.8147C13.3041 81.8147 12.2383 82.8804 12.2383 84.1948C12.2383 85.5101 13.3041 86.5756 14.6188 86.5756Z" fill="#0D0C10"/>
<path d="M36.1725 49.3975L31.8984 53.0998L33.285 54.7006L37.5591 50.9982L36.1725 49.3975Z" fill="#0D0C10"/>
</svg>
