<svg width="192" height="192" viewBox="0 0 192 192" fill="none" xmlns="http://www.w3.org/2000/svg">
<path d="M95.2193 150.308C122.161 150.308 144.001 128.467 144.001 101.525C144.001 74.584 122.161 52.7437 95.2193 52.7437C68.2779 52.7437 46.4375 74.584 46.4375 101.525C46.4375 128.467 68.2779 150.308 95.2193 150.308Z" fill="#0D0C10"/>
<path d="M95.219 151.997C85.2363 151.999 75.4773 149.039 67.1764 143.494C58.8755 137.949 52.4052 130.067 48.5842 120.845C44.763 111.623 43.7625 101.474 45.7093 91.6829C47.6559 81.8919 52.4624 72.898 59.5207 65.8387C66.5792 58.7794 75.5724 53.9717 85.3632 52.0237C95.154 50.0756 105.303 51.0748 114.526 54.8947C123.749 58.7146 131.631 65.1837 137.178 73.484C142.724 81.7842 145.685 91.5428 145.685 101.525C145.676 114.908 140.356 127.739 130.894 137.202C121.432 146.666 108.601 151.987 95.219 151.997ZM95.219 54.4272C85.9019 54.4258 76.7938 57.1876 69.0464 62.363C61.2989 67.5384 55.2604 74.8952 51.6942 83.5028C48.1281 92.1103 47.1947 101.582 49.0121 110.72C50.8294 119.858 55.3159 128.252 61.9041 134.84C68.4921 141.428 76.8861 145.915 86.0243 147.732C95.1623 149.55 104.634 148.617 113.242 145.051C121.849 141.485 129.206 135.446 134.381 127.698C139.557 119.951 142.318 110.842 142.317 101.525C142.307 89.0376 137.342 77.064 128.511 68.2337C119.68 59.4035 107.707 54.4379 95.219 54.4272Z" fill="#0D0C10"/>
<path d="M89.6432 150.308C116.585 150.308 138.425 128.467 138.425 101.525C138.425 74.584 116.585 52.7437 89.6432 52.7437C62.7017 52.7437 40.8613 74.584 40.8613 101.525C40.8613 128.467 62.7017 150.308 89.6432 150.308Z" fill="#FF8686"/>
<path d="M89.6424 151.997C79.6586 152.004 69.897 149.05 61.5925 143.507C53.288 137.966 46.8136 130.085 42.9884 120.864C39.1631 111.642 38.1588 101.492 40.1025 91.6995C42.046 81.9067 46.8504 72.9103 53.9078 65.8482C60.9651 58.7864 69.9582 53.976 79.7497 52.0258C89.5413 50.0756 99.6913 51.0731 108.916 54.8922C118.14 58.7113 126.025 65.1805 131.572 73.4813C137.119 81.7821 140.081 91.5417 140.081 101.526C140.072 114.903 134.757 127.73 125.3 137.193C115.844 146.655 103.02 151.98 89.6424 151.997ZM89.6424 54.4272C80.3242 54.4205 71.2134 57.1778 63.4625 62.35C55.7114 67.5222 49.6687 74.877 46.0984 83.4842C42.5282 92.0913 41.591 101.564 43.4052 110.704C45.2195 119.844 49.7039 128.241 56.291 134.831C62.878 141.422 71.2719 145.911 80.4108 147.73C89.5496 149.55 99.0228 148.618 107.632 145.053C116.241 141.487 123.599 135.448 128.776 127.701C133.953 119.953 136.715 110.844 136.714 101.526C136.703 89.0422 131.741 77.0728 122.917 68.2434C114.092 59.4138 102.126 54.4451 89.6424 54.4272Z" fill="#0D0C10"/>
<path d="M89.643 107.243C92.8005 107.243 95.3603 104.683 95.3603 101.526C95.3603 98.368 92.8005 95.8083 89.643 95.8083C86.4855 95.8083 83.9258 98.368 83.9258 101.526C83.9258 104.683 86.4855 107.243 89.643 107.243Z" fill="#0D0C10"/>
<path d="M91.328 56.5686H87.9609V61.3095H91.328V56.5686Z" fill="white"/>
<path d="M91.328 141.742H87.9609V146.482H91.328V141.742Z" fill="white"/>
<path d="M49.4264 99.8418H44.6855V103.209H49.4264V99.8418Z" fill="white"/>
<path d="M134.599 99.8418H129.859V103.209H134.599V99.8418Z" fill="white"/>
<path d="M68.1898 134.969L65.7246 139.048L68.6202 140.797L71.0854 136.721L68.1898 134.969Z" fill="white"/>
<path d="M112.059 61.7888L109.594 65.8659L112.489 67.6168L114.955 63.5396L112.059 61.7888Z" fill="white"/>
<path d="M54.2254 120.655L50.1523 123.081L51.8755 125.973L55.9484 123.547L54.2254 120.655Z" fill="white"/>
<path d="M127.413 77.0649L123.34 79.4911L125.063 82.3839L129.136 79.9577L127.413 77.0649Z" fill="white"/>
<path d="M111.084 135.604L108.162 137.277L110.518 141.391L113.44 139.718L111.084 135.604Z" fill="white"/>
<path d="M68.7617 61.6729L65.8398 63.3462L68.1959 67.4601L71.1177 65.7868L68.7617 61.6729Z" fill="white"/>
<path d="M124.533 121.584L122.734 124.43L126.742 126.963L128.541 124.117L124.533 121.584Z" fill="white"/>
<path d="M52.5389 76.0847L50.7402 78.9311L54.7479 81.4637L56.5466 78.6173L52.5389 76.0847Z" fill="white"/>
<path d="M170.493 170.893L153.409 173.236L146.23 131.357L163.315 129.007C165.968 128.555 169.733 137.559 171.719 149.122C173.706 160.685 173.154 170.428 170.493 170.893Z" fill="white"/>
<path d="M153.834 174.88L146.008 129.681L163.086 127.331C169.295 126.266 172.979 146.516 173.375 148.832C173.772 151.149 177.072 171.459 170.776 172.543H170.722L153.834 174.88ZM149.921 132.549L156.595 171.103L170.063 169.251C171.12 168.139 171.988 160.778 170.063 149.405C168.136 138.031 164.824 131.351 163.463 130.684L149.921 132.549Z" fill="#0D0C10"/>
<path d="M155.731 166.975L148.876 167.479L85.9255 172.59L68.9286 166.88L43.6758 146.516L46.6051 143.068L48.8475 144.26L55.5816 139.647L73.8715 148.307L103.293 146.496L86.2756 131.944L95.03 130.071L132.674 141.532L143.906 137.99L150.553 136.57C152.471 141.368 153.842 146.367 154.64 151.473C155.01 153.606 155.314 155.681 155.489 157.647L155.785 161.829C155.86 163.544 155.842 165.262 155.731 166.975Z" fill="white"/>
<path d="M85.7176 174.301L68.108 168.381L41.2793 146.711L46.2019 140.913L48.7407 142.26L55.4748 137.681L74.236 146.57L99.0781 145.034L82.6334 130.973L95.1386 128.28L132.675 139.782L143.556 136.361L151.531 134.637L152.076 135.903C154.052 140.822 155.463 145.951 156.278 151.19C156.634 153.21 156.951 155.338 157.14 157.48L157.443 161.707C157.532 163.503 157.518 165.302 157.402 167.095L157.301 168.55L148.991 169.162L85.7176 174.301ZM69.7511 165.371L86.1351 170.874L148.762 165.789L154.149 165.391C154.183 164.301 154.149 163.13 154.149 161.883L153.854 157.755C153.652 155.735 153.369 153.715 153.032 151.741C152.282 147.231 151.102 142.802 149.509 138.516L144.324 139.62L132.675 143.297L94.9635 131.775L89.9736 132.846L107.563 147.863L73.5559 149.963L55.7508 141.546L48.9562 146.193L47.01 145.169L46.074 146.273L69.7511 165.371Z" fill="#0D0C10"/>
<path d="M86.289 162.038L70.8343 160.456L47.9316 145.641L49.7565 142.812L71.979 157.189L86.6324 158.684L86.289 162.038Z" fill="#0D0C10"/>
<path d="M150.54 136.57L143.895 137.99C144.11 134.098 144.911 131.58 146.231 131.357C147.55 131.135 149.059 133.135 150.54 136.57Z" fill="#0D0C10"/>
<path d="M148.877 167.479L155.733 166.975C155.477 170.651 154.688 173.034 153.409 173.236C152.129 173.439 150.419 171.243 148.877 167.479Z" fill="#0D0C10"/>
<path d="M145.571 138.085L142.203 137.896C142.492 132.758 143.712 130.077 145.941 129.695C148.169 129.311 150.116 131.345 152.076 135.91L148.985 137.257C147.867 134.664 146.965 133.546 146.533 133.176C146.23 133.668 145.738 135.068 145.571 138.085Z" fill="#0D0C10"/>
<path d="M153.193 174.94C151.119 174.94 149.193 172.698 147.32 168.119L150.432 166.839C151.779 170.166 152.869 171.324 153.253 171.553C153.354 171.553 153.389 171.512 153.389 171.506C153.389 171.5 153.765 171.062 153.94 168.57L157.307 168.806C157.065 172.307 156.392 174.422 153.705 174.866C153.537 174.908 153.366 174.934 153.193 174.94Z" fill="#0D0C10"/>
<path d="M161.905 132.913L155.891 134.25L157.228 140.265L163.243 138.927L161.905 132.913Z" fill="#0D0C10"/>
<path d="M23.1572 19.1068L40.4167 18.8441L42.4772 61.269L25.2379 61.5316C22.5443 61.6596 19.8978 52.2722 19.3255 40.5482C18.7531 28.8241 20.4568 19.2414 23.1572 19.1068Z" fill="white"/>
<path d="M25.1101 63.242C18.908 63.242 17.7431 42.9791 17.6285 40.6491C17.5141 38.3192 16.6924 17.7533 23.0697 17.4299H23.1303L40.1743 17.1741L42.4774 62.9659L25.2448 63.2286L25.1101 63.242ZM23.366 20.8172C22.1808 21.7937 20.4299 28.9857 20.9889 40.5145C21.5477 52.0432 24.0125 59.0736 25.2784 59.8952L38.9419 59.646L36.9756 20.5882L23.366 20.8172Z" fill="#0D0C10"/>
<path d="M37.3318 24.7837L44.2007 25.1069L95.6357 25.0193L113.346 36.0161L135.945 59.316L132.626 62.3869L128.848 61.8145L123.286 64.6967L106.181 53.9221L76.7802 52.1308L55.7967 53.4776L45.5811 54.9793L38.8134 55.6056C37.4888 50.6135 36.732 45.4878 36.5574 40.326C36.4496 38.1575 36.4227 36.07 36.4632 34.0902L36.672 29.9083C36.7983 28.1894 37.0186 26.4785 37.3318 24.7837Z" fill="white"/>
<path d="M123.206 66.636L105.65 55.545L76.7809 53.8211L55.9726 55.1679L45.7368 56.6628L37.5884 57.3901L37.1979 56.0433C35.8343 50.9289 35.0549 45.6764 34.8747 40.3864C34.7736 38.3259 34.7399 36.1911 34.7804 34.0362L34.9891 29.8005C35.1144 28.0115 35.3393 26.2311 35.6625 24.4671L35.9386 23.0327L44.2215 23.4232L96.1213 23.3357L114.411 34.7299L138.357 59.4171L132.061 65.2353L128.883 63.6864L123.206 66.636ZM76.7406 50.4741L106.714 52.2385L123.367 62.7639L128.815 59.9423L131.448 61.1949L133.542 59.2554L112.283 37.3359L95.1784 26.7029L44.161 26.7903L38.74 26.5344C38.5784 27.6119 38.4504 28.7836 38.3494 30.0227L38.1474 34.1574C38.107 36.1777 38.1474 38.1979 38.2417 40.2181C38.4166 44.789 39.0277 49.3327 40.0666 53.7874L45.3866 53.3092L55.6628 51.7941L76.7406 50.4741Z" fill="#0D0C10"/>
<path d="M38.8145 55.6056L45.5823 54.9995C44.9088 58.8448 43.8044 61.2421 42.4576 61.3094C41.1108 61.3767 39.8651 59.1747 38.8145 55.6056Z" fill="#0D0C10"/>
<path d="M44.2008 25.1071L37.332 24.7839C38.0054 21.1676 39.0964 18.9117 40.3961 18.8444C41.6957 18.7769 43.11 21.181 44.2008 25.1071Z" fill="#0D0C10"/>
<path d="M42.3825 62.9728C40.2613 62.9728 38.5576 60.7101 37.1973 56.0636L40.4162 55.1141C41.2108 57.8077 41.965 59.04 42.3623 59.4643C42.726 58.9929 43.3859 57.6393 43.9113 54.6831L47.2244 55.2824C46.322 60.3465 44.7866 62.865 42.5105 62.9728H42.3825Z" fill="#0D0C10"/>
<path d="M42.5792 25.5513C41.6297 22.09 40.7072 20.8374 40.3502 20.5344H40.2088C40.2088 20.5344 39.7778 20.9384 39.3065 23.3829L36 22.7432C36.6734 19.302 37.5825 17.2818 40.3099 17.1337C42.6129 17.0192 44.4109 19.4704 45.825 24.6354L42.5792 25.5513Z" fill="#0D0C10"/>
<path d="M27.0857 57.8517L33.2181 57.2504L32.6167 51.1182L26.4844 51.7194L27.0857 57.8517Z" fill="#0D0C10"/>
<path d="M127.684 63.0333L109.4 45.5852L90.875 37.5516L92.215 34.4673L111.293 42.7367L130.007 60.5955L127.684 63.0333Z" fill="#0D0C10"/>
<path d="M87.9609 104.044V74.2861H91.328V99.0137L121.066 86.7509L122.345 89.8621L87.9609 104.044Z" fill="#0D0C10"/>
</svg>
