<svg width="113" height="113" viewBox="0 0 113 113" fill="none" xmlns="http://www.w3.org/2000/svg">
<g clip-path="url(#clip0_6_9334)">
<path d="M91.7629 31.4032L35.3507 14.3678L31.5231 14.1012L19.2563 67.3354L22.8883 68.0318L75.3653 82.3698L91.7629 31.4032Z" fill="white"/>
<path d="M72.1016 25.4653L68.2866 39.703L87.2353 45.8071L91.7616 31.4029L72.1016 25.4653Z" fill="#FF8686"/>
<path d="M35.3507 14.3678L31.5231 14.1012L19.2563 67.3354L22.8883 68.0318L35.3507 14.3678Z" fill="#0D0C10"/>
<path d="M18.3877 67.8978L18.5554 67.1719L30.9565 13.3482L35.4757 13.6663L35.5535 13.6871L92.6677 30.9344L75.8369 83.2525L22.7343 68.738L18.3877 67.8978ZM23.0516 67.3314L23.0766 67.3381L74.8948 81.4907L90.8668 31.8804L35.2447 15.0836L32.0838 14.8617L20.1243 66.7706L23.0516 67.3314Z" fill="#0D0C10"/>
<path d="M32.2234 27.7605L31.7924 29.1319L87.018 46.4914L87.4495 45.1203L32.2234 27.7605Z" fill="#0D0C10"/>
<path d="M72.7968 25.6514L71.4082 25.2793L67.6565 39.2809L69.045 39.653L72.7968 25.6514Z" fill="#0D0C10"/>
<path d="M97.4389 37.9843L41.0265 20.9489L37.1989 20.6823L24.9319 73.9167L28.564 74.6131L81.0436 88.9517L97.4389 37.9843Z" fill="white"/>
<path d="M77.7793 32.0465L73.9643 46.2841L92.9133 52.3883L97.4396 37.9841L77.7793 32.0465Z" fill="#FF8686"/>
<path d="M41.0265 20.9489L37.1989 20.6823L24.9319 73.9167L28.564 74.6131L41.0265 20.9489Z" fill="#0D0C10"/>
<path d="M24.0655 74.4785L24.2332 73.7525L36.6342 19.9293L41.1534 20.2473L41.2312 20.2681L98.3457 37.5155L81.5143 89.8331L28.4121 75.3186L24.0655 74.4785ZM28.7293 73.9127L28.7542 73.9194L80.5727 88.0721L96.5442 38.4615L40.9224 21.6647L37.7615 21.4427L25.802 73.3519L28.7293 73.9127Z" fill="#0D0C10"/>
<path d="M37.8992 34.3411L37.4681 35.7124L92.6941 53.0721L93.1251 51.7008L37.8992 34.3411Z" fill="#0D0C10"/>
<path d="M78.4744 32.2324L77.0859 31.8604L73.3342 45.8619L74.7227 46.234L78.4744 32.2324Z" fill="#0D0C10"/>
<path d="M58.0193 49.9644L40.1133 45.1665L39.7412 46.555L57.6473 51.3529L58.0193 49.9644Z" fill="#0D0C10"/>
<path d="M37.7262 54.1099L37.337 55.4937L55.185 60.5139L55.5742 59.1301L37.7262 54.1099Z" fill="#0D0C10"/>
<path d="M53.12 68.1697L35.1177 63.7346L34.7739 65.1304L52.7761 69.5655L53.12 68.1697Z" fill="#0D0C10"/>
<path d="M83.672 45.388C85.867 45.9762 88.1228 44.6737 88.7108 42.479C89.2989 40.2843 87.9966 38.0284 85.8016 37.4403C83.6072 36.8523 81.3514 38.1547 80.7633 40.3495C80.1753 42.5441 81.4776 44.8 83.672 45.388Z" fill="white"/>
<path d="M83.4865 46.0797C82.5635 45.8324 81.734 45.3166 81.1037 44.5978C80.4734 43.879 80.071 42.9896 79.9459 42.0417C79.8214 41.0939 79.9806 40.1304 80.4039 39.2732C80.8267 38.4159 81.4944 37.7033 82.3222 37.2255C83.1506 36.7479 84.1014 36.5264 85.0554 36.5893C86.0094 36.6522 86.923 36.9965 87.6813 37.5788C88.4396 38.1611 89.0079 38.9552 89.3145 39.8605C89.6218 40.766 89.653 41.742 89.405 42.6652C89.0711 43.9017 88.2611 44.9556 87.1517 45.5956C86.0424 46.2357 84.7245 46.4098 83.4865 46.0797ZM85.6161 38.1319C84.968 37.9583 84.2826 37.9807 83.6463 38.1963C83.0107 38.4121 82.4535 38.8116 82.0441 39.3441C81.6353 39.8767 81.3935 40.5185 81.3499 41.1885C81.3056 41.8585 81.4612 42.5265 81.7963 43.108C82.1319 43.6896 82.6323 44.1587 83.2345 44.456C83.8362 44.7533 84.5129 44.8654 85.1788 44.7782C85.8442 44.6909 86.4692 44.4083 86.9744 43.966C87.4796 43.5238 87.842 42.9415 88.0163 42.2931C88.2481 41.4235 88.1254 40.4974 87.6752 39.7179C87.2255 38.9386 86.4847 38.3692 85.6154 38.1347L85.6161 38.1319Z" fill="#0D0C10"/>
<path d="M87.4743 44.5177L86.2818 45.3209L89.3407 49.8606L90.5331 49.0575L87.4743 44.5177Z" fill="#0D0C10"/>
<path d="M80.3275 34.521L78.9395 34.1491L76.7779 42.2162L78.1659 42.5882L80.3275 34.521Z" fill="white"/>
<path d="M74.327 89.4611L71.8151 95.4044C71.325 96.6008 67.0444 95.9808 62.2506 94.0322C57.4567 92.0841 53.9726 89.5136 54.46 88.3165L57.206 82.4448L74.327 89.4611Z" fill="white"/>
<path d="M66.1232 96.0966C64.7118 95.712 63.3249 95.2407 61.971 94.6868C58.5025 93.2692 52.8742 90.2701 53.787 88.0295L53.7961 87.9957L56.8399 81.5015L75.2634 89.0662L72.4682 95.6778C71.8647 97.153 69.0006 96.8676 66.1232 96.0966ZM55.1254 88.5665C55.1592 89.2067 57.6918 91.3851 62.5142 93.3586C67.3368 95.3328 70.6869 95.5485 71.1458 95.1152L73.3709 89.8538L57.5506 83.3588L55.1254 88.5665Z" fill="#0D0C10"/>
<path d="M85.0956 67.5448L73.336 87.0616L71.986 89.3134C70.2374 89.1065 67.789 88.4479 65.1717 87.4189C63.1461 86.6514 61.2047 85.6785 59.3777 84.5152L60.0114 81.6613L62.7463 69.3663L60.0894 53.7338L64.3607 55.3546L67.0681 63.2233L76.8374 45.5243L79.831 46.3264L75.3345 60.6523L78.2638 58.6066L85.0956 67.5448Z" fill="white"/>
<path d="M68.9279 89.4257C67.563 89.0549 66.2202 88.6087 64.9048 88.0887C62.8321 87.3015 60.8456 86.3032 58.9765 85.1102L58.5675 84.8368L62.0047 69.3434L59.157 52.6121L64.9204 54.7964L67.2088 61.4516L76.4664 44.6751L80.7289 45.8172L76.644 58.8395L78.3958 57.6124L85.9634 67.4918L72.3573 90.0798L71.8958 90.0248C70.894 89.8941 69.9019 89.6937 68.9279 89.4257ZM60.1831 84.1839C61.8515 85.1954 63.6072 86.0557 65.4297 86.753C67.4212 87.5628 69.4926 88.1617 71.6091 88.5402L72.7166 86.6939L84.2246 67.5944L78.0909 59.5844L74.0039 62.4508L78.9065 46.82L77.1848 46.3587L66.8969 64.9813L63.7727 55.9026L60.9868 54.8585L63.4593 69.3909L60.1831 84.1839Z" fill="#0D0C10"/>
<path d="M79.3143 60.8403L76.402 64.2019L77.4884 65.143L80.4007 61.7814L79.3143 60.8403Z" fill="#0D0C10"/>
<path d="M82.2234 64.1578L79.5394 67.4372L80.6518 68.3476L83.3357 65.0683L82.2234 64.1578Z" fill="#0D0C10"/>
<path d="M60.0081 81.6604L59.3744 84.5143C57.893 83.5224 57.0767 82.637 57.2917 82.0901C57.4876 81.592 58.5009 81.4648 60.0081 81.6604Z" fill="#0D0C10"/>
<path d="M74.5661 88.8704C74.3764 89.3555 73.4158 89.488 71.9833 89.3125L73.3364 87.0615C74.2679 87.7962 74.7379 88.4402 74.5661 88.8704Z" fill="#0D0C10"/>
<path d="M59.1883 85.2086C59.1131 85.1872 59.0415 85.1553 58.9758 85.1129C57.0338 83.8185 56.2625 82.7426 56.6237 81.8278C56.9596 80.9743 58.0963 80.6864 60.101 80.9468C60.1997 80.9605 60.2945 80.9942 60.3795 81.0461C60.4644 81.0981 60.5379 81.1667 60.595 81.2487C60.6522 81.33 60.692 81.4226 60.7119 81.52C60.7318 81.6174 60.7313 81.7182 60.7106 81.8155L60.0768 84.6694C60.0551 84.764 60.0146 84.8534 59.9579 84.9316C59.9011 85.0103 59.8292 85.0768 59.7463 85.127C59.6635 85.1771 59.5714 85.2103 59.4757 85.224C59.3797 85.2383 59.282 85.233 59.1883 85.2086ZM58.0239 82.3783C58.2645 82.731 58.5646 83.0394 58.9109 83.289L59.1284 82.2996C58.7585 82.2652 58.3852 82.2922 58.0239 82.3783Z" fill="#0D0C10"/>
<path d="M71.8005 90.0075C71.6925 89.9792 71.5924 89.9264 71.5085 89.8531C71.4248 89.7792 71.3587 89.6872 71.3173 89.5834C71.2751 89.4801 71.2575 89.368 71.267 89.2569C71.2758 89.1456 71.3105 89.0375 71.3691 88.942L72.722 86.6916C72.7752 86.6043 72.8461 86.5293 72.9301 86.4718C73.0143 86.4137 73.1098 86.3746 73.2107 86.3559C73.3109 86.3376 73.414 86.3412 73.5136 86.3653C73.6124 86.3899 73.7053 86.4344 73.7862 86.4974C74.2547 86.8699 75.6877 87.9981 75.2405 89.1342C74.9126 89.969 73.8195 90.2596 71.8999 90.0253C71.8664 90.022 71.8331 90.0163 71.8005 90.0075ZM73.5098 88.1733L73.2141 88.6655C73.423 88.6656 73.6306 88.6374 73.8316 88.5815C73.7392 88.4335 73.6299 88.2963 73.5069 88.1725L73.5098 88.1733Z" fill="#0D0C10"/>
<path d="M57.6012 89.0541C58.4094 89.2707 59.2402 88.791 59.4568 87.9829C59.6733 87.1749 59.1936 86.3441 58.3854 86.1275C57.5771 85.9109 56.7463 86.3906 56.5298 87.1987C56.3133 88.0067 56.7929 88.8375 57.6012 89.0541Z" fill="#0D0C10"/>
</g>
<defs>
<clipPath id="clip0_6_9334">
<rect width="92" height="92" fill="white" transform="translate(23.8105) rotate(15)"/>
</clipPath>
</defs>
</svg>
