<svg width="16" height="12" viewBox="0 0 16 12" fill="none" xmlns="http://www.w3.org/2000/svg">
<path d="M8.1785 0.166016C8.56794 0.168159 9.54233 0.17758 10.5776 0.219048L10.9447 0.235053C11.987 0.284403 13.0285 0.368709 13.545 0.512734C14.234 0.706292 14.7756 1.27107 14.9586 1.98698C15.25 3.12381 15.2865 5.34266 15.291 5.87962L15.2917 5.99089V5.99869C15.2917 5.99869 15.2917 6.00139 15.2917 6.00657L15.291 6.11784C15.2865 6.6548 15.25 8.87365 14.9586 10.0105C14.773 10.729 14.2315 11.2938 13.545 11.4847C13.0285 11.6287 11.987 11.713 10.9447 11.7624L10.5776 11.7784C9.54233 11.8198 8.56794 11.8293 8.1785 11.8314L8.00758 11.832H7.99999C7.99999 11.832 7.99744 11.832 7.99241 11.832L7.82164 11.8314C6.99739 11.8269 3.55107 11.7897 2.45498 11.4847C1.76598 11.2911 1.22445 10.7264 1.04139 10.0105C0.749963 8.87365 0.713534 6.6548 0.708984 6.11784V5.87962C0.713534 5.34266 0.749963 3.12381 1.04139 1.98698C1.22698 1.26841 1.76852 0.703645 2.45498 0.512734C3.55107 0.207746 6.99739 0.170551 7.82164 0.166016H8.1785ZM6.54167 3.44664V8.55078L10.9167 5.99869L6.54167 3.44664Z" fill="#C8C6D3"/>
</svg>
